<svg version="1.1" id="_-s-组_5_拷贝" xmlns="http://www.w3.org/2000/svg" x="0" y="0" viewBox="0 0 167 32" style="enable-background:new 0 0 167 32" xml:space="preserve"><style>.st0{fill:#01b5ab}.st1{fill:#6e45b7}</style><path id="形状_1_拷贝_4" class="st0" d="m106.2 8.3-.5 3.1H92.9c-.9 0-1.7.7-1.9 1.6l-.3 1.6H102l-.5 3.1H90.2l-1.4 8h-3.1L88 13c.5-2.7 2.8-4.6 5.5-4.7h12.7zm-1.9 17.5 3.1-17.4h3.1l-3.1 17.4h-3.1zm24.8-17.4L126 25.8l-2.7-2.4-9.7-8.6-1.9 11h-3.1l3.1-17.4 2.7 2.4 9.7 8.6 2-11.1 3 .1zm3.5 4.6-.3 1.6h11.2l-.5 3.1h-11.2l-.6 3.3c-.2.7.3 1.4 1 1.6h13l-.5 3.1H132c-2.1.1-3.9-1.6-3.9-3.7 0-.3 0-.7.1-1l1.4-8c.5-2.7 2.8-4.6 5.5-4.7h12.7l-.5 3.1h-12.7c-1 .1-1.8.7-2 1.6zm33.2-4.6-8.3 8.7 5.2 8.7h-3.9l-3.7-6.1-5.8 6.1h-3.9l8.2-8.7-5.2-8.7h3.9l3.7 6.2 5.9-6.2h3.9"/><path id="形状_1_拷贝_3" class="st1" d="M51.3 8.4c4.8 0 8 3.9 7.1 8.7-.4 2.1-1.5 4.1-3 5.6-.2.2-.4.3-.6.5-1.8 1.6-4.1 2.5-6.5 2.6h-8.6l3-17.4h8.6zm-8.1 14.3h5.6c3.2-.1 5.9-2.4 6.5-5.6.6-2.5-1-4.9-3.4-5.5-.4-.1-.8-.1-1.2-.1h-5.6l-1.9 11.2zm14.9 3.1 3-17.4h3.1l-3 17.4h-3.1zm9-8.7c-.6 2.5 1 4.9 3.4 5.5.4.1.8.1 1.2.1h5.6l.6-3.3h-5.6l.5-3.1h8.6l-1.7 9.6h-8.6c-4.8 0-8-3.9-7.1-8.7 1-4.9 5.2-8.5 10.2-8.7h8.6l-.5 3.1h-8.6c-3.3 0-6 2.3-6.6 5.5z"/><path class="st1" d="m81.4 25.8 3-17.5h3.1l-3 17.5h-3.1z"/><g id="组_233"><path id="形状_1_拷贝_2" class="st1" d="M34.2 12.6c0 1.4-.2 2.8-.4 4.2-1.8 9.6-7.3 14.4-16.4 14.4h-5.8v-.1l1.4-6.6h4c4.9 0 7.9-2.8 8.9-8.5.1-.4.1-.7.2-1.1l7.9-4.6c.1.7.2 1.5.2 2.3zm-2.9-8.3-7.1 4.1c-1.2-.7-2.6-1.1-4-1H8.7v-.2L10.1.8H22c1.5 0 3 .2 4.5.6 1.7.5 3.2 1.3 4.5 2.5.1.1.2.2.3.4z"/><path id="形状_1_拷贝" class="st0" d="m20 13.1-1 6.6h-5L11.6 31v.1H.8l4.1-5.5 2.7-12.5H20z"/></g></svg>