<svg width="241" height="240" viewBox="0 0 241 240" fill="none" xmlns="http://www.w3.org/2000/svg">
    <path
        d="M219.065 203.873L171.826 176.952L185.396 169.103C186.863 168.297 187.597 166.756 187.597 165.289C187.597 163.822 186.863 162.355 185.396 161.475L112.337 119.297C109.183 117.463 105.222 117.463 102.067 119.297L28.9345 161.475C27.4674 162.282 26.7339 163.822 26.7339 165.289C26.7339 166.756 27.4674 168.223 28.9345 169.103L49.4733 180.913L102.067 211.281C105.222 213.115 109.183 213.115 112.337 211.281L131.482 200.205L178.721 227.126C180.702 228.299 183.709 228.373 185.47 227.419L217.818 208.714L219.652 207.687C220.459 207.247 220.826 206.66 220.826 206C220.679 205.266 220.166 204.533 219.065 203.873Z"
        fill="black" />
    <path
        d="M190.907 126.72C190.907 128.228 190.153 129.811 188.646 130.64L167.537 142.778L113.485 173.988C110.244 175.872 106.173 175.872 102.931 173.988L48.8791 142.778L27.7709 130.64C26.2631 129.811 25.5093 128.228 25.5093 126.72C25.5093 125.213 26.2631 123.705 27.7709 122.8L102.856 79.453C106.097 77.5684 110.168 77.5684 113.41 79.453L188.495 122.8C190.153 123.63 190.907 125.213 190.907 126.72Z"
        fill="#99FFF2" stroke="black" stroke-width="0.672" stroke-miterlimit="10"
        stroke-linecap="round" stroke-linejoin="round" />
    <path
        d="M178.093 117.192V125.995C178.093 127.432 177.375 128.87 175.937 129.679L115.191 164.725C111.237 166.971 106.384 166.971 102.43 164.725L41.6845 129.679C40.2467 128.87 39.5278 127.432 39.5278 125.995V117.192C39.5278 118.63 40.2467 120.067 41.6845 120.876L102.43 155.922C106.384 158.168 111.237 158.168 115.191 155.922L175.937 120.876C177.375 120.067 178.004 118.63 178.093 117.192Z"
        fill="#DCDCDC" stroke="black" stroke-width="0.672" stroke-miterlimit="10"
        stroke-linecap="round" stroke-linejoin="round" />
    <path
        d="M178.004 117.192C178.004 118.63 177.285 120.067 175.937 120.876L115.191 155.922C111.237 158.168 106.384 158.168 102.43 155.922L41.6845 120.876C40.2467 120.067 39.5278 118.63 39.5278 117.192C39.5278 115.754 40.2467 114.316 41.6845 113.508L102.43 78.4617C106.384 76.2152 111.237 76.2152 115.191 78.4617L175.937 113.508C177.374 114.316 178.004 115.754 178.004 117.192Z"
        fill="white" stroke="black" stroke-width="0.672" stroke-miterlimit="10"
        stroke-linecap="round" stroke-linejoin="round" />
    <path
        d="M49.6558 132.094C50.5235 131.725 50.707 130.204 50.0657 128.697C49.4243 127.19 48.201 126.267 47.3333 126.637C46.4656 127.006 46.2821 128.527 46.9235 130.034C47.5648 131.541 48.7881 132.463 49.6558 132.094Z"
        fill="black" />
    <path
        d="M58.105 136.927C58.9727 136.557 59.1562 135.036 58.5149 133.529C57.8736 132.022 56.6502 131.1 55.7825 131.469C54.9148 131.838 54.7313 133.359 55.3727 134.866C56.014 136.374 57.2373 137.296 58.105 136.927Z"
        fill="black" />
    <path
        d="M66.4664 141.796C67.3341 141.427 67.5176 139.905 66.8762 138.398C66.2349 136.891 65.0116 135.969 64.1439 136.338C63.2762 136.707 63.0927 138.229 63.734 139.736C64.3754 141.243 65.5987 142.165 66.4664 141.796Z"
        fill="black" />
    <path
        d="M145.028 124.562C143.254 127.796 140.124 130.822 135.638 133.43C120.822 141.985 96.7216 141.985 81.802 133.43C77.3157 130.822 74.1858 127.796 72.4121 124.562C68.2388 116.945 71.3688 108.39 81.802 102.339C96.6173 93.7835 120.718 93.7835 135.638 102.339C146.175 108.39 149.201 116.945 145.028 124.562Z"
        fill="#DCDCDC" stroke="black" stroke-width="0.672" stroke-miterlimit="10"
        stroke-linecap="round" stroke-linejoin="round" />
    <path
        d="M145.029 124.562C143.256 127.796 140.126 130.822 135.639 133.43C120.824 141.986 96.7231 141.986 81.8035 133.43C77.3172 130.822 74.1872 127.796 72.4136 124.562C74.1872 121.328 77.3172 118.302 81.8035 115.694C96.6188 107.139 120.72 107.139 135.639 115.694C140.23 118.198 143.256 121.328 145.029 124.562Z"
        fill="black" stroke="black" stroke-width="0.672" stroke-miterlimit="10"
        stroke-linecap="round" stroke-linejoin="round" />
    <path
        d="M190.906 126.721V149.904C190.906 151.412 190.152 152.919 188.644 153.824L113.559 197.171C110.318 199.056 106.247 199.056 103.005 197.171L27.9203 153.824C26.4126 152.919 25.6587 151.412 25.6587 149.904V126.721C25.6587 128.228 26.4126 129.736 27.9203 130.641L49.0285 142.778L103.081 173.988C106.322 175.873 110.393 175.873 113.635 173.988L167.687 142.778L188.795 130.641C190.152 129.736 190.906 128.228 190.906 126.721Z"
        fill="#DCDCDC" stroke="black" stroke-width="0.672" stroke-miterlimit="10"
        stroke-linecap="round" stroke-linejoin="round" />
    <path
        d="M174.623 158.581L128.109 185.343C127.205 185.871 126.074 185.193 126.074 184.137V173.31C126.074 172.029 126.752 170.822 127.883 170.144L174.396 143.382C175.301 142.854 176.432 143.532 176.432 144.588V155.49C176.432 156.772 175.753 157.978 174.623 158.581Z"
        fill="black" stroke="#FFF8F8" stroke-width="0.672" stroke-miterlimit="10"
        stroke-linecap="round" stroke-linejoin="round" />
    <path
        d="M224.853 184.548C224.853 185.226 224.476 185.83 223.647 186.282L221.762 187.337L188.517 206.561C186.783 207.616 183.692 207.465 181.581 206.259L134.691 179.196L133.334 178.442C132.203 177.763 131.675 176.934 131.675 176.18C131.675 175.502 132.052 174.898 132.881 174.446L167.936 154.167C169.745 153.112 172.836 153.263 174.872 154.469L223.119 182.362C224.25 182.965 224.853 183.794 224.853 184.548Z"
        fill="white" stroke="black" stroke-width="0.672" stroke-miterlimit="10"
        stroke-linecap="round" stroke-linejoin="round" />
    <g clip-path="url(#clip0_2521_39615)">
        <path
            d="M201.974 179.88C202.2 180.295 202.276 180.747 202.276 181.162C202.276 181.501 202.2 181.84 202.087 182.18C201.899 182.67 201.56 183.122 201.107 183.574C200.843 183.838 200.542 184.102 200.165 184.328C197.64 186.1 194.699 186.74 191.345 186.288C191.081 186.25 190.779 186.213 190.478 186.137C190.629 186.25 190.742 186.401 190.855 186.514C191.759 187.457 192.249 188.399 192.325 189.304V189.831C192.325 189.944 192.287 190.02 192.287 190.133C192.174 190.547 191.986 191 191.646 191.414C191.496 191.565 191.345 191.754 191.156 191.904C190.44 192.583 189.422 193.224 188.103 193.864C186.822 194.468 185.502 194.92 184.183 195.184C182.864 195.448 181.582 195.561 180.376 195.523C179.132 195.485 177.851 195.297 176.494 194.958C175.137 194.618 173.855 194.204 172.611 193.714C171.518 193.261 170.312 192.696 169.068 192.055C168.804 191.904 168.465 191.904 168.201 192.055L164.13 194.392L162.736 195.184C162.472 195.334 162.095 195.334 161.831 195.184L159.833 194.015C159.23 193.676 159.23 192.771 159.833 192.432L161.718 191.339L163.376 190.397C163.979 190.057 163.979 189.153 163.376 188.814C162.924 188.55 162.547 188.324 162.208 188.097C161.906 187.909 161.567 187.909 161.266 188.097L157.383 190.321L155.913 191.188C155.649 191.339 155.272 191.339 155.008 191.188L152.86 190.17C152.257 189.831 152.257 188.927 152.86 188.587L153.463 188.248L156.479 186.514C157.082 186.175 157.082 185.27 156.479 184.931C156.139 184.743 155.725 184.479 155.31 184.253C154.142 183.574 152.785 182.783 151.767 182.217C151.126 181.84 151.164 180.86 151.88 180.596L155.084 179.277C155.348 179.164 155.649 179.202 155.875 179.315L158.25 180.672C159.079 181.124 159.946 181.162 160.889 180.785C160.926 180.785 160.964 180.747 161.039 180.709L175.438 172.379L178.152 170.796C178.529 170.457 178.755 170.118 178.718 169.816C178.718 169.402 178.341 168.987 177.624 168.572L176.23 167.743C175.627 167.404 175.627 166.499 176.23 166.16L178.491 164.841C178.793 164.69 179.132 164.69 179.396 164.841C180.753 165.632 184.786 167.969 186.181 168.761C186.445 168.911 186.822 168.911 187.085 168.761L192.438 165.67C192.702 165.519 193.079 165.519 193.343 165.67L195.34 166.838C195.943 167.178 195.943 168.082 195.34 168.421L190.553 171.173C190.742 171.286 190.968 171.399 191.156 171.512C191.986 171.965 192.664 172.342 193.192 172.643C193.493 172.794 193.833 172.794 194.096 172.643L195.34 171.927L196.735 171.135L199.298 169.628C199.6 169.477 199.939 169.477 200.203 169.628L202.2 170.796C202.804 171.135 202.804 172.04 202.2 172.379L197.3 175.206C197.489 175.319 197.64 175.432 197.828 175.583C198.77 176.262 199.6 176.94 200.24 177.543C200.467 177.769 200.693 177.996 200.881 178.222C201.371 178.825 201.748 179.353 201.974 179.88Z"
            fill="black" />
        <path
            d="M178.754 155.68C178.754 156.019 178.565 156.321 178.188 156.66L175.474 158.243L174.909 157.904V152.815L177.66 154.399C178.377 154.813 178.716 155.228 178.754 155.68Z"
            fill="#F5BC41" />
        <path
            d="M157.834 171.511L153.461 174.074C151.728 173.094 150.182 172.152 150.182 172.152V167.063C150.182 167.063 153.085 168.76 155.308 170.041C156.665 170.833 157.758 171.474 157.834 171.511Z"
            fill="#F5BC41" />
        <path d="M155.346 177.391V182.48L151.501 180.294V175.205L155.346 177.391Z" fill="#F5BC41" />
        <path d="M162.206 181.387V186.475L158.362 184.252V179.163L159.756 179.955L162.206 181.387Z"
            fill="#F5BC41" />
        <path
            d="M192.775 164.953C192.813 165.292 192.7 165.631 192.474 166.008C192.248 166.385 191.871 166.724 191.343 167.026C191.117 167.177 190.853 167.29 190.627 167.365C190.439 167.214 190.212 167.063 189.986 166.913C189.421 166.536 188.968 166.234 188.592 166.046C188.215 165.857 187.762 165.593 187.235 165.292C186.707 164.99 186.368 164.802 186.255 164.726L186.179 159.676L186.255 159.638C186.33 159.676 186.481 159.789 186.745 159.939C186.895 160.015 187.046 160.09 187.235 160.203C187.8 160.505 188.252 160.769 188.592 160.957C188.968 161.146 189.421 161.447 189.986 161.824C190.552 162.201 191.004 162.54 191.305 162.842C191.645 163.143 191.946 163.483 192.248 163.86C192.587 164.274 192.738 164.651 192.775 164.953Z"
            fill="#F5BC41" />
        <path
            d="M186.217 164.764L183.126 166.536C182.749 166.385 182.334 166.197 181.882 165.933C181.317 165.631 180.864 165.405 180.601 165.254C180.299 165.103 179.922 164.877 179.432 164.576C178.942 164.274 178.678 164.123 178.603 164.086L186.179 159.713L186.217 164.764Z"
            fill="#F5BC41" />
        <path
            d="M174.758 166.272V171.36L170.838 173.622C170.536 173.471 170.197 173.283 169.82 173.094C169.217 172.793 168.765 172.529 168.463 172.341C168.162 172.152 167.747 171.926 167.295 171.624C166.805 171.323 166.541 171.172 166.39 171.097L174.758 166.272Z"
            fill="#F5BC41" />
        <path
            d="M182.448 173.773C182.221 174.187 181.807 174.564 181.241 174.904C181.091 174.979 180.94 175.054 180.789 175.13C180.412 174.791 179.884 174.414 179.244 173.999C178.565 173.547 178 173.207 177.585 172.981C177.17 172.755 176.643 172.416 175.964 172.077C175.286 171.7 174.909 171.474 174.758 171.398V166.272C174.909 166.347 175.286 166.573 175.964 166.95C176.643 167.327 177.17 167.629 177.585 167.855C178 168.081 178.49 168.42 179.131 168.835C179.168 168.873 179.206 168.873 179.244 168.91C179.922 169.363 180.45 169.777 180.864 170.117C181.166 170.343 181.43 170.644 181.694 170.946C181.807 171.059 181.92 171.21 182.033 171.323C182.41 171.775 182.636 172.19 182.711 172.567C182.749 172.944 182.674 173.358 182.448 173.773Z"
            fill="#F5BC41" />
        <path
            d="M203.631 157.452V162.54L200.917 164.086C200.729 163.86 200.503 163.633 200.276 163.407C199.636 162.766 198.844 162.126 197.864 161.447C197.713 161.334 197.525 161.221 197.336 161.07L203.631 157.452Z"
            fill="#F5BC41" />
        <path
            d="M196.771 153.494V156.999L195.376 157.791L193.68 158.771C193.115 158.432 192.285 157.979 191.192 157.376C191.004 157.263 190.815 157.15 190.627 157.037L196.771 153.494Z"
            fill="#F5BC41" />
        <path
            d="M202.312 166.95V172.039C202.312 172.378 202.236 172.717 202.123 173.057C201.822 173.811 201.181 174.527 200.201 175.243C197.939 176.826 195.339 177.542 192.361 177.316V175.168C192.323 174.263 191.833 173.358 190.891 172.378C190.778 172.265 190.627 172.114 190.514 172.001C190.815 172.039 191.079 172.114 191.381 172.152C194.773 172.604 197.713 171.964 200.201 170.192C200.578 169.928 200.88 169.664 201.143 169.438C201.633 168.986 201.935 168.534 202.123 168.044C202.236 167.629 202.312 167.29 202.312 166.95Z"
            fill="#F5BC41" />
        <path
            d="M192.323 175.658V180.746C192.323 180.859 192.285 180.935 192.285 181.048C191.984 182.329 190.589 183.573 188.064 184.779C186.782 185.382 185.463 185.835 184.144 186.099C182.824 186.362 181.543 186.475 180.299 186.438C179.055 186.4 177.774 186.212 176.417 185.872C175.06 185.533 173.778 185.119 172.534 184.629C171.29 184.139 169.971 183.498 168.539 182.744L162.206 186.4V181.387L164.053 180.331L168.539 177.731C169.971 178.485 171.29 179.125 172.534 179.615C173.778 180.105 175.06 180.52 176.417 180.859C177.774 181.198 179.055 181.387 180.299 181.425C181.543 181.462 182.787 181.349 184.144 181.085C185.463 180.822 186.782 180.369 188.064 179.766C189.383 179.125 190.401 178.485 191.117 177.806C191.305 177.655 191.456 177.467 191.607 177.316C191.946 176.901 192.172 176.487 192.248 176.034C192.285 175.884 192.323 175.771 192.323 175.658Z"
            fill="#F5BC41" />
        <path
            d="M164.619 175.544L161.603 177.278L158.362 179.163V180.746L155.308 182.518V177.391L157.268 176.261L161.603 173.773C162.282 174.187 163.299 174.791 164.619 175.544Z"
            fill="#F5BC41" />
        <path
            d="M162.206 181.387V186.475L158.362 184.252V179.163M162.206 181.387L159.756 179.955L158.362 179.163M162.206 181.387V186.4L168.539 182.744C169.971 183.498 171.29 184.139 172.534 184.629C173.778 185.119 175.06 185.533 176.417 185.872C177.774 186.212 179.055 186.4 180.299 186.438C181.543 186.475 182.824 186.362 184.144 186.099C185.463 185.835 186.782 185.382 188.064 184.779C190.589 183.573 191.984 182.329 192.285 181.048C192.285 180.935 192.323 180.859 192.323 180.746V175.658C192.323 175.771 192.285 175.884 192.248 176.034C192.172 176.487 191.946 176.901 191.607 177.316C191.456 177.467 191.305 177.655 191.117 177.806C190.401 178.485 189.383 179.125 188.064 179.766C186.782 180.369 185.463 180.822 184.144 181.085C182.787 181.349 181.543 181.462 180.299 181.425C179.055 181.387 177.774 181.198 176.417 180.859C175.06 180.52 173.778 180.105 172.534 179.615C171.29 179.125 169.971 178.485 168.539 177.731L164.053 180.331L162.206 181.387ZM158.362 179.163L161.603 177.278L164.619 175.544C163.299 174.791 162.282 174.187 161.603 173.773L157.268 176.261L155.308 177.391V182.518L158.362 180.746V179.163ZM174.758 166.272V171.36L170.838 173.622C170.536 173.471 170.197 173.283 169.82 173.094C169.217 172.793 168.765 172.529 168.463 172.341C168.162 172.152 167.747 171.926 167.295 171.624C166.805 171.323 166.541 171.172 166.39 171.097L174.758 166.272ZM174.758 166.272V171.398C174.909 171.474 175.286 171.7 175.964 172.077C176.643 172.416 177.17 172.755 177.585 172.981C178 173.207 178.565 173.547 179.244 173.999C179.884 174.414 180.412 174.791 180.789 175.13C180.94 175.054 181.091 174.979 181.241 174.904C181.807 174.564 182.221 174.187 182.448 173.773C182.674 173.358 182.749 172.944 182.711 172.567C182.636 172.19 182.41 171.775 182.033 171.323C181.92 171.21 181.807 171.059 181.694 170.946C181.43 170.644 181.166 170.343 180.864 170.117C180.45 169.777 179.922 169.363 179.244 168.91C179.206 168.873 179.168 168.873 179.131 168.835C178.49 168.42 178 168.081 177.585 167.855C177.17 167.629 176.643 167.327 175.964 166.95C175.286 166.573 174.909 166.347 174.758 166.272ZM178.754 155.68C178.754 156.019 178.565 156.321 178.188 156.66L175.474 158.243L174.909 157.904V152.815L177.66 154.399C178.377 154.813 178.716 155.228 178.754 155.68ZM157.834 171.511L153.461 174.074C151.728 173.094 150.182 172.152 150.182 172.152V167.063C150.182 167.063 153.085 168.76 155.308 170.041C156.665 170.833 157.758 171.474 157.834 171.511ZM155.346 177.391V182.48L151.501 180.294V175.205L155.346 177.391ZM192.775 164.953C192.813 165.292 192.7 165.631 192.474 166.008C192.248 166.385 191.871 166.724 191.343 167.026C191.117 167.177 190.853 167.29 190.627 167.365C190.439 167.214 190.212 167.063 189.986 166.913C189.421 166.536 188.968 166.234 188.592 166.046C188.215 165.857 187.762 165.593 187.235 165.292C186.707 164.99 186.368 164.802 186.255 164.726L186.179 159.676L186.255 159.638C186.33 159.676 186.481 159.789 186.745 159.939C186.895 160.015 187.046 160.09 187.235 160.203C187.8 160.505 188.252 160.769 188.592 160.957C188.968 161.146 189.421 161.447 189.986 161.824C190.552 162.201 191.004 162.54 191.305 162.842C191.645 163.143 191.946 163.483 192.248 163.86C192.587 164.274 192.738 164.651 192.775 164.953ZM186.217 164.764L183.126 166.536C182.749 166.385 182.334 166.197 181.882 165.933C181.317 165.631 180.864 165.405 180.601 165.254C180.299 165.103 179.922 164.877 179.432 164.576C178.942 164.274 178.678 164.123 178.603 164.086L186.179 159.713L186.217 164.764ZM203.631 157.452V162.54L200.917 164.086C200.729 163.86 200.503 163.633 200.276 163.407C199.636 162.766 198.844 162.126 197.864 161.447C197.713 161.334 197.525 161.221 197.336 161.07L203.631 157.452ZM196.771 153.494V156.999L195.376 157.791L193.68 158.771C193.115 158.432 192.285 157.979 191.192 157.376C191.004 157.263 190.815 157.15 190.627 157.037L196.771 153.494ZM202.312 166.95V172.039C202.312 172.378 202.236 172.717 202.123 173.057C201.822 173.811 201.181 174.527 200.201 175.243C197.939 176.826 195.339 177.542 192.361 177.316V175.168C192.323 174.263 191.833 173.358 190.891 172.378C190.778 172.265 190.627 172.114 190.514 172.001C190.815 172.039 191.079 172.114 191.381 172.152C194.773 172.604 197.713 171.964 200.201 170.192C200.578 169.928 200.88 169.664 201.143 169.438C201.633 168.986 201.935 168.534 202.123 168.044C202.236 167.629 202.312 167.29 202.312 166.95Z"
            stroke="black" stroke-width="0.672" stroke-miterlimit="10" stroke-linecap="round"
            stroke-linejoin="round" />
        <path
            d="M200.955 164.086C200.766 163.86 200.54 163.634 200.314 163.407C199.673 162.767 198.882 162.126 197.902 161.447C197.751 161.334 197.563 161.221 197.374 161.07L203.669 157.452L199.824 155.228L196.809 157L195.414 157.791L193.718 158.771C193.152 158.432 192.323 157.98 191.23 157.376C191.042 157.263 190.853 157.15 190.665 157.037L196.809 153.494L192.926 151.27L186.669 154.889C186.104 154.587 178.98 150.441 178.98 150.441L174.909 152.816L177.661 154.399C178.377 154.813 178.754 155.228 178.754 155.643C178.754 155.982 178.565 156.283 178.188 156.623L175.474 158.206L161 166.574C160.02 166.988 159.115 166.951 158.286 166.461L155.535 164.877L150.182 167.064C150.182 167.064 153.085 168.76 155.308 170.041C156.628 170.795 157.721 171.436 157.834 171.511L153.461 174.075L151.501 175.205L155.346 177.429L157.306 176.298L161.641 173.811C162.319 174.225 163.337 174.828 164.656 175.582L161.641 177.316L158.399 179.201L159.756 179.992L162.244 181.425L164.091 180.369L168.576 177.769C170.009 178.522 171.328 179.163 172.572 179.653C173.816 180.143 175.097 180.558 176.454 180.897C177.811 181.236 179.093 181.425 180.337 181.462C181.581 181.5 182.824 181.387 184.181 181.123C185.501 180.859 186.82 180.407 188.102 179.804C189.421 179.163 190.439 178.522 191.155 177.844C191.343 177.693 191.494 177.505 191.645 177.354C191.984 176.939 192.21 176.525 192.285 176.072C192.323 175.959 192.323 175.884 192.323 175.771V175.243C192.285 174.338 191.795 173.434 190.853 172.454C190.74 172.341 190.589 172.19 190.476 172.077C190.778 172.115 191.042 172.19 191.343 172.228C194.736 172.68 197.676 172.039 200.163 170.268C200.54 170.004 200.842 169.74 201.106 169.514C201.596 169.061 201.897 168.609 202.086 168.119C202.237 167.78 202.274 167.441 202.274 167.101C202.274 166.687 202.161 166.234 201.973 165.82C201.746 165.141 201.407 164.614 200.955 164.086ZM182.448 173.773C182.221 174.188 181.807 174.565 181.241 174.904C181.091 174.979 180.94 175.055 180.789 175.13C180.45 175.281 180.111 175.394 179.734 175.507C179.206 175.62 178.641 175.695 178.113 175.733C177.585 175.771 177.02 175.695 176.379 175.582C175.738 175.469 175.173 175.356 174.683 175.205C174.155 175.055 173.59 174.866 172.949 174.602C172.308 174.338 171.743 174.112 171.328 173.886C171.177 173.811 170.989 173.735 170.8 173.622C170.499 173.471 170.16 173.283 169.783 173.095C169.18 172.793 168.727 172.529 168.426 172.341C168.124 172.152 167.709 171.926 167.257 171.625C166.767 171.323 166.503 171.172 166.353 171.097L174.758 166.234C174.909 166.31 175.286 166.536 175.964 166.913C176.643 167.29 177.17 167.591 177.585 167.818C178 168.044 178.49 168.383 179.131 168.798C179.168 168.835 179.206 168.835 179.244 168.873C179.922 169.325 180.45 169.74 180.864 170.079C181.166 170.305 181.43 170.607 181.694 170.908C181.807 171.021 181.92 171.172 182.033 171.285C182.41 171.738 182.636 172.152 182.711 172.529C182.749 172.944 182.674 173.358 182.448 173.773ZM192.474 166.008C192.248 166.385 191.871 166.724 191.343 167.026C191.117 167.177 190.853 167.29 190.627 167.365C190.401 167.478 190.137 167.554 189.873 167.629C189.345 167.78 188.818 167.818 188.252 167.78C187.687 167.742 187.159 167.704 186.669 167.629C186.141 167.554 185.614 167.403 185.011 167.214C184.408 166.988 183.88 166.8 183.465 166.649C183.39 166.611 183.314 166.574 183.201 166.536C182.824 166.385 182.41 166.197 181.958 165.933C181.392 165.631 180.94 165.405 180.676 165.254C180.374 165.104 179.997 164.877 179.507 164.576C179.017 164.274 178.754 164.124 178.678 164.086L186.255 159.713L186.33 159.676C186.405 159.713 186.556 159.827 186.82 159.977C186.971 160.053 187.122 160.128 187.31 160.241C187.875 160.543 188.328 160.807 188.667 160.995C189.044 161.183 189.496 161.485 190.062 161.862C190.627 162.239 191.079 162.578 191.381 162.88C191.72 163.181 192.022 163.52 192.323 163.897C192.625 164.274 192.813 164.651 192.813 164.991C192.775 165.292 192.7 165.669 192.474 166.008Z"
            fill="white" stroke="black" stroke-width="0.672" stroke-miterlimit="10"
            stroke-linecap="round" stroke-linejoin="round" />
    </g>
    <path
        d="M224.853 184.549V187.658C224.853 188.336 224.476 188.939 223.647 189.392L188.517 209.671C186.783 210.726 183.692 210.575 181.581 209.369L133.334 181.476C132.203 180.798 131.675 179.968 131.675 179.215V176.181C131.675 176.935 132.278 177.764 133.334 178.443L134.691 179.197L181.581 206.26C183.617 207.467 186.707 207.542 188.517 206.562L221.762 187.338L223.647 186.283C224.476 185.831 224.853 185.228 224.853 184.549Z"
        fill="#DCDCDC" stroke="black" stroke-width="0.672" stroke-miterlimit="10"
        stroke-linecap="round" stroke-linejoin="round" />
    <path
        d="M136.318 115.138L136.318 115.138L123.169 124.345L123.168 124.345L123.166 124.347C123.166 124.347 123.165 124.347 123.165 124.347C119.358 127.012 113.793 126.928 107.538 123.317L95.7934 116.536C89.9383 113.156 84.613 107.332 80.7508 100.629C76.8886 93.9261 74.5074 86.3755 74.5074 79.5608V37.9166C74.5074 31.5361 76.591 27.0153 79.925 24.6817L79.925 24.6817L93.0512 15.4906C93.0525 15.4898 93.0537 15.4889 93.055 15.488L93.0554 15.4877L93.0774 15.4723C93.0774 15.4723 93.0774 15.4723 93.0775 15.4723C93.5522 15.14 94.0532 14.8512 94.5784 14.6071C98.2475 12.902 103.157 13.3569 108.61 16.5049L120.354 23.2855C121.817 24.1299 123.248 25.1281 124.634 26.2558C134.354 34.1653 141.733 48.3747 141.733 60.3141V101.958C141.733 107.515 140.136 111.655 137.508 114.162C137.132 114.52 136.735 114.846 136.318 115.138ZM100.808 44.2582C100.704 44.1982 100.576 44.1982 100.472 44.2582C100.368 44.3182 100.304 44.4292 100.304 44.5492L100.304 75.2633C100.304 78.4849 101.413 82.0256 103.192 85.1466C104.97 88.2673 107.436 91.0002 110.182 92.5857L115.339 95.5633C115.443 95.6234 115.571 95.6234 115.675 95.5633C115.779 95.5033 115.843 95.3924 115.843 95.2724L115.843 64.5582C115.843 61.3366 114.734 57.7959 112.956 54.6749C111.177 51.5542 108.712 48.8213 105.966 47.2358L100.808 44.2582Z"
        fill="white" stroke="black" stroke-width="0.672" stroke-linejoin="round" />
    <mask id="mask0_2521_39615" style="mask-type:alpha" maskUnits="userSpaceOnUse" x="74" y="13"
        width="69" height="114">
        <path
            d="M136.306 115.12L136.306 115.12L123.156 124.327L123.156 124.328L123.153 124.329C123.153 124.329 123.153 124.33 123.153 124.33C119.355 126.988 113.8 126.907 107.548 123.298L95.8042 116.517C89.9531 113.139 84.6303 107.319 80.7694 100.618C76.9086 93.9178 74.5289 86.3709 74.5289 79.5608V37.9166C74.5289 31.5403 76.6111 27.0276 79.9373 24.6993L79.9374 24.6993L93.0634 15.5084C93.0647 15.5075 93.0661 15.5065 93.0674 15.5056L93.0678 15.5053L93.0898 15.4899C93.5635 15.1584 94.0634 14.8702 94.5875 14.6267C98.2481 12.9255 103.15 13.3777 108.599 16.5236L120.343 23.3041C121.805 24.1479 123.236 25.1454 124.621 26.2725C134.336 34.1784 141.711 48.382 141.711 60.3141V101.958C141.711 107.511 140.115 111.645 137.493 114.146C137.118 114.504 136.722 114.829 136.306 115.12ZM100.819 44.2396C100.708 44.1757 100.572 44.1757 100.461 44.2396C100.351 44.3034 100.283 44.4215 100.283 44.5492L100.283 75.2633C100.283 78.4895 101.393 82.0338 103.173 85.1573C104.953 88.2803 107.421 91.0165 110.171 92.6043L115.329 95.582C115.439 95.6458 115.575 95.6458 115.686 95.582C115.797 95.5181 115.865 95.4001 115.865 95.2723L115.865 64.5582C115.865 61.332 114.754 57.7877 112.974 54.6642C111.195 51.5411 108.727 48.805 105.976 47.2172L100.819 44.2396Z"
            fill="#DCDCDC" stroke="black" stroke-width="0.715076" stroke-linejoin="round" />
    </mask>
    <g mask="url(#mask0_2521_39615)">
        <rect x="68.6167" y="114.85" width="116.298" height="69.4645"
            transform="rotate(-34.8117 68.6167 114.85)" fill="black" />
        <rect x="71.854" y="76.1646" width="116.298" height="36.9526"
            transform="rotate(-34.8117 71.854 76.1646)" fill="#99FFF2" />
        <path
            d="M136.318 115.138L136.318 115.138L123.169 124.345L123.168 124.345L123.166 124.347C123.166 124.347 123.165 124.347 123.165 124.347C119.358 127.012 113.793 126.928 107.538 123.317L95.7934 116.536C89.9383 113.156 84.613 107.332 80.7508 100.629C76.8886 93.9261 74.5074 86.3755 74.5074 79.5608V37.9166C74.5074 31.5361 76.591 27.0153 79.925 24.6817L79.925 24.6817L93.0512 15.4906C93.0525 15.4898 93.0537 15.4889 93.055 15.488L93.0554 15.4877L93.0774 15.4723C93.0774 15.4723 93.0774 15.4723 93.0775 15.4723C93.5522 15.14 94.0532 14.8512 94.5784 14.6071C98.2475 12.902 103.157 13.3569 108.61 16.5049L120.354 23.2855C121.817 24.1299 123.248 25.1281 124.634 26.2558C134.354 34.1653 141.733 48.3747 141.733 60.3141V101.958C141.733 107.515 140.136 111.655 137.508 114.162C137.132 114.52 136.735 114.846 136.318 115.138ZM100.808 44.2582C100.704 44.1982 100.576 44.1982 100.472 44.2582C100.368 44.3182 100.304 44.4292 100.304 44.5492L100.304 75.2633C100.304 78.4849 101.413 82.0256 103.192 85.1466C104.97 88.2673 107.436 91.0002 110.182 92.5857L115.339 95.5633C115.443 95.6234 115.571 95.6234 115.675 95.5633C115.779 95.5033 115.843 95.3924 115.843 95.2724L115.843 64.5582C115.843 61.3366 114.734 57.7959 112.956 54.6749C111.177 51.5542 108.712 48.8213 105.966 47.2358L100.808 44.2582Z"
            stroke="black" stroke-width="0.672" stroke-linejoin="round" />
    </g>
    <path
        d="M74.4624 38.0834C74.4624 24.4934 83.9502 19.0175 95.6254 25.7581L107.37 32.5387C119.046 39.2803 128.625 55.7661 128.625 69.3543L128.625 110.998C128.625 124.587 119.046 130.012 107.37 123.27L95.6254 116.49C83.9502 109.749 74.4624 93.3176 74.4624 79.7276L74.4624 38.0834ZM105.798 106.804C111.327 109.997 115.798 107.296 115.798 100.817L115.798 64.725C115.798 58.2456 111.327 50.3821 105.798 47.1896L97.1975 42.2243C91.6679 39.0318 87.1967 41.7325 87.1967 48.2118L87.1967 84.3034C87.1967 90.7828 91.6679 98.6464 97.1975 101.839L105.798 106.804Z"
        fill="white" stroke="black" stroke-width="0.672" />
    <path opacity="0.9"
        d="M57.6522 198.584C69.9372 198.584 79.8965 188.624 79.8965 176.339C79.8965 164.054 69.9372 154.096 57.6522 154.096C45.3673 154.096 35.4087 164.054 35.4087 176.339C35.4087 188.624 45.3673 198.584 57.6522 198.584Z"
        fill="black" />
    <path
        d="M61.418 154.563C50.7267 151.698 38.4945 158.353 34.1484 169.405C29.8017 180.458 34.9702 191.777 45.669 194.641C56.3679 197.506 68.5925 190.847 72.9348 179.799C77.2771 168.75 72.1086 157.427 61.418 154.563Z"
        fill="#FFF1C1" stroke="black" stroke-width="0.672" stroke-linejoin="round" />
    <path
        d="M59.9348 157.25C51.3259 154.918 40.6687 160.366 37.1691 169.364C33.669 178.362 36.5073 187.608 45.1223 189.939C53.7373 192.271 64.9043 186.82 68.4008 177.825C71.8973 168.831 68.5431 159.582 59.9348 157.25Z"
        fill="white" stroke="black" stroke-width="0.672" stroke-linejoin="round" />
    <path fill-rule="evenodd" clip-rule="evenodd"
        d="M62.0465 173.21C63.0674 170.719 61.4553 168.847 59.0113 167.262L60.7409 163.973L58.7552 162.92L57.0712 166.123C56.5492 165.846 56.0101 165.573 55.4744 165.303L57.1699 162.079L55.1854 161.027L53.4555 164.315C53.0209 164.096 52.5945 163.88 52.1827 163.662L52.1878 163.651L49.4496 162.198L48.3256 164.337C48.3256 164.337 49.8068 165.086 49.7681 165.1C50.5722 165.527 50.5864 166.137 50.4489 166.583L48.4786 170.33C48.534 170.36 48.6051 170.401 48.6812 170.456L48.6138 170.42L48.6136 170.42C48.5676 170.395 48.52 170.37 48.4713 170.345L45.7103 175.594C45.5408 175.83 45.178 176.158 44.6156 175.861C44.629 175.897 43.1724 175.095 43.1724 175.095L41.5204 177.277L44.1045 178.647C44.393 178.801 44.6773 178.955 44.9585 179.108C45.1458 179.21 45.3318 179.311 45.5168 179.411L43.7683 182.738L45.7516 183.79L47.4825 180.499C48.0211 180.799 48.5459 181.083 49.0606 181.355L47.3369 184.631L49.3226 185.684L51.0695 182.363C54.5093 183.94 57.2917 184.331 59.2441 181.324C60.8168 178.904 60.2266 177.138 58.5729 175.675C60.0349 175.694 61.3024 175.034 62.0465 173.21ZM55.5271 178.849C54.3287 181.13 50.8014 179.196 49.1875 178.311L49.1875 178.311C49.0423 178.232 48.9126 178.16 48.8015 178.102L51.1198 173.694C51.2551 173.766 51.4215 173.849 51.61 173.944C53.2968 174.788 56.7538 176.517 55.5271 178.849ZM52.5061 171.855C53.8507 172.597 56.7836 174.215 57.8745 172.142C58.9894 170.021 56.1044 168.589 54.6954 167.889C54.5369 167.81 54.3971 167.741 54.2838 167.681L52.1815 171.678C52.2749 171.728 52.3839 171.788 52.5061 171.855Z"
        fill="#FFF1C1" />
    <path
        d="M59.0113 167.262L58.7139 167.106L58.5712 167.377L58.8284 167.544L59.0113 167.262ZM62.0465 173.21L61.7356 173.082L61.7354 173.083L62.0465 173.21ZM60.7409 163.973L61.0383 164.129L61.1942 163.833L60.8983 163.676L60.7409 163.973ZM58.7552 162.92L58.9126 162.623L58.6147 162.465L58.4578 162.764L58.7552 162.92ZM57.0712 166.123L56.9138 166.419L57.2117 166.577L57.3686 166.279L57.0712 166.123ZM55.4744 165.303L55.177 165.146L55.0179 165.449L55.323 165.603L55.4744 165.303ZM57.1699 162.079L57.4673 162.236L57.6232 161.939L57.3273 161.783L57.1699 162.079ZM55.1854 161.027L55.3428 160.73L55.045 160.572L54.888 160.871L55.1854 161.027ZM53.4555 164.315L53.3042 164.615L53.599 164.763L53.7528 164.471L53.4555 164.315ZM52.1827 163.662L51.8814 163.513L51.7368 163.806L52.0255 163.959L52.1827 163.662ZM52.1878 163.651L52.4891 163.8L52.6335 163.508L52.3453 163.355L52.1878 163.651ZM49.4496 162.198L49.6071 161.902L49.3091 161.743L49.1522 162.042L49.4496 162.198ZM48.3256 164.337L48.0282 164.181L47.8695 164.483L48.174 164.637L48.3256 164.337ZM49.7681 165.1L49.6516 164.785L48.9477 165.046L49.6106 165.397L49.7681 165.1ZM50.4489 166.583L50.7463 166.74L50.7609 166.712L50.7701 166.682L50.4489 166.583ZM48.4786 170.33L48.1812 170.174L48.0262 170.469L48.3196 170.626L48.4786 170.33ZM48.6812 170.456L48.5236 170.752L48.8776 170.183L48.6812 170.456ZM48.6138 170.42L48.7713 170.123L48.7705 170.123L48.6138 170.42ZM48.6136 170.42L48.4558 170.716L48.4569 170.717L48.6136 170.42ZM48.4713 170.345L48.6261 170.047L48.3295 169.893L48.1739 170.188L48.4713 170.345ZM45.7103 175.594L45.9834 175.789L45.9969 175.77L46.0077 175.75L45.7103 175.594ZM44.6156 175.861L44.7724 175.564L43.993 175.152L44.3007 175.978L44.6156 175.861ZM43.1724 175.095L43.3344 174.801L43.0799 174.661L42.9045 174.893L43.1724 175.095ZM41.5204 177.277L41.2526 177.074L41.0143 177.389L41.3631 177.574L41.5204 177.277ZM44.1045 178.647L44.2623 178.351L44.2619 178.35L44.1045 178.647ZM44.9585 179.108L44.7979 179.403L44.7979 179.403L44.9585 179.108ZM45.5168 179.411L45.8143 179.567L45.969 179.273L45.6761 179.115L45.5168 179.411ZM43.7683 182.738L43.4709 182.582L43.3151 182.878L43.6108 183.035L43.7683 182.738ZM45.7516 183.79L45.5942 184.087L45.8921 184.245L46.049 183.947L45.7516 183.79ZM47.4825 180.499L47.646 180.205L47.3453 180.038L47.1851 180.342L47.4825 180.499ZM49.0606 181.355L49.358 181.512L49.5141 181.215L49.2178 181.058L49.0606 181.355ZM47.3369 184.631L47.0395 184.474L46.8835 184.771L47.1795 184.928L47.3369 184.631ZM49.3226 185.684L49.1652 185.98L49.463 186.138L49.62 185.84L49.3226 185.684ZM51.0695 182.363L51.2095 182.058L50.9203 181.925L50.7722 182.207L51.0695 182.363ZM59.2441 181.324L58.9623 181.141L58.9623 181.141L59.2441 181.324ZM58.5729 175.675L58.5773 175.339L57.6728 175.327L58.3502 175.926L58.5729 175.675ZM49.1875 178.311L49.0206 178.603L49.026 178.606L49.1875 178.311ZM55.5271 178.849L55.2297 178.692L55.2296 178.693L55.5271 178.849ZM49.1875 178.311L49.3544 178.019L49.349 178.017L49.1875 178.311ZM48.8015 178.102L48.5041 177.945L48.348 178.242L48.6444 178.399L48.8015 178.102ZM51.1198 173.694L51.2773 173.398L50.9794 173.24L50.8225 173.538L51.1198 173.694ZM51.61 173.944L51.7603 173.643L51.7603 173.643L51.61 173.944ZM57.8745 172.142L58.1719 172.299L58.1719 172.298L57.8745 172.142ZM52.5061 171.855L52.3438 172.15L52.3438 172.15L52.5061 171.855ZM54.6954 167.889L54.546 168.19L54.546 168.19L54.6954 167.889ZM54.2838 167.681L54.4412 167.384L54.1433 167.226L53.9864 167.525L54.2838 167.681ZM52.1815 171.678L51.8841 171.522L51.7282 171.818L52.0241 171.975L52.1815 171.678ZM58.8284 167.544C60.0356 168.327 60.998 169.157 61.5394 170.068C62.0688 170.959 62.2043 171.939 61.7356 173.082L62.3574 173.337C62.9096 171.99 62.7495 170.789 62.1171 169.725C61.4967 168.681 60.431 167.782 59.1941 166.98L58.8284 167.544ZM60.4435 163.816L58.7139 167.106L59.3087 167.418L61.0383 164.129L60.4435 163.816ZM58.5978 163.217L60.5835 164.27L60.8983 163.676L58.9126 162.623L58.5978 163.217ZM57.3686 166.279L59.0526 163.076L58.4578 162.764L56.7738 165.966L57.3686 166.279ZM55.323 165.603C55.859 165.873 56.3952 166.144 56.9138 166.419L57.2286 165.826C56.7031 165.547 56.1612 165.273 55.6258 165.003L55.323 165.603ZM56.8726 161.923L55.177 165.146L55.7717 165.459L57.4673 162.236L56.8726 161.923ZM55.028 161.324L57.0125 162.376L57.3273 161.783L55.3428 160.73L55.028 161.324ZM53.7528 164.471L55.4827 161.183L54.888 160.871L53.1581 164.158L53.7528 164.471ZM52.0255 163.959C52.4406 164.179 52.8697 164.396 53.3042 164.615L53.6067 164.015C53.1721 163.796 52.7484 163.581 52.3399 163.365L52.0255 163.959ZM51.8865 163.503L51.8814 163.513L52.484 163.811L52.4891 163.8L51.8865 163.503ZM49.2921 162.495L52.0303 163.948L52.3453 163.355L49.6071 161.902L49.2921 162.495ZM48.6231 164.493L49.747 162.355L49.1522 162.042L48.0282 164.181L48.6231 164.493ZM49.8846 165.416C49.9306 165.399 50.0064 165.359 50.0583 165.27C50.1123 165.179 50.11 165.087 50.097 165.028C50.0766 164.934 50.0211 164.877 50.0161 164.871C49.9888 164.841 49.9604 164.821 49.9545 164.817C49.9331 164.801 49.9084 164.786 49.8888 164.775C49.846 164.749 49.7865 164.716 49.7191 164.68C49.5827 164.606 49.3989 164.51 49.2158 164.415C49.0322 164.32 48.8477 164.225 48.7091 164.155C48.6397 164.119 48.5819 164.09 48.5413 164.069C48.521 164.059 48.505 164.051 48.4941 164.046C48.4887 164.043 48.4845 164.041 48.4817 164.039C48.4802 164.039 48.4792 164.038 48.4784 164.038C48.4781 164.037 48.4778 164.037 48.4776 164.037C48.4775 164.037 48.4775 164.037 48.4774 164.037C48.4774 164.037 48.4774 164.037 48.4773 164.037C48.4773 164.037 48.4773 164.037 48.3256 164.337C48.174 164.637 48.174 164.637 48.174 164.637C48.174 164.637 48.174 164.637 48.174 164.637C48.1741 164.637 48.1741 164.637 48.1742 164.637C48.1744 164.637 48.1746 164.637 48.175 164.637C48.1757 164.638 48.1767 164.638 48.1781 164.639C48.1809 164.64 48.185 164.642 48.1904 164.645C48.2012 164.65 48.217 164.658 48.2371 164.669C48.2774 164.689 48.3349 164.718 48.4039 164.754C48.5418 164.824 48.7251 164.918 48.9069 165.012C49.0893 165.106 49.2685 165.2 49.399 165.271C49.465 165.306 49.5148 165.334 49.5456 165.352C49.5628 165.363 49.566 165.365 49.5621 165.362C49.5604 165.361 49.5561 165.358 49.5504 165.353C49.5459 165.35 49.5332 165.339 49.5186 165.323C49.5153 165.319 49.4608 165.264 49.4406 165.171C49.4277 165.112 49.4254 165.021 49.4792 164.93C49.5308 164.842 49.6061 164.802 49.6516 164.785L49.8846 165.416ZM50.7701 166.682C50.8513 166.418 50.8967 166.079 50.7805 165.729C50.6615 165.37 50.3892 165.05 49.9256 164.804L49.6106 165.397C49.9512 165.578 50.088 165.776 50.1428 165.94C50.2003 166.114 50.1841 166.302 50.1278 166.485L50.7701 166.682ZM48.776 170.487L50.7463 166.74L50.1515 166.427L48.1812 170.174L48.776 170.487ZM48.8776 170.183C48.7852 170.116 48.7 170.068 48.6376 170.034L48.3196 170.626C48.3679 170.652 48.4251 170.685 48.4847 170.728L48.8776 170.183ZM48.4563 170.717L48.5236 170.752L48.8387 170.159L48.7713 170.123L48.4563 170.717ZM48.4569 170.717L48.4571 170.717L48.7705 170.123L48.7702 170.123L48.4569 170.717ZM48.3164 170.643C48.3635 170.667 48.4096 170.692 48.4558 170.716L48.7714 170.123C48.7256 170.099 48.6766 170.073 48.6261 170.047L48.3164 170.643ZM46.0077 175.75L48.7686 170.501L48.1739 170.188L45.4129 175.437L46.0077 175.75ZM44.4587 176.158C44.8215 176.35 45.1567 176.353 45.4374 176.238C45.7011 176.131 45.8796 175.934 45.9834 175.789L45.4372 175.398C45.3715 175.489 45.2838 175.575 45.1832 175.616C45.0994 175.651 44.972 175.669 44.7724 175.564L44.4587 176.158ZM43.1724 175.095C43.0103 175.39 43.0103 175.39 43.0103 175.39C43.0103 175.39 43.0104 175.39 43.0104 175.39C43.0104 175.39 43.0105 175.39 43.0106 175.39C43.0108 175.39 43.011 175.39 43.0114 175.39C43.0121 175.391 43.0132 175.391 43.0146 175.392C43.0173 175.394 43.0215 175.396 43.0268 175.399C43.0375 175.405 43.0532 175.413 43.0732 175.424C43.1131 175.446 43.1701 175.477 43.2385 175.515C43.3751 175.59 43.5573 175.689 43.7392 175.787C43.9208 175.885 44.1035 175.983 44.2406 176.055C44.3085 176.09 44.3684 176.121 44.4122 176.142C44.4325 176.151 44.4569 176.163 44.4791 176.171C44.4851 176.174 44.5137 176.185 44.5488 176.192C44.5594 176.194 44.5776 176.197 44.6003 176.198C44.6189 176.199 44.6648 176.199 44.7195 176.182C44.7793 176.162 44.8784 176.109 44.9273 175.987C44.9717 175.877 44.9447 175.782 44.9304 175.744L44.3007 175.978C44.2866 175.941 44.2597 175.846 44.3039 175.736C44.3526 175.615 44.4514 175.562 44.5108 175.543C44.565 175.525 44.6102 175.526 44.628 175.527C44.6498 175.527 44.667 175.53 44.6764 175.532C44.6951 175.536 44.7088 175.54 44.7131 175.542C44.7189 175.544 44.7228 175.545 44.724 175.546C44.7264 175.546 44.7208 175.544 44.7026 175.536C44.6693 175.52 44.6176 175.493 44.5509 175.459C44.4186 175.39 44.2397 175.294 44.0588 175.196C43.8782 175.099 43.6971 175 43.561 174.925C43.493 174.888 43.4363 174.857 43.3966 174.835C43.3768 174.824 43.3612 174.816 43.3506 174.81C43.3453 174.807 43.3412 174.805 43.3385 174.803C43.3371 174.802 43.3361 174.802 43.3354 174.802C43.3351 174.801 43.3348 174.801 43.3346 174.801C43.3346 174.801 43.3345 174.801 43.3345 174.801C43.3344 174.801 43.3344 174.801 43.3344 174.801C43.3344 174.801 43.3344 174.801 43.1724 175.095ZM41.7883 177.48L43.4402 175.298L42.9045 174.893L41.2526 177.074L41.7883 177.48ZM44.2619 178.35L41.6778 176.98L41.3631 177.574L43.9471 178.944L44.2619 178.35ZM45.1192 178.813C44.8381 178.66 44.5524 178.505 44.2623 178.351L43.9468 178.944C44.2336 179.096 44.5164 179.25 44.7979 179.403L45.1192 178.813ZM45.6761 179.115C45.4919 179.016 45.3066 178.915 45.1192 178.813L44.7979 179.403C44.9851 179.505 45.1717 179.607 45.3575 179.707L45.6761 179.115ZM44.0657 182.894L45.8143 179.567L45.2194 179.255L43.4709 182.582L44.0657 182.894ZM45.9091 183.493L43.9257 182.441L43.6108 183.035L45.5942 184.087L45.9091 183.493ZM47.1851 180.342L45.4542 183.634L46.049 183.947L47.7798 180.655L47.1851 180.342ZM49.2178 181.058C48.7049 180.787 48.1823 180.504 47.646 180.205L47.3189 180.792C47.8599 181.094 48.3868 181.379 48.9035 181.652L49.2178 181.058ZM47.6342 184.787L49.358 181.512L48.7633 181.199L47.0395 184.474L47.6342 184.787ZM49.48 185.387L47.4942 184.334L47.1795 184.928L49.1652 185.98L49.48 185.387ZM50.7722 182.207L49.0252 185.527L49.62 185.84L51.3669 182.52L50.7722 182.207ZM58.9623 181.141C58.0377 182.565 56.9463 183.153 55.6948 183.227C54.4113 183.303 52.9188 182.841 51.2095 182.058L50.9295 182.669C52.66 183.462 54.2787 183.984 55.7344 183.898C57.2221 183.81 58.4981 183.09 59.5259 181.507L58.9623 181.141ZM58.3502 175.926C59.1446 176.629 59.647 177.373 59.7871 178.197C59.9265 179.016 59.7181 179.978 58.9623 181.141L59.5258 181.507C60.3427 180.25 60.6256 179.118 60.4496 178.084C60.2744 177.054 59.6548 176.184 58.7956 175.423L58.3502 175.926ZM61.7354 173.083C61.3836 173.946 60.9193 174.507 60.394 174.853C59.8686 175.199 59.2557 175.348 58.5773 175.339L58.5684 176.011C59.3521 176.021 60.104 175.849 60.7638 175.414C61.4238 174.979 61.9653 174.299 62.3576 173.337L61.7354 173.083ZM49.026 178.606C49.8261 179.044 51.1491 179.772 52.4315 180.093C53.0736 180.254 53.7375 180.322 54.3362 180.178C54.9506 180.031 55.4779 179.665 55.8246 179.005L55.2296 178.693C54.9771 179.173 54.6141 179.421 54.1796 179.525C53.7295 179.633 53.186 179.589 52.5948 179.441C51.4105 179.145 50.1629 178.463 49.3491 178.017L49.026 178.606ZM49.0206 178.603L49.0206 178.603L49.3544 178.02L49.3544 178.02L49.0206 178.603ZM48.6444 178.399C48.7528 178.456 48.8801 178.526 49.0259 178.606L49.349 178.017C49.2045 177.937 49.0724 177.865 48.9586 177.805L48.6444 178.399ZM50.8225 173.538L48.5041 177.945L49.0988 178.258L51.4172 173.851L50.8225 173.538ZM51.7603 173.643C51.5706 173.548 51.4082 173.467 51.2773 173.398L50.9623 173.991C51.102 174.065 51.2724 174.151 51.4597 174.244L51.7603 173.643ZM55.8245 179.005C56.1748 178.339 56.1956 177.696 55.9865 177.105C55.7825 176.528 55.3679 176.022 54.8858 175.588C53.9244 174.723 52.5958 174.061 51.7603 173.643L51.4597 174.244C52.311 174.67 53.5543 175.294 54.4364 176.088C54.876 176.483 55.2012 176.9 55.353 177.329C55.4998 177.744 55.4927 178.192 55.2297 178.692L55.8245 179.005ZM57.5772 171.986C57.3467 172.423 57.0325 172.65 56.6724 172.753C56.2986 172.86 55.8504 172.839 55.3606 172.727C54.3766 172.501 53.3481 171.936 52.6684 171.561L52.3438 172.15C53.0087 172.516 54.119 173.131 55.2103 173.382C55.7582 173.507 56.3318 173.549 56.8568 173.399C57.3954 173.245 57.8568 172.897 58.1719 172.299L57.5772 171.986ZM54.546 168.19C55.259 168.544 56.2859 169.057 57.0016 169.728C57.3571 170.061 57.6128 170.413 57.725 170.78C57.8335 171.134 57.8167 171.53 57.5771 171.986L58.1719 172.298C58.4898 171.694 58.5305 171.115 58.3676 170.583C58.2084 170.063 57.8638 169.615 57.4612 169.238C56.6609 168.487 55.5408 167.934 54.8449 167.588L54.546 168.19ZM54.1264 167.978C54.2445 168.04 54.3889 168.112 54.546 168.19L54.8449 167.588C54.685 167.509 54.5497 167.442 54.4412 167.384L54.1264 167.978ZM52.4789 171.835L54.5811 167.837L53.9864 167.525L51.8841 171.522L52.4789 171.835ZM52.6684 171.561C52.547 171.494 52.4352 171.432 52.3389 171.381L52.0241 171.975C52.1145 172.023 52.2209 172.082 52.3438 172.15L52.6684 171.561Z"
        fill="black" />
    <path
        d="M36.2319 188.561C37.2172 189.629 38.195 190.686 39.212 191.739C41.4261 193.986 44.2078 195.592 47.261 196.387C57.9515 199.255 70.1837 192.597 74.526 181.548C77.4382 174.147 76.0797 166.623 71.6538 161.601C70.7506 160.526 69.791 159.502 68.7778 158.53C73.3982 163.548 74.86 171.211 71.8965 178.748C67.5543 189.796 55.3213 196.454 44.6307 193.59C41.4087 192.749 38.4943 191.004 36.2319 188.561Z"
        fill="#F5BC41" stroke="black" stroke-width="0.672" stroke-linejoin="round" />
    <mask id="mask1_2521_39615" style="mask-type:alpha" maskUnits="userSpaceOnUse" x="35" y="158"
        width="42" height="40">
        <path
            d="M36.2319 188.561C37.2172 189.629 38.195 190.686 39.212 191.739C41.4261 193.986 44.2078 195.592 47.261 196.387C57.9515 199.255 70.1837 192.597 74.526 181.548C77.4382 174.147 76.0797 166.623 71.6538 161.601C70.7506 160.526 69.791 159.502 68.7778 158.53C73.3982 163.548 74.86 171.211 71.8965 178.748C67.5543 189.796 55.3213 196.454 44.6307 193.59C41.4087 192.749 38.4943 191.004 36.2319 188.561Z"
            fill="#789BCD" stroke="black" stroke-width="0.527705" stroke-linejoin="round" />
    </mask>
    <g mask="url(#mask1_2521_39615)">
        <path d="M36.7593 189.36L55.1192 191.092L59.0689 198.358L43.2165 203.377L36.7593 189.36Z"
            fill="black" />
    </g>
    <path d="M50.9595 194.21L52.6915 196.982" stroke="black" stroke-width="0.672" />
    <path d="M56.1567 193.172L57.8888 196.29" stroke="black" stroke-width="0.672" />
    <path d="M61.0054 191.093L63.0838 194.211" stroke="black" stroke-width="0.672" />
    <path d="M65.5112 187.975L67.9361 191.092" stroke="black" stroke-width="0.672" />
    <path d="M68.6284 184.165L71.3997 187.629" stroke="black" stroke-width="0.672" />
    <path d="M71.0542 180.354L73.8255 183.819" stroke="black" stroke-width="0.672" />
    <path d="M72.7856 175.85L75.557 179.314" stroke="black" stroke-width="0.672" />
    <path d="M73.4741 171.001L76.2454 174.466" stroke="black" stroke-width="0.672" />
    <path d="M72.7856 166.151L75.557 169.616" stroke="black" stroke-width="0.672" />
    <defs>
        <clipPath id="clip0_2521_39615">
            <rect width="53.9013" height="45.3827" fill="white"
                transform="translate(149.959 150.217)" />
        </clipPath>
    </defs>
</svg>