<svg width="241" height="240" viewBox="0 0 241 240" fill="none" xmlns="http://www.w3.org/2000/svg">
<mask id="mask0_2521_40071" style="mask-type:alpha" maskUnits="userSpaceOnUse" x="171" y="54" width="36" height="28">
<path d="M192.64 80.4157C187.946 81.8293 183.29 81.7283 179.562 80.4339C175.833 79.1395 173.049 76.6603 172.045 73.3238C171.04 69.9873 171.992 66.3834 174.386 63.2453C176.78 60.1076 180.606 57.4529 185.301 56.0393C189.995 54.6258 194.651 54.7268 198.38 56.0211C202.108 57.3156 204.892 59.7947 205.896 63.1312C206.901 66.4678 205.949 70.0716 203.555 73.2097C201.161 76.3475 197.335 79.0022 192.64 80.4157Z" fill="white" stroke="black" stroke-width="0.488512"/>
</mask>
<g mask="url(#mask0_2521_40071)">
<rect x="200.301" y="83.7371" width="26.5192" height="16.0511" transform="rotate(-111.124 200.301 83.7371)" fill="black"/>
<rect x="189.584" y="90.0888" width="26.5192" height="16.0511" transform="rotate(-111.124 189.584 90.0888)" fill="#9EBBD1"/>
<path d="M176.562 80.4254L174.453 75.0465M179.355 81.7409L177.355 76.5636M181.877 82.2565L180.14 77.2572M184.231 82.4096L182.708 77.6541M186.518 82.2866L184.968 77.6308M188.72 81.959L187.192 77.5585M190.886 81.4701L189.355 76.7809M192.966 80.7766L191.47 76.5601M194.99 79.9468L193.51 75.6151M197.462 79.146L195.834 74.4348M199.754 77.923L197.909 72.9154M201.829 76.4036L199.984 71.3959M203.687 74.5877L201.81 69.5373M204.674 72.204L203.031 68.0946" stroke="black" stroke-width="0.593429" stroke-miterlimit="10" stroke-linecap="round" stroke-linejoin="round"/>
<path d="M192.625 80.3655C187.94 81.7762 183.296 81.6747 179.579 80.3844C175.861 79.0939 173.093 76.6251 172.095 73.3087C171.096 69.9923 172.041 66.4056 174.428 63.2772C176.814 60.1491 180.631 57.5003 185.316 56.0895C190.001 54.6788 194.645 54.7803 198.362 56.0707C202.08 57.3611 204.848 59.83 205.846 63.1464C206.845 66.4628 205.9 70.0495 203.513 73.1779C201.127 76.3059 197.31 78.9548 192.625 80.3655Z" stroke="black" stroke-width="0.593429"/>
</g>
<path d="M191.652 77.136C186.958 78.5491 182.362 78.6255 178.729 77.6213C175.092 76.6159 172.466 74.544 171.607 71.6911C170.748 68.8382 171.794 65.6605 174.271 62.8142C176.745 59.9713 180.62 57.497 185.313 56.0839C190.007 54.6707 194.603 54.5944 198.236 55.5986C201.873 56.604 204.499 58.6758 205.358 61.5288C206.217 64.3817 205.171 67.5594 202.694 70.4057C200.22 73.2485 196.345 75.7228 191.652 77.136Z" fill="#D7EEFF" stroke="black" stroke-width="0.593429"/>
<path d="M191.226 75.263C187.112 76.5019 183.099 76.6194 179.944 75.8224C176.781 75.0237 174.533 73.3252 173.825 70.9732C173.117 68.6213 174.053 65.9638 176.249 63.5519C178.44 61.1451 181.85 59.0276 185.965 57.7887C190.08 56.5498 194.092 56.4323 197.248 57.2293C200.41 58.028 202.658 59.7265 203.366 62.0785C204.075 64.4304 203.138 67.0879 200.942 69.4998C198.751 71.9066 195.341 74.0241 191.226 75.263Z" fill="white" stroke="black" stroke-width="0.593429"/>
<path d="M189.414 72.2164L191.329 66.0527L185.74 67.3318L179.3 68.8057L189.414 72.2164Z" fill="#F5F9FE" stroke="black" stroke-width="0.593429" stroke-linejoin="round"/>
<path d="M179.479 68.7239L185.918 67.2501L191.276 66.1248L187.012 61.345L179.479 68.7239Z" fill="#9EBBD1" stroke="black" stroke-width="0.593429" stroke-linejoin="round"/>
<path d="M190.581 72.1688L196.868 65.0042L192.494 66.0054L190.581 72.1688Z" fill="white" stroke="black" stroke-width="0.593429" stroke-linejoin="round"/>
<path d="M192.479 66.0008L196.853 64.9996L188.242 61.0178L192.479 66.0008Z" fill="#9EBBD1" stroke="black" stroke-width="0.593429" stroke-linejoin="round"/>
<g clip-path="url(#clip0_2521_40071)">
<path d="M63.3464 154.952C63.3464 155.673 63.2022 156.394 62.938 157.09C62.2654 158.892 60.704 160.597 58.3018 161.991C51.5757 165.882 40.6699 165.882 33.9198 161.991C31.5176 160.597 29.9562 158.892 29.2836 157.09C29.0194 156.394 28.8752 155.673 28.8752 154.952C28.8752 152.406 30.5568 149.86 33.9198 147.914C40.6459 144.022 51.5517 144.022 58.3018 147.914C61.6649 149.86 63.3464 152.406 63.3464 154.952Z" fill="black"/>
<path d="M63.3464 145.059C63.3464 145.779 63.2022 146.5 62.938 147.197C62.2654 148.998 60.704 150.704 58.3018 152.097C51.5757 155.988 40.6699 155.988 33.9198 152.097C31.5176 150.704 29.9562 148.998 29.2836 147.197C29.0194 146.5 28.8752 145.779 28.8752 145.059C28.8752 142.512 30.5568 139.966 33.9198 138.02C40.6459 134.129 51.5517 134.129 58.3018 138.02C61.6649 139.966 63.3464 142.512 63.3464 145.059Z" fill="#AFEFB4" stroke="black" stroke-width="0.593429" stroke-miterlimit="10" stroke-linecap="round" stroke-linejoin="round"/>
<path d="M59.8286 145.058C59.8286 145.586 59.7325 146.115 59.5163 146.643C58.9638 147.964 57.7387 149.237 55.817 150.246C50.4602 153.129 41.7643 153.129 36.3834 150.246C34.4617 149.213 33.2126 147.964 32.6841 146.643C32.4679 146.115 32.3718 145.586 32.3718 145.058C32.3718 143.184 33.717 141.286 36.4075 139.869C41.7643 136.986 50.4602 136.986 55.841 139.869C58.4834 141.31 59.8286 143.184 59.8286 145.058Z" fill="white" stroke="black" stroke-width="0.593429" stroke-miterlimit="10" stroke-linecap="round" stroke-linejoin="round"/>
<mask id="path-15-inside-1_2521_40071" fill="white">
<path fill-rule="evenodd" clip-rule="evenodd" d="M51.9889 140.517L49.652 150.296L47.2369 150.053L48.1233 146.344L46.5634 146.187C45.7478 149.065 44.643 151.194 43.9437 151.124C43.2442 151.053 43.185 148.806 43.7516 145.902L38.6579 145.39L39.222 143.029L44.3178 143.542C45.1321 140.685 46.2294 138.577 46.9253 138.647C47.6214 138.717 47.6834 140.942 47.1258 143.826L48.6875 143.983L49.5738 140.274L51.9889 140.517ZM46.9901 143.812C47.4758 141.31 47.4776 139.402 46.9472 139.348C46.3344 139.287 45.2431 141.724 44.5099 144.793C43.7767 147.861 43.679 150.398 44.2918 150.46C44.8251 150.513 45.7209 148.674 46.4277 146.173L44.5735 145.987L45.1377 143.626L46.9901 143.812Z"/>
</mask>
<path fill-rule="evenodd" clip-rule="evenodd" d="M51.9889 140.517L49.652 150.296L47.2369 150.053L48.1233 146.344L46.5634 146.187C45.7478 149.065 44.643 151.194 43.9437 151.124C43.2442 151.053 43.185 148.806 43.7516 145.902L38.6579 145.39L39.222 143.029L44.3178 143.542C45.1321 140.685 46.2294 138.577 46.9253 138.647C47.6214 138.717 47.6834 140.942 47.1258 143.826L48.6875 143.983L49.5738 140.274L51.9889 140.517ZM46.9901 143.812C47.4758 141.31 47.4776 139.402 46.9472 139.348C46.3344 139.287 45.2431 141.724 44.5099 144.793C43.7767 147.861 43.679 150.398 44.2918 150.46C44.8251 150.513 45.7209 148.674 46.4277 146.173L44.5735 145.987L45.1377 143.626L46.9901 143.812Z" fill="#AFEFB4"/>
<path d="M49.652 150.296L49.514 150.873L50.1045 150.932L50.2424 150.355L49.652 150.296ZM51.9889 140.517L52.5794 140.576L52.7173 139.999L52.1269 139.94L51.9889 140.517ZM47.2369 150.053L46.6464 149.993L46.5085 150.571L47.099 150.63L47.2369 150.053ZM48.1233 146.344L48.7137 146.403L48.8517 145.826L48.2612 145.767L48.1233 146.344ZM46.5634 146.187L46.7013 145.61L46.1352 145.553L45.9792 146.103L46.5634 146.187ZM43.7516 145.902L44.3474 145.937L44.4557 145.382L43.8896 145.325L43.7516 145.902ZM38.6579 145.39L38.0674 145.331L37.9295 145.908L38.52 145.967L38.6579 145.39ZM39.222 143.029L39.36 142.452L38.7695 142.393L38.6316 142.97L39.222 143.029ZM44.3178 143.542L44.1799 144.119L44.745 144.176L44.9016 143.626L44.3178 143.542ZM47.1258 143.826L46.5298 143.792L46.4226 144.346L46.9878 144.403L47.1258 143.826ZM48.6875 143.983L48.5495 144.56L49.14 144.62L49.2779 144.042L48.6875 143.983ZM49.5738 140.274L49.7118 139.697L49.1213 139.637L48.9834 140.215L49.5738 140.274ZM46.9901 143.812L46.8521 144.39L47.4685 144.451L47.5859 143.847L46.9901 143.812ZM46.4277 146.173L47.0119 146.257L47.181 145.658L46.5656 145.596L46.4277 146.173ZM44.5735 145.987L43.9831 145.928L43.8452 146.505L44.4356 146.564L44.5735 145.987ZM45.1377 143.626L45.2757 143.049L44.6852 142.99L44.5473 143.567L45.1377 143.626ZM50.2424 150.355L52.5794 140.576L51.3985 140.457L49.0615 150.236L50.2424 150.355ZM47.099 150.63L49.514 150.873L49.7899 149.718L47.3748 149.476L47.099 150.63ZM47.5328 146.284L46.6464 149.993L47.8273 150.112L48.7137 146.403L47.5328 146.284ZM46.4254 146.764L47.9853 146.921L48.2612 145.767L46.7013 145.61L46.4254 146.764ZM43.8058 151.701C44.3139 151.752 44.7263 151.399 44.9672 151.136C45.2395 150.839 45.5003 150.431 45.7447 149.968C46.2381 149.032 46.7325 147.735 47.1475 146.271L45.9792 146.103C45.5787 147.517 45.1129 148.724 44.6752 149.555C44.4541 149.974 44.2566 150.266 44.0996 150.437C43.9111 150.643 43.9232 150.531 44.0817 150.546L43.8058 151.701ZM43.1559 145.867C42.8676 147.345 42.7335 148.678 42.7668 149.667C42.7833 150.157 42.8417 150.597 42.9623 150.934C43.0689 151.233 43.2976 151.65 43.8058 151.701L44.0817 150.546C44.2401 150.562 44.199 150.672 44.1155 150.439C44.046 150.244 43.9938 149.927 43.9789 149.484C43.9494 148.606 44.069 147.364 44.3474 145.937L43.1559 145.867ZM38.52 145.967L43.6137 146.479L43.8896 145.325L38.7958 144.813L38.52 145.967ZM38.6316 142.97L38.0674 145.331L39.2484 145.449L39.8125 143.089L38.6316 142.97ZM44.4557 142.965L39.36 142.452L39.0841 143.607L44.1799 144.119L44.4557 142.965ZM47.0633 138.07C46.5575 138.019 46.1465 138.368 45.906 138.63C45.6346 138.926 45.375 139.33 45.1317 139.79C44.6406 140.718 44.1483 142.003 43.7339 143.457L44.9016 143.626C45.3016 142.223 45.7651 141.027 46.2002 140.204C46.4201 139.789 46.6161 139.501 46.7716 139.331C46.9581 139.128 46.9453 139.24 46.7874 139.225L47.0633 138.07ZM47.7217 143.86C48.0054 142.393 48.1365 141.07 48.1017 140.089C48.0845 139.603 48.0256 139.166 47.9049 138.831C47.7979 138.535 47.5692 138.121 47.0633 138.07L46.7874 139.225C46.6295 139.209 46.6695 139.099 46.7525 139.33C46.8217 139.522 46.8741 139.835 46.8897 140.274C46.9205 141.144 46.8038 142.376 46.5298 143.792L47.7217 143.86ZM48.8254 143.406L47.2637 143.249L46.9878 144.403L48.5495 144.56L48.8254 143.406ZM48.9834 140.215L48.097 143.924L49.2779 144.042L50.1643 140.333L48.9834 140.215ZM52.1269 139.94L49.7118 139.697L49.4359 140.851L51.851 141.094L52.1269 139.94ZM46.8093 139.926C46.686 139.913 46.6295 139.85 46.6228 139.841C46.6187 139.836 46.6373 139.859 46.6608 139.938C46.7076 140.096 46.7409 140.361 46.7433 140.739C46.7482 141.486 46.6329 142.548 46.3942 143.778L47.5859 143.847C47.833 142.574 47.9615 141.431 47.956 140.585C47.9533 140.167 47.918 139.788 47.8311 139.495C47.7878 139.349 47.7233 139.194 47.6197 139.065C47.5135 138.932 47.341 138.797 47.0851 138.771L46.8093 139.926ZM45.1003 144.852C45.4609 143.343 45.906 142.006 46.3268 141.066C46.5392 140.591 46.7327 140.247 46.8892 140.037C46.9687 139.931 47.0169 139.889 47.0286 139.88C47.04 139.872 46.9528 139.94 46.8093 139.926L47.0851 138.771C46.7884 138.741 46.5331 138.872 46.3646 138.998C46.1965 139.122 46.0532 139.284 45.9327 139.446C45.6893 139.772 45.4492 140.217 45.2206 140.728C44.7592 141.759 44.2922 143.174 43.9194 144.733L45.1003 144.852ZM44.4298 149.883C44.5732 149.897 44.6245 149.979 44.6176 149.969C44.6105 149.958 44.5842 149.909 44.5581 149.792C44.5068 149.561 44.483 149.195 44.502 148.701C44.5397 147.723 44.7398 146.361 45.1003 144.852L43.9194 144.733C43.5467 146.293 43.3314 147.733 43.2901 148.806C43.2697 149.337 43.2905 149.809 43.3703 150.168C43.4098 150.345 43.4708 150.528 43.5727 150.68C43.6749 150.832 43.8572 151.007 44.1539 151.037L44.4298 149.883ZM45.8434 146.09C45.4961 147.319 45.1079 148.364 44.7523 149.083C44.5723 149.447 44.4156 149.696 44.296 149.839C44.2358 149.911 44.2067 149.93 44.2123 149.927C44.222 149.92 44.3058 149.87 44.4298 149.883L44.1539 151.037C44.4112 151.063 44.6396 150.967 44.8031 150.86C44.9626 150.757 45.0965 150.621 45.2063 150.489C45.4267 150.225 45.6382 149.868 45.8371 149.466C46.2394 148.653 46.6524 147.528 47.0119 146.257L45.8434 146.09ZM44.4356 146.564L46.2897 146.75L46.5656 145.596L44.7115 145.41L44.4356 146.564ZM44.5473 143.567L43.9831 145.928L45.164 146.046L45.7282 143.685L44.5473 143.567ZM47.128 143.235L45.2757 143.049L44.9998 144.203L46.8521 144.39L47.128 143.235Z" fill="black" mask="url(#path-15-inside-1_2521_40071)"/>
<path d="M63.3464 145.052V149.352C63.3464 151.898 61.6649 154.445 58.3018 156.39C51.5757 160.282 40.6699 160.282 33.9198 156.39C30.5568 154.445 28.8752 151.898 28.8752 149.352V145.052C28.8752 145.773 29.0194 146.493 29.2836 147.19C29.9562 148.992 31.5176 150.697 33.9198 152.09C40.6459 155.982 51.5517 155.982 58.3018 152.09C60.728 150.697 62.2654 148.992 62.938 147.19C63.2022 146.493 63.3464 145.773 63.3464 145.052Z" fill="#2C903D" stroke="black" stroke-width="0.593429" stroke-miterlimit="10"/>
<path d="M62.5242 152.434V148.134" stroke="black" stroke-width="0.593429" stroke-miterlimit="10" stroke-linecap="round" stroke-linejoin="round"/>
<path d="M60.6169 154.755V150.479" stroke="black" stroke-width="0.593429" stroke-miterlimit="10" stroke-linecap="round" stroke-linejoin="round"/>
<path d="M58.6643 156.174V151.898" stroke="black" stroke-width="0.593429" stroke-miterlimit="10" stroke-linecap="round" stroke-linejoin="round"/>
<path d="M56.7117 157.184V152.908" stroke="black" stroke-width="0.593429" stroke-miterlimit="10" stroke-linecap="round" stroke-linejoin="round"/>
<path d="M54.759 157.957V153.657" stroke="black" stroke-width="0.593429" stroke-miterlimit="10" stroke-linecap="round" stroke-linejoin="round"/>
<path d="M52.8518 158.501V154.225" stroke="black" stroke-width="0.593429" stroke-miterlimit="10" stroke-linecap="round" stroke-linejoin="round"/>
<path d="M50.9446 158.911V154.611" stroke="black" stroke-width="0.593429" stroke-miterlimit="10" stroke-linecap="round" stroke-linejoin="round"/>
<path d="M48.9919 159.165V154.889" stroke="black" stroke-width="0.593429" stroke-miterlimit="10" stroke-linecap="round" stroke-linejoin="round"/>
<path d="M47.0847 159.278V155.003" stroke="black" stroke-width="0.593429" stroke-miterlimit="10" stroke-linecap="round" stroke-linejoin="round"/>
<path d="M45.1321 159.278V155.003" stroke="black" stroke-width="0.593429" stroke-miterlimit="10" stroke-linecap="round" stroke-linejoin="round"/>
<path d="M43.2249 159.165V154.889" stroke="black" stroke-width="0.593429" stroke-miterlimit="10" stroke-linecap="round" stroke-linejoin="round"/>
<path d="M41.2722 158.887V154.611" stroke="black" stroke-width="0.593429" stroke-miterlimit="10" stroke-linecap="round" stroke-linejoin="round"/>
<path d="M39.365 158.502V154.202" stroke="black" stroke-width="0.593429" stroke-miterlimit="10" stroke-linecap="round" stroke-linejoin="round"/>
<path d="M37.4124 157.933V153.657" stroke="black" stroke-width="0.593429" stroke-miterlimit="10" stroke-linecap="round" stroke-linejoin="round"/>
<path d="M35.5051 157.185V152.885" stroke="black" stroke-width="0.593429" stroke-miterlimit="10" stroke-linecap="round" stroke-linejoin="round"/>
<path d="M33.5979 156.151V151.875" stroke="black" stroke-width="0.593429" stroke-miterlimit="10" stroke-linecap="round" stroke-linejoin="round"/>
<path d="M31.6453 154.737V150.462" stroke="black" stroke-width="0.593429" stroke-miterlimit="10" stroke-linecap="round" stroke-linejoin="round"/>
<path d="M30.0105 152.887V148.611" stroke="black" stroke-width="0.593429" stroke-miterlimit="10" stroke-linecap="round" stroke-linejoin="round"/>
</g>
<rect width="91.0933" height="91.0933" rx="4.27586" transform="matrix(0.866025 0.5 -0.866025 0.5 131.184 120.088)" fill="black"/>
<rect width="91.0933" height="91.0933" rx="4.27586" transform="matrix(0.866025 0.5 -0.866025 0.5 131.184 96.6733)" fill="#DCDCDC" stroke="black" stroke-width="0.593429" stroke-miterlimit="10" stroke-linecap="round" stroke-linejoin="round"/>
<path d="M127.493 185.623L56.0099 144.352C53.9648 143.171 52.3069 144.128 52.3069 146.49L52.3069 156.767C52.3069 159.129 53.9651 162 56.0103 163.181L127.493 204.442C129.538 205.622 131.196 204.665 131.196 202.303L131.196 192.037C131.196 189.675 129.538 186.803 127.493 185.623Z" fill="#DCDCDC" stroke="black" stroke-width="0.593429" stroke-miterlimit="10" stroke-linecap="round" stroke-linejoin="round"/>
<path d="M134.921 185.623L206.404 144.352C208.449 143.171 210.107 144.128 210.107 146.49L210.107 156.767C210.107 159.129 208.449 162 206.404 163.181L134.921 204.442C132.876 205.622 131.218 204.665 131.218 202.303L131.218 192.037C131.218 189.675 132.876 186.803 134.921 185.623Z" fill="#DCDCDC" stroke="black" stroke-width="0.593429" stroke-miterlimit="10" stroke-linecap="round" stroke-linejoin="round"/>
<rect width="91.0933" height="91.0933" rx="4.27586" transform="matrix(0.866025 0.5 -0.866025 0.5 131.184 93.364)" fill="black"/>
<rect width="91.0933" height="91.0933" rx="4.27586" transform="matrix(0.866025 0.5 -0.866025 0.5 131.184 70.4319)" fill="#DCDCDC" stroke="black" stroke-width="0.593429" stroke-miterlimit="10" stroke-linecap="round" stroke-linejoin="round"/>
<path d="M127.493 159.387L56.0099 118.116C53.9648 116.935 52.3069 117.893 52.3069 120.254L52.3069 130.531C52.3069 132.893 53.9651 135.765 56.0103 136.945L127.493 178.206C129.538 179.386 131.196 178.429 131.196 176.068L131.196 165.801C131.196 163.439 129.538 160.568 127.493 159.387Z" fill="#DCDCDC" stroke="black" stroke-width="0.593429" stroke-miterlimit="10" stroke-linecap="round" stroke-linejoin="round"/>
<rect width="91.0933" height="91.0933" rx="4.27586" transform="matrix(0.866025 0.5 -0.866025 0.5 131.184 66.6401)" fill="black"/>
<path d="M134.921 159.387L206.404 118.116C208.449 116.935 210.107 117.893 210.107 120.254L210.107 130.531C210.107 132.893 208.449 135.765 206.404 136.945L134.921 178.206C132.876 179.386 131.218 178.429 131.218 176.068L131.218 165.801C131.218 163.439 132.876 160.568 134.921 159.387Z" fill="#DCDCDC" stroke="black" stroke-width="0.593429" stroke-miterlimit="10" stroke-linecap="round" stroke-linejoin="round"/>
<rect width="91.0933" height="91.0933" rx="4.27586" transform="matrix(0.866025 0.5 -0.866025 0.5 131.184 41.71)" fill="white" stroke="black" stroke-width="0.593429" stroke-miterlimit="10" stroke-linecap="round" stroke-linejoin="round"/>
<path d="M158.34 92.2474C157.013 94.6675 154.671 96.9315 151.314 98.8832C140.228 105.285 122.195 105.285 111.031 98.8832C107.674 96.9315 105.332 94.6675 104.005 92.2474C100.882 86.5485 103.224 80.147 111.031 75.619C122.117 69.2175 140.15 69.2175 151.314 75.619C159.199 80.147 161.463 86.5485 158.34 92.2474Z" fill="#DCDCDC" stroke="black" stroke-width="0.593429" stroke-miterlimit="10" stroke-linecap="round" stroke-linejoin="round"/>
<path d="M158.364 92.245C157.037 94.6651 154.695 96.9291 151.338 98.8808C140.252 105.282 122.219 105.282 111.055 98.8808C107.698 96.9291 105.356 94.6651 104.029 92.245C105.356 89.8249 107.698 87.561 111.055 85.6093C122.141 79.2077 140.174 79.2077 151.338 85.6093C154.773 87.4829 157.037 89.8249 158.364 92.245Z" fill="black" stroke="black" stroke-width="0.593429" stroke-miterlimit="10" stroke-linecap="round" stroke-linejoin="round"/>
<path d="M127.493 130.665L56.0099 89.3943C53.9648 88.2135 52.3069 89.1707 52.3069 91.5322L52.3069 101.809C52.3069 104.171 53.9651 107.043 56.0103 108.223L127.493 149.484C129.538 150.664 131.196 149.707 131.196 147.346L131.196 137.079C131.196 134.717 129.538 131.846 127.493 130.665Z" fill="#DCDCDC" stroke="black" stroke-width="0.593429" stroke-miterlimit="10" stroke-linecap="round" stroke-linejoin="round"/>
<path d="M65.8391 106.004C66.3552 105.784 66.4643 104.88 66.0829 103.983C65.7014 103.087 64.9738 102.538 64.4577 102.758C63.9416 102.978 63.8324 103.882 64.2139 104.779C64.5954 105.675 65.323 106.224 65.8391 106.004Z" fill="black"/>
<path d="M70.8342 108.888C71.3503 108.668 71.4594 107.763 71.078 106.867C70.6965 105.97 69.9689 105.422 69.4528 105.641C68.9367 105.861 68.8275 106.766 69.209 107.662C69.5905 108.559 70.3181 109.107 70.8342 108.888Z" fill="black"/>
<path d="M75.8293 111.788C76.3454 111.568 76.4546 110.664 76.0731 109.767C75.6916 108.871 74.964 108.322 74.4479 108.542C73.9318 108.762 73.8227 109.666 74.2041 110.563C74.5856 111.459 75.3132 112.008 75.8293 111.788Z" fill="black"/>
<path d="M65.8391 136.054C66.3552 135.835 66.4643 134.93 66.0829 134.033C65.7014 133.137 64.9738 132.588 64.4577 132.808C63.9416 133.028 63.8324 133.932 64.2139 134.829C64.5954 135.725 65.323 136.274 65.8391 136.054Z" fill="black"/>
<path d="M70.8342 138.926C71.3503 138.707 71.4594 137.802 71.078 136.906C70.6965 136.009 69.9689 135.461 69.4528 135.68C68.9367 135.9 68.8275 136.805 69.209 137.701C69.5905 138.597 70.3181 139.146 70.8342 138.926Z" fill="black"/>
<path d="M75.8293 141.821C76.3454 141.602 76.4546 140.697 76.0731 139.801C75.6916 138.904 74.964 138.356 74.4479 138.575C73.9318 138.795 73.8227 139.7 74.2041 140.596C74.5856 141.492 75.3132 142.041 75.8293 141.821Z" fill="black"/>
<path d="M65.8391 161.382C66.3552 161.162 66.4643 160.257 66.0829 159.361C65.7014 158.465 64.9738 157.916 64.4577 158.136C63.9416 158.355 63.8324 159.26 64.2139 160.156C64.5954 161.053 65.323 161.601 65.8391 161.382Z" fill="black"/>
<path d="M70.8342 164.254C71.3503 164.034 71.4594 163.13 71.078 162.233C70.6965 161.337 69.9689 160.788 69.4528 161.008C68.9367 161.227 68.8275 162.132 69.209 163.029C69.5905 163.925 70.3181 164.473 70.8342 164.254Z" fill="black"/>
<path d="M75.8293 167.149C76.3454 166.929 76.4546 166.024 76.0731 165.128C75.6916 164.232 74.964 163.683 74.4479 163.903C73.9318 164.122 73.8227 165.027 74.2041 165.923C74.5856 166.82 75.3132 167.368 75.8293 167.149Z" fill="black"/>
<path d="M134.921 130.665L206.404 89.3943C208.449 88.2135 210.107 89.1707 210.107 91.5322L210.107 101.809C210.107 104.171 208.449 107.043 206.404 108.223L134.921 149.484C132.876 150.664 131.218 149.707 131.218 147.346L131.218 137.079C131.218 134.717 132.876 131.846 134.921 130.665Z" fill="#DCDCDC" stroke="black" stroke-width="0.593429" stroke-miterlimit="10" stroke-linecap="round" stroke-linejoin="round"/>
<mask id="path-59-inside-2_2521_40071" fill="white">
<path fill-rule="evenodd" clip-rule="evenodd" d="M193.01 147.599C192.914 147.543 192.817 147.49 192.719 147.439L192.992 147.597C193.087 147.652 193.182 147.709 193.275 147.768C193.877 147.66 194.46 147.598 195.02 147.582C196.633 147.532 198.059 147.858 199.232 148.535C199.353 148.605 199.471 148.678 199.587 148.756L206.615 152.813C208.773 154.06 210.069 156.497 210.071 159.967L210.088 159.977C210.088 167.971 203.227 178.414 194.763 183.301L187.357 179.025L187.354 179.026L194.738 183.289C192.48 184.593 190.336 185.37 188.405 185.656L181.024 181.394L181.023 181.395L188.414 185.662C186.756 187.453 184.964 188.944 183.092 190.024L175.699 185.756L175.694 185.758L183.087 190.027C181.508 190.939 179.985 191.494 178.551 191.718L178.55 191.718C176.87 193.286 175.049 194.665 173.147 195.762L165.757 191.496L165.74 191.505L173.119 195.766C168.334 198.528 164.06 198.924 161.25 197.301L153.846 193.026C154.018 193.125 154.196 193.217 154.379 193.301L154.103 193.142C154.033 193.105 153.963 193.066 153.895 193.027C151.734 191.779 150.438 189.339 150.438 185.864V185.859C150.44 182.331 151.776 178.328 153.996 174.536C155.883 171.272 158.434 168.164 161.382 165.64L161.403 165.652C161.408 165.648 161.412 165.644 161.417 165.64C163.362 157.714 167.862 150.045 173.316 145.735C174.091 145.121 174.886 144.575 175.695 144.106L175.686 144.101C177.816 142.872 179.844 142.291 181.686 142.293C183.125 142.292 184.451 142.645 185.625 143.323C185.744 143.391 185.861 143.463 185.976 143.538L193.01 147.599Z"/>
</mask>
<path fill-rule="evenodd" clip-rule="evenodd" d="M193.01 147.599C192.914 147.543 192.817 147.49 192.719 147.439L192.992 147.597C193.087 147.652 193.182 147.709 193.275 147.768C193.877 147.66 194.46 147.598 195.02 147.582C196.633 147.532 198.059 147.858 199.232 148.535C199.353 148.605 199.471 148.678 199.587 148.756L206.615 152.813C208.773 154.06 210.069 156.497 210.071 159.967L210.088 159.977C210.088 167.971 203.227 178.414 194.763 183.301L187.357 179.025L187.354 179.026L194.738 183.289C192.48 184.593 190.336 185.37 188.405 185.656L181.024 181.394L181.023 181.395L188.414 185.662C186.756 187.453 184.964 188.944 183.092 190.024L175.699 185.756L175.694 185.758L183.087 190.027C181.508 190.939 179.985 191.494 178.551 191.718L178.55 191.718C176.87 193.286 175.049 194.665 173.147 195.762L165.757 191.496L165.74 191.505L173.119 195.766C168.334 198.528 164.06 198.924 161.25 197.301L153.846 193.026C154.018 193.125 154.196 193.217 154.379 193.301L154.103 193.142C154.033 193.105 153.963 193.066 153.895 193.027C151.734 191.779 150.438 189.339 150.438 185.864V185.859C150.44 182.331 151.776 178.328 153.996 174.536C155.883 171.272 158.434 168.164 161.382 165.64L161.403 165.652C161.408 165.648 161.412 165.644 161.417 165.64C163.362 157.714 167.862 150.045 173.316 145.735C174.091 145.121 174.886 144.575 175.695 144.106L175.686 144.101C177.816 142.872 179.844 142.291 181.686 142.293C183.125 142.292 184.451 142.645 185.625 143.323C185.744 143.391 185.861 143.463 185.976 143.538L193.01 147.599Z" fill="black"/>
<path d="M153.994 192.769L153.993 192.768L153.695 193.282L153.697 193.282L153.994 192.769ZM192.719 147.439L192.993 146.913C192.707 146.764 192.354 146.871 192.199 147.154C192.044 147.437 192.143 147.792 192.422 147.953L192.719 147.439ZM193.01 147.599L192.713 148.113C192.997 148.277 193.36 148.179 193.524 147.895C193.687 147.612 193.59 147.249 193.306 147.085L193.01 147.599ZM192.992 147.597L192.695 148.111L192.695 148.111L192.992 147.597ZM193.275 147.768L192.957 148.269C193.082 148.349 193.234 148.379 193.38 148.352L193.275 147.768ZM195.02 147.582L195.037 148.176L195.039 148.175L195.02 147.582ZM199.232 148.535L198.935 149.049V149.049L199.232 148.535ZM199.587 148.756L199.256 149.249C199.267 149.256 199.278 149.263 199.29 149.269L199.587 148.756ZM206.615 152.813L206.912 152.299L206.911 152.299L206.615 152.813ZM210.071 159.967L209.478 159.967C209.478 160.179 209.591 160.375 209.774 160.481L210.071 159.967ZM210.088 159.977H210.681C210.681 159.765 210.568 159.569 210.385 159.463L210.088 159.977ZM194.763 183.301L194.466 183.815C194.65 183.921 194.876 183.921 195.059 183.815L194.763 183.301ZM187.357 179.025L187.653 178.511C187.47 178.405 187.244 178.405 187.06 178.511L187.357 179.025ZM187.354 179.026L187.058 178.512C186.874 178.618 186.761 178.814 186.761 179.026C186.761 179.238 186.874 179.434 187.058 179.54L187.354 179.026ZM194.738 183.289L195.035 183.803C195.218 183.697 195.332 183.501 195.332 183.289C195.332 183.077 195.218 182.881 195.035 182.775L194.738 183.289ZM188.405 185.656L188.109 186.169C188.225 186.236 188.36 186.262 188.492 186.243L188.405 185.656ZM181.024 181.394L181.321 180.88C181.081 180.742 180.778 180.787 180.589 180.99L181.024 181.394ZM181.023 181.395L180.589 180.991C180.466 181.123 180.41 181.304 180.437 181.483C180.464 181.662 180.57 181.818 180.727 181.909L181.023 181.395ZM188.414 185.662L188.85 186.065C188.972 185.932 189.028 185.751 189.001 185.573C188.974 185.395 188.867 185.238 188.711 185.148L188.414 185.662ZM183.092 190.024L182.796 190.538C182.979 190.644 183.205 190.644 183.389 190.538L183.092 190.024ZM175.699 185.756L175.995 185.242C175.812 185.136 175.586 185.136 175.402 185.242L175.699 185.756ZM175.694 185.758L175.398 185.244C175.214 185.35 175.101 185.546 175.101 185.758C175.101 185.97 175.214 186.166 175.397 186.272L175.694 185.758ZM183.087 190.027L183.384 190.541C183.568 190.435 183.681 190.239 183.681 190.027C183.681 189.815 183.568 189.619 183.384 189.513L183.087 190.027ZM178.551 191.718L178.254 192.232C178.372 192.3 178.509 192.326 178.643 192.305L178.551 191.718ZM178.55 191.718L178.848 191.204C178.622 191.073 178.336 191.106 178.145 191.284L178.55 191.718ZM173.147 195.762L172.851 196.276C173.034 196.382 173.261 196.382 173.444 196.276L173.147 195.762ZM165.757 191.496L166.054 190.982C165.87 190.876 165.644 190.876 165.461 190.981L165.757 191.496ZM165.74 191.505L165.444 190.991C165.26 191.097 165.147 191.293 165.147 191.505C165.146 191.717 165.26 191.913 165.443 192.019L165.74 191.505ZM173.119 195.766L173.416 196.279C173.599 196.173 173.712 195.978 173.712 195.766C173.712 195.554 173.599 195.358 173.416 195.252L173.119 195.766ZM161.25 197.301L161.547 196.787L161.547 196.787L161.25 197.301ZM153.846 193.026L154.142 192.512C153.858 192.348 153.496 192.445 153.332 192.729C153.168 193.013 153.265 193.376 153.549 193.54L153.846 193.026ZM154.379 193.301L154.131 193.84C154.419 193.973 154.76 193.855 154.906 193.574C155.051 193.292 154.95 192.946 154.675 192.787L154.379 193.301ZM154.103 193.142L154.4 192.628C154.393 192.624 154.387 192.621 154.38 192.617L154.103 193.142ZM153.895 193.027L154.191 192.513L154.191 192.513L153.895 193.027ZM150.438 185.859L149.845 185.859V185.859H150.438ZM153.996 174.536L154.508 174.835L154.51 174.833L153.996 174.536ZM161.382 165.64L161.679 165.126C161.461 165 161.187 165.026 160.996 165.189L161.382 165.64ZM161.403 165.652L161.106 166.166C161.324 166.292 161.598 166.266 161.789 166.103L161.403 165.652ZM161.417 165.64L161.803 166.091C161.897 166.01 161.964 165.902 161.993 165.781L161.417 165.64ZM173.316 145.735L173.684 146.2L173.684 146.2L173.316 145.735ZM175.695 144.106L175.993 144.62C176.176 144.514 176.289 144.318 176.289 144.106C176.288 143.894 176.175 143.698 175.992 143.592L175.695 144.106ZM175.686 144.101L175.39 143.587C175.206 143.693 175.093 143.889 175.093 144.101C175.093 144.313 175.206 144.509 175.39 144.615L175.686 144.101ZM181.686 142.293L181.686 142.887L181.687 142.887L181.686 142.293ZM185.625 143.323L185.329 143.837L185.329 143.837L185.625 143.323ZM185.976 143.538L185.653 144.036C185.662 144.041 185.671 144.047 185.68 144.052L185.976 143.538ZM192.445 147.966C192.535 148.013 192.625 148.062 192.713 148.113L193.306 147.085C193.203 147.025 193.099 146.968 192.993 146.913L192.445 147.966ZM193.288 147.083L193.016 146.925L192.422 147.953L192.695 148.111L193.288 147.083ZM193.593 147.268C193.493 147.204 193.391 147.142 193.288 147.083L192.695 148.111C192.783 148.162 192.87 148.214 192.957 148.269L193.593 147.268ZM195.003 146.989C194.411 147.006 193.799 147.071 193.17 147.184L193.38 148.352C193.955 148.249 194.509 148.191 195.037 148.176L195.003 146.989ZM199.529 148.021C198.245 147.279 196.704 146.936 195.001 146.989L195.039 148.175C196.561 148.128 197.874 148.436 198.935 149.049L199.529 148.021ZM199.917 148.262C199.79 148.178 199.661 148.097 199.529 148.021L198.935 149.049C199.045 149.112 199.152 149.179 199.256 149.249L199.917 148.262ZM206.911 152.299L199.883 148.242L199.29 149.269L206.318 153.327L206.911 152.299ZM210.664 159.966C210.662 156.346 209.301 153.679 206.912 152.299L206.318 153.327C208.245 154.44 209.475 156.648 209.478 159.967L210.664 159.966ZM210.385 159.463L210.368 159.453L209.774 160.481L209.791 160.491L210.385 159.463ZM195.059 183.815C199.383 181.318 203.279 177.416 206.095 173.13C208.907 168.851 210.681 164.129 210.681 159.977H209.495C209.495 163.82 207.838 168.316 205.103 172.478C202.373 176.634 198.606 180.396 194.466 182.787L195.059 183.815ZM187.06 179.539L194.466 183.815L195.059 182.787L187.653 178.511L187.06 179.539ZM187.651 179.54L187.653 179.539L187.06 178.511L187.058 178.512L187.651 179.54ZM195.035 182.775L187.651 178.512L187.058 179.54L194.441 183.803L195.035 182.775ZM188.492 186.243C190.511 185.943 192.726 185.136 195.035 183.803L194.441 182.775C192.233 184.05 190.16 184.796 188.318 185.069L188.492 186.243ZM180.727 181.908L188.109 186.169L188.702 185.142L181.321 180.88L180.727 181.908ZM181.458 181.799L181.459 181.798L180.589 180.99L180.589 180.991L181.458 181.799ZM188.711 185.148L181.32 180.881L180.727 181.909L188.117 186.176L188.711 185.148ZM183.389 190.538C185.321 189.423 187.16 187.891 188.85 186.065L187.979 185.259C186.353 187.015 184.606 188.465 182.796 189.51L183.389 190.538ZM175.402 186.27L182.796 190.538L183.389 189.51L175.995 185.242L175.402 186.27ZM175.99 186.272L175.995 186.27L175.402 185.242L175.398 185.244L175.99 186.272ZM183.384 189.513L175.991 185.244L175.397 186.272L182.791 190.541L183.384 189.513ZM178.643 192.305C180.161 192.067 181.753 191.483 183.384 190.541L182.791 189.513C181.263 190.395 179.809 190.92 178.459 191.132L178.643 192.305ZM178.253 192.231L178.254 192.232L178.849 191.205L178.848 191.204L178.253 192.231ZM173.444 196.276C175.389 195.153 177.246 193.747 178.955 192.152L178.145 191.284C176.494 192.825 174.709 194.176 172.851 195.249L173.444 196.276ZM165.46 192.009L172.851 196.276L173.444 195.249L166.054 190.982L165.46 192.009ZM166.036 192.019L166.053 192.01L165.461 190.981L165.444 190.991L166.036 192.019ZM173.416 195.252L166.037 190.991L165.443 192.019L172.822 196.279L173.416 195.252ZM160.953 197.814C164.032 199.592 168.55 199.088 173.416 196.279L172.822 195.252C168.117 197.968 164.089 198.255 161.547 196.787L160.953 197.814ZM153.549 193.54L160.953 197.815L161.547 196.787L154.142 192.512L153.549 193.54ZM154.627 192.762C154.46 192.685 154.299 192.602 154.142 192.512L153.549 193.54C153.737 193.648 153.931 193.749 154.131 193.84L154.627 192.762ZM153.806 193.656L154.082 193.815L154.675 192.787L154.4 192.628L153.806 193.656ZM153.598 193.541C153.673 193.584 153.749 193.626 153.825 193.666L154.38 192.617C154.317 192.584 154.254 192.549 154.191 192.513L153.598 193.541ZM149.845 185.864C149.845 189.489 151.206 192.159 153.598 193.541L154.191 192.513C152.262 191.399 151.032 189.188 151.032 185.864H149.845ZM149.845 185.859V185.864H151.032V185.859H149.845ZM153.484 174.236C151.23 178.085 149.846 182.193 149.845 185.859L151.032 185.859C151.033 182.47 152.322 178.571 154.508 174.835L153.484 174.236ZM160.996 165.189C157.996 167.758 155.402 170.919 153.482 174.238L154.51 174.833C156.364 171.626 158.872 168.57 161.768 166.091L160.996 165.189ZM161.7 165.138L161.679 165.126L161.085 166.154L161.106 166.166L161.7 165.138ZM161.031 165.189C161.026 165.193 161.021 165.197 161.017 165.201L161.789 166.103C161.794 166.099 161.798 166.095 161.803 166.091L161.031 165.189ZM172.948 145.269C167.368 149.679 162.81 157.474 160.841 165.498L161.993 165.781C163.914 157.954 168.355 150.412 173.684 146.2L172.948 145.269ZM175.398 143.593C174.561 144.077 173.743 144.639 172.947 145.269L173.684 146.2C174.439 145.602 175.21 145.073 175.993 144.62L175.398 143.593ZM175.39 144.615L175.399 144.62L175.992 143.592L175.983 143.587L175.39 144.615ZM181.687 141.7C179.718 141.697 177.589 142.318 175.39 143.587L175.983 144.615C178.043 143.426 179.969 142.885 181.686 142.887L181.687 141.7ZM185.922 142.809C184.655 142.077 183.225 141.698 181.686 141.7L181.687 142.887C183.025 142.885 184.248 143.213 185.329 143.837L185.922 142.809ZM186.3 143.04C186.176 142.96 186.05 142.883 185.922 142.809L185.329 143.837C185.438 143.9 185.546 143.966 185.653 144.036L186.3 143.04ZM193.306 147.085L186.273 143.024L185.68 144.052L192.713 148.113L193.306 147.085Z" fill="black" mask="url(#path-59-inside-2_2521_40071)"/>
<mask id="path-61-inside-3_2521_40071" fill="white">
<path fill-rule="evenodd" clip-rule="evenodd" d="M197.286 153.08C204.558 150.011 210.106 152.773 210.106 159.962C210.106 167.957 203.245 178.399 194.781 183.286C192.516 184.593 190.367 185.37 188.433 185.654C186.775 187.446 184.982 188.937 183.11 190.017C181.532 190.928 180.01 191.483 178.578 191.708C176.895 193.28 175.071 194.662 173.165 195.762C164.701 200.649 157.84 198.129 157.84 190.134C157.84 183.566 162.472 175.345 168.818 169.911C171.04 160.85 176.601 152.126 183.11 148.368C189.508 144.674 194.991 146.837 197.286 153.08Z"/>
</mask>
<path fill-rule="evenodd" clip-rule="evenodd" d="M197.286 153.08C204.558 150.011 210.106 152.773 210.106 159.962C210.106 167.957 203.245 178.399 194.781 183.286C192.516 184.593 190.367 185.37 188.433 185.654C186.775 187.446 184.982 188.937 183.11 190.017C181.532 190.928 180.01 191.483 178.578 191.708C176.895 193.28 175.071 194.662 173.165 195.762C164.701 200.649 157.84 198.129 157.84 190.134C157.84 183.566 162.472 175.345 168.818 169.911C171.04 160.85 176.601 152.126 183.11 148.368C189.508 144.674 194.991 146.837 197.286 153.08Z" fill="white"/>
<path d="M197.286 153.08L196.801 153.556L196.905 153.84L197.217 153.708L197.286 153.08ZM188.433 185.654L188.612 184.995L188.418 185.023L188.227 185.229L188.433 185.654ZM178.578 191.708L178.754 191.049L178.591 191.075L178.426 191.229L178.578 191.708ZM168.818 169.911L168.939 170.418L169.217 170.18L169.307 169.815L168.818 169.911ZM197.217 153.708C204.32 150.71 209.592 153.456 209.592 160.258L210.62 159.665C210.62 152.089 204.796 149.311 197.354 152.452L197.217 153.708ZM209.592 160.258C209.592 167.82 203.062 177.911 194.781 182.692L194.781 183.879C203.427 178.887 210.62 168.093 210.62 159.665L209.592 160.258ZM194.781 182.692C192.577 183.965 190.488 184.719 188.612 184.995L188.253 186.314C190.245 186.021 192.456 185.221 194.781 183.879L194.781 182.692ZM188.227 185.229C186.632 186.953 184.908 188.386 183.11 189.424L183.11 190.611C185.055 189.488 186.918 187.939 188.638 186.08L188.227 185.229ZM183.11 189.424C181.594 190.299 180.131 190.833 178.754 191.049L178.402 192.368C179.889 192.134 181.471 191.557 183.11 190.611L183.11 189.424ZM178.426 191.229C176.793 192.755 175.02 194.098 173.165 195.169L173.165 196.356C175.122 195.226 176.997 193.806 178.73 192.188L178.426 191.229ZM173.165 195.169C164.884 199.95 158.354 197.399 158.354 189.838L157.326 190.431C157.326 198.859 164.519 201.348 173.165 196.356L173.165 195.169ZM158.354 189.838C158.354 183.62 162.751 175.716 168.939 170.418L168.698 169.404C162.192 174.974 157.326 183.511 157.326 190.431L158.354 189.838ZM169.307 169.815C171.476 160.969 176.873 152.563 183.11 148.962L183.11 147.775C176.33 151.689 170.605 160.731 168.33 170.007L169.307 169.815ZM183.11 148.962C189.242 145.421 194.561 147.462 196.801 153.556L197.771 152.604C195.421 146.211 189.775 143.927 183.11 147.775L183.11 148.962Z" fill="black" mask="url(#path-61-inside-3_2521_40071)"/>
<rect width="20.0588" height="2.28317" rx="1.14158" transform="matrix(0.866025 0.5 -2.20305e-08 1 99.5334 122.971)" fill="black"/>
<rect width="20.0588" height="2.28317" rx="1.14158" transform="matrix(0.866025 0.5 -2.20305e-08 1 99.5334 152.59)" fill="black"/>
<rect width="20.0588" height="2.28317" rx="1.14158" transform="matrix(0.866025 0.5 -2.20305e-08 1 99.5334 180.359)" fill="black"/>
<path d="M194.895 106.889C194.378 106.67 194.269 105.765 194.651 104.869C195.032 103.972 195.76 103.424 196.276 103.643C196.792 103.863 196.901 104.768 196.52 105.664C196.138 106.561 195.411 107.109 194.895 106.889Z" fill="black"/>
<path d="M189.854 109.762C189.338 109.542 189.229 108.637 189.61 107.741C189.992 106.845 190.719 106.296 191.235 106.516C191.752 106.735 191.861 107.64 191.479 108.536C191.098 109.433 190.37 109.981 189.854 109.762Z" fill="black"/>
<path d="M184.859 112.657C184.343 112.437 184.234 111.532 184.615 110.636C184.997 109.739 185.724 109.191 186.24 109.41C186.756 109.63 186.866 110.535 186.484 111.431C186.103 112.328 185.375 112.876 184.859 112.657Z" fill="black"/>
<path d="M194.895 136.917C194.378 136.697 194.269 135.793 194.651 134.896C195.032 134 195.76 133.451 196.276 133.671C196.792 133.89 196.901 134.795 196.52 135.692C196.138 136.588 195.411 137.137 194.895 136.917Z" fill="black"/>
<path d="M189.854 139.789C189.338 139.57 189.229 138.665 189.61 137.768C189.992 136.872 190.719 136.323 191.235 136.543C191.752 136.763 191.861 137.667 191.479 138.564C191.098 139.46 190.37 140.009 189.854 139.789Z" fill="black"/>
<path d="M184.859 142.678C184.343 142.459 184.234 141.554 184.615 140.658C184.997 139.761 185.724 139.213 186.24 139.432C186.756 139.652 186.866 140.557 186.484 141.453C186.103 142.349 185.375 142.898 184.859 142.678Z" fill="black"/>
<mask id="mask1_2521_40071" style="mask-type:alpha" maskUnits="userSpaceOnUse" x="98" y="34" width="56" height="55">
<path d="M110.738 78.0169C104.544 72.08 100.686 64.8949 99.4466 58.087C98.2075 51.2787 99.5888 44.8695 103.837 40.4365C108.086 36.0035 114.431 34.3516 121.286 35.3007C128.14 36.2497 135.482 39.7992 141.677 45.7361C147.871 51.673 151.729 58.8581 152.968 65.666C154.207 72.4743 152.826 78.8835 148.577 83.3165C144.329 87.7495 137.984 89.4014 131.129 88.4523C124.275 87.5033 116.932 83.9538 110.738 78.0169Z" fill="white" stroke="black" stroke-width="0.534483"/>
</mask>
<g mask="url(#mask1_2521_40071)">
<path d="M110.758 77.9956C104.568 72.0626 100.713 64.8829 99.4757 58.0817C98.2377 51.2801 99.6182 44.8814 103.859 40.4569C108.099 36.0325 114.434 34.3817 121.282 35.3299C128.129 36.278 135.466 39.8243 141.656 45.7574C147.847 51.6904 151.701 58.8701 152.939 65.6713C154.177 72.4729 152.797 78.8716 148.556 83.2961C144.315 87.7205 137.981 89.3713 131.133 88.4231C124.286 87.475 116.949 83.9287 110.758 77.9956Z" fill="url(#paint0_linear_2521_40071)" stroke="black" stroke-width="0.593429"/>
<rect x="105.664" y="99.1538" width="47.9748" height="29.0374" transform="rotate(-39.148 105.664 99.1538)" fill="black"/>
<path d="M99.9585 45.8589L108.031 39.2191M99.2583 51.3986L107.046 45.0615M99.783 56.0256L107.411 50.2406M100.837 60.1616L108.166 54.8796M102.329 64.0271L109.471 58.7542M104.125 67.631L110.84 62.5396M106.179 71.0837L113.388 65.8249M108.536 74.2748L114.952 69.3401M111.096 77.2916L117.72 72.3212M113.857 81.0954L121.051 75.6574M117.244 84.3539L124.826 78.3766M121.02 87.0732L128.601 81.0959M125.184 89.253L132.821 83.198M129.837 89.6165L135.986 84.49" stroke="black" stroke-width="0.593429" stroke-miterlimit="10" stroke-linecap="round" stroke-linejoin="round"/>
</g>
<path d="M114.821 73.7567C108.624 67.8178 104.542 60.8682 102.939 54.4449C101.336 48.0172 102.224 42.1629 105.89 38.3375C109.556 34.5121 115.368 33.3767 121.858 34.7059C128.343 36.0341 135.46 39.8184 141.656 45.7574C147.853 51.6963 151.936 58.6459 153.538 65.0692C155.141 71.4969 154.254 77.3513 150.587 81.1766C146.921 85.002 141.11 86.1374 134.62 84.8082C128.134 83.48 121.017 79.6957 114.821 73.7567Z" fill="#FFF1C1" stroke="black" stroke-width="0.593429"/>
<path d="M116.954 71.4145C111.494 66.1823 107.834 60.129 106.318 54.5837C104.801 49.0317 105.444 44.0447 108.497 40.8592C111.551 37.6737 116.506 36.8193 122.117 38.0996C127.722 39.3784 133.925 42.7789 139.384 48.0111C144.843 53.2433 148.504 59.2967 150.019 64.8419C151.537 70.3939 150.893 75.3809 147.84 78.5664C144.787 81.7519 139.832 82.6063 134.22 81.326C128.616 80.0472 122.413 76.6467 116.954 71.4145Z" fill="white" stroke="black" stroke-width="0.593429"/>
<path fill-rule="evenodd" clip-rule="evenodd" d="M132.08 52.3614C129.587 49.5396 126.619 49.301 123.608 49.9514L120.492 45.9239L118.326 46.6428L121.36 50.5642C120.791 50.7532 120.219 50.959 119.651 51.164L116.597 47.2165L114.432 47.9347L117.546 51.9614C117.086 52.1278 116.633 52.2905 116.184 52.4398L116.174 52.4274L113.186 53.4175L115.212 56.0356C115.212 56.0356 116.785 55.4704 116.784 55.5125C117.662 55.2217 118.393 55.7035 118.861 56.1734L122.411 60.7615C122.472 60.7418 122.553 60.7185 122.653 60.7027L122.58 60.727C122.53 60.7436 122.477 60.7608 122.425 60.7789L127.397 67.2067C127.601 67.532 127.824 68.0841 127.212 68.2887C127.261 68.3073 125.637 68.8107 125.637 68.8107L127.472 71.8812L130.29 70.9459C130.605 70.8418 130.92 70.7422 131.232 70.6435L131.232 70.6435C131.439 70.5778 131.645 70.5126 131.849 70.4469L135.001 74.52L137.165 73.8025L134.047 69.7721C134.652 69.5889 135.231 69.4035 135.792 69.2167L138.895 73.2288L141.061 72.5099L137.915 68.4435C141.374 66.9988 143.12 65.1148 140.442 61.1394C138.286 57.9381 135.915 56.9773 133.413 57.1013C134.109 55.9609 133.907 54.4251 132.08 52.3614ZM135.814 62.0777C137.975 64.8701 134.052 66.0953 132.257 66.6559L132.257 66.6559C132.095 66.7063 131.951 66.7514 131.83 66.7917L127.655 61.3945C127.803 61.3456 127.978 61.2813 128.177 61.2085C129.957 60.557 133.604 59.2217 135.814 62.0777ZM126.089 58.8042C127.59 58.3408 130.864 57.33 128.901 54.791C126.892 52.1946 123.86 53.3173 122.379 53.8657C122.213 53.9274 122.066 53.9818 121.942 54.0228L125.729 58.9177C125.831 58.8839 125.953 58.8463 126.089 58.8042Z" fill="#FFF1C1"/>
<path d="M123.608 49.9514L123.372 50.0311L123.56 50.2749L123.793 50.2247L123.608 49.9514ZM132.08 52.3614L131.864 52.4661L131.864 52.4665L132.08 52.3614ZM120.492 45.9239L120.729 45.8442L120.523 45.578L120.286 45.6566L120.492 45.9239ZM118.326 46.6428L118.121 46.3755L117.882 46.4546L118.09 46.7225L118.326 46.6428ZM121.36 50.5642L121.566 50.8315L121.805 50.7524L121.597 50.4845L121.36 50.5642ZM119.651 51.164L119.414 51.2436L119.624 51.5152L119.861 51.4297L119.651 51.164ZM116.597 47.2165L116.834 47.1368L116.628 46.8706L116.391 46.9492L116.597 47.2165ZM114.432 47.9347L114.226 47.6674L113.988 47.7464L114.195 48.0144L114.432 47.9347ZM117.546 51.9614L117.757 52.227L117.986 52.1442L117.783 51.8817L117.546 51.9614ZM116.184 52.4398L115.953 52.5263L116.159 52.7838L116.39 52.7071L116.184 52.4398ZM116.174 52.4274L116.406 52.3409L116.199 52.0836L115.968 52.16L116.174 52.4274ZM113.186 53.4175L112.98 53.1501L112.741 53.2291L112.949 53.4972L113.186 53.4175ZM115.212 56.0356L114.975 56.1154L115.185 56.3866L115.422 56.3014L115.212 56.0356ZM116.784 55.5125L116.47 55.3932L116.459 55.9557L116.99 55.7799L116.784 55.5125ZM118.861 56.1734L119.098 56.0937L119.079 56.0688L119.056 56.0458L118.861 56.1734ZM122.411 60.7615L122.174 60.8412L122.379 61.1059L122.616 61.0293L122.411 60.7615ZM122.653 60.7027L122.859 60.97L122.482 60.4271L122.653 60.7027ZM122.58 60.727L122.785 60.9944L122.786 60.9944L122.58 60.727ZM122.425 60.7789L122.217 60.5122L121.982 60.5929L122.188 60.8586L122.425 60.7789ZM127.397 67.2067L127.66 67.1644L127.648 67.1454L127.634 67.127L127.397 67.2067ZM127.212 68.2887L127.005 68.0215L126.383 68.2294L127.208 68.5409L127.212 68.2887ZM125.637 68.8107L125.435 68.5421L125.227 68.6066L125.369 68.8457L125.637 68.8107ZM127.472 71.8812L127.204 71.9163L127.398 72.2411L127.677 72.1485L127.472 71.8812ZM130.29 70.9459L130.085 70.6784L130.084 70.6785L130.29 70.9459ZM131.232 70.6435L131.031 70.3747L131.028 70.3754L131.232 70.6435ZM131.232 70.6435L131.433 70.9124L131.435 70.9117L131.232 70.6435ZM131.849 70.4469L132.086 70.3671L131.881 70.1027L131.645 70.179L131.849 70.4469ZM135.001 74.52L134.765 74.5997L134.97 74.8658L135.207 74.7873L135.001 74.52ZM137.165 73.8025L137.371 74.0698L137.61 73.9908L137.402 73.7227L137.165 73.8025ZM134.047 69.7721L133.846 69.5032L133.599 69.5782L133.81 69.8519L134.047 69.7721ZM135.792 69.2167L136.029 69.1371L135.823 68.8706L135.586 68.9494L135.792 69.2167ZM138.895 73.2288L138.658 73.3084L138.864 73.5747L139.101 73.4961L138.895 73.2288ZM141.061 72.5099L141.267 72.7772L141.505 72.6981L141.298 72.4302L141.061 72.5099ZM137.915 68.4435L137.696 68.1811L137.483 68.2702L137.679 68.5231L137.915 68.4435ZM140.442 61.1394L140.187 61.1942L140.187 61.1943L140.442 61.1394ZM133.413 57.1013L133.121 56.8994L132.806 57.4169L133.557 57.3796L133.413 57.1013ZM132.257 66.6559L132.054 66.3875L132.048 66.3894L132.042 66.3918L132.257 66.6559ZM135.814 62.0777L135.577 62.1574L135.577 62.1575L135.814 62.0777ZM132.257 66.6559L132.459 66.9243L132.466 66.9223L132.472 66.92L132.257 66.6559ZM131.83 66.7917L131.593 66.8714L131.799 67.1378L132.036 67.059L131.83 66.7917ZM127.655 61.3945L127.449 61.1272L127.211 61.2062L127.418 61.4742L127.655 61.3945ZM128.177 61.2085L127.966 60.9431L127.966 60.9431L128.177 61.2085ZM128.901 54.791L129.138 54.7114L129.138 54.7113L128.901 54.791ZM126.089 58.8042L125.887 58.5356L125.887 58.5356L126.089 58.8042ZM122.379 53.8657L122.592 54.1308L122.592 54.1308L122.379 53.8657ZM121.942 54.0228L121.737 53.7555L121.498 53.8346L121.706 54.1025L121.942 54.0228ZM125.729 58.9177L125.492 58.9974L125.698 59.2636L125.935 59.185L125.729 58.9177ZM123.793 50.2247C125.285 49.9023 126.732 49.8091 128.09 50.1236C129.427 50.4332 130.692 51.1399 131.864 52.4661L132.296 52.2566C130.975 50.7611 129.509 49.9376 127.986 49.585C126.485 49.2374 124.943 49.3501 123.424 49.6782L123.793 50.2247ZM120.256 46.0036L123.372 50.0311L123.845 49.8717L120.729 45.8442L120.256 46.0036ZM118.532 46.9102L120.698 46.1912L120.286 45.6566L118.121 46.3755L118.532 46.9102ZM121.597 50.4845L118.563 46.5631L118.09 46.7225L121.124 50.6439L121.597 50.4845ZM119.861 51.4297C120.43 51.2246 121 51.0196 121.566 50.8315L121.155 50.2968C120.583 50.4868 120.008 50.6934 119.44 50.8983L119.861 51.4297ZM116.36 47.2962L119.414 51.2436L119.888 51.0843L116.834 47.1368L116.36 47.2962ZM114.638 48.202L116.803 47.4838L116.391 46.9492L114.226 47.6674L114.638 48.202ZM117.783 51.8817L114.669 47.8551L114.195 48.0144L117.31 52.041L117.783 51.8817ZM116.39 52.7071C116.842 52.5569 117.297 52.3934 117.757 52.227L117.336 51.6957C116.875 51.8622 116.424 52.0241 115.978 52.1725L116.39 52.7071ZM115.943 52.5139L115.953 52.5263L116.416 52.3533L116.406 52.3409L115.943 52.5139ZM113.391 53.6848L116.38 52.6948L115.968 52.16L112.98 53.1501L113.391 53.6848ZM115.449 55.9558L113.422 53.3377L112.949 53.4972L114.975 56.1154L115.449 55.9558ZM117.098 55.6319C117.099 55.595 117.09 55.5272 117.03 55.4448C116.968 55.359 116.887 55.3057 116.831 55.2781C116.742 55.2343 116.673 55.2325 116.667 55.2321C116.63 55.23 116.602 55.2347 116.595 55.2359C116.571 55.2397 116.545 55.2461 116.523 55.2521C116.475 55.2648 116.409 55.2847 116.335 55.3084C116.185 55.3563 115.987 55.4236 115.79 55.4917C115.593 55.56 115.396 55.6295 115.248 55.6819C115.174 55.7081 115.113 55.7301 115.07 55.7455C115.048 55.7532 115.031 55.7593 115.019 55.7634C115.014 55.7655 115.009 55.7671 115.006 55.7682C115.005 55.7687 115.004 55.7691 115.003 55.7694C115.002 55.7695 115.002 55.7696 115.002 55.7697C115.002 55.7697 115.002 55.7698 115.002 55.7698C115.002 55.7698 115.002 55.7698 115.002 55.7698C115.002 55.7698 115.002 55.7698 115.212 56.0356C115.422 56.3014 115.422 56.3014 115.422 56.3014C115.422 56.3014 115.422 56.3013 115.422 56.3013C115.422 56.3013 115.422 56.3013 115.423 56.3013C115.423 56.3012 115.423 56.3011 115.423 56.301C115.424 56.3007 115.425 56.3003 115.427 56.2998C115.43 56.2987 115.434 56.2971 115.44 56.2951C115.451 56.291 115.468 56.2849 115.49 56.2773C115.532 56.2619 115.594 56.2401 115.667 56.214C115.815 56.1617 116.011 56.0926 116.207 56.0248C116.403 55.9569 116.597 55.8908 116.742 55.8445C116.816 55.8211 116.873 55.8038 116.911 55.7937C116.931 55.7883 116.939 55.7869 116.938 55.787C116.937 55.7871 116.934 55.7877 116.928 55.7882C116.924 55.7885 116.911 55.7896 116.893 55.7885C116.889 55.7883 116.822 55.787 116.735 55.7439C116.679 55.7166 116.599 55.6638 116.537 55.5785C116.478 55.4966 116.469 55.4294 116.47 55.3932L117.098 55.6319ZM119.056 56.0458C118.791 55.7795 118.43 55.4882 117.991 55.3099C117.545 55.1284 117.066 55.0835 116.578 55.2452L116.99 55.7799C117.379 55.6508 117.705 55.7013 117.961 55.8054C118.225 55.9128 118.464 56.0973 118.667 56.301L119.056 56.0458ZM122.648 60.6818L119.098 56.0937L118.624 56.2531L122.174 60.8412L122.648 60.6818ZM122.482 60.4271C122.366 60.4454 122.273 60.4722 122.207 60.4938L122.616 61.0293C122.671 61.0114 122.741 60.9915 122.825 60.9782L122.482 60.4271ZM122.786 60.9944L122.859 60.97L122.448 60.4353L122.374 60.4596L122.786 60.9944ZM122.633 61.0456C122.684 61.0279 122.735 61.0111 122.785 60.9944L122.374 60.4595C122.324 60.4761 122.271 60.4937 122.217 60.5122L122.633 61.0456ZM127.634 67.127L122.662 60.6992L122.188 60.8586L127.16 67.2864L127.634 67.127ZM127.418 68.5559C127.789 68.4318 127.931 68.189 127.924 67.9037C127.918 67.6325 127.779 67.3539 127.66 67.1644L127.134 67.249C127.219 67.3848 127.293 67.545 127.296 67.6822C127.299 67.8055 127.246 67.941 127.005 68.0215L127.418 68.5559ZM125.637 68.8107C125.839 69.0792 125.839 69.0792 125.839 69.0792C125.839 69.0792 125.839 69.0792 125.839 69.0792C125.839 69.0792 125.839 69.0791 125.839 69.0791C125.839 69.079 125.84 69.079 125.84 69.0788C125.841 69.0786 125.842 69.0782 125.844 69.0777C125.847 69.0768 125.851 69.0754 125.857 69.0735C125.869 69.0698 125.887 69.0644 125.909 69.0575C125.953 69.0436 126.017 69.0239 126.092 69.0001C126.244 68.9525 126.446 68.8889 126.647 68.8246C126.847 68.7605 127.047 68.6953 127.194 68.6448C127.267 68.6198 127.33 68.5975 127.373 68.5804C127.394 68.5723 127.416 68.5632 127.434 68.5542C127.439 68.5515 127.46 68.5412 127.478 68.5245C127.483 68.5195 127.492 68.5106 127.501 68.4979C127.508 68.4875 127.524 68.4613 127.527 68.4188C127.53 68.3725 127.517 68.2834 127.427 68.1828C127.346 68.0917 127.254 68.051 127.216 68.0366L127.208 68.5409C127.17 68.5267 127.079 68.4864 126.998 68.3957C126.909 68.2955 126.896 68.2069 126.899 68.161C126.902 68.1191 126.918 68.0935 126.924 68.0837C126.932 68.0716 126.941 68.0635 126.945 68.0592C126.955 68.0507 126.963 68.0456 126.965 68.0442C126.968 68.0422 126.97 68.0412 126.971 68.041C126.971 68.0409 126.969 68.0418 126.963 68.0442C126.958 68.0464 126.952 68.0492 126.943 68.0526C126.907 68.0666 126.851 68.0866 126.779 68.1114C126.635 68.1605 126.438 68.2247 126.239 68.2887C126.039 68.3526 125.838 68.416 125.687 68.4634C125.611 68.4871 125.548 68.5068 125.504 68.5205C125.482 68.5274 125.465 68.5328 125.453 68.5365C125.447 68.5383 125.442 68.5397 125.439 68.5407C125.438 68.5412 125.437 68.5415 125.436 68.5418C125.435 68.5419 125.435 68.542 125.435 68.542C125.435 68.5421 125.435 68.5421 125.435 68.5421C125.435 68.5421 125.435 68.5421 125.435 68.5421C125.435 68.5421 125.435 68.5421 125.637 68.8107ZM127.739 71.8461L125.904 68.7756L125.369 68.8457L127.204 71.9163L127.739 71.8461ZM130.084 70.6785L127.266 71.6139L127.677 72.1485L130.496 71.2132L130.084 70.6785ZM131.028 70.3754C130.717 70.4739 130.401 70.5739 130.085 70.6784L130.496 71.2133C130.81 71.1097 131.123 71.0104 131.435 70.9117L131.028 70.3754ZM131.031 70.3746L131.031 70.3747L131.433 70.9124L131.433 70.9124L131.031 70.3746ZM131.645 70.179C131.442 70.2446 131.236 70.3096 131.029 70.3753L131.435 70.9117C131.642 70.846 131.849 70.7806 132.053 70.7147L131.645 70.179ZM135.238 74.4402L132.086 70.3671L131.612 70.5266L134.765 74.5997L135.238 74.4402ZM136.96 73.5351L134.796 74.2526L135.207 74.7873L137.371 74.0698L136.96 73.5351ZM133.81 69.8519L136.929 73.8822L137.402 73.7227L134.284 69.6924L133.81 69.8519ZM135.586 68.9494C135.026 69.1358 134.449 69.3206 133.846 69.5032L134.248 70.0411C134.855 69.8573 135.436 69.6713 135.998 69.484L135.586 68.9494ZM139.132 73.1491L136.029 69.1371L135.555 69.2963L138.658 73.3084L139.132 73.1491ZM140.855 72.2425L138.689 72.9615L139.101 73.4961L141.267 72.7772L140.855 72.2425ZM137.679 68.5231L140.824 72.5895L141.298 72.4302L138.152 68.3638L137.679 68.5231ZM140.187 61.1943C141.474 63.105 141.681 64.4771 141.18 65.553C140.671 66.6485 139.418 67.462 137.696 68.1811L138.135 68.7058C139.872 67.9802 141.22 67.1294 141.779 65.9279C142.347 64.7068 142.087 63.1492 140.696 61.0845L140.187 61.1943ZM133.557 57.3796C134.772 57.3194 135.915 57.5249 136.994 58.0989C138.07 58.6706 139.14 59.6392 140.187 61.1942L140.696 61.0846C139.588 59.4383 138.395 58.3258 137.12 57.6478C135.849 56.9721 134.555 56.7591 133.269 56.8229L133.557 57.3796ZM131.864 52.4665C132.741 53.4572 133.21 54.2993 133.385 55.0184C133.561 55.7376 133.451 56.3594 133.121 56.8994L133.704 57.3031C134.071 56.7028 134.207 55.9864 134 55.1367C133.792 54.2869 133.246 53.3293 132.296 52.2562L131.864 52.4665ZM132.459 66.9243C133.351 66.6458 134.814 66.191 135.776 65.4444C136.258 65.0707 136.632 64.6106 136.734 64.0406C136.837 63.4594 136.653 62.7763 136.05 61.9979L135.577 62.1575C136.055 62.7752 136.191 63.2925 136.111 63.7439C136.029 64.2065 135.716 64.6113 135.262 64.9631C134.355 65.6673 132.958 66.1054 132.054 66.3875L132.459 66.9243ZM132.472 66.92L132.472 66.92L132.042 66.3918L132.042 66.3918L132.472 66.92ZM132.036 67.059C132.155 67.0194 132.297 66.9749 132.459 66.9243L132.054 66.3875C131.893 66.4377 131.747 66.4834 131.624 66.5245L132.036 67.059ZM127.418 61.4742L131.593 66.8714L132.067 66.712L127.892 61.3149L127.418 61.4742ZM127.966 60.9431C127.766 61.0163 127.593 61.0794 127.449 61.1272L127.861 61.6619C128.012 61.6118 128.19 61.5464 128.388 61.4739L127.966 60.9431ZM136.05 61.998C135.44 61.2094 134.716 60.6957 133.948 60.3952C133.194 60.1003 132.421 60.0192 131.692 60.0493C130.237 60.1094 128.849 60.6196 127.966 60.9431L128.388 61.4739C129.284 61.1459 130.61 60.6627 131.976 60.6062C132.658 60.5781 133.322 60.6579 133.929 60.8955C134.522 61.1276 135.082 61.5179 135.577 62.1574L136.05 61.998ZM128.664 54.8707C129.099 55.4332 129.234 55.8937 129.188 56.2859C129.14 56.6883 128.899 57.037 128.534 57.3382C127.802 57.9423 126.644 58.302 125.887 58.5356L126.291 59.0728C127.036 58.843 128.265 58.4656 129.055 57.8138C129.451 57.4869 129.753 57.0779 129.814 56.5622C129.876 56.0363 129.684 55.4183 129.138 54.7114L128.664 54.8707ZM122.592 54.1308C123.338 53.8542 124.433 53.4514 125.578 53.4277C126.148 53.4159 126.705 53.4992 127.22 53.7186C127.723 53.933 128.214 54.2886 128.664 54.8708L129.138 54.7113C128.584 53.9953 127.942 53.5176 127.265 53.2293C126.6 52.9461 125.93 52.8575 125.306 52.8704C124.063 52.8961 122.901 53.3288 122.167 53.6005L122.592 54.1308ZM122.148 54.2901C122.276 54.2478 122.426 54.1921 122.592 54.1308L122.167 53.6005C122 53.6626 121.856 53.7157 121.737 53.7555L122.148 54.2901ZM125.966 58.838L122.179 53.9431L121.706 54.1025L125.492 58.9974L125.966 58.838ZM125.887 58.5356C125.752 58.5775 125.628 58.6158 125.523 58.6504L125.935 59.185C126.035 59.152 126.154 59.1151 126.291 59.0728L125.887 58.5356Z" fill="black"/>
<mask id="path-80-outside-4_2521_40071" maskUnits="userSpaceOnUse" x="176.049" y="160.236" width="21" height="32" fill="black">
<rect fill="white" x="176.049" y="160.236" width="21" height="32"/>
<path fill-rule="evenodd" clip-rule="evenodd" d="M187.344 162.305L185.492 161.236L185.225 161.699L185.234 161.705L177.056 175.87L177.049 175.874L177.052 175.876L177.049 175.882L178.9 176.951L178.907 176.939L182.362 174.944V190.424L182.371 190.429L182.362 190.434L184.213 191.503L190.202 188.046L188.356 186.98L188.365 186.975V186.972L190.207 188.036V170.415L195.279 167.487L195.415 167.566L195.683 167.103L193.831 166.034L191.522 164.701L189.67 163.632L189.663 163.644L189.653 163.639L187.344 162.305Z"/>
</mask>
<path fill-rule="evenodd" clip-rule="evenodd" d="M187.344 162.305L185.492 161.236L185.225 161.699L185.234 161.705L177.056 175.87L177.049 175.874L177.052 175.876L177.049 175.882L178.9 176.951L178.907 176.939L182.362 174.944V190.424L182.371 190.429L182.362 190.434L184.213 191.503L190.202 188.046L188.356 186.98L188.365 186.975V186.972L190.207 188.036V170.415L195.279 167.487L195.415 167.566L195.683 167.103L193.831 166.034L191.522 164.701L189.67 163.632L189.663 163.644L189.653 163.639L187.344 162.305Z" fill="black"/>
<path d="M185.492 161.236L185.789 160.723C185.653 160.644 185.491 160.623 185.339 160.663C185.187 160.704 185.057 160.803 184.978 160.94L185.492 161.236ZM187.344 162.305L187.047 162.819L187.344 162.305ZM185.225 161.699L184.711 161.403C184.632 161.539 184.611 161.701 184.652 161.853C184.693 162.005 184.792 162.135 184.928 162.213L185.225 161.699ZM185.234 161.705L185.748 162.001C185.827 161.865 185.848 161.703 185.807 161.551C185.767 161.399 185.667 161.269 185.531 161.191L185.234 161.705ZM177.056 175.87L177.353 176.383C177.443 176.331 177.518 176.256 177.57 176.166L177.056 175.87ZM177.049 175.874L176.752 175.36C176.568 175.466 176.455 175.662 176.455 175.874C176.455 176.086 176.568 176.282 176.752 176.388L177.049 175.874ZM177.052 175.876L177.566 176.173C177.645 176.036 177.666 175.874 177.625 175.722C177.585 175.57 177.485 175.441 177.349 175.362L177.052 175.876ZM177.049 175.882L176.535 175.585C176.371 175.869 176.468 176.232 176.752 176.396L177.049 175.882ZM178.9 176.951L178.603 177.465C178.74 177.544 178.902 177.565 179.054 177.524C179.206 177.484 179.335 177.384 179.414 177.248L178.9 176.951ZM178.907 176.939L178.611 176.425C178.52 176.477 178.446 176.552 178.393 176.642L178.907 176.939ZM182.362 174.944H182.955C182.955 174.732 182.842 174.536 182.658 174.43C182.475 174.324 182.248 174.324 182.065 174.43L182.362 174.944ZM182.362 190.424H181.768C181.768 190.636 181.881 190.832 182.065 190.938L182.362 190.424ZM182.371 190.429L182.667 190.943C182.851 190.837 182.964 190.641 182.964 190.429C182.964 190.217 182.851 190.021 182.667 189.915L182.371 190.429ZM182.362 190.434L182.065 189.921C181.881 190.027 181.768 190.222 181.768 190.434C181.768 190.646 181.881 190.842 182.065 190.948L182.362 190.434ZM184.213 191.503L183.916 192.017C184.1 192.123 184.326 192.123 184.51 192.017L184.213 191.503ZM190.202 188.046L190.498 188.56C190.682 188.454 190.795 188.258 190.795 188.046C190.795 187.834 190.682 187.638 190.498 187.532L190.202 188.046ZM188.356 186.98L188.059 186.466C187.875 186.572 187.762 186.768 187.762 186.98C187.762 187.192 187.875 187.388 188.059 187.494L188.356 186.98ZM188.365 186.975L188.662 187.489C188.845 187.383 188.958 187.187 188.958 186.975H188.365ZM188.365 186.972L188.662 186.459C188.478 186.353 188.252 186.353 188.068 186.459C187.885 186.565 187.771 186.76 187.771 186.972H188.365ZM190.207 188.036L189.911 188.55C190.094 188.656 190.32 188.656 190.504 188.55C190.688 188.444 190.801 188.248 190.801 188.036H190.207ZM190.207 170.415L189.911 169.901C189.727 170.007 189.614 170.203 189.614 170.415H190.207ZM195.279 167.487L195.575 166.973C195.392 166.867 195.165 166.867 194.982 166.973L195.279 167.487ZM195.415 167.566L195.119 168.08C195.402 168.244 195.765 168.147 195.929 167.863L195.415 167.566ZM195.683 167.103L196.196 167.4C196.36 167.116 196.263 166.753 195.979 166.589L195.683 167.103ZM193.831 166.034L194.128 165.52L193.831 166.034ZM191.522 164.701L191.818 164.187L191.522 164.701ZM189.67 163.632L189.967 163.118C189.683 162.954 189.32 163.051 189.156 163.335L189.67 163.632ZM189.663 163.644L189.366 164.158C189.65 164.322 190.013 164.225 190.177 163.941L189.663 163.644ZM189.653 163.639L189.95 163.125L189.95 163.125L189.653 163.639ZM185.196 161.75L187.047 162.819L187.64 161.791L185.789 160.723L185.196 161.75ZM185.739 161.996L186.006 161.533L184.978 160.94L184.711 161.403L185.739 161.996ZM185.531 161.191L185.522 161.185L184.928 162.213L184.937 162.218L185.531 161.191ZM177.57 176.166L185.748 162.001L184.72 161.408L176.542 175.573L177.57 176.166ZM177.345 176.388L177.353 176.383L176.759 175.356L176.752 175.36L177.345 176.388ZM177.349 175.362L177.345 175.36L176.752 176.388L176.756 176.39L177.349 175.362ZM177.563 176.179L177.566 176.173L176.538 175.579L176.535 175.585L177.563 176.179ZM179.197 176.437L177.345 175.368L176.752 176.396L178.603 177.465L179.197 176.437ZM178.393 176.642L178.386 176.654L179.414 177.248L179.421 177.235L178.393 176.642ZM182.065 174.43L178.611 176.425L179.204 177.452L182.658 175.458L182.065 174.43ZM182.955 190.424V174.944H181.768V190.424H182.955ZM182.667 189.915L182.658 189.91L182.065 190.938L182.074 190.943L182.667 189.915ZM182.658 190.948L182.667 190.943L182.074 189.915L182.065 189.921L182.658 190.948ZM184.51 190.99L182.658 189.921L182.065 190.948L183.916 192.017L184.51 190.99ZM189.905 187.532L183.916 190.99L184.51 192.017L190.498 188.56L189.905 187.532ZM188.059 187.494L189.905 188.56L190.498 187.532L188.652 186.466L188.059 187.494ZM188.068 186.461L188.059 186.466L188.652 187.494L188.662 187.489L188.068 186.461ZM187.771 186.972V186.975H188.958V186.972H187.771ZM190.504 187.522L188.662 186.459L188.068 187.486L189.911 188.55L190.504 187.522ZM189.614 170.415V188.036H190.801V170.415H189.614ZM194.982 166.973L189.911 169.901L190.504 170.929L195.575 168.001L194.982 166.973ZM195.712 167.052L195.575 166.973L194.982 168.001L195.119 168.08L195.712 167.052ZM195.169 166.806L194.901 167.269L195.929 167.863L196.196 167.4L195.169 166.806ZM193.534 166.548L195.386 167.617L195.979 166.589L194.128 165.52L193.534 166.548ZM191.225 165.215L193.534 166.548L194.128 165.52L191.818 164.187L191.225 165.215ZM189.373 164.146L191.225 165.215L191.818 164.187L189.967 163.118L189.373 164.146ZM190.177 163.941L190.184 163.929L189.156 163.335L189.149 163.348L190.177 163.941ZM189.357 164.153L189.366 164.158L189.96 163.13L189.95 163.125L189.357 164.153ZM187.047 162.819L189.357 164.153L189.95 163.125L187.64 161.791L187.047 162.819Z" fill="black" mask="url(#path-80-outside-4_2521_40071)"/>
<mask id="path-82-outside-5_2521_40071" maskUnits="userSpaceOnUse" x="177.987" y="156.34" width="18.1865" height="39.5" fill="black">
<rect fill="white" x="177.987" y="156.34" width="18.1865" height="39.5"/>
<path fill-rule="evenodd" clip-rule="evenodd" d="M195.497 167.34L187.175 162.535L178.853 176.949L184.223 173.849L184.223 191.501L190.212 188.044L190.212 170.391L195.497 167.34Z"/>
</mask>
<path fill-rule="evenodd" clip-rule="evenodd" d="M195.497 167.34L187.175 162.535L178.853 176.949L184.223 173.849L184.223 191.501L190.212 188.044L190.212 170.391L195.497 167.34Z" fill="#99FFF2"/>
<path d="M187.175 162.535L187.539 161.906C187.442 161.85 187.311 161.863 187.175 161.942C187.039 162.02 186.908 162.158 186.812 162.325L187.175 162.535ZM195.497 167.34L195.497 167.933C195.705 167.813 195.892 167.56 195.972 167.293C196.052 167.025 196.008 166.795 195.861 166.71L195.497 167.34ZM178.853 176.949L178.49 176.739C178.343 176.994 178.299 177.275 178.378 177.451C178.458 177.626 178.645 177.663 178.853 177.543L178.853 176.949ZM184.223 173.849L184.737 173.552C184.737 173.224 184.507 173.091 184.223 173.255L184.223 173.849ZM184.223 191.501L183.71 191.798C183.71 192.125 183.94 192.258 184.223 192.094L184.223 191.501ZM190.212 188.044L190.212 188.637C190.348 188.558 190.479 188.42 190.575 188.253C190.672 188.086 190.726 187.904 190.726 187.747L190.212 188.044ZM190.212 170.391L190.212 169.798C190.076 169.877 189.945 170.015 189.848 170.181C189.752 170.348 189.698 170.531 189.698 170.688L190.212 170.391ZM186.812 163.164L195.134 167.969L195.861 166.71L187.539 161.906L186.812 163.164ZM179.216 177.159L187.539 162.745L186.812 162.325L178.49 176.739L179.216 177.159ZM184.223 173.255L178.853 176.356L178.853 177.543L184.223 174.442L184.223 173.255ZM184.737 191.204L184.737 173.552L183.71 174.145L183.71 191.798L184.737 191.204ZM190.212 187.45L184.223 190.908L184.223 192.094L190.212 188.637L190.212 187.45ZM189.698 170.688L189.698 188.34L190.726 187.747L190.726 170.095L189.698 170.688ZM195.497 166.746L190.212 169.798L190.212 170.985L195.497 167.933L195.497 166.746Z" fill="black" mask="url(#path-82-outside-5_2521_40071)"/>
<path fill-rule="evenodd" clip-rule="evenodd" d="M98.7054 159.135V156.472L98.7234 156.472L85.3621 138.788L85.379 138.774H85.3534H85.3519H85.3339H80.0341H80.0086H80.0071L80.0079 138.775L79.9821 138.816L70.1985 146.684H74.7554L74.7556 146.687H70.1985L71.0154 157.472L67.36 154.055L67.3665 154.032H67.3354L67.3346 154.031L67.3344 154.032H67.3241H62.0216H61.9792L61.9898 154.146L59.1207 164.385H59.1184L59.1196 164.389L59.1184 164.394H59.1211L63.8691 179.014H68.3583L68.3601 179.019H63.8411L70.1332 183.863L70.1455 183.896H70.6342L76.1997 186.175L78.2489 189.037L78.2522 189.077H78.9214L88.9529 192.813V192.829H94.2977V192.827H94.3083L94.3145 192.829V192.827H94.3342L94.3145 192.82V192.578L95.2269 192.068L95.2868 192.143L95.2649 192.233H95.3573L95.3579 192.233H95.2649L95.4129 192.303L95.426 192.319H95.448L105.486 197.028H110.831L110.822 197.024L110.824 197.019H110.827L117.056 177.747H117.047L108.752 159.144L108.755 159.129H108.745L108.745 159.129L108.745 159.129H108.738H108.551L108.617 158.845H108.566H103.272H103.221L98.7054 159.135ZM103.191 159.193L103.19 159.198L98.7054 159.486V159.48L103.191 159.193ZM80.1278 147.034L80.1307 147.029L80.9329 157.194L80.8762 156.516L80.1278 147.034ZM68.3903 164.088L72.3579 175.196L72.3625 175.257L72.2948 175.071L68.3721 164.089H68.3798L67.9056 159.572L67.9174 159.583L68.3903 164.088Z" fill="black"/>
<path d="M103.252 158.85L91.7526 159.588L90.3152 185.867L95.426 192.322L103.252 158.85Z" fill="black" stroke="black" stroke-width="0.593429" stroke-linejoin="round"/>
<path d="M111.715 177.758L103.41 159.132L95.2649 192.235L105.486 197.03L111.715 177.758Z" fill="#99FFF2" stroke="black" stroke-width="0.593429" stroke-linejoin="round"/>
<path d="M74.7395 146.482L78.0766 188.767L88.9661 192.824L88.9661 151.654L80.0086 138.978L74.7395 146.482Z" fill="#99FFF2" stroke="black" stroke-width="0.593429" stroke-linejoin="round"/>
<path d="M70.1985 146.692L80.0341 138.782L74.765 147.097L78.2778 189.078L72.833 181.473L70.1985 146.692Z" fill="black" stroke="black" stroke-width="0.593429" stroke-linejoin="round"/>
<path d="M93.3577 156.472L79.9861 138.774L88.7911 151.604L88.7911 192.67L93.3577 190.117L93.3577 156.472Z" fill="white" stroke="black" stroke-width="0.593429" stroke-linejoin="round"/>
<path d="M73.0642 164.405L61.9792 154.043L63.035 164.1L70.029 183.681L77.287 186.652L73.0642 164.405Z" fill="#99FFF2" stroke="black" stroke-width="0.593429" stroke-linejoin="round"/>
<path d="M59.1184 164.395L62.0216 154.034L62.9454 164.014L70.2034 183.9L63.8691 179.024L59.1184 164.395Z" fill="black" stroke="black" stroke-width="0.593429" stroke-linejoin="round"/>
<defs>
<linearGradient id="paint0_linear_2521_40071" x1="146.88" y1="84.8249" x2="103.645" y2="40.2516" gradientUnits="userSpaceOnUse">
<stop offset="0.614583" stop-color="#F5BC41"/>
<stop offset="0.614683" stop-color="white"/>
</linearGradient>
<clipPath id="clip0_2521_40071">
<rect width="34.7594" height="29.931" fill="white" transform="translate(28.739 134.971)"/>
</clipPath>
</defs>
</svg>
