<svg width="241" height="240" viewBox="0 0 241 240" fill="none" xmlns="http://www.w3.org/2000/svg">
<path d="M215.018 141.206C215.018 142.643 214.328 144.08 212.891 144.885L210.821 146.092L99.1782 210.71C96.1313 212.492 92.337 212.492 89.2901 210.71L29.2145 175.987L27.1449 174.779C25.7077 173.974 25.0178 172.537 25.0178 171.1C25.0178 169.663 25.7077 168.226 27.1449 167.421L140.915 101.654C143.962 99.8715 147.756 99.8715 150.803 101.654L212.948 137.527C214.328 138.389 215.018 139.826 215.018 141.206Z" fill="black"/>
<path d="M215.018 115.867C215.018 117.304 214.328 118.742 212.891 119.546L210.821 120.754L99.1782 185.313C96.1313 187.096 92.337 187.096 89.2901 185.313L29.2145 150.59L27.1449 149.383C25.7077 148.578 25.0178 147.141 25.0178 145.704C25.0178 144.267 25.7077 142.829 27.1449 142.024L140.857 76.3149C143.904 74.5328 147.699 74.5328 150.746 76.3149L212.891 112.188C214.328 112.993 215.018 114.43 215.018 115.867Z" fill="white" stroke="black" stroke-width="0.586802" stroke-miterlimit="10" stroke-linecap="round" stroke-linejoin="round"/>
<path d="M167.175 103.212V137.073L112.503 105.512V71.6508C112.503 61.1304 115.838 53.5419 121.241 49.9776C121.701 49.6326 122.219 49.4027 122.679 49.1153C127.335 46.7582 133.314 47.2181 139.81 50.9549C139.81 50.9549 139.868 51.0124 139.925 51.0124C142.282 52.3921 144.582 54.1168 146.709 56.1289C151.48 60.5555 155.735 66.3618 159.126 72.8006C163.151 80.4466 165.91 89.0124 166.772 97.2907C167.06 99.3028 167.175 101.257 167.175 103.212Z" fill="white" stroke="black" stroke-width="0.586802" stroke-miterlimit="10" stroke-linecap="round" stroke-linejoin="round"/>
<path d="M158.462 97.1752C158.462 104.016 155.817 108.558 151.621 110.225L153.345 109.248L124.888 92.806L152.138 77.0541C155.99 83.3779 158.462 90.6789 158.462 97.1752Z" fill="black" stroke="#030303" stroke-width="0.586802" stroke-miterlimit="10" stroke-linecap="round" stroke-linejoin="round"/>
<path d="M152.141 77.1131L124.891 92.865C121.787 87.1161 119.832 80.7349 119.832 74.986C119.832 62.6834 128.456 57.6819 139.091 63.8332C144.15 66.7076 148.749 71.5367 152.141 77.1131Z" fill="#DCDCDC" stroke="#030303" stroke-width="0.574887" stroke-miterlimit="10" stroke-linecap="round" stroke-linejoin="round"/>
<path d="M153.342 109.247V129.023L87.3446 167.138C86.3098 167.77 85.275 168 84.4127 168C83.7803 168 83.148 167.827 82.6306 167.54L82.4006 167.425C80.9059 166.505 79.9861 164.436 79.9861 161.504C79.9861 156.042 83.3204 149.661 87.4021 147.304L153.342 109.247Z" fill="black" stroke="black" stroke-width="0.586802" stroke-miterlimit="10" stroke-linecap="round" stroke-linejoin="round"/>
<path d="M92.9531 156.675C94.1596 154.586 94.1569 152.325 92.9471 151.627C91.7373 150.928 89.7785 152.056 88.572 154.146C87.3655 156.235 87.3682 158.496 88.578 159.194C89.7878 159.893 91.7466 158.765 92.9531 156.675Z" fill="white" stroke="black" stroke-width="0.586802" stroke-miterlimit="10" stroke-linecap="round" stroke-linejoin="round"/>
<path d="M110.023 146.598C111.23 144.508 111.227 142.248 110.017 141.549C108.808 140.851 106.849 141.979 105.642 144.068C104.436 146.158 104.439 148.418 105.648 149.117C106.858 149.815 108.817 148.687 110.023 146.598Z" fill="white" stroke="black" stroke-width="0.586802" stroke-miterlimit="10" stroke-linecap="round" stroke-linejoin="round"/>
<path d="M127.094 136.567C128.3 134.477 128.298 132.217 127.088 131.518C125.878 130.82 123.919 131.947 122.713 134.037C121.506 136.127 121.509 138.387 122.719 139.085C123.928 139.784 125.887 138.656 127.094 136.567Z" fill="white" stroke="black" stroke-width="0.586802" stroke-miterlimit="10" stroke-linecap="round" stroke-linejoin="round"/>
<path d="M144.21 126.57C145.417 124.481 145.414 122.22 144.204 121.522C142.995 120.823 141.036 121.951 139.829 124.041C138.623 126.13 138.626 128.391 139.835 129.089C141.045 129.788 143.004 128.66 144.21 126.57Z" fill="white" stroke="black" stroke-width="0.586802" stroke-miterlimit="10" stroke-linecap="round" stroke-linejoin="round"/>
<path d="M153.315 109.244L151.59 110.221L87.3181 147.359C83.2364 149.716 79.9021 156.097 79.9021 161.558C79.9021 164.433 80.8219 166.502 82.3166 167.48L53.9747 151.095L53.6872 150.923C52.1925 149.946 51.2727 147.934 51.2727 145.002C51.2727 139.54 54.607 133.159 58.6887 130.802L124.686 92.7444L124.858 92.8594L153.315 109.244Z" fill="white" stroke="black" stroke-width="0.586802" stroke-miterlimit="10" stroke-linecap="round" stroke-linejoin="round"/>
<path d="M147.244 112.757L118.673 96.2582" stroke="black" stroke-width="0.586802" stroke-miterlimit="10" stroke-linecap="round" stroke-linejoin="round"/>
<path d="M140.622 116.607L111.993 100.05" stroke="black" stroke-width="0.586802" stroke-miterlimit="10" stroke-linecap="round" stroke-linejoin="round"/>
<path d="M133.989 120.4L105.36 103.9" stroke="black" stroke-width="0.586802" stroke-miterlimit="10" stroke-linecap="round" stroke-linejoin="round"/>
<path d="M127.345 124.249L98.7727 107.693" stroke="black" stroke-width="0.586802" stroke-miterlimit="10" stroke-linecap="round" stroke-linejoin="round"/>
<path d="M120.722 128.042L92.093 111.543" stroke="black" stroke-width="0.586802" stroke-miterlimit="10" stroke-linecap="round" stroke-linejoin="round"/>
<path d="M114.135 131.904L85.5061 115.404" stroke="black" stroke-width="0.586802" stroke-miterlimit="10" stroke-linecap="round" stroke-linejoin="round"/>
<path d="M107.445 135.696L78.8728 119.196" stroke="black" stroke-width="0.586802" stroke-miterlimit="10" stroke-linecap="round" stroke-linejoin="round"/>
<path d="M100.822 139.546L72.1931 123.047" stroke="black" stroke-width="0.586802" stroke-miterlimit="10" stroke-linecap="round" stroke-linejoin="round"/>
<path d="M65.6062 126.839L94.2356 143.395" stroke="black" stroke-width="0.586802" stroke-miterlimit="10" stroke-linecap="round" stroke-linejoin="round"/>
<path d="M58.9729 130.689L87.6022 147.188" stroke="black" stroke-width="0.586802" stroke-miterlimit="10" stroke-linecap="round" stroke-linejoin="round"/>
<path d="M82.778 152.081L54.1487 135.525" stroke="black" stroke-width="0.586802" stroke-miterlimit="10" stroke-linecap="round" stroke-linejoin="round"/>
<path d="M80.2731 158.286L51.6438 141.729" stroke="black" stroke-width="0.586802" stroke-miterlimit="10" stroke-linecap="round" stroke-linejoin="round"/>
<path d="M161.447 118.759C162.134 118.362 162.138 117.081 161.455 115.899C160.773 114.717 159.662 114.08 158.975 114.477C158.287 114.874 158.284 116.154 158.966 117.336C159.649 118.519 160.759 119.155 161.447 118.759Z" fill="black"/>
<path d="M161.4 126.865C162.088 126.468 162.092 125.188 161.409 124.005C160.726 122.823 159.616 122.186 158.928 122.583C158.241 122.98 158.237 124.26 158.92 125.442C159.602 126.625 160.713 127.261 161.4 126.865Z" fill="black"/>
<path d="M201.352 83.4439V117.305L167.147 137.023V103.22L201.352 83.4439Z" fill="black" stroke="black" stroke-width="0.586802" stroke-miterlimit="10" stroke-linecap="round" stroke-linejoin="round"/>
<path d="M153.511 43.1924L139.944 51.0684L139.886 51.0109C133.39 47.2741 127.469 46.8142 122.755 49.1712L136.379 41.2953C141.036 38.9383 146.957 39.3982 153.511 43.1924C153.511 43.1349 153.511 43.1349 153.511 43.1924Z" fill="#99FFF2"/>
<path d="M153.511 43.1924L139.944 51.0684L139.886 51.0109C133.39 47.2741 127.469 46.8142 122.755 49.1712L136.379 41.2953C141.036 38.9383 146.957 39.3982 153.511 43.1924ZM153.511 43.1924C153.511 43.1349 153.511 43.1349 153.511 43.1924Z" stroke="black" stroke-width="0.586802" stroke-miterlimit="10" stroke-linecap="round" stroke-linejoin="round"/>
<path d="M174.07 31.2405L153.489 43.1407C153.489 43.1407 153.431 43.1407 153.431 43.0832C146.935 39.3464 141.014 38.8865 136.3 41.2436L155.443 30.2057L156.88 29.4009C161.595 27.0439 167.573 27.5038 174.07 31.2405Z" fill="#99FFF2" stroke="black" stroke-width="0.586802" stroke-miterlimit="10" stroke-linecap="round" stroke-linejoin="round"/>
<path d="M201.408 83.4358L180.827 95.336L167.203 103.212C167.203 101.257 167.088 99.3027 166.858 97.3481C165.938 89.0123 163.178 80.4464 159.212 72.8579C155.82 66.4192 151.566 60.6129 146.794 56.1862C144.61 54.1741 142.31 52.4495 140.01 51.0697L153.578 43.1938L174.159 31.2936C181.69 35.6628 188.531 43.6537 193.475 53.1393C198.361 62.51 201.408 73.3753 201.408 83.4358Z" fill="#DCDCDC" stroke="black" stroke-width="0.586802" stroke-miterlimit="10" stroke-linecap="round" stroke-linejoin="round"/>
<path d="M180.805 129.195V95.334C180.805 93.3794 180.69 91.4823 180.46 89.4702C179.54 81.1343 176.781 72.5685 172.814 64.98C169.422 58.5413 165.168 52.7349 160.397 48.3083C158.212 46.2962 155.912 44.5716 153.555 43.1918" stroke="black" stroke-width="0.586802" stroke-miterlimit="10" stroke-linecap="round" stroke-linejoin="round"/>
<g clip-path="url(#clip0_2521_39849)">
<path d="M201.102 95.9203C201.554 95.6942 202.148 95.7507 202.798 96.1464C202.798 96.1464 202.798 96.1464 202.826 96.1464C204.239 96.9661 205.37 98.9164 205.37 100.556C205.37 101.319 205.087 101.884 204.663 102.167L208.705 99.8491C208.847 99.5665 208.903 99.199 208.931 98.7751V98.7468C208.931 96.9944 207.688 94.8463 206.161 93.97C206.161 93.97 206.161 93.97 206.133 93.97C205.766 93.7722 205.427 93.6591 205.116 93.6026L201.102 95.9203Z" fill="#DCDCDC" stroke="black" stroke-width="0.586802" stroke-miterlimit="10" stroke-linecap="round" stroke-linejoin="round"/>
<path d="M205.138 93.6111C205.449 93.6394 205.788 93.7524 206.155 93.9786C206.155 93.9786 206.155 93.9786 206.183 93.9786C207.71 94.8548 208.953 97.0029 208.953 98.7553C208.953 99.1793 208.869 99.5467 208.727 99.8294L212.882 97.4269L212.967 97.3703C213.391 97.0877 213.674 96.5507 213.674 95.7592V95.731C213.674 94.1199 212.543 92.1413 211.13 91.3217C210.451 90.926 209.858 90.8977 209.406 91.1238L209.321 91.1803L205.138 93.6111Z" fill="#99FFF2" stroke="black" stroke-width="0.586802" stroke-miterlimit="10" stroke-linecap="round" stroke-linejoin="round"/>
<path d="M200.313 97.6026C200.313 99.2136 201.444 101.192 202.857 102.012C203.536 102.408 204.157 102.464 204.61 102.21L204.695 102.153C205.118 101.871 205.373 101.334 205.401 100.542C205.401 98.931 204.271 96.9525 202.857 96.1328C202.857 96.1328 202.857 96.1328 202.829 96.1328C202.179 95.7653 201.585 95.7088 201.133 95.9067H201.105L201.02 95.9632C200.568 96.2741 200.313 96.8394 200.313 97.6026Z" fill="black" stroke="black" stroke-width="0.586802" stroke-miterlimit="10" stroke-linecap="round" stroke-linejoin="round"/>
<path d="M191.314 103.256C191.597 103.114 191.965 103.143 192.389 103.369C193.265 103.878 193.943 105.093 193.943 106.082C193.943 106.563 193.773 106.902 193.519 107.072L203.723 101.192C204.005 101.023 204.147 100.684 204.147 100.203C204.147 99.2139 203.44 97.9986 202.592 97.4898C202.168 97.2637 201.801 97.2354 201.518 97.3767L201.433 97.405L191.314 103.256Z" fill="white" stroke="black" stroke-width="0.586802" stroke-miterlimit="10" stroke-linecap="round" stroke-linejoin="round"/>
<path d="M186.815 111.265V111.294C186.815 112.848 187.352 113.951 188.228 114.488L188.37 114.572C189.274 115.053 190.518 114.968 191.875 114.177C194.673 112.566 196.934 108.665 196.934 105.443C196.934 103.888 196.397 102.786 195.549 102.221L195.323 102.136C194.418 101.655 193.203 101.768 191.875 102.532H191.846C189.076 104.143 186.815 108.043 186.815 111.265Z" fill="white" stroke="black" stroke-width="0.586802" stroke-miterlimit="10" stroke-linecap="round" stroke-linejoin="round"/>
<path d="M190.758 109.007C190.758 109.346 190.871 109.6 191.069 109.714L191.097 109.742C191.295 109.855 191.578 109.827 191.889 109.657C192.51 109.29 193.019 108.413 193.019 107.707C193.019 107.368 192.906 107.113 192.708 107L192.68 106.972C192.482 106.859 192.2 106.887 191.917 107.057C191.267 107.424 190.758 108.3 190.758 109.007Z" fill="#99FFF2" stroke="black" stroke-width="0.586802" stroke-miterlimit="10" stroke-linecap="round" stroke-linejoin="round"/>
<path d="M181.805 108.332V108.36C181.805 109.914 182.342 111.045 183.19 111.582L183.36 111.667L188.222 114.465C187.374 113.928 186.837 112.826 186.808 111.271V111.243C186.808 108.021 189.069 104.12 191.868 102.509H191.896C193.224 101.746 194.44 101.661 195.344 102.113L190.511 99.315L190.313 99.202C189.409 98.7215 188.193 98.8345 186.837 99.5977C186.808 99.6259 186.78 99.6259 186.752 99.6542C184.038 101.322 181.834 105.166 181.805 108.332Z" fill="#DCDCDC" stroke="black" stroke-width="0.586802" stroke-miterlimit="10" stroke-linecap="round" stroke-linejoin="round"/>
<path d="M192.846 100.686C191.942 100.206 190.726 100.319 189.37 101.082C189.341 101.11 189.313 101.11 189.285 101.139C186.543 102.778 184.31 106.622 184.31 109.816V109.844C184.31 111.399 184.847 112.529 185.695 113.066" stroke="black" stroke-width="0.586802" stroke-miterlimit="10" stroke-linecap="round" stroke-linejoin="round"/>
</g>
<path d="M215.018 115.857V127.642C215.018 129.079 214.328 130.516 212.891 131.321L99.1782 197.146C96.1313 198.928 92.337 198.928 89.2901 197.146L27.1449 161.273C25.7077 160.468 25.0178 159.031 25.0178 157.593V145.751C25.0178 147.188 25.7077 148.625 27.1449 149.43L29.2145 150.637L89.2901 185.303C92.337 187.085 96.1313 187.085 99.1782 185.303L210.879 120.686L212.948 119.478C214.328 118.674 215.018 117.236 215.018 115.857Z" fill="#DCDCDC" stroke="black" stroke-width="0.586802" stroke-miterlimit="10" stroke-linecap="round" stroke-linejoin="round"/>
<path d="M167.536 151.969L162.879 154.671" stroke="black" stroke-width="0.586802" stroke-miterlimit="10" stroke-linecap="round" stroke-linejoin="round"/>
<path d="M191.284 138.285L172.945 148.863" stroke="black" stroke-width="0.586802" stroke-miterlimit="10" stroke-linecap="round" stroke-linejoin="round"/>
<path d="M206.52 129.494L195.999 135.531" stroke="black" stroke-width="0.586802" stroke-miterlimit="10" stroke-linecap="round" stroke-linejoin="round"/>
<path d="M32.847 160.498C33.4314 160.249 33.5523 159.219 33.1171 158.196C32.6819 157.174 31.8555 156.546 31.2712 156.795C30.6868 157.044 30.5659 158.074 31.0011 159.097C31.4362 160.119 32.2627 160.747 32.847 160.498Z" fill="black"/>
<path d="M38.4598 163.71C39.0442 163.462 39.1651 162.431 38.7299 161.408C38.2947 160.386 37.4683 159.759 36.8839 160.007C36.2996 160.256 36.1787 161.286 36.6139 162.309C37.049 163.332 37.8755 163.959 38.4598 163.71Z" fill="black"/>
<path d="M44.0262 166.923C44.6106 166.674 44.7315 165.643 44.2963 164.621C43.8611 163.598 43.0347 162.971 42.4504 163.219C41.866 163.468 41.7451 164.499 42.1803 165.521C42.6154 166.544 43.4419 167.171 44.0262 166.923Z" fill="black"/>
<path d="M152.167 97.2681C152.167 97.7221 152.039 98.1762 151.815 98.6302C151.239 99.7773 149.929 100.853 147.85 101.737C142.159 104.198 132.855 104.198 127.132 101.737C125.086 100.853 123.775 99.7773 123.167 98.6302C122.975 98.1762 122.847 97.7221 122.847 97.2681C122.847 95.6431 124.286 94.042 127.132 92.7993C132.855 90.314 142.159 90.314 147.882 92.7993C150.728 94.0181 152.167 95.6431 152.167 97.2681Z" fill="black"/>
<path d="M152.915 90.7587C152.915 91.3231 152.796 91.8874 152.588 92.4518C152.054 93.8776 150.836 95.2142 148.905 96.3132C143.618 99.3727 134.974 99.3727 129.657 96.3132C127.756 95.2142 126.538 93.8776 125.974 92.4518C125.796 91.8874 125.677 91.3231 125.677 90.7587C125.677 88.7389 127.014 86.7487 129.657 85.2041C134.974 82.115 143.618 82.115 148.935 85.2041C151.578 86.719 152.915 88.7389 152.915 90.7587Z" fill="#FFF1C1" stroke="#080809" stroke-width="0.574887" stroke-miterlimit="10" stroke-linecap="round" stroke-linejoin="round"/>
<path d="M150.173 90.7669C150.173 91.1827 150.084 91.5986 149.906 92.0144C149.49 93.054 148.51 94.0639 146.995 94.8659C142.748 97.1234 135.886 97.1234 131.638 94.8659C130.124 94.0639 129.143 93.054 128.728 92.0144C128.549 91.5986 128.46 91.1827 128.46 90.7669C128.46 89.2817 129.53 87.7965 131.638 86.6678C135.886 84.4103 142.748 84.4103 146.995 86.6678C149.104 87.7965 150.173 89.2817 150.173 90.7669Z" fill="white" stroke="black" stroke-width="0.586802" stroke-miterlimit="10" stroke-linecap="round" stroke-linejoin="round"/>
<path d="M152.935 95.0387V90.7614C152.935 91.3258 152.816 91.8901 152.638 92.4545C152.074 93.8803 150.856 95.2169 148.955 96.316C147.442 97.1864 145.662 97.8092 143.768 98.1844V102.461C145.664 102.085 147.444 101.463 148.955 100.593C151.598 99.0487 152.935 97.0586 152.935 95.0387Z" fill="black"/>
<path d="M125.677 95.0387C125.677 97.0289 127.014 99.0487 129.657 100.593C134.482 103.37 142.047 103.627 147.379 101.364V97.087C142.051 99.3492 134.512 99.0922 129.687 96.316C127.756 95.2169 126.538 93.8803 126.004 92.4545C125.796 91.8901 125.677 91.3258 125.677 90.7614V95.0387Z" fill="#F5BC41"/>
<path d="M125.677 95.0387C125.677 97.0289 127.014 99.0487 129.657 100.593L129.687 96.316C127.756 95.2169 126.538 93.8803 126.004 92.4545C125.796 91.8901 125.677 91.3258 125.677 90.7614V95.0387Z" fill="white"/>
<path d="M131.376 97.3285V101.639M135.625 98.5192V102.883M139.51 98.6549V102.883M143.684 98.2854V102.382M147.46 97.1807V101.302M127.857 95.1913V99.5811M150.553 95.3613V99.5811" stroke="black" stroke-width="0.612307" stroke-miterlimit="10" stroke-linecap="round" stroke-linejoin="round"/>
<path d="M152.915 90.7614V95.0387C152.915 97.0586 151.578 99.0487 148.935 100.593C143.618 103.653 134.974 103.653 129.657 100.593C127.014 99.0487 125.677 97.0289 125.677 95.0387V90.7614C125.677 91.3258 125.796 91.8901 126.004 92.4545C126.538 93.8803 127.756 95.2169 129.687 96.316C135.004 99.3754 143.618 99.3754 148.935 96.316C150.836 95.2169 152.054 93.8803 152.618 92.4545C152.796 91.8901 152.915 91.3258 152.915 90.7614Z" stroke="black" stroke-width="0.586802" stroke-miterlimit="10" stroke-linecap="round" stroke-linejoin="round"/>
<path d="M134.593 93.6237L134.376 93.8402L134.663 93.9462L136.082 94.4697L136.37 94.5757L136.586 94.3592L137.111 93.8343C137.371 93.876 137.634 93.899 137.9 93.9026C138.538 93.9127 139.149 93.8199 139.723 93.6182C140.304 93.4143 140.791 93.1116 141.181 92.7209C141.624 92.2785 141.837 91.8398 141.774 91.4182C141.716 91.0058 141.387 90.6004 140.846 90.1993L140.845 90.1987L139.799 89.4306L139.799 89.4303C139.547 89.2463 139.422 89.1013 139.381 88.9953C139.347 88.897 139.375 88.8274 139.438 88.7652C139.506 88.6969 139.593 88.648 139.716 88.6142C139.859 88.5752 140.022 88.5573 140.212 88.5681C140.402 88.58 140.593 88.6216 140.785 88.6985L140.785 88.6987C140.984 88.778 141.128 88.8755 141.224 88.9895L141.224 88.9896L141.228 88.9935C141.331 89.1078 141.383 89.2326 141.387 89.3703L141.387 89.3703L141.387 89.3727C141.393 89.5071 141.352 89.6477 141.256 89.7976L141.114 90.0218L141.42 90.0857L143.075 90.4308L143.421 90.503L143.57 90.2479C143.815 89.8293 143.932 89.4307 143.909 89.0555C143.893 88.6793 143.74 88.3409 143.453 88.0431C143.367 87.9522 143.27 87.866 143.161 87.7844L143.713 87.232L143.93 87.0155L143.643 86.9095L142.223 86.386L141.936 86.28L141.72 86.4965L141.202 87.0139C140.963 86.9744 140.722 86.952 140.479 86.9472C139.888 86.934 139.318 87.0224 138.778 87.2176L138.778 87.2176L138.775 87.2185C138.235 87.4169 137.777 87.7109 137.4 88.0878C136.994 88.4936 136.791 88.9036 136.82 89.3082C136.85 89.7088 137.105 90.079 137.546 90.4209L138.975 91.5319C139.139 91.6623 139.203 91.766 139.215 91.8414L139.215 91.8414L139.216 91.8482C139.23 91.9115 139.208 91.9797 139.121 92.0668C139.004 92.1836 138.828 92.2669 138.522 92.2982L138.522 92.2982L138.52 92.2984C138.216 92.3308 137.892 92.294 137.544 92.1655C137.186 92.0334 136.967 91.8481 136.867 91.6089C136.771 91.3709 136.806 91.1113 136.987 90.8199L137.122 90.6022L136.829 90.5355L135.257 90.1787L134.942 90.1071L134.771 90.3356C134.447 90.7683 134.276 91.1943 134.269 91.6099L134.269 91.6109C134.265 92.0221 134.416 92.3968 134.717 92.7329L134.718 92.7342C134.834 92.8616 134.971 92.98 135.127 93.0894L134.593 93.6237Z" fill="#FFF1C1" stroke="black" stroke-width="0.612307"/>
<path d="M128.509 112.147C128.509 112.601 128.382 113.055 128.158 113.509C127.582 114.656 126.271 115.731 124.193 116.615C118.502 119.077 109.198 119.077 103.475 116.615C101.428 115.731 100.117 114.656 99.5099 113.509C99.3181 113.055 99.1902 112.601 99.1902 112.147C99.1902 110.522 100.629 108.921 103.475 107.678C109.198 105.193 118.502 105.193 124.225 107.678C127.071 108.897 128.509 110.522 128.509 112.147Z" fill="black"/>
<path d="M129.304 105.626C129.304 106.19 129.185 106.754 128.978 107.319C128.443 108.745 127.225 110.081 125.294 111.18C120.007 114.24 111.363 114.24 106.046 111.18C104.145 110.081 102.928 108.745 102.363 107.319C102.185 106.754 102.066 106.19 102.066 105.626C102.066 103.606 103.403 101.616 106.046 100.071C111.363 96.9819 120.007 96.9819 125.324 100.071C127.968 101.586 129.304 103.606 129.304 105.626Z" fill="#FFF1C1" stroke="#080809" stroke-width="0.574887" stroke-miterlimit="10" stroke-linecap="round" stroke-linejoin="round"/>
<path d="M126.563 105.634C126.563 106.05 126.474 106.465 126.295 106.881C125.879 107.921 124.899 108.931 123.384 109.733C119.137 111.99 112.275 111.99 108.028 109.733C106.513 108.931 105.533 107.921 105.117 106.881C104.938 106.465 104.849 106.05 104.849 105.634C104.849 104.149 105.919 102.663 108.028 101.535C112.275 99.2772 119.137 99.2772 123.384 101.535C125.493 102.663 126.563 104.149 126.563 105.634Z" fill="white" stroke="black" stroke-width="0.586802" stroke-miterlimit="10" stroke-linecap="round" stroke-linejoin="round"/>
<path d="M129.324 109.906V105.628C129.324 106.193 129.205 106.757 129.027 107.321C128.463 108.747 127.245 110.084 125.344 111.183C123.831 112.053 122.052 112.676 120.157 113.051V117.327C122.053 116.952 123.833 116.33 125.344 115.46C127.988 113.916 129.324 111.925 129.324 109.906Z" fill="black"/>
<path d="M102.066 109.906C102.066 111.896 103.403 113.916 106.046 115.46C110.871 118.237 118.436 118.493 123.768 116.231V111.954C118.441 114.216 110.901 113.959 106.076 111.183C104.145 110.084 102.928 108.747 102.393 107.321C102.185 106.757 102.066 106.193 102.066 105.628V109.906Z" fill="#F5BC41"/>
<path d="M102.066 109.906C102.066 111.896 103.403 113.916 106.046 115.46L106.076 111.183C104.145 110.084 102.928 108.747 102.393 107.321C102.185 106.757 102.066 106.193 102.066 105.628V109.906Z" fill="white"/>
<path d="M107.765 112.207V116.518M112.015 113.398V117.761M115.899 113.533V117.761M120.073 113.164V117.261M123.849 112.059V116.18M104.246 110.07V114.46M126.942 110.24V114.46" stroke="black" stroke-width="0.612307" stroke-miterlimit="10" stroke-linecap="round" stroke-linejoin="round"/>
<path d="M129.304 105.628V109.906C129.304 111.925 127.968 113.916 125.324 115.46C120.007 118.52 111.363 118.52 106.046 115.46C103.403 113.916 102.066 111.896 102.066 109.906V105.628C102.066 106.193 102.185 106.757 102.393 107.321C102.928 108.747 104.145 110.084 106.076 111.183C111.393 114.242 120.007 114.242 125.324 111.183C127.225 110.084 128.443 108.747 129.007 107.321C129.185 106.757 129.304 106.193 129.304 105.628Z" stroke="black" stroke-width="0.586802" stroke-miterlimit="10" stroke-linecap="round" stroke-linejoin="round"/>
<path d="M110.982 108.491L110.765 108.707L111.052 108.813L112.472 109.337L112.759 109.443L112.975 109.226L113.5 108.701C113.76 108.743 114.023 108.766 114.29 108.77C114.927 108.78 115.538 108.687 116.112 108.485C116.693 108.281 117.18 107.979 117.571 107.588C118.013 107.145 118.226 106.707 118.163 106.285C118.105 105.873 117.776 105.467 117.235 105.066L117.234 105.066L116.188 104.298L116.188 104.297C115.936 104.113 115.811 103.968 115.771 103.862C115.736 103.764 115.765 103.694 115.827 103.632C115.895 103.564 115.982 103.515 116.105 103.481C116.248 103.442 116.411 103.424 116.601 103.435C116.791 103.447 116.982 103.489 117.174 103.565L117.174 103.566C117.373 103.645 117.517 103.742 117.614 103.856L117.614 103.856L117.617 103.86C117.72 103.975 117.772 104.1 117.776 104.237L117.776 104.237L117.776 104.24C117.783 104.374 117.741 104.515 117.645 104.665L117.503 104.889L117.809 104.953L119.464 105.298L119.81 105.37L119.96 105.115C120.205 104.696 120.321 104.298 120.299 103.922C120.282 103.546 120.129 103.208 119.842 102.91C119.756 102.819 119.659 102.733 119.55 102.651L120.103 102.099L120.319 101.882L120.032 101.776L118.613 101.253L118.325 101.147L118.109 101.363L117.592 101.881C117.353 101.841 117.111 101.819 116.868 101.814C116.277 101.801 115.707 101.889 115.167 102.085L115.167 102.085L115.165 102.085C114.624 102.284 114.166 102.578 113.789 102.955C113.383 103.361 113.18 103.771 113.21 104.175C113.239 104.576 113.494 104.946 113.935 105.288L115.365 106.399C115.529 106.529 115.592 106.633 115.604 106.708L115.604 106.708L115.606 106.715C115.619 106.778 115.597 106.847 115.51 106.934C115.393 107.051 115.217 107.134 114.911 107.165L114.911 107.165L114.909 107.165C114.605 107.198 114.282 107.161 113.933 107.032C113.575 106.9 113.356 106.715 113.256 106.476C113.16 106.238 113.195 105.978 113.376 105.687L113.511 105.469L113.218 105.402L111.646 105.046L111.331 104.974L111.16 105.203C110.836 105.635 110.665 106.061 110.658 106.477L110.658 106.478C110.654 106.889 110.805 107.264 111.106 107.6L111.107 107.601C111.223 107.729 111.36 107.847 111.516 107.956L110.982 108.491Z" fill="#FFF1C1" stroke="black" stroke-width="0.612307"/>
<path d="M101.42 127.883C101.42 128.337 101.292 128.791 101.068 129.245C100.492 130.392 99.1814 131.468 97.1032 132.352C91.412 134.813 82.1079 134.813 76.3847 132.352C74.3384 131.468 73.0276 130.392 72.4201 129.245C72.2282 128.791 72.1003 128.337 72.1003 127.883C72.1003 126.258 73.5391 124.657 76.3847 123.415C82.1079 120.929 91.412 120.929 97.1352 123.415C99.9808 124.633 101.42 126.258 101.42 127.883Z" fill="black"/>
<path d="M102.214 121.374C102.214 121.938 102.096 122.503 101.888 123.067C101.353 124.493 100.135 125.829 98.2045 126.928C92.9172 129.988 84.2735 129.988 78.9566 126.928C77.0556 125.829 75.8377 124.493 75.2734 123.067C75.0951 122.503 74.9763 121.938 74.9763 121.374C74.9763 119.354 76.313 117.364 78.9566 115.819C84.2735 112.73 92.9172 112.73 98.2342 115.819C100.878 117.334 102.214 119.354 102.214 121.374Z" fill="#FFF1C1" stroke="#080809" stroke-width="0.574887" stroke-miterlimit="10" stroke-linecap="round" stroke-linejoin="round"/>
<path d="M99.4728 121.382C99.4728 121.798 99.3837 122.214 99.2054 122.63C98.7896 123.669 97.8094 124.679 96.2945 125.481C92.0469 127.739 85.1854 127.739 80.9378 125.481C79.4229 124.679 78.4427 123.669 78.0269 122.63C77.8486 122.214 77.7595 121.798 77.7595 121.382C77.7595 119.897 78.8288 118.412 80.9378 117.283C85.1854 115.026 92.0469 115.026 96.2945 117.283C98.4035 118.412 99.4728 119.897 99.4728 121.382Z" fill="white" stroke="black" stroke-width="0.586802" stroke-miterlimit="10" stroke-linecap="round" stroke-linejoin="round"/>
<path d="M102.188 125.654V121.377C102.188 121.941 102.069 122.505 101.891 123.07C101.327 124.496 100.109 125.832 98.2078 126.931C96.6951 127.802 94.9154 128.424 93.0208 128.8V133.076C94.9167 132.7 96.6966 132.078 98.2078 131.209C100.851 129.664 102.188 127.674 102.188 125.654Z" fill="black"/>
<path d="M74.9763 125.654C74.9763 127.644 76.313 129.664 78.9566 131.209C83.7815 133.985 91.3461 134.242 96.6781 131.979V127.702C91.3507 129.964 83.811 129.707 78.9863 126.931C77.0556 125.832 75.8377 124.496 75.3031 123.07C75.0951 122.505 74.9763 121.941 74.9763 121.377V125.654Z" fill="#F5BC41"/>
<path d="M74.9763 125.654C74.9763 127.644 76.313 129.664 78.9566 131.209L78.9863 126.931C77.0556 125.832 75.8377 124.496 75.3031 123.07C75.0951 122.505 74.9763 121.941 74.9763 121.377V125.654Z" fill="white"/>
<path d="M80.6291 127.944V132.255M84.8784 129.134V133.498M88.7626 129.27V133.498M92.9372 128.901V132.998M96.7128 127.796V131.917M77.1101 125.807V130.196M99.8061 125.976V130.196" stroke="black" stroke-width="0.612307" stroke-miterlimit="10" stroke-linecap="round" stroke-linejoin="round"/>
<path d="M102.214 121.377V125.654C102.214 127.674 100.878 129.664 98.2342 131.209C92.9172 134.268 84.2735 134.268 78.9566 131.209C76.313 129.664 74.9763 127.644 74.9763 125.654V121.377C74.9763 121.941 75.0951 122.505 75.3031 123.07C75.8377 124.496 77.0556 125.832 78.9863 126.931C84.3032 129.991 92.9172 129.991 98.2342 126.931C100.135 125.832 101.353 124.496 101.917 123.07C102.096 122.505 102.214 121.941 102.214 121.377Z" stroke="black" stroke-width="0.586802" stroke-miterlimit="10" stroke-linecap="round" stroke-linejoin="round"/>
<path d="M83.8455 124.239L83.629 124.455L83.9162 124.561L85.3354 125.085L85.6226 125.191L85.8391 124.974L86.364 124.45C86.6238 124.491 86.8869 124.514 87.1533 124.518C87.7908 124.528 88.4015 124.435 88.9762 124.233C89.557 124.03 90.0435 123.727 90.4343 123.336C90.8766 122.894 91.09 122.455 91.0272 122.033C90.9691 121.621 90.6396 121.216 90.0988 120.815L90.0979 120.814L89.0519 120.046L89.0514 120.045C88.7997 119.862 88.6749 119.717 88.6343 119.611C88.6 119.512 88.6283 119.443 88.6905 119.38C88.7587 119.312 88.846 119.263 88.969 119.229C89.1119 119.19 89.275 119.173 89.4648 119.183C89.6547 119.195 89.8457 119.237 90.0378 119.314L90.0381 119.314C90.2369 119.393 90.3806 119.491 90.4774 119.605L90.4773 119.605L90.4809 119.609C90.5836 119.723 90.6356 119.848 90.6399 119.986L90.6399 119.986L90.64 119.988C90.6463 120.122 90.6046 120.263 90.5092 120.413L90.3665 120.637L90.6731 120.701L92.3279 121.046L92.6742 121.118L92.8234 120.863C93.0683 120.445 93.1848 120.046 93.1623 119.671C93.1459 119.294 92.9928 118.956 92.7059 118.658C92.6199 118.567 92.5225 118.481 92.4138 118.4L92.9663 117.847L93.1828 117.631L92.8955 117.525L91.4764 117.001L91.1892 116.895L90.9727 117.112L90.4553 117.629C90.2163 117.59 89.9752 117.567 89.7319 117.562C89.1409 117.549 88.5707 117.638 88.0309 117.833L88.0309 117.833L88.0284 117.834C87.4879 118.032 87.0299 118.326 86.653 118.703C86.2472 119.109 86.044 119.519 86.0734 119.923C86.1025 120.324 86.3578 120.694 86.7985 121.036L88.2283 122.147C88.3923 122.278 88.4562 122.381 88.4682 122.457L88.468 122.457L88.4694 122.463C88.4825 122.527 88.4606 122.595 88.3736 122.682C88.2567 122.799 88.0806 122.882 87.7749 122.913L87.7749 122.913L87.7726 122.914C87.4691 122.946 87.1453 122.909 86.7968 122.781C86.439 122.649 86.2198 122.463 86.1201 122.224C86.0238 121.986 86.0588 121.727 86.2399 121.435L86.3752 121.217L86.0816 121.151L84.5101 120.794L84.195 120.722L84.0238 120.951C83.6995 121.384 83.5288 121.81 83.5219 122.225L83.5218 122.226C83.5178 122.637 83.6689 123.012 83.9698 123.348L83.9709 123.349C84.0871 123.477 84.2236 123.595 84.3798 123.705L83.8455 124.239Z" fill="#FFF1C1" stroke="black" stroke-width="0.612307"/>
<path d="M62.0372 192.616C62.0372 193.07 61.9093 193.524 61.6855 193.978C61.11 195.125 59.7991 196.201 57.7209 197.085C52.0297 199.546 42.7256 199.546 37.0024 197.085C34.9561 196.201 33.6452 195.125 33.0377 193.978C32.8459 193.524 32.718 193.07 32.718 192.616C32.718 190.991 34.1568 189.39 37.0024 188.147C42.7256 185.662 52.0297 185.662 57.7529 188.147C60.5984 189.366 62.0372 190.991 62.0372 192.616Z" fill="black"/>
<path d="M62.8321 186.107C62.8321 186.671 62.7133 187.235 62.5054 187.8C61.9707 189.225 60.7529 190.562 58.8221 191.661C53.5349 194.721 44.8912 194.721 39.5743 191.661C37.6732 190.562 36.4554 189.225 35.891 187.8C35.7128 187.235 35.594 186.671 35.594 186.107C35.594 184.087 36.9307 182.097 39.5743 180.552C44.8912 177.463 53.5349 177.463 58.8518 180.552C61.4954 182.067 62.8321 184.087 62.8321 186.107Z" fill="url(#paint0_linear_2521_39849)" stroke="#080809" stroke-width="0.574887" stroke-miterlimit="10" stroke-linecap="round" stroke-linejoin="round"/>
<path d="M60.0905 186.115C60.0905 186.531 60.0013 186.946 59.8231 187.362C59.4073 188.402 58.4271 189.412 56.9122 190.214C52.6646 192.471 45.8031 192.471 41.5555 190.214C40.0406 189.412 39.0604 188.402 38.6445 187.362C38.4663 186.946 38.3772 186.531 38.3772 186.115C38.3772 184.63 39.4465 183.144 41.5555 182.016C45.8031 179.758 52.6646 179.758 56.9122 182.016C59.0211 183.144 60.0905 184.63 60.0905 186.115Z" fill="#FFED6E" stroke="black" stroke-width="0.586802" stroke-miterlimit="10" stroke-linecap="round" stroke-linejoin="round"/>
<path d="M62.8058 190.387V186.109C62.8058 186.674 62.6869 187.238 62.5087 187.802C61.9444 189.228 60.7265 190.565 58.8255 191.664C57.3127 192.534 55.5331 193.157 53.6384 193.532V197.808C55.5343 197.433 57.3143 196.811 58.8255 195.941C61.4691 194.397 62.8058 192.406 62.8058 190.387Z" fill="black"/>
<path d="M35.594 190.387C35.594 192.377 36.9307 194.397 39.5743 195.941C44.3992 198.718 51.9638 198.974 57.2957 196.712V192.435C51.9684 194.697 44.4287 194.44 39.604 191.664C37.6732 190.565 36.4554 189.228 35.9207 187.802C35.7128 187.238 35.594 186.674 35.594 186.109V190.387Z" fill="#F5BC41"/>
<path d="M35.594 190.387C35.594 192.377 36.9307 194.397 39.5743 195.941L39.604 191.664C37.6732 190.565 36.4554 189.228 35.9207 187.802C35.7128 187.238 35.594 186.674 35.594 186.109V190.387Z" fill="white"/>
<path d="M41.2931 192.389V196.986M45.5425 193.632V198.229M49.4266 193.632V198.229M53.6012 193.507V197.729M57.3769 192.389V196.649M37.7742 190.331L37.7742 194.928M60.4702 190.331V194.928" stroke="black" stroke-width="0.612307" stroke-miterlimit="10" stroke-linecap="round" stroke-linejoin="round"/>
<path d="M62.8321 186.109V190.387C62.8321 192.406 61.4954 194.397 58.8518 195.941C53.5349 199.001 44.8912 199.001 39.5743 195.941C36.9307 194.397 35.594 192.377 35.594 190.387V186.109C35.594 186.674 35.7128 187.238 35.9207 187.802C36.4554 189.228 37.6732 190.565 39.604 191.664C44.9209 194.723 53.5349 194.723 58.8518 191.664C60.7529 190.565 61.9707 189.228 62.5351 187.802C62.7133 187.238 62.8321 186.674 62.8321 186.109Z" stroke="black" stroke-width="0.586802" stroke-miterlimit="10" stroke-linecap="round" stroke-linejoin="round"/>
<path d="M44.5095 188.972L44.2931 189.188L44.5803 189.294L45.9994 189.818L46.2867 189.924L46.5031 189.707L47.028 189.182C47.2879 189.224 47.551 189.247 47.8173 189.251C48.4549 189.261 49.0655 189.168 49.6403 188.966C50.2211 188.762 50.7076 188.46 51.0983 188.069C51.5407 187.626 51.754 187.188 51.6913 186.766C51.6332 186.354 51.3036 185.948 50.7629 185.547L50.762 185.547L49.7159 184.778L49.7155 184.778C49.4638 184.594 49.339 184.449 49.2984 184.343C49.2641 184.245 49.2923 184.175 49.3545 184.113C49.4228 184.045 49.5101 183.996 49.6331 183.962C49.776 183.923 49.939 183.905 50.1288 183.916C50.3188 183.928 50.5097 183.969 50.7018 184.046L50.7022 184.047C50.9009 184.126 51.0447 184.223 51.1415 184.337L51.1414 184.337L51.1449 184.341C51.2477 184.456 51.2997 184.581 51.304 184.718L51.304 184.718L51.3041 184.721C51.3104 184.855 51.2687 184.996 51.1733 185.146L51.0306 185.37L51.3372 185.434L52.992 185.779L53.3383 185.851L53.4875 185.596C53.7323 185.177 53.8488 184.779 53.8264 184.403C53.81 184.027 53.6568 183.689 53.37 183.391C53.284 183.3 53.1865 183.214 53.0779 183.132L53.6303 182.58L53.8468 182.363L53.5596 182.257L52.1405 181.734L51.8532 181.628L51.6367 181.844L51.1194 182.362C50.8804 182.322 50.6393 182.3 50.396 182.295C49.805 182.282 49.2348 182.37 48.695 182.565L48.695 182.565L48.6925 182.566C48.152 182.765 47.694 183.059 47.3171 183.436C46.9113 183.841 46.7081 184.252 46.7374 184.656C46.7665 185.057 47.0219 185.427 47.4626 185.769L48.8923 186.88C49.0563 187.01 49.1203 187.114 49.1322 187.189L49.1321 187.189L49.1335 187.196C49.1466 187.259 49.1247 187.328 49.0376 187.415C48.9208 187.532 48.7446 187.615 48.439 187.646L48.439 187.646L48.4367 187.646C48.1332 187.679 47.8094 187.642 47.4609 187.513C47.103 187.381 46.8839 187.196 46.7842 186.957C46.6879 186.719 46.7228 186.459 46.904 186.168L47.0393 185.95L46.7457 185.883L45.1741 185.527L44.8591 185.455L44.6879 185.683C44.3635 186.116 44.1928 186.542 44.1859 186.958L44.1859 186.959C44.1819 187.37 44.3329 187.745 44.6338 188.081L44.635 188.082C44.7512 188.21 44.8877 188.328 45.0439 188.437L44.5095 188.972Z" fill="#FFF1C1" stroke="black" stroke-width="0.612307"/>
<path d="M62.8321 181.735C62.8321 182.299 62.7133 182.863 62.5054 183.428C61.9707 184.854 60.7529 186.19 58.8221 187.289C53.5349 190.349 44.8912 190.349 39.5743 187.289C37.6732 186.19 36.4554 184.854 35.891 183.428C35.7128 182.863 35.594 182.299 35.594 181.735C35.594 179.715 36.9307 177.725 39.5743 176.18C44.8912 173.091 53.5349 173.091 58.8518 176.18C61.4954 177.695 62.8321 179.715 62.8321 181.735Z" fill="#FFF1C1" stroke="#080809" stroke-width="0.574887" stroke-miterlimit="10" stroke-linecap="round" stroke-linejoin="round"/>
<path d="M60.0905 181.731C60.0905 182.147 60.0013 182.563 59.8231 182.979C59.4073 184.018 58.4271 185.028 56.9122 185.83C52.6646 188.088 45.8031 188.088 41.5555 185.83C40.0406 185.028 39.0604 184.018 38.6445 182.979C38.4663 182.563 38.3772 182.147 38.3772 181.731C38.3772 180.246 39.4465 178.761 41.5555 177.632C45.8031 175.375 52.6646 175.375 56.9122 177.632C59.0211 178.761 60.0905 180.246 60.0905 181.731Z" fill="white" stroke="black" stroke-width="0.586802" stroke-miterlimit="10" stroke-linecap="round" stroke-linejoin="round"/>
<path d="M62.8058 186.003V181.726C62.8058 182.29 62.6869 182.855 62.5087 183.419C61.9444 184.845 60.7265 186.181 58.8255 187.28C57.3127 188.151 55.5331 188.774 53.6384 189.149V193.425C55.5343 193.05 57.3143 192.427 58.8255 191.558C61.4691 190.013 62.8058 188.023 62.8058 186.003Z" fill="black"/>
<path d="M35.594 186.003C35.594 187.993 36.9307 190.013 39.5743 191.558C44.3992 194.334 51.9638 194.591 57.2957 192.328V188.051C51.9684 190.314 44.4287 190.057 39.604 187.28C37.6732 186.181 36.4554 184.845 35.9207 183.419C35.7128 182.855 35.594 182.29 35.594 181.726V186.003Z" fill="#F5BC41"/>
<path d="M35.594 186.003C35.594 187.993 36.9307 190.013 39.5743 191.558L39.604 187.28C37.6732 186.181 36.4554 184.845 35.9207 183.419C35.7128 182.855 35.594 182.29 35.594 181.726V186.003Z" fill="white"/>
<path d="M41.2931 188.268V192.614M45.5425 189.432V193.857M49.4266 189.613V193.857M53.6012 189.432V193.357M57.3769 188.017V192.277M37.7742 186.119V190.556M60.4702 185.959V190.556" stroke="black" stroke-width="0.612307" stroke-miterlimit="10" stroke-linecap="round" stroke-linejoin="round"/>
<path d="M62.8321 181.726V186.003C62.8321 188.023 61.4954 190.013 58.8518 191.558C53.5349 194.617 44.8912 194.617 39.5743 191.558C36.9307 190.013 35.594 187.993 35.594 186.003V181.726C35.594 182.29 35.7128 182.855 35.9207 183.419C36.4554 184.845 37.6732 186.181 39.604 187.28C44.9209 190.34 53.5349 190.34 58.8518 187.28C60.7529 186.181 61.9707 184.845 62.5351 183.419C62.7133 182.855 62.8321 182.29 62.8321 181.726Z" stroke="black" stroke-width="0.586802" stroke-miterlimit="10" stroke-linecap="round" stroke-linejoin="round"/>
<path d="M68.9551 175.6C68.9551 176.164 68.8363 176.729 68.6284 177.293C68.0937 178.719 66.8759 180.056 64.9452 181.155C59.658 184.214 51.0142 184.214 45.6973 181.155C43.7963 180.056 42.5784 178.719 42.0141 177.293C41.8359 176.729 41.717 176.164 41.717 175.6C41.717 173.58 43.0537 171.59 45.6973 170.045C51.0142 166.956 59.658 166.956 64.9749 170.045C67.6185 171.56 68.9551 173.58 68.9551 175.6Z" fill="#FFF1C1" stroke="#080809" stroke-width="0.574887" stroke-miterlimit="10" stroke-linecap="round" stroke-linejoin="round"/>
<path d="M66.2135 175.608C66.2135 176.024 66.1244 176.44 65.9462 176.856C65.5303 177.895 64.5501 178.905 63.0352 179.707C58.7876 181.965 51.9261 181.965 47.6785 179.707C46.1636 178.905 45.1834 177.895 44.7676 176.856C44.5894 176.44 44.5002 176.024 44.5002 175.608C44.5002 174.123 45.5696 172.638 47.6785 171.509C51.9261 169.252 58.7876 169.252 63.0352 171.509C65.1442 172.638 66.2135 174.123 66.2135 175.608Z" fill="white" stroke="black" stroke-width="0.586802" stroke-miterlimit="10" stroke-linecap="round" stroke-linejoin="round"/>
<path d="M68.9752 179.88V175.603C68.9752 176.167 68.8564 176.731 68.6782 177.296C68.1138 178.722 66.8959 180.058 64.9949 181.157C63.4822 182.028 61.7025 182.651 59.8079 183.026V187.302C61.7038 186.927 63.4837 186.304 64.9949 185.435C67.6385 183.89 68.9752 181.9 68.9752 179.88Z" fill="black"/>
<path d="M41.717 179.88C41.717 181.87 43.0537 183.89 45.6973 185.435C50.5223 188.211 58.0869 188.468 63.4188 186.205V181.928C58.0914 184.191 50.5518 183.934 45.727 181.157C43.7963 180.058 42.5784 178.722 42.0438 177.296C41.8359 176.731 41.717 176.167 41.717 175.603V179.88Z" fill="#F5BC41"/>
<path d="M41.717 179.88C41.717 181.87 43.0537 183.89 45.6973 185.435L45.727 181.157C43.7963 180.058 42.5784 178.722 42.0438 177.296C41.8359 176.731 41.717 176.167 41.717 175.603V179.88Z" fill="white"/>
<path d="M47.4162 182.147V186.114M51.6655 183.311V187.241M55.5497 183.492V187.62M59.7243 183.311V187.236M63.4999 181.896V186.156M43.8972 179.998V184.077M66.5932 180.229V184.435" stroke="black" stroke-width="0.612307" stroke-miterlimit="10" stroke-linecap="round" stroke-linejoin="round"/>
<path d="M68.9551 175.603V179.88C68.9551 181.9 67.6185 183.89 64.9749 185.435C59.658 188.494 51.0142 188.494 45.6973 185.435C43.0537 183.89 41.717 181.87 41.717 179.88V175.603C41.717 176.167 41.8359 176.731 42.0438 177.296C42.5784 178.722 43.7963 180.058 45.727 181.157C51.0439 184.217 59.658 184.217 64.9749 181.157C66.8759 180.058 68.0937 178.722 68.6581 177.296C68.8363 176.731 68.9551 176.167 68.9551 175.603Z" stroke="black" stroke-width="0.586802" stroke-miterlimit="10" stroke-linecap="round" stroke-linejoin="round"/>
<path d="M50.3543 178.813L50.1378 179.029L50.425 179.135L51.8442 179.659L52.1314 179.765L52.3479 179.548L52.8728 179.023C53.1326 179.065 53.3957 179.088 53.6621 179.092C54.2996 179.102 54.9103 179.009 55.485 178.807C56.0658 178.603 56.5523 178.301 56.9431 177.91C57.3854 177.468 57.5988 177.029 57.536 176.607C57.4779 176.195 57.1484 175.79 56.6076 175.389L56.6067 175.388L55.5607 174.62L55.5602 174.619C55.3085 174.436 55.1837 174.291 55.1431 174.185C55.1088 174.086 55.1371 174.017 55.1992 173.954C55.2675 173.886 55.3548 173.837 55.4778 173.803C55.6207 173.764 55.7837 173.747 55.9736 173.757C56.1635 173.769 56.3545 173.811 56.5466 173.888L56.5469 173.888C56.7457 173.967 56.8894 174.065 56.9862 174.179L56.9861 174.179L56.9897 174.183C57.0924 174.297 57.1444 174.422 57.1487 174.56L57.1487 174.56L57.1488 174.562C57.1551 174.696 57.1134 174.837 57.018 174.987L56.8753 175.211L57.1819 175.275L58.8367 175.62L59.183 175.692L59.3322 175.437C59.5771 175.019 59.6935 174.62 59.6711 174.245C59.6547 173.868 59.5016 173.53 59.2147 173.232C59.1287 173.141 59.0312 173.055 58.9226 172.974L59.4751 172.421L59.6916 172.205L59.4043 172.099L57.9852 171.575L57.698 171.469L57.4815 171.686L56.9641 172.203C56.7251 172.164 56.484 172.141 56.2407 172.136C55.6497 172.123 55.0795 172.212 54.5397 172.407L54.5397 172.407L54.5372 172.408C53.9967 172.606 53.5387 172.9 53.1618 173.277C52.756 173.683 52.5528 174.093 52.5822 174.497C52.6113 174.898 52.8666 175.268 53.3073 175.61L54.7371 176.721C54.9011 176.852 54.965 176.955 54.977 177.031L54.9768 177.031L54.9782 177.037C54.9913 177.101 54.9694 177.169 54.8824 177.256C54.7655 177.373 54.5893 177.456 54.2837 177.487L54.2837 177.487L54.2814 177.488C53.9779 177.52 53.6541 177.483 53.3056 177.355C52.9478 177.223 52.7286 177.037 52.6289 176.798C52.5326 176.56 52.5676 176.301 52.7487 176.009L52.884 175.791L52.5904 175.725L51.0188 175.368L50.7038 175.296L50.5326 175.525C50.2083 175.957 50.0376 176.383 50.0306 176.799L50.0306 176.8C50.0266 177.211 50.1777 177.586 50.4786 177.922L50.4797 177.923C50.5959 178.051 50.7324 178.169 50.8886 178.279L50.3543 178.813Z" fill="#FFF1C1" stroke="black" stroke-width="0.612307"/>
<defs>
<linearGradient id="paint0_linear_2521_39849" x1="37.3187" y1="190.883" x2="58.8769" y2="180.247" gradientUnits="userSpaceOnUse">
<stop stop-color="#FFED6E"/>
<stop offset="1" stop-color="#FFED6E"/>
</linearGradient>
<clipPath id="clip0_2521_39849">
<rect width="33.3434" height="25.295" fill="white" transform="translate(181.063 90.2744)"/>
</clipPath>
</defs>
</svg>
