<svg xmlns="http://www.w3.org/2000/svg" width="24" height="24" viewBox="0 0 24 24" class="dui-icon" fill="currentcolor" color="#0C0F0F"><g clip-path="url(#clip0_1746_153)"><g clip-path="url(#clip1_1746_153)" fill="#222727" stroke-width=".5"><path d="M19.65 14.106l-2.28 1.252-3.425-3.409 3.427-3.46a620.23 620.23 0 005.022 2.754c.276.148.423.294.495.417.07.117.08.227.055.332-.054.23-.284.47-.547.61-.146.073-1.197.652-2.748 1.504z"></path><path d="M2.545 23.477h0a2.835 2.835 0 01-.077.04l11.125-11.212 3.32 3.305c-4.656 2.559-10.97 6.01-13.408 7.342l-.96.525z"></path><path d="M16.611 8.092l.304.166-3.323 3.34L2.34.327c.067.025.133.056.197.094h0l.01.006c.417.222 4.08 2.218 7.643 4.161l4.844 2.642 1.577.861z"></path><path d="M1.257.585A.788.788 0 011.61.304l11.63 11.648L1.612 23.688a.627.627 0 01-.379-.299c-.122-.199-.195-.493-.195-.864V1.433c0-.399.093-.67.218-.848z"></path></g></g><defs><clipPath id="clip0_1746_153"><rect width="24" height="24" fill="#fff"></rect></clipPath><clipPath id="clip1_1746_153"><rect width="22.423" height="24" fill="#fff" transform="translate(.789)"></rect></clipPath></defs></svg>