<svg width="241" height="240" viewBox="0 0 241 240" fill="none" xmlns="http://www.w3.org/2000/svg">
<path d="M223.162 142.96L196.825 158.162L195.579 158.895L195.506 158.932H195.469C194.59 159.371 193.528 159.371 192.649 158.932H192.612L191.33 158.199L165.029 142.997C164.04 142.411 164.04 141.019 165.029 140.433L192.575 124.535C193.491 124.022 194.627 124.022 195.543 124.535L223.126 140.47C224.151 141.019 224.151 142.411 223.162 142.96Z" fill="black"/>
<path d="M223.914 126.415V132.89C223.914 133.402 223.694 133.879 223.181 134.172L196.844 149.374L195.598 150.106L195.525 150.143H195.488C194.609 150.582 193.547 150.582 192.668 150.143H192.631L191.349 149.41L165.048 134.208C164.791 134.062 164.608 133.879 164.498 133.659C164.388 133.439 164.315 133.183 164.315 132.963V126.415H175.598L192.594 116.598C193.51 116.085 194.646 116.085 195.562 116.598L212.558 126.415H223.914Z" fill="#DCDCDC" stroke="black" stroke-width="0.654943" stroke-miterlimit="10" stroke-linecap="round"/>
<path d="M223.162 127.628L196.825 142.83L195.579 143.563L195.506 143.6H195.469C194.59 144.039 193.528 144.039 192.649 143.6H192.612L191.33 142.867L165.029 127.665C164.04 127.079 164.04 125.687 165.029 125.101L192.575 109.203C193.491 108.69 194.627 108.69 195.543 109.203L223.126 125.137C224.151 125.687 224.151 127.079 223.162 127.628Z" fill="white" stroke="black" stroke-width="0.654943" stroke-miterlimit="10" stroke-linecap="round" stroke-linejoin="round"/>
<path d="M208.549 126.997L204.592 129.268L194.849 134.909H194.812C194.372 135.129 193.86 135.129 193.42 134.909L183.639 129.268L179.72 126.997C179.244 126.704 179.244 126.008 179.72 125.714L193.383 117.839C193.823 117.582 194.409 117.582 194.849 117.839L208.549 125.751C209.025 126.044 209.025 126.704 208.549 126.997Z" fill="#DCDCDC" stroke="black" stroke-width="0.654943" stroke-miterlimit="10" stroke-linecap="round" stroke-linejoin="round"/>
<path d="M204.599 129.271L194.855 134.912H194.819C194.379 135.132 193.866 135.132 193.427 134.912L183.646 129.271L193.39 123.63C193.83 123.373 194.416 123.373 194.855 123.63L204.599 129.271Z" fill="white" stroke="black" stroke-width="0.654943" stroke-miterlimit="10" stroke-linecap="round" stroke-linejoin="round"/>
<path d="M202.599 118.066C201.603 121.514 199.935 123.938 197.929 125.296C197.246 125.745 196.502 126.084 195.74 126.325L195.296 126.427C192.238 127.112 188.651 125.8 185.367 122.315C178.515 115.217 175.223 101.859 177.94 92.4498C179.292 87.7666 181.857 84.9556 184.951 84.1425C185.798 83.9258 186.735 83.8736 187.636 83.9492C190.101 84.1996 192.696 85.5947 195.172 88.2008C201.994 95.2443 205.328 108.615 202.599 118.066Z" fill="#FFD39F" stroke="black" stroke-width="0.655106" stroke-miterlimit="10" stroke-linecap="round" stroke-linejoin="round"/>
<path d="M194.15 121.032C199.187 119.786 201.521 111.708 199.364 102.989C197.208 94.2701 191.376 88.2121 186.34 89.458C181.303 90.7039 178.969 98.7819 181.126 107.501C183.282 116.22 189.114 122.278 194.15 121.032Z" fill="white" stroke="black" stroke-width="0.655106" stroke-miterlimit="10" stroke-linecap="round" stroke-linejoin="round"/>
<path fill-rule="evenodd" clip-rule="evenodd" d="M196.294 105.309C196.265 103.572 194.775 102.215 192.847 101.043L193.044 98.757L191.54 97.9707L191.348 100.196C190.952 99.9894 190.547 99.7853 190.145 99.5827L190.339 97.3427L188.835 96.5566L188.637 98.8413C188.311 98.6772 187.991 98.5156 187.679 98.3527L187.679 98.3455L185.605 97.2601L185.477 98.7462C185.477 98.7462 186.589 99.3074 186.569 99.3167C187.179 99.6354 187.349 100.066 187.382 100.379L187.157 102.983C187.199 103.005 187.254 103.035 187.315 103.075L187.264 103.049L187.264 103.049C187.229 103.03 187.193 103.011 187.156 102.992L186.841 106.64C186.799 106.803 186.662 107.027 186.236 106.805C186.254 106.831 185.142 106.233 185.142 106.233L184.7 107.739L186.658 108.762C186.876 108.876 187.093 108.992 187.307 109.106L187.307 109.106C187.45 109.182 187.591 109.258 187.732 109.332L187.533 111.644L189.035 112.43L189.233 110.143C189.645 110.366 190.044 110.578 190.433 110.781L190.236 113.058L191.74 113.844L191.94 111.537C194.481 112.725 196.302 113.061 196.711 110.979C197.042 109.304 196.21 108.044 194.802 106.975C195.71 107.02 196.318 106.581 196.294 105.309ZM193.75 109.163C193.614 110.748 190.924 109.306 189.694 108.646C189.583 108.587 189.484 108.534 189.4 108.49L189.665 105.427C189.768 105.481 189.893 105.543 190.034 105.614C191.298 106.246 193.89 107.542 193.75 109.163ZM190.056 104.153C191.082 104.706 193.321 105.912 193.446 104.472C193.573 102.998 191.413 101.924 190.358 101.4C190.24 101.341 190.135 101.289 190.049 101.244L189.809 104.021C189.88 104.058 189.963 104.103 190.056 104.153Z" fill="#FFD39F"/>
<path d="M192.847 101.043L192.529 100.877L192.506 101.144L192.793 101.319L192.847 101.043ZM196.294 105.309L195.975 105.172L195.975 105.173L196.294 105.309ZM193.044 98.757L193.362 98.9222L193.388 98.631L193.071 98.4653L193.044 98.757ZM191.54 97.9707L191.566 97.6789L191.247 97.5121L191.222 97.8054L191.54 97.9707ZM191.348 100.196L191.321 100.488L191.641 100.655L191.666 100.361L191.348 100.196ZM190.145 99.5827L189.827 99.4174L189.801 99.7146L190.125 99.8777L190.145 99.5827ZM190.339 97.3427L190.657 97.508L190.682 97.2168L190.365 97.051L190.339 97.3427ZM188.835 96.5566L188.862 96.265L188.543 96.0981L188.517 96.3913L188.835 96.5566ZM188.637 98.8413L188.618 99.1364L188.931 99.2938L188.956 99.0067L188.637 98.8413ZM187.679 98.3527L187.36 98.1949L187.344 98.4831L187.653 98.6445L187.679 98.3527ZM187.679 98.3455L187.998 98.5033L188.015 98.2155L187.706 98.0539L187.679 98.3455ZM185.605 97.2601L185.631 96.9685L185.312 96.8015L185.287 97.0949L185.605 97.2601ZM185.477 98.7462L185.159 98.581L185.133 98.8779L185.457 99.0411L185.477 98.7462ZM186.569 99.3167L186.35 98.9983L185.832 99.2367L186.543 99.6083L186.569 99.3167ZM187.382 100.379L187.7 100.544L187.702 100.517L187.699 100.487L187.382 100.379ZM187.157 102.983L186.839 102.817L186.814 103.107L187.129 103.273L187.157 102.983ZM187.315 103.075L187.289 103.367L187.385 102.809L187.315 103.075ZM187.264 103.049L187.291 102.757L187.29 102.757L187.264 103.049ZM187.264 103.049L187.237 103.34L187.238 103.341L187.264 103.049ZM187.156 102.992L187.18 102.699L186.863 102.536L186.838 102.827L187.156 102.992ZM186.841 106.64L187.153 106.844L187.157 106.825L187.159 106.805L186.841 106.64ZM186.236 106.805L186.262 106.513L185.427 106.078L186.005 106.913L186.236 106.805ZM185.142 106.233L185.174 105.944L184.899 105.797L184.833 106.023L185.142 106.233ZM184.7 107.739L184.39 107.528L184.3 107.835L184.674 108.03L184.7 107.739ZM186.658 108.762L186.684 108.47L186.684 108.47L186.658 108.762ZM187.307 109.106L187.277 109.396L187.277 109.396L187.307 109.106ZM187.307 109.106L187.337 108.817L187.337 108.816L187.307 109.106ZM187.732 109.332L188.05 109.497L188.075 109.208L187.76 109.041L187.732 109.332ZM187.533 111.644L187.214 111.479L187.189 111.77L187.506 111.936L187.533 111.644ZM189.035 112.43L189.009 112.721L189.328 112.888L189.353 112.595L189.035 112.43ZM189.233 110.143L189.266 109.854L188.94 109.678L188.915 109.977L189.233 110.143ZM190.433 110.781L190.752 110.947L190.777 110.655L190.46 110.49L190.433 110.781ZM190.236 113.058L189.918 112.892L189.893 113.184L190.21 113.349L190.236 113.058ZM191.74 113.844L191.714 114.136L192.033 114.302L192.059 114.009L191.74 113.844ZM191.94 111.537L191.948 111.236L191.646 111.095L191.622 111.371L191.94 111.537ZM196.711 110.979L196.397 110.788L196.397 110.788L196.711 110.979ZM194.802 106.975L194.68 106.639L193.886 106.6L194.702 107.219L194.802 106.975ZM189.694 108.646L189.725 108.357L189.725 108.357L189.694 108.646ZM193.75 109.163L193.432 108.998L193.432 108.998L193.75 109.163ZM189.4 108.49L189.082 108.325L189.057 108.616L189.374 108.782L189.4 108.49ZM189.665 105.427L189.692 105.136L189.373 104.969L189.347 105.262L189.665 105.427ZM190.034 105.614L190.015 105.91L190.034 105.614ZM193.446 104.472L193.764 104.637L193.764 104.637L193.446 104.472ZM190.056 104.153L190.025 104.442L190.025 104.442L190.056 104.153ZM190.358 101.4L190.376 101.104L190.376 101.104L190.358 101.4ZM190.049 101.244L190.075 100.952L189.756 100.785L189.731 101.078L190.049 101.244ZM189.809 104.021L189.491 103.856L189.466 104.147L189.783 104.313L189.809 104.021ZM192.793 101.319C193.74 101.895 194.537 102.491 195.095 103.127C195.635 103.741 195.962 104.404 195.975 105.172L196.613 105.446C196.597 104.477 196.165 103.592 195.471 102.801C194.794 102.031 193.882 101.363 192.901 100.767L192.793 101.319ZM192.726 98.5917L192.529 100.877L193.165 101.208L193.362 98.9222L192.726 98.5917ZM191.514 98.2624L193.018 99.0487L193.071 98.4653L191.566 97.6789L191.514 98.2624ZM191.666 100.361L191.858 98.1359L191.222 97.8054L191.03 100.031L191.666 100.361ZM190.125 99.8777C190.528 100.08 190.93 100.283 191.321 100.488L191.374 99.9044C190.975 99.6957 190.567 99.4901 190.165 99.2877L190.125 99.8777ZM190.021 97.1774L189.827 99.4174L190.463 99.748L190.657 97.508L190.021 97.1774ZM188.809 96.8483L190.313 97.6344L190.365 97.051L188.862 96.265L188.809 96.8483ZM188.956 99.0067L189.154 96.722L188.517 96.3913L188.319 98.676L188.956 99.0067ZM187.653 98.6445C187.968 98.8092 188.292 98.9723 188.618 99.1364L188.657 98.5463C188.331 98.3821 188.014 98.2219 187.705 98.0609L187.653 98.6445ZM187.361 98.1877L187.36 98.1949L187.998 98.5105L187.998 98.5033L187.361 98.1877ZM185.578 97.5518L187.653 98.6372L187.706 98.0539L185.631 96.9685L185.578 97.5518ZM185.795 98.9114L185.923 97.4254L185.287 97.0949L185.159 98.581L185.795 98.9114ZM186.789 99.635C186.823 99.6194 186.874 99.5817 186.886 99.4955C186.899 99.4055 186.862 99.3137 186.829 99.2542C186.776 99.1601 186.707 99.1015 186.701 99.0963C186.666 99.0659 186.635 99.0458 186.629 99.0423C186.608 99.0282 186.585 99.0151 186.57 99.0062C186.535 98.9862 186.488 98.9608 186.436 98.9334C186.332 98.8778 186.192 98.8056 186.054 98.7346C185.915 98.6635 185.776 98.5927 185.671 98.5397C185.619 98.5132 185.576 98.4912 185.545 98.4757C185.53 98.468 185.518 98.4619 185.51 98.4578C185.506 98.4557 185.502 98.4541 185.5 98.4531C185.499 98.4525 185.498 98.4521 185.498 98.4518C185.498 98.4517 185.497 98.4516 185.497 98.4515C185.497 98.4515 185.497 98.4514 185.497 98.4514C185.497 98.4514 185.497 98.4514 185.497 98.4514C185.497 98.4514 185.497 98.4514 185.477 98.7462C185.457 99.0411 185.457 99.0411 185.457 99.0411C185.457 99.0411 185.457 99.0411 185.457 99.0411C185.457 99.0411 185.457 99.0411 185.457 99.0411C185.457 99.0412 185.457 99.0413 185.457 99.0414C185.458 99.0417 185.459 99.0421 185.46 99.0426C185.462 99.0437 185.465 99.0452 185.469 99.0473C185.477 99.0513 185.489 99.0573 185.504 99.065C185.534 99.0803 185.577 99.1021 185.629 99.1284C185.733 99.181 185.87 99.2511 186.007 99.3213C186.145 99.3918 186.28 99.4616 186.378 99.5139C186.428 99.5404 186.464 99.5603 186.486 99.5728C186.499 99.5802 186.499 99.5801 186.491 99.5752C186.488 99.5735 186.483 99.5698 186.476 99.5645C186.47 99.5603 186.454 99.5491 186.435 99.5322C186.431 99.5282 186.362 99.4708 186.31 99.3775C186.276 99.3184 186.24 99.2269 186.253 99.1373C186.265 99.0513 186.316 99.0138 186.35 98.9983L186.789 99.635ZM187.699 100.487C187.678 100.291 187.612 100.03 187.43 99.754C187.243 99.4698 186.966 99.2189 186.596 99.025L186.543 99.6083C186.782 99.7332 186.894 99.857 186.953 99.9461C187.017 100.044 187.052 100.154 187.065 100.27L187.699 100.487ZM187.475 103.148L187.7 100.544L187.064 100.213L186.839 102.817L187.475 103.148ZM187.385 102.809C187.305 102.756 187.235 102.718 187.185 102.692L187.129 103.273C187.164 103.292 187.203 103.314 187.246 103.342L187.385 102.809ZM187.238 103.34L187.289 103.367L187.342 102.784L187.291 102.757L187.238 103.34ZM187.238 103.341L187.238 103.341L187.29 102.757L187.29 102.757L187.238 103.341ZM187.133 103.286C187.168 103.304 187.202 103.322 187.237 103.34L187.291 102.757C187.256 102.739 187.219 102.719 187.18 102.699L187.133 103.286ZM187.159 106.805L187.474 103.158L186.838 102.827L186.523 106.475L187.159 106.805ZM186.21 107.097C186.51 107.254 186.746 107.267 186.91 107.182C187.061 107.102 187.125 106.951 187.153 106.844L186.529 106.436C186.515 106.492 186.489 106.535 186.455 106.553C186.44 106.56 186.422 106.564 186.397 106.562C186.372 106.559 186.329 106.548 186.262 106.513L186.21 107.097ZM185.142 106.233C185.111 106.522 185.111 106.522 185.111 106.522C185.111 106.522 185.111 106.522 185.111 106.522C185.111 106.522 185.111 106.522 185.111 106.522C185.111 106.523 185.112 106.523 185.112 106.523C185.112 106.523 185.113 106.524 185.114 106.524C185.116 106.525 185.12 106.527 185.124 106.529C185.132 106.534 185.144 106.54 185.159 106.548C185.19 106.565 185.233 106.588 185.285 106.616C185.389 106.672 185.528 106.746 185.667 106.819C185.805 106.893 185.944 106.966 186.049 107.02C186.1 107.046 186.146 107.07 186.181 107.086C186.196 107.094 186.217 107.104 186.237 107.112C186.241 107.114 186.27 107.126 186.302 107.133C186.312 107.136 186.329 107.139 186.349 107.141C186.365 107.142 186.405 107.144 186.447 107.128C186.491 107.111 186.558 107.06 186.555 106.941C186.553 106.832 186.494 106.736 186.467 106.698L186.005 106.913C185.978 106.875 185.92 106.779 185.917 106.671C185.914 106.551 185.981 106.501 186.025 106.484C186.066 106.468 186.106 106.47 186.122 106.471C186.141 106.473 186.158 106.476 186.167 106.478C186.185 106.483 186.199 106.488 186.203 106.489C186.21 106.492 186.214 106.494 186.216 106.494C186.222 106.497 186.221 106.496 186.207 106.49C186.184 106.479 186.147 106.46 186.096 106.434C185.997 106.383 185.862 106.312 185.725 106.239C185.588 106.166 185.45 106.092 185.346 106.037C185.294 106.009 185.251 105.986 185.221 105.97C185.206 105.962 185.194 105.955 185.186 105.951C185.182 105.949 185.179 105.947 185.177 105.946C185.176 105.945 185.175 105.945 185.174 105.945C185.174 105.945 185.174 105.944 185.174 105.944C185.174 105.944 185.174 105.944 185.174 105.944C185.174 105.944 185.174 105.944 185.174 105.944C185.174 105.944 185.174 105.944 185.142 106.233ZM185.01 107.949L185.452 106.444L184.833 106.023L184.39 107.528L185.01 107.949ZM186.684 108.47L184.726 107.447L184.674 108.03L186.631 109.054L186.684 108.47ZM187.337 108.816C187.123 108.702 186.905 108.586 186.684 108.47L186.631 109.053C186.848 109.167 187.063 109.282 187.277 109.396L187.337 108.816ZM187.337 108.816L187.337 108.816L187.277 109.396L187.278 109.396L187.337 108.816ZM187.76 109.041C187.62 108.967 187.48 108.892 187.337 108.817L187.278 109.396C187.42 109.472 187.562 109.548 187.703 109.623L187.76 109.041ZM187.851 111.809L188.05 109.497L187.413 109.167L187.214 111.479L187.851 111.809ZM189.062 112.138L187.559 111.352L187.506 111.936L189.009 112.721L189.062 112.138ZM188.915 109.977L188.717 112.264L189.353 112.595L189.551 110.308L188.915 109.977ZM190.46 110.49C190.072 110.287 189.675 110.077 189.266 109.854L189.2 110.431C189.614 110.656 190.016 110.869 190.407 111.073L190.46 110.49ZM190.554 113.223L190.752 110.947L190.115 110.616L189.918 112.892L190.554 113.223ZM191.767 113.552L190.262 112.766L190.21 113.349L191.714 114.136L191.767 113.552ZM191.622 111.371L191.422 113.679L192.059 114.009L192.258 111.702L191.622 111.371ZM196.397 110.788C196.208 111.751 195.706 112.124 194.982 112.148C194.231 112.174 193.207 111.825 191.948 111.236L191.932 111.838C193.214 112.437 194.371 112.85 195.268 112.82C196.192 112.789 196.806 112.289 197.026 111.171L196.397 110.788ZM194.702 107.219C195.367 107.724 195.852 108.241 196.141 108.796C196.427 109.346 196.553 109.996 196.397 110.788L197.026 111.171C197.2 110.287 197.076 109.469 196.677 108.703C196.28 107.942 195.646 107.294 194.902 106.73L194.702 107.219ZM195.975 105.173C195.986 105.76 195.851 106.129 195.631 106.35C195.411 106.571 195.088 106.66 194.68 106.639L194.924 107.31C195.424 107.335 195.859 107.227 196.164 106.922C196.468 106.616 196.626 106.13 196.613 105.445L195.975 105.173ZM189.663 108.936C190.271 109.262 191.292 109.811 192.183 110.07C192.629 110.199 193.074 110.265 193.422 110.172C193.783 110.076 194.026 109.812 194.068 109.328L193.432 108.998C193.405 109.306 193.261 109.456 193.041 109.515C192.809 109.577 192.478 109.539 192.082 109.423C191.286 109.192 190.347 108.691 189.725 108.357L189.663 108.936ZM189.374 108.782C189.456 108.824 189.552 108.876 189.663 108.936L189.725 108.357C189.615 108.298 189.513 108.244 189.426 108.198L189.374 108.782ZM189.347 105.262L189.082 108.325L189.718 108.655L189.983 105.593L189.347 105.262ZM190.053 105.319C189.91 105.247 189.79 105.187 189.692 105.136L189.639 105.719C189.746 105.775 189.875 105.84 190.015 105.91L190.053 105.319ZM194.068 109.328C194.11 108.841 193.944 108.36 193.641 107.911C193.347 107.477 192.941 107.098 192.521 106.775C191.685 106.133 190.676 105.63 190.053 105.319L190.015 105.91C190.656 106.23 191.575 106.692 192.316 107.26C192.684 107.544 192.979 107.831 193.171 108.116C193.354 108.386 193.46 108.674 193.432 108.998L194.068 109.328ZM193.128 104.306C193.103 104.588 192.982 104.724 192.807 104.782C192.621 104.844 192.356 104.823 192.032 104.735C191.38 104.559 190.609 104.145 190.088 103.865L190.025 104.442C190.53 104.714 191.391 105.18 192.146 105.385C192.526 105.488 192.908 105.533 193.209 105.433C193.521 105.329 193.726 105.076 193.764 104.637L193.128 104.306ZM190.34 101.696C190.877 101.962 191.632 102.34 192.236 102.818C192.536 103.054 192.77 103.294 192.922 103.532C193.066 103.759 193.153 104.011 193.128 104.307L193.764 104.637C193.802 104.195 193.667 103.761 193.409 103.355C193.159 102.962 192.811 102.624 192.454 102.342C191.746 101.783 190.894 101.361 190.376 101.104L190.34 101.696ZM190.023 101.535C190.114 101.583 190.223 101.637 190.34 101.696L190.376 101.104C190.256 101.044 190.156 100.994 190.075 100.952L190.023 101.535ZM190.127 104.187L190.367 101.409L189.731 101.078L189.491 103.856L190.127 104.187ZM190.088 103.865C189.995 103.815 189.909 103.768 189.835 103.73L189.783 104.313C189.85 104.348 189.931 104.392 190.025 104.442L190.088 103.865Z" fill="black"/>
<path d="M207.627 116.799C206.3 121.397 203.778 124.221 200.769 125.058L200.366 125.173L195.743 126.329C196.492 126.13 197.236 125.791 197.931 125.3C199.98 123.954 201.619 121.476 202.602 118.07C205.319 108.661 201.997 95.248 195.217 88.2167C192.729 85.6532 190.134 84.2581 187.681 83.9652C186.738 83.8773 185.843 83.9417 184.997 84.1585L189.967 82.9185L190.119 82.8703C193.244 82.1121 196.886 83.3945 200.255 86.9039C207.022 93.9777 210.357 107.348 207.627 116.799Z" fill="black"/>
<path d="M195.217 88.2167C192.729 85.6532 190.134 84.2581 187.681 83.9652C186.77 83.8802 185.904 83.9376 185.082 84.1371L184.997 84.1585C185.025 84.1512 185.054 84.1441 185.082 84.1371L189.967 82.9185L190.119 82.8703C193.244 82.1121 196.886 83.3945 200.255 86.9039L195.217 88.2167Z" fill="white"/>
<path d="M195.218 88.2112C201.998 95.2424 205.32 108.655 202.603 118.064L207.628 116.794C210.357 107.342 207.023 93.9722 200.256 86.8984L195.218 88.2112Z" fill="#FF9900"/>
<path d="M207.627 116.799C206.3 121.397 203.778 124.221 200.769 125.058L200.366 125.173L195.743 126.329C196.492 126.13 197.236 125.791 197.931 125.3C199.98 123.954 201.619 121.476 202.602 118.07C205.319 108.661 201.997 95.248 195.217 88.2167C192.729 85.6532 190.134 84.2581 187.681 83.9652C186.738 83.8773 185.843 83.9417 184.997 84.1585L189.967 82.9185L190.119 82.8703C193.244 82.1121 196.886 83.3945 200.255 86.9039C207.022 93.9777 210.357 107.348 207.627 116.799Z" stroke="black" stroke-width="0.655106" stroke-miterlimit="10" stroke-linecap="round" stroke-linejoin="round"/>
<path d="M195.172 83.3144L190.146 84.5846M198.696 85.4852L193.671 86.7554M201.124 87.9389L196.068 89.1543M203.022 90.4703L197.997 91.7406M204.56 93.1286L199.535 94.3988M205.807 95.8408L200.781 97.111M206.846 98.6315L201.778 99.8894M207.593 101.476L202.567 102.746M208.145 104.357L203.119 105.627M208.506 107.736L203.451 108.952M208.533 111.157L203.465 112.415M208.103 114.723L203.048 115.938M207.046 118.384L202.021 119.654M205.779 121.016L200.723 122.232" stroke="black" stroke-width="0.655106" stroke-miterlimit="10" stroke-linecap="round" stroke-linejoin="round"/>
<path d="M59.7786 147.435L33.4343 162.641L32.1885 163.374L32.1152 163.41H32.0786C31.1992 163.85 30.1367 163.85 29.2573 163.41H29.2207L27.9383 162.678L1.63063 147.472C0.641351 146.886 0.641351 145.493 1.63063 144.907L29.184 129.005C30.1 128.492 31.2359 128.492 32.1519 129.005L59.7419 144.944C60.7678 145.493 60.7678 146.886 59.7786 147.435Z" fill="black"/>
<path d="M60.5022 130.893V137.369C60.5022 137.882 60.2823 138.358 59.7694 138.651L33.4251 153.857L32.1793 154.59L32.1061 154.626H32.0694C31.1901 155.066 30.1275 155.066 29.2481 154.626H29.2115L27.9291 153.894L1.62147 138.688C1.36499 138.541 1.18179 138.358 1.07187 138.138C0.961952 137.918 0.888672 137.662 0.888672 137.442V130.893H12.1738L29.1749 121.073C30.0909 120.56 31.2267 120.56 32.1427 121.073L49.1437 130.893H60.5022Z" fill="#DCDCDC" stroke="black" stroke-width="0.655106" stroke-miterlimit="10" stroke-linecap="round"/>
<path d="M59.7786 132.098L33.4343 147.304L32.1885 148.037L32.1152 148.074H32.0786C31.1992 148.513 30.1367 148.513 29.2573 148.074H29.2207L27.9383 147.341L1.63063 132.135C0.641351 131.549 0.641351 130.157 1.63063 129.57L29.184 113.668C30.1 113.155 31.2359 113.155 32.1519 113.668L59.7419 129.607C60.7678 130.157 60.7678 131.549 59.7786 132.098Z" fill="white" stroke="black" stroke-width="0.655106" stroke-miterlimit="10" stroke-linecap="round" stroke-linejoin="round"/>
<path d="M45.1623 131.469L41.2051 133.741L31.4589 139.383H31.4222C30.9825 139.603 30.4696 139.603 30.0299 139.383L20.247 133.741L16.3265 131.469C15.8502 131.176 15.8502 130.48 16.3265 130.187L29.9933 122.309C30.4329 122.053 31.0192 122.053 31.4589 122.309L45.1623 130.223C45.6386 130.516 45.6386 131.176 45.1623 131.469Z" fill="#DCDCDC" stroke="black" stroke-width="0.655106" stroke-miterlimit="10" stroke-linecap="round" stroke-linejoin="round"/>
<path d="M41.1828 133.75L31.4365 139.393H31.3999C30.9602 139.612 30.4472 139.612 30.0075 139.393L20.2246 133.75L29.9709 128.107C30.4106 127.851 30.9968 127.851 31.4365 128.107L41.1828 133.75Z" fill="white" stroke="black" stroke-width="0.655106" stroke-miterlimit="10" stroke-linecap="round" stroke-linejoin="round"/>
<g clip-path="url(#clip0_3255_20382)">
<path d="M37.4019 122.435C36.405 125.883 34.736 128.305 32.7295 129.662C32.0465 130.11 31.303 130.449 30.5416 130.69L30.097 130.792C27.0399 131.476 23.4537 130.162 20.1726 126.677C13.3248 119.577 10.0387 106.222 12.7585 96.8161C14.1122 92.1346 16.6771 89.3252 19.7711 88.5136C20.6176 88.2972 21.555 88.2454 22.4554 88.3213C24.9192 88.5726 27.5132 89.9684 29.9877 92.5747C36.8053 99.6191 40.1339 112.987 37.4019 122.435Z" fill="#D7EEFF" stroke="black" stroke-width="0.654943" stroke-miterlimit="10" stroke-linecap="round" stroke-linejoin="round"/>
<path d="M28.9566 125.391C33.9923 124.147 36.3293 116.072 34.1764 107.355C32.0234 98.6375 26.1959 92.5788 21.1602 93.8224C16.1245 95.066 13.7875 103.141 15.9404 111.859C18.0934 120.576 23.9209 126.635 28.9566 125.391Z" fill="white" stroke="black" stroke-width="0.654943" stroke-miterlimit="10" stroke-linecap="round" stroke-linejoin="round"/>
<path d="M20.7772 105.818L24.4162 111.575L27.5298 100.807L20.7772 105.818Z" fill="white" stroke="black" stroke-width="0.654943" stroke-miterlimit="10" stroke-linecap="round" stroke-linejoin="round"/>
<path d="M27.5183 100.813L24.4047 111.58L28.8995 114.218L27.5183 100.813Z" fill="#9EBBD1" stroke="black" stroke-width="0.654943" stroke-miterlimit="10" stroke-linecap="round" stroke-linejoin="round"/>
<path d="M23.6633 114.089L22.3465 118.643L28.1581 116.727L23.6633 114.089Z" fill="#9EBBD1" stroke="black" stroke-width="0.654943" stroke-miterlimit="10" stroke-linecap="round" stroke-linejoin="round"/>
<path d="M20.0366 108.293L22.3465 118.646L23.6633 114.092L20.0366 108.293Z" fill="white" stroke="black" stroke-width="0.654943" stroke-miterlimit="10" stroke-linecap="round" stroke-linejoin="round"/>
<path d="M42.3995 121.169C41.0703 125.765 38.5481 128.587 35.5392 129.423L35.1372 129.537L30.5146 130.691C31.2638 130.493 32.0073 130.154 32.7026 129.663C34.7516 128.319 36.3904 125.841 37.3749 122.437C40.0947 113.031 36.7783 99.6205 30.0034 92.5885C27.5165 90.0247 24.9225 88.6289 22.471 88.3351C21.528 88.2469 20.6333 88.3109 19.7867 88.5273L24.7564 87.2896L24.9087 87.2414C28.0329 86.4846 31.674 87.7681 35.0402 91.2779C41.8029 98.3525 45.1315 111.721 42.3995 121.169Z" fill="black"/>
<path d="M30.0034 92.5885C27.5165 90.0247 24.9225 88.6289 22.471 88.3351C21.5598 88.2498 20.6935 88.3068 19.8723 88.506L19.7867 88.5273C19.8152 88.52 19.8437 88.5129 19.8723 88.506L24.7564 87.2896L24.9087 87.2414C28.0329 86.4846 31.674 87.7681 35.0402 91.2779L30.0034 92.5885Z" fill="white"/>
<path d="M30.0343 92.5804C36.8093 99.6124 40.1257 113.023 37.4059 122.429L42.4304 121.161C45.1625 111.713 41.8338 98.3444 35.0711 91.2698L30.0343 92.5804Z" fill="#9EBBD1"/>
<path d="M42.3995 121.169C41.0703 125.765 38.5481 128.587 35.5392 129.423L35.1372 129.537L30.5146 130.691C31.2638 130.493 32.0073 130.154 32.7026 129.663C34.7516 128.319 36.3904 125.841 37.3749 122.437C40.0947 113.031 36.7783 99.6205 30.0034 92.5885C27.5165 90.0247 24.9225 88.6289 22.471 88.3351C21.528 88.2469 20.6333 88.3109 19.7867 88.5273L24.7564 87.2896L24.9087 87.2414C28.0329 86.4846 31.674 87.7681 35.0402 91.2779C41.8029 98.3525 45.1315 111.721 42.3995 121.169Z" stroke="black" stroke-width="0.654943" stroke-miterlimit="10" stroke-linecap="round" stroke-linejoin="round"/>
<path d="M30.0174 87.7005L24.9929 88.9685M33.5401 89.8721L28.5155 91.1401M35.9664 92.3261L30.9116 93.5393M37.8631 94.8576L32.8385 96.1256M39.4003 97.5158L34.3757 98.7838M40.6452 100.228L35.6207 101.496M41.683 103.018L36.6159 104.274M42.4285 105.862L37.404 107.13M42.9792 108.743L37.9547 110.011M43.3396 112.121L38.2849 113.334M43.3652 115.541L38.2981 116.797M42.934 119.106L37.8792 120.319M41.8756 122.766L36.8511 124.034M40.6075 125.397L35.5527 126.61" stroke="black" stroke-width="0.654943" stroke-miterlimit="10" stroke-linecap="round" stroke-linejoin="round"/>
</g>
<rect width="70.0292" height="81.4446" rx="6.07986" transform="matrix(0.866025 0.5 -0.866025 0.5 116.26 131.34)" fill="black"/>
<path d="M57.0513 165.254C57.1883 164.555 57.8014 164.05 58.5142 164.05C58.5142 164.05 58.642 164.05 58.7698 164.05C58.8977 164.05 59.0255 164.05 59.0255 164.05C59.8488 164.05 60.5162 164.718 60.5162 165.541V167.475C60.5162 168.299 59.8488 168.966 59.0255 168.966C59.0255 168.966 58.8029 168.966 58.5804 168.966C58.3578 168.966 58.1353 168.966 58.1353 168.966C57.197 168.966 56.492 168.11 56.6724 167.189L57.0513 165.254Z" fill="black"/>
<path d="M56.0874 165.609L55.8805 166.666C55.8274 166.937 56.0349 167.189 56.3112 167.189C56.521 167.189 56.7015 167.04 56.7418 166.834L56.9488 165.778C57.0019 165.507 56.7944 165.254 56.5181 165.254C56.3083 165.254 56.1278 165.403 56.0874 165.609Z" fill="black"/>
<path d="M55.7514 167.548C55.7878 168.321 56.4265 168.966 57.2409 168.966L58.1353 168.966C57.3818 168.966 56.7787 168.414 56.6639 167.719C56.6188 167.447 56.4155 167.189 56.1392 167.189C55.9294 167.189 55.7414 167.339 55.7514 167.548Z" fill="black"/>
<path d="M56.3496 164.76C56.6146 164.329 57.0896 164.05 57.6198 164.05H58.5142C57.9242 164.05 57.4026 164.396 57.1627 164.912C57.0741 165.102 56.8999 165.254 56.69 165.254C56.4138 165.254 56.2049 164.996 56.3496 164.76Z" fill="black"/>
<path d="M58.1311 168.966C58.801 168.966 59.3677 168.524 59.5556 167.916C59.6285 167.68 59.822 167.475 60.069 167.475C60.316 167.475 60.5229 167.68 60.45 167.916C60.2621 168.524 59.6954 168.966 59.0255 168.966H58.1311Z" fill="black"/>
<path d="M59.5556 165.1C59.3677 164.492 58.801 164.05 58.1311 164.05H59.0255C59.6954 164.05 60.2621 164.492 60.45 165.1C60.5229 165.336 60.316 165.541 60.069 165.541C59.822 165.541 59.6285 165.336 59.5556 165.1Z" fill="black"/>
<path d="M59.6218 167.028V165.988C59.6218 165.741 59.822 165.541 60.069 165.541C60.316 165.541 60.5162 165.741 60.5162 165.988V167.028C60.5162 167.275 60.316 167.475 60.069 167.475C59.822 167.475 59.6218 167.275 59.6218 167.028Z" fill="black"/>
<path d="M58.7698 164.05C58.642 164.05 58.5142 164.05 58.5142 164.05M58.7698 164.05C58.8977 164.05 59.0255 164.05 59.0255 164.05M58.7698 164.05H58.5142M58.7698 164.05H58.1311M58.7698 164.05H59.0255M58.5804 168.966C58.8029 168.966 59.0255 168.966 59.0255 168.966M58.5804 168.966C58.3578 168.966 58.1353 168.966 58.1353 168.966M58.5804 168.966H58.1353M58.5804 168.966H58.1311M58.5804 168.966H59.0255M58.5142 164.05C57.8014 164.05 57.1883 164.555 57.0513 165.254L56.6724 167.189C56.492 168.11 57.197 168.966 58.1353 168.966M58.5142 164.05C57.9242 164.05 57.4026 164.396 57.1627 164.912C57.0741 165.102 56.8999 165.254 56.69 165.254C56.4138 165.254 56.2049 164.996 56.3496 164.76C56.6146 164.329 57.0896 164.05 57.6198 164.05M58.5142 164.05H57.6198M58.5142 164.05H57.8754M59.0255 164.05C59.8488 164.05 60.5162 164.718 60.5162 165.541V167.475C60.5162 168.299 59.8488 168.966 59.0255 168.966M59.0255 164.05C59.6954 164.05 60.2621 164.492 60.45 165.1C60.5229 165.336 60.316 165.541 60.069 165.541M59.0255 164.05H58.1311M59.0255 168.966H58.1311M59.0255 168.966C59.6954 168.966 60.2621 168.524 60.45 167.916C60.5229 167.68 60.316 167.475 60.069 167.475M58.1353 168.966C57.3818 168.966 56.7787 168.414 56.6639 167.719C56.6188 167.447 56.4155 167.189 56.1392 167.189C55.9294 167.189 55.7414 167.339 55.7514 167.548C55.7878 168.321 56.4265 168.966 57.2409 168.966M58.1353 168.966L57.2409 168.966M58.1353 168.966H57.686M57.2409 168.966L57.686 168.966M57.6198 164.05H57.8754M57.686 168.966H58.1311M57.8754 164.05H58.1311M58.1311 168.966C58.801 168.966 59.3677 168.524 59.5556 167.916C59.6285 167.68 59.822 167.475 60.069 167.475M58.1311 164.05C58.801 164.05 59.3677 164.492 59.5556 165.1C59.6285 165.336 59.822 165.541 60.069 165.541M60.069 167.475C60.316 167.475 60.5162 167.275 60.5162 167.028V165.988C60.5162 165.741 60.316 165.541 60.069 165.541M60.069 167.475C59.822 167.475 59.6218 167.275 59.6218 167.028V165.988C59.6218 165.741 59.822 165.541 60.069 165.541M55.8805 166.666L56.0874 165.609C56.1278 165.403 56.3083 165.254 56.5181 165.254C56.7944 165.254 57.0019 165.507 56.9488 165.778L56.7418 166.834C56.7015 167.04 56.521 167.189 56.3112 167.189C56.0349 167.189 55.8274 166.937 55.8805 166.666Z" stroke="black" stroke-width="0.680945" stroke-linejoin="round"/>
<path d="M103.591 191.487C103.728 190.788 104.341 190.283 105.053 190.283C105.053 190.283 105.181 190.283 105.309 190.283C105.437 190.283 105.565 190.283 105.565 190.283C106.388 190.283 107.055 190.951 107.055 191.774V193.708C107.055 194.531 106.388 195.199 105.565 195.199C105.565 195.199 105.342 195.199 105.12 195.199C104.897 195.199 104.675 195.199 104.675 195.199C103.736 195.199 103.031 194.342 103.212 193.422L103.591 191.487Z" fill="black"/>
<path d="M102.627 191.842L102.42 192.898C102.367 193.17 102.574 193.422 102.85 193.422C103.06 193.422 103.241 193.273 103.281 193.067L103.488 192.011C103.541 191.739 103.334 191.487 103.057 191.487C102.848 191.487 102.667 191.636 102.627 191.842Z" fill="black"/>
<path d="M102.291 193.781C102.327 194.554 102.966 195.199 103.78 195.199L104.675 195.199C103.921 195.199 103.318 194.647 103.203 193.952C103.158 193.68 102.955 193.422 102.679 193.422C102.469 193.422 102.281 193.572 102.291 193.781Z" fill="black"/>
<path d="M102.889 190.993C103.154 190.562 103.629 190.283 104.159 190.283H105.053C104.464 190.283 103.942 190.629 103.702 191.145C103.613 191.335 103.439 191.487 103.229 191.487C102.953 191.487 102.744 191.229 102.889 190.993Z" fill="black"/>
<path d="M104.67 195.199C105.34 195.199 105.907 194.757 106.095 194.149C106.168 193.913 106.361 193.708 106.608 193.708C106.855 193.708 107.062 193.913 106.989 194.149C106.801 194.757 106.235 195.199 105.565 195.199H104.67Z" fill="black"/>
<path d="M106.095 191.333C105.907 190.725 105.34 190.283 104.67 190.283H105.565C106.235 190.283 106.801 190.725 106.989 191.333C107.062 191.569 106.855 191.774 106.608 191.774C106.361 191.774 106.168 191.569 106.095 191.333Z" fill="black"/>
<path d="M106.161 193.261V192.221C106.161 191.974 106.361 191.774 106.608 191.774C106.855 191.774 107.055 191.974 107.055 192.221V193.261C107.055 193.508 106.855 193.708 106.608 193.708C106.361 193.708 106.161 193.508 106.161 193.261Z" fill="black"/>
<path d="M105.309 190.283C105.181 190.283 105.053 190.283 105.053 190.283M105.309 190.283C105.437 190.283 105.565 190.283 105.565 190.283M105.309 190.283H105.053M105.309 190.283H104.67M105.309 190.283H105.565M105.12 195.199C105.342 195.199 105.565 195.199 105.565 195.199M105.12 195.199C104.897 195.199 104.675 195.199 104.675 195.199M105.12 195.199H104.675M105.12 195.199H104.67M105.12 195.199H105.565M105.053 190.283C104.341 190.283 103.728 190.788 103.591 191.487L103.212 193.422C103.031 194.342 103.736 195.199 104.675 195.199M105.053 190.283C104.464 190.283 103.942 190.629 103.702 191.145C103.613 191.335 103.439 191.487 103.229 191.487C102.953 191.487 102.744 191.229 102.889 190.993C103.154 190.562 103.629 190.283 104.159 190.283M105.053 190.283H104.159M105.053 190.283H104.415M105.565 190.283C106.388 190.283 107.055 190.951 107.055 191.774V193.708C107.055 194.531 106.388 195.199 105.565 195.199M105.565 190.283C106.235 190.283 106.801 190.725 106.989 191.333C107.062 191.569 106.855 191.774 106.608 191.774M105.565 190.283H104.67M105.565 195.199H104.67M105.565 195.199C106.235 195.199 106.801 194.757 106.989 194.149C107.062 193.913 106.855 193.708 106.608 193.708M104.675 195.199C103.921 195.199 103.318 194.647 103.203 193.952C103.158 193.68 102.955 193.422 102.679 193.422C102.469 193.422 102.281 193.572 102.291 193.781C102.327 194.554 102.966 195.199 103.78 195.199M104.675 195.199L103.78 195.199M104.675 195.199H104.225M103.78 195.199L104.225 195.199M104.159 190.283H104.415M104.225 195.199H104.67M104.415 190.283H104.67M104.67 195.199C105.34 195.199 105.907 194.757 106.095 194.149C106.168 193.913 106.361 193.708 106.608 193.708M104.67 190.283C105.34 190.283 105.907 190.725 106.095 191.333C106.168 191.569 106.361 191.774 106.608 191.774M106.608 193.708C106.855 193.708 107.055 193.508 107.055 193.261V192.221C107.055 191.974 106.855 191.774 106.608 191.774M106.608 193.708C106.361 193.708 106.161 193.508 106.161 193.261V192.221C106.161 191.974 106.361 191.774 106.608 191.774M102.42 192.898L102.627 191.842C102.667 191.636 102.848 191.487 103.057 191.487C103.334 191.487 103.541 191.739 103.488 192.011L103.281 193.067C103.241 193.273 103.06 193.422 102.85 193.422C102.574 193.422 102.367 193.17 102.42 192.898Z" stroke="black" stroke-width="0.680945" stroke-linejoin="round"/>
<path d="M56.1569 165.254C56.2939 164.555 56.9069 164.05 57.6197 164.05H58.1311C58.9543 164.05 59.6217 164.718 59.6217 165.541V167.475C59.6217 168.299 58.9543 168.966 58.1311 168.966H57.2408C56.3026 168.966 55.5976 168.11 55.778 167.189L56.1569 165.254Z" fill="white" stroke="black" stroke-width="0.680945"/>
<path d="M102.696 191.487C102.833 190.788 103.446 190.283 104.159 190.283H104.67C105.494 190.283 106.161 190.951 106.161 191.774V193.708C106.161 194.531 105.494 195.199 104.67 195.199H103.78C102.842 195.199 102.137 194.342 102.317 193.422L102.696 191.487Z" fill="white" stroke="black" stroke-width="0.680945"/>
<path d="M52.9556 84.1992L112.796 118.748L112.796 196.707L55.5375 163.649C54.1115 162.825 52.9556 160.823 52.9556 159.177L52.9556 84.1992Z" fill="white" stroke="black" stroke-width="0.680945"/>
<path d="M55.6545 91.6337C55.6545 89.9872 56.8105 89.3197 58.2365 90.143L107.916 118.825C109.342 119.649 110.498 121.651 110.498 123.297L110.498 189.76C110.498 191.406 109.342 192.074 107.916 191.25L58.2365 162.568C56.8105 161.745 55.6545 159.742 55.6545 158.096L55.6545 91.6337Z" fill="white" stroke="black" stroke-width="0.680945"/>
<path d="M112.797 118.865L172.637 84.316L172.637 159.293C172.637 160.94 171.481 162.942 170.055 163.765L112.797 196.823L112.797 118.865Z" fill="#DCDCDC" stroke="black" stroke-width="0.680945"/>
<rect width="70.0292" height="70.5639" rx="2.02662" transform="matrix(0.866025 0.5 -0.866025 0.5 113.104 48.916)" fill="#99FFF2" stroke="black" stroke-width="0.680944" stroke-miterlimit="10" stroke-linecap="round" stroke-linejoin="round"/>
<path d="M86.1715 146.411C86.1715 149.208 85.1987 151.214 83.6787 152.187L83.4355 152.369C81.794 153.22 79.6052 153.038 77.1733 151.64C72.1878 148.782 68.1143 141.729 68.1143 136.014C68.1143 133.218 69.0262 131.272 70.607 130.239L70.911 130.056C72.4918 129.205 74.6805 129.387 77.1125 130.725H77.1733C82.098 133.643 86.1715 140.635 86.1715 146.411Z" fill="white" stroke="black" stroke-width="0.680945" stroke-miterlimit="10" stroke-linecap="round" stroke-linejoin="round"/>
<path d="M93.0114 142.299V142.36C93.0114 145.156 92.0386 147.163 90.5186 148.136L90.2146 148.318L83.466 152.209C84.9859 151.236 85.9587 149.291 85.9587 146.494V146.433C85.9587 140.657 81.8852 133.665 76.8997 130.808H76.8389C74.4678 129.41 72.279 129.288 70.6375 130.139L77.3253 126.309L77.6293 126.126C79.2709 125.275 81.4596 125.458 83.8308 126.856C83.8916 126.856 83.9524 126.917 83.9524 126.978C89.0594 129.714 93.0114 136.645 93.0114 142.299Z" fill="#DCDCDC" stroke="black" stroke-width="0.680945" stroke-miterlimit="10" stroke-linecap="round" stroke-linejoin="round"/>
<path d="M77.062 146.96L66.8479 145.987L65.1455 141.184L72.8669 141.67L75.4205 141.853L75.7853 142.947L77.062 146.96Z" fill="white" stroke="black" stroke-width="0.680945" stroke-miterlimit="10" stroke-linecap="round" stroke-linejoin="round"/>
<path d="M83.4459 143.671L77.062 146.955L75.7853 142.942L75.4205 141.847L72.8669 141.665L65.1455 141.179L71.5294 137.896L81.8043 138.503L83.4459 143.671Z" fill="#99FFF2" stroke="black" stroke-width="0.680945" stroke-miterlimit="10" stroke-linecap="round" stroke-linejoin="round"/>
<path d="M75.2993 141.781L81.6832 138.438" stroke="black" stroke-width="0.680945" stroke-miterlimit="10" stroke-linecap="round" stroke-linejoin="round"/>
<path d="M91.7349 123.721L72.5833 112.656C72.2185 112.413 71.9753 111.987 71.9753 111.561V105.482C71.9753 104.813 72.7049 104.448 73.2521 104.752L92.4037 115.817C92.7685 116.06 93.0117 116.486 93.0117 116.912V122.992C93.0117 123.6 92.2821 124.025 91.7349 123.721Z" fill="white" stroke="black" stroke-width="0.680945" stroke-miterlimit="10" stroke-linecap="round" stroke-linejoin="round"/>
<path d="M81.0891 113.223L89.1753 117.904" stroke="black" stroke-width="0.680945" stroke-miterlimit="10" stroke-linecap="round" stroke-linejoin="round"/>
<path d="M76.0134 110.254L78.7494 111.835" stroke="black" stroke-width="0.680945" stroke-miterlimit="10" stroke-linecap="round" stroke-linejoin="round"/>
<path d="M71.5149 167.577C70.6029 167.03 69.8733 165.814 69.8733 164.78V158.7C69.8733 157.667 70.6029 157.241 71.5149 157.789C72.4268 158.336 73.1564 159.552 73.1564 160.585V166.665C73.1564 167.699 72.4268 168.063 71.5149 167.577Z" fill="black" stroke="black" stroke-width="0.680945" stroke-miterlimit="10" stroke-linecap="round" stroke-linejoin="round"/>
<path d="M78.728 171.703C77.816 171.156 77.0864 169.94 77.0864 168.906V162.826C77.0864 161.793 77.816 161.367 78.728 161.914C79.64 162.462 80.3696 163.678 80.3696 164.711V170.791C80.3696 171.825 79.64 172.25 78.728 171.703Z" fill="black" stroke="black" stroke-width="0.680945" stroke-miterlimit="10" stroke-linecap="round" stroke-linejoin="round"/>
<path d="M85.913 176.059C85.0011 175.511 84.2715 174.295 84.2715 173.262V167.182C84.2715 166.148 85.0011 165.723 85.913 166.27C86.825 166.817 87.5546 168.033 87.5546 169.067V175.147C87.5546 176.119 86.825 176.545 85.913 176.059Z" fill="black" stroke="black" stroke-width="0.680945" stroke-miterlimit="10" stroke-linecap="round" stroke-linejoin="round"/>
<path d="M55.6321 102.633C55.6321 102.009 56.0832 101.491 56.677 101.386C56.7488 101.374 56.8227 101.367 56.8981 101.367C57.5974 101.367 58.1642 101.934 58.1642 102.633V111.837C58.1642 112.461 57.7133 112.979 57.1197 113.084C57.0478 113.096 56.9737 113.103 56.8981 113.103C56.1989 113.103 55.6321 112.536 55.6321 111.837V102.633Z" fill="#99FFF2"/>
<path d="M54.1641 112.096C54.1641 112.795 54.7309 113.362 55.4301 113.362L56.8981 113.103C56.1989 113.103 55.6321 112.536 55.6321 111.837L54.1641 112.096Z" fill="#99FFF2"/>
<path d="M54.1641 102.892V112.096L55.6321 111.837V102.633L54.1641 102.892Z" fill="#99FFF2"/>
<path d="M55.4301 113.362C55.5057 113.362 55.5797 113.355 55.6517 113.343L57.1197 113.084C57.0478 113.096 56.9737 113.103 56.8981 113.103L55.4301 113.362Z" fill="#99FFF2"/>
<path d="M55.6517 113.343C56.2453 113.238 56.6961 112.719 56.6961 112.096L58.1642 111.837C58.1642 112.461 57.7133 112.979 57.1197 113.084L55.6517 113.343Z" fill="#99FFF2"/>
<path d="M54.1641 102.892C54.1641 102.268 54.6152 101.75 55.209 101.645L56.677 101.386C56.0832 101.491 55.6321 102.009 55.6321 102.633L54.1641 102.892Z" fill="#99FFF2"/>
<path d="M55.209 101.645C55.2808 101.633 55.3547 101.626 55.4301 101.626L56.8981 101.367C56.8227 101.367 56.7488 101.374 56.677 101.386L55.209 101.645Z" fill="#99FFF2"/>
<path d="M56.6961 112.096V102.892L58.1642 102.633V111.837L56.6961 112.096Z" fill="#99FFF2"/>
<path d="M56.6961 102.892C56.6961 102.193 56.1293 101.626 55.4301 101.626L56.8981 101.367C57.5974 101.367 58.1642 101.934 58.1642 102.633L56.6961 102.892Z" fill="#99FFF2"/>
<path d="M56.8981 113.103C56.1989 113.103 55.6321 112.536 55.6321 111.837M56.8981 113.103C56.9737 113.103 57.0478 113.096 57.1197 113.084M56.8981 113.103L55.4301 113.362M55.6321 111.837V102.633M55.6321 111.837L54.1641 112.096M58.1642 111.837V102.633M58.1642 111.837C58.1642 112.461 57.7133 112.979 57.1197 113.084M58.1642 111.837L56.6961 112.096M56.8981 101.367C57.5974 101.367 58.1642 101.934 58.1642 102.633M56.8981 101.367C56.8227 101.367 56.7488 101.374 56.677 101.386M56.8981 101.367L55.4301 101.626M58.1642 102.633L56.6961 102.892M55.6321 102.633C55.6321 102.009 56.0832 101.491 56.677 101.386M55.6321 102.633L54.1641 102.892M57.1197 113.084V113.084ZM57.1197 113.084L55.6517 113.343M56.677 101.386V101.386ZM56.677 101.386L55.209 101.645M55.4301 113.362C54.7309 113.362 54.1641 112.795 54.1641 112.096M55.4301 113.362C55.5057 113.362 55.5797 113.355 55.6517 113.343M54.1641 112.096V102.892M54.1641 102.892C54.1641 102.268 54.6152 101.75 55.209 101.645M55.6517 113.343C56.2453 113.238 56.6961 112.719 56.6961 112.096M56.6961 112.096V102.892M55.209 101.645C55.2808 101.633 55.3547 101.626 55.4301 101.626M55.4301 101.626C56.1293 101.626 56.6961 102.193 56.6961 102.892" stroke="black" stroke-width="0.596273" stroke-miterlimit="10" stroke-linecap="round" stroke-linejoin="round"/>
<path d="M54.1641 102.892C54.1641 102.193 54.7309 101.626 55.4301 101.626C56.1293 101.626 56.6961 102.193 56.6961 102.892V112.096C56.6961 112.795 56.1293 113.362 55.4301 113.362C54.7309 113.362 54.1641 112.795 54.1641 112.096V102.892Z" fill="white" stroke="black" stroke-width="0.596273"/>
<path d="M55.6321 144.372C55.6321 143.748 56.0832 143.229 56.677 143.125C56.7488 143.112 56.8227 143.105 56.8981 143.105C57.5974 143.105 58.1642 143.672 58.1642 144.372V153.575C58.1642 154.199 57.7133 154.717 57.1197 154.822C57.0478 154.835 56.9737 154.841 56.8981 154.841C56.1989 154.841 55.6321 154.274 55.6321 153.575V144.372Z" fill="#99FFF2"/>
<path d="M54.1641 153.834C54.1641 154.533 54.7309 155.1 55.4301 155.1L56.8981 154.841C56.1989 154.841 55.6321 154.274 55.6321 153.575L54.1641 153.834Z" fill="#99FFF2"/>
<path d="M54.1641 144.63V153.834L55.6321 153.575V144.372L54.1641 144.63Z" fill="#99FFF2"/>
<path d="M55.4301 155.1C55.5057 155.1 55.5797 155.094 55.6517 155.081L57.1197 154.822C57.0478 154.835 56.9737 154.841 56.8981 154.841L55.4301 155.1Z" fill="#99FFF2"/>
<path d="M55.6517 155.081C56.2453 154.976 56.6961 154.458 56.6961 153.834L58.1642 153.575C58.1642 154.199 57.7133 154.717 57.1197 154.822L55.6517 155.081Z" fill="#99FFF2"/>
<path d="M54.1641 144.63C54.1641 144.007 54.6152 143.488 55.209 143.384L56.677 143.125C56.0832 143.229 55.6321 143.748 55.6321 144.372L54.1641 144.63Z" fill="#99FFF2"/>
<path d="M55.209 143.384C55.2808 143.371 55.3547 143.364 55.4301 143.364L56.8981 143.105C56.8227 143.105 56.7488 143.112 56.677 143.125L55.209 143.384Z" fill="#99FFF2"/>
<path d="M56.6961 153.834V144.63L58.1642 144.372V153.575L56.6961 153.834Z" fill="#99FFF2"/>
<path d="M56.6961 144.63C56.6961 143.931 56.1293 143.364 55.4301 143.364L56.8981 143.105C57.5974 143.105 58.1642 143.672 58.1642 144.372L56.6961 144.63Z" fill="#99FFF2"/>
<path d="M56.8981 154.841C56.1989 154.841 55.6321 154.274 55.6321 153.575M56.8981 154.841C56.9737 154.841 57.0478 154.835 57.1197 154.822M56.8981 154.841L55.4301 155.1M55.6321 153.575V144.372M55.6321 153.575L54.1641 153.834M58.1642 153.575V144.372M58.1642 153.575C58.1642 154.199 57.7133 154.717 57.1197 154.822M58.1642 153.575L56.6961 153.834M56.8981 143.105C57.5974 143.105 58.1642 143.672 58.1642 144.372M56.8981 143.105C56.8227 143.105 56.7488 143.112 56.677 143.125M56.8981 143.105L55.4301 143.364M58.1642 144.372L56.6961 144.63M55.6321 144.372C55.6321 143.748 56.0832 143.229 56.677 143.125M55.6321 144.372L54.1641 144.63M57.1197 154.822V154.822ZM57.1197 154.822L55.6517 155.081M56.677 143.125V143.125ZM56.677 143.125L55.209 143.384M55.4301 155.1C54.7309 155.1 54.1641 154.533 54.1641 153.834M55.4301 155.1C55.5057 155.1 55.5797 155.094 55.6517 155.081M54.1641 153.834V144.63M54.1641 144.63C54.1641 144.007 54.6152 143.488 55.209 143.384M55.6517 155.081C56.2453 154.976 56.6961 154.458 56.6961 153.834M56.6961 153.834V144.63M55.209 143.384C55.2808 143.371 55.3547 143.364 55.4301 143.364M55.4301 143.364C56.1293 143.364 56.6961 143.931 56.6961 144.63" stroke="black" stroke-width="0.596273" stroke-miterlimit="10" stroke-linecap="round" stroke-linejoin="round"/>
<path d="M54.1641 144.63C54.1641 143.931 54.7309 143.364 55.4301 143.364C56.1293 143.364 56.6961 143.931 56.6961 144.63V153.834C56.6961 154.533 56.1293 155.1 55.4301 155.1C54.7309 155.1 54.1641 154.533 54.1641 153.834V144.63Z" fill="white" stroke="black" stroke-width="0.596273"/>
<rect width="49.7583" height="10.0384" rx="2.98137" transform="matrix(0.866025 0.5 -0.866025 0.5 92.1279 70.4907)" fill="black" stroke="black" stroke-width="1.00174" stroke-miterlimit="10" stroke-linecap="round" stroke-linejoin="round"/>
<mask id="mask0_3255_20382" style="mask-type:alpha" maskUnits="userSpaceOnUse" x="81" y="0" width="64" height="109">
<rect width="72.0226" height="72.0226" transform="matrix(0.866025 0.5 0.00820296 0.999966 81.6482 0.822754)" fill="#D9D9D9"/>
</mask>
<g mask="url(#mask0_3255_20382)">
<path d="M127.229 90.4487C125.707 95.7219 123.155 99.4285 120.087 101.505C119.043 102.191 117.906 102.709 116.741 103.078L116.061 103.234C111.386 104.282 105.9 102.275 100.88 96.9459C90.4017 86.0916 85.3678 65.6657 89.5222 51.2784C91.59 44.1173 95.5113 39.8189 100.243 38.5756C101.538 38.2442 102.971 38.1644 104.349 38.28C108.117 38.6629 112.086 40.7962 115.872 44.7812C126.303 55.5516 131.403 75.9963 127.229 90.4487Z" fill="white" stroke="black" stroke-width="1.00174" stroke-miterlimit="10" stroke-linecap="round" stroke-linejoin="round"/>
<path d="M114.31 94.9819C122.011 93.0768 125.581 80.7246 122.283 67.3924C118.985 54.0602 110.068 44.7968 102.367 46.7019C94.6651 48.607 91.0954 60.9592 94.3934 74.2914C97.6914 87.6235 106.608 96.887 114.31 94.9819Z" fill="white" stroke="black" stroke-width="1.00174" stroke-miterlimit="10" stroke-linecap="round" stroke-linejoin="round"/>
<path fill-rule="evenodd" clip-rule="evenodd" d="M117.587 70.941C117.543 68.2845 115.264 66.2102 112.316 64.4173L112.617 60.9223L110.317 59.7199L110.023 63.1229C109.419 62.8068 108.8 62.4947 108.184 62.185L108.481 58.7597L106.182 57.5577L105.879 61.0513C105.38 60.8003 104.89 60.5532 104.413 60.3041L104.414 60.2931L101.242 58.6335L101.046 60.9059C101.046 60.9059 102.747 61.764 102.716 61.7782C103.648 62.2655 103.908 62.9243 103.959 63.4021L103.615 67.3838C103.68 67.4177 103.763 67.464 103.857 67.5257L103.779 67.4849C103.726 67.4569 103.671 67.428 103.614 67.3989L103.132 72.9763C103.067 73.2262 102.858 73.5684 102.207 73.2291C102.234 73.2686 100.535 72.3545 100.535 72.3545L99.858 74.6562L102.851 76.2211C103.186 76.3963 103.517 76.5727 103.844 76.7473L103.846 76.7482C104.063 76.8641 104.279 76.9793 104.494 77.0927L104.189 80.628L106.487 81.8297L106.789 78.3322C107.419 78.6741 108.029 78.998 108.625 79.3091L108.324 82.7899L110.624 83.9922L110.929 80.4641C114.814 82.2807 117.599 82.7947 118.225 79.6119C118.73 77.0493 117.459 75.1234 115.306 73.4882C116.694 73.5574 117.623 72.8867 117.587 70.941ZM113.698 76.8357C113.49 79.2598 109.378 77.0548 107.496 76.046L107.496 76.0458C107.327 75.9551 107.176 75.8741 107.047 75.8069L107.452 71.1239C107.609 71.2059 107.8 71.3012 108.016 71.4093L108.016 71.4093C109.949 72.3761 113.912 74.3575 113.698 76.8357ZM108.049 69.1737C109.619 70.0191 113.042 71.8632 113.233 69.6605C113.427 67.4071 110.124 65.7648 108.511 64.9627C108.33 64.8725 108.17 64.7929 108.038 64.7243L107.671 68.9718C107.78 69.0283 107.907 69.0969 108.049 69.1737Z" fill="black"/>
<path d="M134.918 88.5109C132.888 95.5418 129.032 99.859 124.43 101.14L123.815 101.315L116.746 103.082C117.891 102.778 119.028 102.26 120.092 101.509C123.225 99.4518 125.73 95.6613 127.234 90.4532C131.388 76.0659 126.308 55.5561 115.941 44.8045C112.136 40.8846 108.168 38.7513 104.418 38.3033C102.976 38.1689 101.607 38.2675 100.313 38.5989L107.913 36.7029L108.146 36.6291C112.924 35.4697 118.494 37.4307 123.645 42.7971C133.992 53.6138 139.091 74.0585 134.918 88.5109Z" fill="black"/>
<path d="M115.941 44.8045C112.136 40.8846 108.168 38.7513 104.418 38.3033C103.024 38.1735 101.7 38.2611 100.444 38.5663L100.313 38.5989C100.356 38.5878 100.4 38.5769 100.444 38.5663L107.913 36.7029L108.146 36.6291C112.924 35.4697 118.494 37.4307 123.645 42.7971L115.941 44.8045Z" fill="white"/>
<path d="M115.943 44.7996C126.309 55.5512 131.389 76.061 127.235 90.4483L134.919 88.506C139.092 74.0536 133.993 53.6089 123.646 42.7922L115.943 44.7996Z" fill="#99FFF2"/>
<path d="M134.918 88.5109C132.888 95.5418 129.032 99.859 124.43 101.14L123.815 101.315L116.746 103.082C117.891 102.778 119.028 102.26 120.092 101.509C123.225 99.4518 125.73 95.6613 127.234 90.4532C131.388 76.0659 126.308 55.5561 115.941 44.8045C112.136 40.8846 108.168 38.7513 104.418 38.3033C102.976 38.1689 101.607 38.2675 100.313 38.5989L107.913 36.7029L108.146 36.6291C112.924 35.4697 118.494 37.4307 123.645 42.7971C133.992 53.6138 139.091 74.0585 134.918 88.5109Z" stroke="black" stroke-width="1.00174" stroke-miterlimit="10" stroke-linecap="round" stroke-linejoin="round"/>
<path d="M115.872 37.3112L108.188 39.2536M121.261 40.6306L113.577 42.5729M124.974 44.3827L117.243 46.2411M127.876 48.2536L120.192 50.1959M130.229 52.3183L122.545 54.2606M132.135 56.4656L124.451 58.4079M133.724 60.733L125.974 62.6565M134.866 65.0829L127.181 67.0252M135.71 69.4878L128.025 71.4301M136.263 74.6551L128.532 76.5135M136.304 79.8861L128.555 81.8097M135.647 85.3386L127.916 87.197M134.03 90.9373L126.346 92.8796M132.092 94.9621L124.361 96.8205" stroke="black" stroke-width="1.00174" stroke-miterlimit="10" stroke-linecap="round" stroke-linejoin="round"/>
</g>
<path d="M181.554 222.748L155.216 237.95L153.97 238.683L153.897 238.719H153.86C152.981 239.159 151.919 239.159 151.04 238.719H151.003L149.721 237.987L123.42 222.785C122.431 222.199 122.431 220.807 123.42 220.221L150.967 204.323C151.882 203.81 153.018 203.81 153.934 204.323L181.517 220.257C182.543 220.807 182.543 222.199 181.554 222.748Z" fill="black"/>
<path d="M182.306 206.208V212.682C182.306 213.195 182.087 213.671 181.574 213.964L155.236 229.166L153.99 229.899L153.917 229.935H153.881C153.001 230.375 151.939 230.375 151.06 229.935H151.023L149.741 229.203L123.44 214.001C123.184 213.854 123.001 213.671 122.891 213.451C122.781 213.232 122.708 212.975 122.708 212.755V206.208H133.99L150.987 196.39C151.902 195.878 153.038 195.878 153.954 196.39L170.951 206.208H182.306Z" fill="#DCDCDC" stroke="black" stroke-width="0.654944" stroke-miterlimit="10" stroke-linecap="round"/>
<path d="M181.554 207.406L155.216 222.608L153.97 223.341L153.897 223.377H153.86C152.981 223.817 151.919 223.817 151.04 223.377H151.003L149.721 222.645L123.42 207.443C122.431 206.857 122.431 205.465 123.42 204.879L150.967 188.981C151.882 188.468 153.018 188.468 153.934 188.981L181.517 204.915C182.543 205.465 182.543 206.857 181.554 207.406Z" fill="white" stroke="black" stroke-width="0.654944" stroke-miterlimit="10" stroke-linecap="round" stroke-linejoin="round"/>
<path d="M166.969 206.777L163.013 209.048L153.269 214.689H153.232C152.793 214.909 152.28 214.909 151.84 214.689L142.06 209.048L138.14 206.777C137.664 206.484 137.664 205.788 138.14 205.495L151.804 197.619C152.243 197.363 152.829 197.363 153.269 197.619L166.969 205.531C167.445 205.824 167.445 206.484 166.969 206.777Z" fill="#DCDCDC" stroke="black" stroke-width="0.654944" stroke-miterlimit="10" stroke-linecap="round" stroke-linejoin="round"/>
<path d="M162.99 209.056L153.246 214.697H153.21C152.77 214.917 152.257 214.917 151.818 214.697L142.037 209.056L151.781 203.415C152.221 203.159 152.807 203.159 153.246 203.415L162.99 209.056Z" fill="white" stroke="black" stroke-width="0.654944" stroke-miterlimit="10" stroke-linecap="round" stroke-linejoin="round"/>
<path d="M150.579 207.835C149.738 207.568 148.953 207.125 148.211 206.549C146.34 205.079 144.923 202.634 144.198 199.24C142.136 189.92 146.216 177.046 153.283 170.57C155.818 168.257 158.383 167.074 160.773 166.907C161.698 166.908 162.595 166.997 163.435 167.264C166.444 168.217 168.777 171.147 169.83 175.814C171.922 185.192 167.842 198.066 160.731 204.528C157.227 207.75 153.587 208.788 150.579 207.835Z" fill="#FFF1C1" stroke="#080809" stroke-width="0.898258" stroke-miterlimit="10" stroke-linecap="round" stroke-linejoin="round"/>
<path d="M151.886 203.734C151.267 203.537 150.69 203.208 150.154 202.747C148.802 201.637 147.761 199.7 147.281 197.065C145.924 189.672 149.162 179.452 154.53 174.191C156.439 172.313 158.406 171.33 160.151 171.201C160.855 171.132 161.516 171.196 162.136 171.392C164.348 172.093 166.055 174.387 166.741 178.061C168.098 185.453 164.86 195.673 159.492 200.935C156.815 203.543 154.099 204.435 151.886 203.734Z" fill="white" stroke="black" stroke-width="0.654944" stroke-miterlimit="10" stroke-linecap="round" stroke-linejoin="round"/>
<path d="M150.595 207.839L144.224 205.82C141.216 204.867 138.882 201.936 137.829 197.27C135.782 187.906 139.862 175.031 146.929 168.556C150.477 165.347 154.117 164.31 157.081 165.249L163.452 167.268C162.612 167.002 161.715 166.912 160.776 166.956C158.4 167.079 155.834 168.262 153.286 170.619C146.219 177.094 142.153 189.925 144.2 199.289C144.94 202.639 146.356 205.084 148.214 206.597C148.97 207.129 149.755 207.573 150.595 207.839Z" fill="#F5BC41" stroke="black" stroke-width="0.654944" stroke-miterlimit="10" stroke-linecap="round" stroke-linejoin="round"/>
<mask id="mask1_3255_20382" style="mask-type:alpha" maskUnits="userSpaceOnUse" x="136" y="164" width="28" height="45">
<path d="M150.595 207.839L144.224 205.82C141.216 204.867 138.882 201.936 137.829 197.27C135.782 187.906 139.862 175.031 146.929 168.556C150.477 165.347 154.117 164.31 157.081 165.249L163.452 167.268C162.612 167.002 161.715 166.912 160.776 166.956C158.4 167.079 155.834 168.262 153.286 170.619C146.219 177.094 142.153 189.925 144.2 199.289C144.94 202.639 146.356 205.084 148.214 206.597C148.97 207.129 149.755 207.573 150.595 207.839Z" fill="#F5BC41" stroke="black" stroke-width="0.689621" stroke-miterlimit="10" stroke-linecap="round" stroke-linejoin="round"/>
</mask>
<g mask="url(#mask1_3255_20382)">
<path d="M152.725 164.521L160.214 166.5M149.09 166.499L156.274 168.438M146.535 168.819L153.318 170.901M144.504 171.245L150.855 173.364M142.826 173.816L149.09 175.827M141.437 176.457L147.407 178.29M140.25 179.187L146.535 181.245M139.352 181.987L145.098 183.708M138.647 184.833L144.504 186.664M137.555 188.141L143.941 190.112M137.062 191.589L143.941 193.56M137.062 195.038L143.941 197.008M137.555 198.486L144.504 200.456M139.352 201.441L145.098 202.919" stroke="black" stroke-width="0.654944" stroke-miterlimit="10" stroke-linecap="round" stroke-linejoin="round"/>
<rect x="135.499" y="197.998" width="15.7628" height="8.86655" transform="rotate(15.7131 135.499 197.998)" fill="black"/>
</g>
<path d="M161.013 180.25L161.111 179.938L160.801 179.832L158.565 179.065L158.256 178.959L158.158 179.271L157.774 180.492C157.369 180.446 156.975 180.443 156.591 180.485C155.761 180.573 155.038 180.85 154.432 181.321C153.822 181.797 153.393 182.44 153.143 183.238C152.859 184.143 152.871 184.988 153.217 185.751C153.553 186.502 154.235 187.209 155.211 187.884L155.212 187.885L157.115 189.19L157.116 189.19C157.58 189.507 157.864 189.781 158.005 190.006C158.137 190.224 158.157 190.41 158.1 190.589C158.044 190.768 157.937 190.906 157.767 191.011C157.579 191.126 157.35 191.194 157.069 191.207C156.786 191.218 156.485 191.167 156.162 191.045L156.161 191.045C155.826 190.919 155.551 190.744 155.329 190.523L155.329 190.523L155.324 190.518C155.094 190.299 154.928 190.046 154.822 189.758L154.822 189.758L154.821 189.755C154.714 189.472 154.673 189.169 154.702 188.841L154.729 188.527L154.421 188.479L151.992 188.098L151.643 188.044L151.624 188.4C151.579 189.234 151.688 190.003 151.959 190.701C152.223 191.403 152.638 192.011 153.201 192.521C153.398 192.703 153.611 192.87 153.84 193.023L153.44 194.297L153.342 194.609L153.652 194.716L155.887 195.482L156.197 195.589L156.295 195.276L156.674 194.07C157.051 194.116 157.416 194.122 157.769 194.087C158.538 194.012 159.209 193.752 159.773 193.3L159.773 193.3L159.774 193.298C160.335 192.841 160.733 192.219 160.975 191.448C161.235 190.621 161.229 189.829 160.935 189.09C160.643 188.355 160.081 187.705 159.283 187.132C159.283 187.132 159.283 187.132 159.283 187.132L156.641 185.231C156.641 185.23 156.641 185.23 156.64 185.23C156.324 184.998 156.147 184.789 156.065 184.612L156.065 184.611L156.061 184.603C155.981 184.442 155.965 184.265 156.033 184.048C156.128 183.745 156.35 183.524 156.772 183.399L156.774 183.399C157.192 183.273 157.68 183.293 158.251 183.489C158.844 183.692 159.288 184.033 159.601 184.51C159.908 184.985 160.042 185.528 159.993 186.155L159.969 186.459L160.267 186.512L162.594 186.93L162.913 186.987L162.965 186.665C163.104 185.793 163.047 184.964 162.788 184.185L162.787 184.184C162.527 183.413 162.09 182.735 161.483 182.154L161.482 182.152C161.221 181.906 160.935 181.685 160.624 181.489L161.013 180.25Z" fill="#FFF1C1" stroke="black" stroke-width="0.654944"/>
<defs>
<clipPath id="clip0_3255_20382">
<rect width="35.7964" height="42.8404" fill="white" transform="translate(16.3538 83.4302) rotate(16.1282)"/>
</clipPath>
</defs>
</svg>
