<svg width="250" height="250" viewBox="0 0 250 250" fill="none" xmlns="http://www.w3.org/2000/svg">
    <path
        d="M26.8663 168.595C26.8663 169.906 27.3249 171.216 28.2423 172.265C28.3078 172.396 28.4389 172.461 28.5044 172.527C28.832 172.854 29.1596 173.116 29.6183 173.313L133.279 233.203C137.8 235.824 143.435 235.824 147.956 233.203L211.384 196.574L213.612 195.264C215.447 194.215 215.447 191.529 213.612 190.481L98.485 123.973L29.6183 163.746C27.7836 164.926 26.8663 166.761 26.8663 168.595Z"
        fill="black" />
    <path
        d="M26.8741 145.986C26.8741 147.297 27.3327 148.607 28.2501 149.656C28.3156 149.787 28.4467 149.852 28.5122 149.918C28.8398 150.245 29.1674 150.507 29.6261 150.704L133.286 210.594C137.808 213.215 143.443 213.215 147.964 210.594L211.392 174.031L217.748 170.361L98.4928 101.495L29.6261 141.268C27.7914 142.317 26.8741 144.151 26.8741 145.986Z"
        fill="white" stroke="black" stroke-width="0.7" stroke-miterlimit="10" stroke-linecap="round"
        stroke-linejoin="round" />
    <path
        d="M186.632 168.862L195.675 174.104C195.937 174.235 196.461 174.235 196.788 174.038L199.672 172.4C199.999 172.204 199.999 171.942 199.737 171.745L190.695 166.503C190.433 166.372 189.908 166.372 189.581 166.569L186.698 168.207C186.436 168.403 186.37 168.731 186.632 168.862Z"
        fill="#DCDCDC" />
    <path
        d="M178.638 164.21L181.652 165.979C181.914 166.11 182.439 166.11 182.766 165.913L185.649 164.275C185.977 164.079 185.977 163.817 185.715 163.62L182.701 161.851C182.439 161.72 181.914 161.72 181.587 161.916L178.704 163.554C178.376 163.817 178.31 164.079 178.638 164.21Z"
        fill="#DCDCDC" />
    <path
        d="M170.579 159.557L173.593 161.327C173.855 161.458 174.379 161.458 174.707 161.261L177.59 159.623C177.917 159.426 177.917 159.164 177.655 158.968L174.641 157.199C174.379 157.067 173.855 157.067 173.527 157.264L170.644 158.902C170.316 159.164 170.316 159.426 170.579 159.557Z"
        fill="#DCDCDC" />
    <path
        d="M162.519 154.971L165.533 156.74C165.795 156.871 166.319 156.871 166.647 156.674L169.53 155.036C169.858 154.84 169.858 154.578 169.596 154.381L166.581 152.612C166.319 152.481 165.795 152.481 165.468 152.677L162.584 154.315C162.257 154.512 162.257 154.774 162.519 154.971Z"
        fill="#DCDCDC" />
    <path
        d="M154.459 150.318L157.474 152.088C157.736 152.219 158.26 152.219 158.587 152.022L161.471 150.384C161.798 150.187 161.798 149.925 161.536 149.729L158.522 147.959C158.26 147.828 157.736 147.828 157.408 148.025L154.525 149.663C154.263 149.86 154.197 150.122 154.459 150.318Z"
        fill="#DCDCDC" />
    <path
        d="M146.465 145.666L149.48 147.435C149.742 147.566 150.266 147.566 150.593 147.37L153.477 145.732C153.804 145.535 153.804 145.273 153.542 145.076L150.528 143.307C150.266 143.176 149.742 143.176 149.414 143.373L146.531 145.011C146.203 145.207 146.138 145.535 146.465 145.666Z"
        fill="#DCDCDC" />
    <path
        d="M138.406 141.014L141.42 142.783C141.682 142.914 142.206 142.914 142.534 142.717L145.417 141.079C145.745 140.883 145.745 140.621 145.482 140.424L142.468 138.655C142.206 138.524 141.682 138.524 141.354 138.72L138.471 140.359C138.144 140.555 138.144 140.883 138.406 141.014Z"
        fill="#DCDCDC" />
    <path
        d="M130.346 136.362L133.36 138.131C133.622 138.262 134.147 138.262 134.474 138.065L137.357 136.427C137.685 136.231 137.685 135.968 137.423 135.772L134.409 134.003C134.147 133.872 133.622 133.872 133.295 134.068L130.412 135.706C130.15 135.968 130.084 136.231 130.346 136.362Z"
        fill="#DCDCDC" />
    <path
        d="M122.352 131.709L125.366 133.478C125.628 133.61 126.153 133.61 126.48 133.413L129.363 131.775C129.691 131.578 129.691 131.316 129.429 131.12L126.415 129.35C126.153 129.219 125.628 129.219 125.301 129.416L122.418 131.054C122.09 131.316 122.025 131.578 122.352 131.709Z"
        fill="#DCDCDC" />
    <path
        d="M114.293 127.123L117.307 128.826C117.569 128.957 118.093 128.957 118.421 128.761L121.304 127.123C121.631 126.926 121.631 126.664 121.369 126.467L118.355 124.698C118.093 124.567 117.569 124.567 117.241 124.764L114.358 126.402C114.031 126.664 114.031 126.926 114.293 127.123Z"
        fill="#DCDCDC" />
    <path
        d="M178.638 173.514L187.681 178.756C187.943 178.887 188.467 178.887 188.794 178.691L191.678 177.053C192.005 176.856 192.005 176.594 191.743 176.397L182.701 171.155C182.439 171.024 181.914 171.024 181.587 171.221L178.704 172.859C178.376 173.056 178.31 173.383 178.638 173.514Z"
        fill="#DCDCDC" />
    <path
        d="M84.1512 118.997L93.1936 124.239C93.4557 124.371 93.9799 124.371 94.3075 124.174L97.1906 122.536C97.5183 122.339 97.5183 122.077 97.2562 121.881L88.2137 116.639C87.9516 116.508 87.4274 116.508 87.0998 116.704L84.2167 118.342C83.8891 118.539 83.8236 118.801 84.1512 118.997Z"
        fill="#DCDCDC" />
    <path
        d="M170.579 168.862L173.593 170.631C173.855 170.762 174.379 170.762 174.707 170.566L177.59 168.927C177.917 168.731 177.917 168.469 177.655 168.272L174.641 166.503C174.379 166.372 173.855 166.372 173.527 166.569L170.644 168.207C170.316 168.403 170.316 168.731 170.579 168.862Z"
        fill="#DCDCDC" />
    <path
        d="M162.519 164.21L165.533 165.979C165.795 166.11 166.319 166.11 166.647 165.913L169.53 164.275C169.858 164.079 169.858 163.817 169.596 163.62L166.581 161.851C166.319 161.72 165.795 161.72 165.468 161.916L162.584 163.554C162.257 163.817 162.257 164.079 162.519 164.21Z"
        fill="#DCDCDC" />
    <path
        d="M154.459 159.557L157.474 161.327C157.736 161.458 158.26 161.458 158.587 161.261L161.471 159.623C161.798 159.426 161.798 159.164 161.536 158.968L158.522 157.199C158.26 157.067 157.736 157.067 157.408 157.264L154.525 158.902C154.263 159.164 154.197 159.426 154.459 159.557Z"
        fill="#DCDCDC" />
    <path
        d="M146.465 154.971L149.48 156.74C149.742 156.871 150.266 156.871 150.593 156.674L153.477 155.036C153.804 154.84 153.804 154.578 153.542 154.381L150.528 152.612C150.266 152.481 149.742 152.481 149.414 152.677L146.531 154.315C146.203 154.512 146.138 154.774 146.465 154.971Z"
        fill="#DCDCDC" />
    <path
        d="M138.406 150.318L141.42 152.088C141.682 152.219 142.206 152.219 142.534 152.022L145.417 150.384C145.745 150.187 145.745 149.925 145.482 149.729L142.468 147.959C142.206 147.828 141.682 147.828 141.354 148.025L138.471 149.663C138.144 149.86 138.144 150.122 138.406 150.318Z"
        fill="#DCDCDC" />
    <path
        d="M130.346 145.666L133.36 147.435C133.622 147.566 134.147 147.566 134.474 147.37L137.357 145.732C137.685 145.535 137.685 145.273 137.423 145.076L134.409 143.307C134.147 143.176 133.622 143.176 133.295 143.373L130.412 145.011C130.15 145.207 130.084 145.535 130.346 145.666Z"
        fill="#DCDCDC" />
    <path
        d="M122.352 141.014L125.366 142.783C125.628 142.914 126.153 142.914 126.48 142.717L129.363 141.079C129.691 140.883 129.691 140.621 129.429 140.424L126.415 138.655C126.153 138.524 125.628 138.524 125.301 138.72L122.418 140.359C122.09 140.555 122.025 140.883 122.352 141.014Z"
        fill="#DCDCDC" />
    <path
        d="M114.293 136.362L117.307 138.131C117.569 138.262 118.093 138.262 118.421 138.065L121.304 136.427C121.631 136.231 121.631 135.968 121.369 135.772L118.355 134.003C118.093 133.872 117.569 133.872 117.241 134.068L114.358 135.706C114.031 135.968 114.031 136.231 114.293 136.362Z"
        fill="#DCDCDC" />
    <path
        d="M106.233 131.709L109.247 133.478C109.509 133.61 110.034 133.61 110.361 133.413L113.244 131.775C113.572 131.578 113.572 131.316 113.31 131.12L110.296 129.35C110.034 129.219 109.509 129.219 109.182 129.416L106.299 131.054C105.971 131.316 105.971 131.578 106.233 131.709Z"
        fill="#DCDCDC" />
    <path
        d="M98.1735 127.123L101.188 128.892C101.45 129.023 101.974 129.023 102.302 128.826L105.185 127.188C105.512 126.992 105.512 126.729 105.25 126.533L102.236 124.764C101.974 124.633 101.45 124.633 101.122 124.829L98.239 126.467C97.9769 126.664 97.9114 126.926 98.1735 127.123Z"
        fill="#DCDCDC" />
    <path
        d="M170.579 178.166L179.621 183.408C179.883 183.54 180.407 183.54 180.735 183.343L183.618 181.705C183.946 181.508 183.946 181.246 183.683 181.05L174.641 175.808C174.379 175.677 173.855 175.677 173.527 175.873L170.644 177.511C170.316 177.708 170.316 177.97 170.579 178.166Z"
        fill="#DCDCDC" />
    <path
        d="M76.0916 123.584L85.1341 128.826C85.3962 128.957 85.9204 128.957 86.248 128.761L89.1311 127.123C89.4587 126.926 89.4587 126.664 89.1966 126.467L80.1542 121.225C79.8921 121.094 79.3679 121.094 79.0403 121.291L76.1572 122.929C75.8295 123.191 75.8295 123.453 76.0916 123.584Z"
        fill="#DCDCDC" />
    <path
        d="M162.519 173.514L165.533 175.283C165.795 175.414 166.319 175.414 166.647 175.218L169.53 173.58C169.858 173.383 169.858 173.121 169.596 172.924L166.581 171.155C166.319 171.024 165.795 171.024 165.468 171.221L162.584 172.859C162.257 173.056 162.257 173.383 162.519 173.514Z"
        fill="#DCDCDC" />
    <path
        d="M154.459 168.862L157.474 170.631C157.736 170.762 158.26 170.762 158.587 170.566L161.471 168.927C161.798 168.731 161.798 168.469 161.536 168.272L158.522 166.503C158.26 166.372 157.736 166.372 157.408 166.569L154.525 168.207C154.263 168.403 154.197 168.731 154.459 168.862Z"
        fill="#DCDCDC" />
    <path
        d="M146.465 164.21L149.48 165.979C149.742 166.11 150.266 166.11 150.593 165.913L153.477 164.275C153.804 164.079 153.804 163.817 153.542 163.62L150.528 161.851C150.266 161.72 149.742 161.72 149.414 161.916L146.531 163.554C146.203 163.817 146.138 164.079 146.465 164.21Z"
        fill="#DCDCDC" />
    <path
        d="M138.406 159.557L141.42 161.327C141.682 161.458 142.206 161.458 142.534 161.261L145.417 159.623C145.745 159.426 145.745 159.164 145.482 158.968L142.468 157.199C142.206 157.067 141.682 157.067 141.354 157.264L138.471 158.902C138.144 159.164 138.144 159.426 138.406 159.557Z"
        fill="#DCDCDC" />
    <path
        d="M130.346 154.971L133.36 156.74C133.622 156.871 134.147 156.871 134.474 156.674L137.357 155.036C137.685 154.84 137.685 154.578 137.423 154.381L134.409 152.612C134.147 152.481 133.622 152.481 133.295 152.677L130.412 154.315C130.15 154.512 130.084 154.774 130.346 154.971Z"
        fill="#DCDCDC" />
    <path
        d="M122.352 150.318L125.366 152.088C125.628 152.219 126.153 152.219 126.48 152.022L129.363 150.384C129.691 150.187 129.691 149.925 129.429 149.729L126.415 147.959C126.153 147.828 125.628 147.828 125.301 148.025L122.418 149.663C122.09 149.86 122.025 150.122 122.352 150.318Z"
        fill="#DCDCDC" />
    <path
        d="M114.293 145.666L117.307 147.435C117.569 147.566 118.093 147.566 118.421 147.37L121.304 145.732C121.631 145.535 121.631 145.273 121.369 145.076L118.355 143.307C118.093 143.176 117.569 143.176 117.241 143.373L114.358 145.011C114.031 145.207 114.031 145.47 114.293 145.666Z"
        fill="#DCDCDC" />
    <path
        d="M106.233 141.014L109.247 142.783C109.509 142.914 110.034 142.914 110.361 142.717L113.244 141.079C113.572 140.883 113.572 140.621 113.31 140.424L110.296 138.655C110.034 138.524 109.509 138.524 109.182 138.72L106.299 140.359C105.971 140.555 105.971 140.883 106.233 141.014Z"
        fill="#DCDCDC" />
    <path
        d="M98.1735 136.362L101.188 138.131C101.45 138.262 101.974 138.262 102.302 138.065L105.185 136.427C105.512 136.231 105.512 135.968 105.25 135.772L102.236 134.003C101.974 133.872 101.45 133.872 101.122 134.068L98.239 135.706C97.9769 135.968 97.9114 136.231 98.1735 136.362Z"
        fill="#DCDCDC" />
    <path
        d="M90.1795 131.709L93.1936 133.478C93.4557 133.61 93.9799 133.61 94.3075 133.413L97.1906 131.775C97.5183 131.578 97.5183 131.316 97.2562 131.12L94.242 129.35C93.9799 129.219 93.4557 129.219 93.1281 129.416L90.245 131.054C89.9174 131.316 89.8519 131.578 90.1795 131.709Z"
        fill="#DCDCDC" />
    <path
        d="M154.459 187.471L163.502 192.713C163.764 192.844 164.288 192.844 164.616 192.647L167.499 191.009C167.826 190.813 167.826 190.551 167.564 190.354L158.522 185.112C158.26 184.981 157.736 184.981 157.408 185.178L154.525 186.816C154.263 187.012 154.197 187.274 154.459 187.471Z"
        fill="#DCDCDC" />
    <path
        d="M59.9725 132.889L69.015 138.131C69.2771 138.262 69.8012 138.262 70.1289 138.065L73.012 136.427C73.3396 136.231 73.3396 135.968 73.0775 135.772L64.0351 130.53C63.773 130.399 63.2488 130.399 62.9211 130.595L60.038 132.234C59.7759 132.43 59.7104 132.758 59.9725 132.889Z"
        fill="#DCDCDC" />
    <path
        d="M146.465 182.819L149.48 184.588C149.742 184.719 150.266 184.719 150.593 184.522L153.477 182.884C153.804 182.688 153.804 182.426 153.542 182.229L150.528 180.46C150.266 180.329 149.742 180.329 149.414 180.525L146.531 182.163C146.203 182.36 146.138 182.622 146.465 182.819Z"
        fill="#DCDCDC" />
    <path
        d="M145.417 178.166L142.403 179.936C142.141 180.067 141.682 180.067 141.42 179.936L82.1199 145.666C81.8578 145.535 81.8578 145.273 82.1199 145.076L85.1341 143.307C85.3962 143.176 85.8548 143.176 86.1169 143.307L145.417 177.577C145.745 177.708 145.745 177.97 145.417 178.166Z"
        fill="#DCDCDC" />
    <path
        d="M74.0604 141.014L77.0745 142.783C77.3366 142.914 77.8608 142.914 78.1884 142.717L81.0715 141.079C81.3992 140.883 81.3992 140.621 81.1371 140.424L78.1229 138.655C77.8608 138.524 77.3366 138.524 77.009 138.72L74.1259 140.359C73.8638 140.555 73.7983 140.883 74.0604 141.014Z"
        fill="#DCDCDC" />
    <path
        d="M154.459 178.166L171.561 188.061C171.823 188.192 172.348 188.192 172.675 187.995L175.558 186.357C175.886 186.16 175.886 185.898 175.624 185.702L158.522 175.808C158.26 175.677 157.736 175.677 157.408 175.873L154.525 177.511C154.263 177.708 154.197 177.97 154.459 178.166Z"
        fill="#DCDCDC" />
    <path
        d="M68.0321 128.236L85.1341 138.131C85.3962 138.262 85.9204 138.262 86.248 138.065L89.1311 136.427C89.4587 136.231 89.4587 135.968 89.1966 135.772L72.0946 125.878C71.8325 125.747 71.3083 125.747 70.9807 125.943L68.0976 127.581C67.77 127.843 67.77 128.105 68.0321 128.236Z"
        fill="#DCDCDC" />
    <path
        d="M146.465 173.514L149.48 175.283C149.742 175.414 150.266 175.414 150.593 175.218L153.477 173.58C153.804 173.383 153.804 173.121 153.542 172.924L150.528 171.155C150.266 171.024 149.742 171.024 149.414 171.221L146.531 172.859C146.203 173.056 146.138 173.383 146.465 173.514Z"
        fill="#DCDCDC" />
    <path
        d="M138.406 168.862L141.42 170.631C141.682 170.762 142.206 170.762 142.534 170.566L145.417 168.927C145.745 168.731 145.745 168.469 145.482 168.272L142.468 166.503C142.206 166.372 141.682 166.372 141.354 166.569L138.471 168.207C138.144 168.403 138.144 168.731 138.406 168.862Z"
        fill="#DCDCDC" />
    <path
        d="M130.346 164.21L133.36 165.979C133.622 166.11 134.147 166.11 134.474 165.913L137.357 164.275C137.685 164.079 137.685 163.817 137.423 163.62L134.409 161.851C134.147 161.72 133.622 161.72 133.295 161.916L130.412 163.554C130.15 163.817 130.084 164.079 130.346 164.21Z"
        fill="#DCDCDC" />
    <path
        d="M122.352 159.557L125.366 161.327C125.628 161.458 126.153 161.458 126.48 161.261L129.363 159.623C129.691 159.426 129.691 159.164 129.429 158.968L126.415 157.199C126.153 157.067 125.628 157.067 125.301 157.264L122.418 158.902C122.09 159.164 122.025 159.426 122.352 159.557Z"
        fill="#DCDCDC" />
    <path
        d="M114.293 154.971L117.307 156.74C117.569 156.871 118.093 156.871 118.421 156.674L121.304 155.036C121.631 154.84 121.631 154.578 121.369 154.381L118.355 152.612C118.093 152.481 117.569 152.481 117.241 152.677L114.358 154.315C114.031 154.512 114.031 154.774 114.293 154.971Z"
        fill="#DCDCDC" />
    <path
        d="M106.233 150.318L109.247 152.088C109.509 152.219 110.034 152.219 110.361 152.022L113.244 150.384C113.572 150.187 113.572 149.925 113.31 149.729L110.296 147.959C110.034 147.828 109.509 147.828 109.182 148.025L106.299 149.663C105.971 149.86 105.971 150.122 106.233 150.318Z"
        fill="#DCDCDC" />
    <path
        d="M98.1735 145.666L101.188 147.435C101.45 147.566 101.974 147.566 102.302 147.37L105.185 145.732C105.512 145.535 105.512 145.273 105.25 145.076L102.236 143.307C101.974 143.176 101.45 143.176 101.122 143.373L98.239 145.011C97.9769 145.207 97.9114 145.47 98.1735 145.666Z"
        fill="#DCDCDC" />
    <path
        d="M90.1795 141.014L93.1936 142.783C93.4557 142.914 93.9799 142.914 94.3075 142.717L97.1906 141.079C97.5183 140.883 97.5183 140.621 97.2562 140.424L94.242 138.655C93.9799 138.524 93.4557 138.524 93.1281 138.72L90.245 140.359C89.9174 140.555 89.8519 140.883 90.1795 141.014Z"
        fill="#DCDCDC" />
    <path
        d="M186.632 168.862L195.675 174.104C195.937 174.235 196.461 174.235 196.788 174.038L199.672 172.4C199.999 172.204 199.999 171.942 199.737 171.745L190.695 166.503C190.433 166.372 189.908 166.372 189.581 166.569L186.698 168.207C186.436 168.403 186.37 168.731 186.632 168.862Z"
        stroke="black" stroke-width="0.7" stroke-miterlimit="10" stroke-linecap="round" />
    <path
        d="M178.638 164.21L181.652 165.979C181.914 166.11 182.439 166.11 182.766 165.913L185.649 164.275C185.977 164.079 185.977 163.817 185.715 163.62L182.701 161.851C182.439 161.72 181.914 161.72 181.587 161.916L178.704 163.554C178.376 163.817 178.31 164.079 178.638 164.21Z"
        stroke="black" stroke-width="0.7" stroke-miterlimit="10" stroke-linecap="round" />
    <path
        d="M170.579 159.557L173.593 161.327C173.855 161.458 174.379 161.458 174.707 161.261L177.59 159.623C177.917 159.426 177.917 159.164 177.655 158.968L174.641 157.199C174.379 157.067 173.855 157.067 173.527 157.264L170.644 158.902C170.316 159.164 170.316 159.426 170.579 159.557Z"
        stroke="black" stroke-width="0.7" stroke-miterlimit="10" stroke-linecap="round" />
    <path
        d="M162.519 154.971L165.533 156.74C165.795 156.871 166.319 156.871 166.647 156.674L169.53 155.036C169.858 154.84 169.858 154.578 169.596 154.381L166.581 152.612C166.319 152.481 165.795 152.481 165.468 152.677L162.584 154.315C162.257 154.512 162.257 154.774 162.519 154.971Z"
        stroke="black" stroke-width="0.7" stroke-miterlimit="10" stroke-linecap="round" />
    <path
        d="M154.459 150.318L157.474 152.088C157.736 152.219 158.26 152.219 158.587 152.022L161.471 150.384C161.798 150.187 161.798 149.925 161.536 149.729L158.522 147.959C158.26 147.828 157.736 147.828 157.408 148.025L154.525 149.663C154.263 149.86 154.197 150.122 154.459 150.318Z"
        stroke="black" stroke-width="0.7" stroke-miterlimit="10" stroke-linecap="round" />
    <path
        d="M146.465 145.666L149.48 147.435C149.742 147.566 150.266 147.566 150.593 147.37L153.477 145.732C153.804 145.535 153.804 145.273 153.542 145.076L150.528 143.307C150.266 143.176 149.742 143.176 149.414 143.373L146.531 145.011C146.203 145.207 146.138 145.535 146.465 145.666Z"
        stroke="black" stroke-width="0.7" stroke-miterlimit="10" stroke-linecap="round" />
    <path
        d="M138.406 141.014L141.42 142.783C141.682 142.914 142.206 142.914 142.534 142.717L145.417 141.079C145.745 140.883 145.745 140.621 145.482 140.424L142.468 138.655C142.206 138.524 141.682 138.524 141.354 138.72L138.471 140.359C138.144 140.555 138.144 140.883 138.406 141.014Z"
        stroke="black" stroke-width="0.7" stroke-miterlimit="10" stroke-linecap="round" />
    <path
        d="M130.346 136.362L133.36 138.131C133.622 138.262 134.147 138.262 134.474 138.065L137.357 136.427C137.685 136.231 137.685 135.968 137.423 135.772L134.409 134.003C134.147 133.872 133.622 133.872 133.295 134.068L130.412 135.706C130.15 135.968 130.084 136.231 130.346 136.362Z"
        stroke="black" stroke-width="0.7" stroke-miterlimit="10" stroke-linecap="round" />
    <path
        d="M122.352 131.709L125.366 133.478C125.628 133.61 126.153 133.61 126.48 133.413L129.363 131.775C129.691 131.578 129.691 131.316 129.429 131.12L126.415 129.35C126.153 129.219 125.628 129.219 125.301 129.416L122.418 131.054C122.09 131.316 122.025 131.578 122.352 131.709Z"
        stroke="black" stroke-width="0.7" stroke-miterlimit="10" stroke-linecap="round" />
    <path
        d="M114.293 127.123L117.307 128.826C117.569 128.957 118.093 128.957 118.421 128.761L121.304 127.123C121.631 126.926 121.631 126.664 121.369 126.467L118.355 124.698C118.093 124.567 117.569 124.567 117.241 124.764L114.358 126.402C114.031 126.664 114.031 126.926 114.293 127.123Z"
        stroke="black" stroke-width="0.7" stroke-miterlimit="10" stroke-linecap="round" />
    <path
        d="M178.638 173.514L187.681 178.756C187.943 178.887 188.467 178.887 188.794 178.691L191.678 177.053C192.005 176.856 192.005 176.594 191.743 176.397L182.701 171.155C182.439 171.024 181.914 171.024 181.587 171.221L178.704 172.859C178.376 173.056 178.31 173.383 178.638 173.514Z"
        stroke="black" stroke-width="0.7" stroke-miterlimit="10" stroke-linecap="round" />
    <path
        d="M84.1512 118.997L93.1936 124.239C93.4557 124.371 93.9799 124.371 94.3075 124.174L97.1906 122.536C97.5183 122.339 97.5183 122.077 97.2562 121.881L88.2137 116.639C87.9516 116.508 87.4274 116.508 87.0998 116.704L84.2167 118.342C83.8891 118.539 83.8236 118.801 84.1512 118.997Z"
        stroke="black" stroke-width="0.7" stroke-miterlimit="10" stroke-linecap="round" />
    <path
        d="M170.579 168.862L173.593 170.631C173.855 170.762 174.379 170.762 174.707 170.566L177.59 168.927C177.917 168.731 177.917 168.469 177.655 168.272L174.641 166.503C174.379 166.372 173.855 166.372 173.527 166.569L170.644 168.207C170.316 168.403 170.316 168.731 170.579 168.862Z"
        stroke="black" stroke-width="0.7" stroke-miterlimit="10" stroke-linecap="round" />
    <path
        d="M162.519 164.21L165.533 165.979C165.795 166.11 166.319 166.11 166.647 165.913L169.53 164.275C169.858 164.079 169.858 163.817 169.596 163.62L166.581 161.851C166.319 161.72 165.795 161.72 165.468 161.916L162.584 163.554C162.257 163.817 162.257 164.079 162.519 164.21Z"
        stroke="black" stroke-width="0.7" stroke-miterlimit="10" stroke-linecap="round" />
    <path
        d="M154.459 159.557L157.474 161.327C157.736 161.458 158.26 161.458 158.587 161.261L161.471 159.623C161.798 159.426 161.798 159.164 161.536 158.968L158.522 157.199C158.26 157.067 157.736 157.067 157.408 157.264L154.525 158.902C154.263 159.164 154.197 159.426 154.459 159.557Z"
        stroke="black" stroke-width="0.7" stroke-miterlimit="10" stroke-linecap="round" />
    <path
        d="M146.465 154.971L149.48 156.74C149.742 156.871 150.266 156.871 150.593 156.674L153.477 155.036C153.804 154.84 153.804 154.578 153.542 154.381L150.528 152.612C150.266 152.481 149.742 152.481 149.414 152.677L146.531 154.315C146.203 154.512 146.138 154.774 146.465 154.971Z"
        stroke="black" stroke-width="0.7" stroke-miterlimit="10" stroke-linecap="round" />
    <path
        d="M138.406 150.318L141.42 152.088C141.682 152.219 142.206 152.219 142.534 152.022L145.417 150.384C145.745 150.187 145.745 149.925 145.482 149.729L142.468 147.959C142.206 147.828 141.682 147.828 141.354 148.025L138.471 149.663C138.144 149.86 138.144 150.122 138.406 150.318Z"
        stroke="black" stroke-width="0.7" stroke-miterlimit="10" stroke-linecap="round" />
    <path
        d="M130.346 145.666L133.36 147.435C133.622 147.566 134.147 147.566 134.474 147.37L137.357 145.732C137.685 145.535 137.685 145.273 137.423 145.076L134.409 143.307C134.147 143.176 133.622 143.176 133.295 143.373L130.412 145.011C130.15 145.207 130.084 145.535 130.346 145.666Z"
        stroke="black" stroke-width="0.7" stroke-miterlimit="10" stroke-linecap="round" />
    <path
        d="M122.352 141.014L125.366 142.783C125.628 142.914 126.153 142.914 126.48 142.717L129.363 141.079C129.691 140.883 129.691 140.621 129.429 140.424L126.415 138.655C126.153 138.524 125.628 138.524 125.301 138.72L122.418 140.359C122.09 140.555 122.025 140.883 122.352 141.014Z"
        stroke="black" stroke-width="0.7" stroke-miterlimit="10" stroke-linecap="round" />
    <path
        d="M114.293 136.362L117.307 138.131C117.569 138.262 118.093 138.262 118.421 138.065L121.304 136.427C121.631 136.231 121.631 135.968 121.369 135.772L118.355 134.003C118.093 133.872 117.569 133.872 117.241 134.068L114.358 135.706C114.031 135.968 114.031 136.231 114.293 136.362Z"
        stroke="black" stroke-width="0.7" stroke-miterlimit="10" stroke-linecap="round" />
    <path
        d="M106.233 131.709L109.247 133.478C109.509 133.61 110.034 133.61 110.361 133.413L113.244 131.775C113.572 131.578 113.572 131.316 113.31 131.12L110.296 129.35C110.034 129.219 109.509 129.219 109.182 129.416L106.299 131.054C105.971 131.316 105.971 131.578 106.233 131.709Z"
        stroke="black" stroke-width="0.7" stroke-miterlimit="10" stroke-linecap="round" />
    <path
        d="M98.1735 127.123L101.188 128.892C101.45 129.023 101.974 129.023 102.302 128.826L105.185 127.188C105.512 126.992 105.512 126.729 105.25 126.533L102.236 124.764C101.974 124.633 101.45 124.633 101.122 124.829L98.239 126.467C97.9769 126.664 97.9114 126.926 98.1735 127.123Z"
        stroke="black" stroke-width="0.7" stroke-miterlimit="10" stroke-linecap="round" />
    <path
        d="M170.579 178.166L179.621 183.408C179.883 183.54 180.407 183.54 180.735 183.343L183.618 181.705C183.946 181.508 183.946 181.246 183.683 181.05L174.641 175.808C174.379 175.677 173.855 175.677 173.527 175.873L170.644 177.511C170.316 177.708 170.316 177.97 170.579 178.166Z"
        stroke="black" stroke-width="0.7" stroke-miterlimit="10" stroke-linecap="round" />
    <path
        d="M76.0916 123.584L85.1341 128.826C85.3962 128.957 85.9204 128.957 86.248 128.761L89.1311 127.123C89.4587 126.926 89.4587 126.664 89.1966 126.467L80.1542 121.225C79.8921 121.094 79.3679 121.094 79.0403 121.291L76.1572 122.929C75.8295 123.191 75.8295 123.453 76.0916 123.584Z"
        stroke="black" stroke-width="0.7" stroke-miterlimit="10" stroke-linecap="round" />
    <path
        d="M162.519 173.514L165.533 175.283C165.795 175.414 166.319 175.414 166.647 175.218L169.53 173.58C169.858 173.383 169.858 173.121 169.596 172.924L166.581 171.155C166.319 171.024 165.795 171.024 165.468 171.221L162.584 172.859C162.257 173.056 162.257 173.383 162.519 173.514Z"
        stroke="black" stroke-width="0.7" stroke-miterlimit="10" stroke-linecap="round" />
    <path
        d="M154.459 168.862L157.474 170.631C157.736 170.762 158.26 170.762 158.587 170.566L161.471 168.927C161.798 168.731 161.798 168.469 161.536 168.272L158.522 166.503C158.26 166.372 157.736 166.372 157.408 166.569L154.525 168.207C154.263 168.403 154.197 168.731 154.459 168.862Z"
        stroke="black" stroke-width="0.7" stroke-miterlimit="10" stroke-linecap="round" />
    <path
        d="M146.465 164.21L149.48 165.979C149.742 166.11 150.266 166.11 150.593 165.913L153.477 164.275C153.804 164.079 153.804 163.817 153.542 163.62L150.528 161.851C150.266 161.72 149.742 161.72 149.414 161.916L146.531 163.554C146.203 163.817 146.138 164.079 146.465 164.21Z"
        stroke="black" stroke-width="0.7" stroke-miterlimit="10" stroke-linecap="round" />
    <path
        d="M138.406 159.557L141.42 161.327C141.682 161.458 142.206 161.458 142.534 161.261L145.417 159.623C145.745 159.426 145.745 159.164 145.482 158.968L142.468 157.199C142.206 157.067 141.682 157.067 141.354 157.264L138.471 158.902C138.144 159.164 138.144 159.426 138.406 159.557Z"
        stroke="black" stroke-width="0.7" stroke-miterlimit="10" stroke-linecap="round" />
    <path
        d="M130.346 154.971L133.36 156.74C133.622 156.871 134.147 156.871 134.474 156.674L137.357 155.036C137.685 154.84 137.685 154.578 137.423 154.381L134.409 152.612C134.147 152.481 133.622 152.481 133.295 152.677L130.412 154.315C130.15 154.512 130.084 154.774 130.346 154.971Z"
        stroke="black" stroke-width="0.7" stroke-miterlimit="10" stroke-linecap="round" />
    <path
        d="M122.352 150.318L125.366 152.088C125.628 152.219 126.153 152.219 126.48 152.022L129.363 150.384C129.691 150.187 129.691 149.925 129.429 149.729L126.415 147.959C126.153 147.828 125.628 147.828 125.301 148.025L122.418 149.663C122.09 149.86 122.025 150.122 122.352 150.318Z"
        stroke="black" stroke-width="0.7" stroke-miterlimit="10" stroke-linecap="round" />
    <path
        d="M114.293 145.666L117.307 147.435C117.569 147.566 118.093 147.566 118.421 147.37L121.304 145.732C121.631 145.535 121.631 145.273 121.369 145.076L118.355 143.307C118.093 143.176 117.569 143.176 117.241 143.373L114.358 145.011C114.031 145.207 114.031 145.47 114.293 145.666Z"
        stroke="black" stroke-width="0.7" stroke-miterlimit="10" stroke-linecap="round" />
    <path
        d="M106.233 141.014L109.247 142.783C109.509 142.914 110.034 142.914 110.361 142.717L113.244 141.079C113.572 140.883 113.572 140.621 113.31 140.424L110.296 138.655C110.034 138.524 109.509 138.524 109.182 138.72L106.299 140.359C105.971 140.555 105.971 140.883 106.233 141.014Z"
        stroke="black" stroke-width="0.7" stroke-miterlimit="10" stroke-linecap="round" />
    <path
        d="M98.1735 136.362L101.188 138.131C101.45 138.262 101.974 138.262 102.302 138.065L105.185 136.427C105.512 136.231 105.512 135.968 105.25 135.772L102.236 134.003C101.974 133.872 101.45 133.872 101.122 134.068L98.239 135.706C97.9769 135.968 97.9114 136.231 98.1735 136.362Z"
        stroke="black" stroke-width="0.7" stroke-miterlimit="10" stroke-linecap="round" />
    <path
        d="M90.1795 131.709L93.1936 133.478C93.4557 133.61 93.9799 133.61 94.3075 133.413L97.1906 131.775C97.5183 131.578 97.5183 131.316 97.2562 131.12L94.242 129.35C93.9799 129.219 93.4557 129.219 93.1281 129.416L90.245 131.054C89.9174 131.316 89.8519 131.578 90.1795 131.709Z"
        stroke="black" stroke-width="0.7" stroke-miterlimit="10" stroke-linecap="round" />
    <path
        d="M154.459 187.471L163.502 192.713C163.764 192.844 164.288 192.844 164.616 192.647L167.499 191.009C167.826 190.813 167.826 190.551 167.564 190.354L158.522 185.112C158.26 184.981 157.736 184.981 157.408 185.178L154.525 186.816C154.263 187.012 154.197 187.274 154.459 187.471Z"
        stroke="black" stroke-width="0.7" stroke-miterlimit="10" stroke-linecap="round" />
    <path
        d="M59.9725 132.889L69.015 138.131C69.2771 138.262 69.8012 138.262 70.1289 138.065L73.012 136.427C73.3396 136.231 73.3396 135.968 73.0775 135.772L64.0351 130.53C63.773 130.399 63.2488 130.399 62.9211 130.595L60.038 132.234C59.7759 132.43 59.7104 132.758 59.9725 132.889Z"
        stroke="black" stroke-width="0.7" stroke-miterlimit="10" stroke-linecap="round" />
    <path
        d="M146.465 182.819L149.48 184.588C149.742 184.719 150.266 184.719 150.593 184.522L153.477 182.884C153.804 182.688 153.804 182.426 153.542 182.229L150.528 180.46C150.266 180.329 149.742 180.329 149.414 180.525L146.531 182.163C146.203 182.36 146.138 182.622 146.465 182.819Z"
        stroke="black" stroke-width="0.7" stroke-miterlimit="10" stroke-linecap="round" />
    <path
        d="M145.417 178.166L142.403 179.936C142.141 180.067 141.682 180.067 141.42 179.936L82.1199 145.666C81.8578 145.535 81.8578 145.273 82.1199 145.076L85.1341 143.307C85.3962 143.176 85.8548 143.176 86.1169 143.307L145.417 177.577C145.745 177.708 145.745 177.97 145.417 178.166Z"
        stroke="black" stroke-width="0.7" stroke-miterlimit="10" stroke-linecap="round" />
    <path
        d="M74.0604 141.014L77.0745 142.783C77.3366 142.914 77.8608 142.914 78.1884 142.717L81.0715 141.079C81.3992 140.883 81.3992 140.621 81.1371 140.424L78.1229 138.655C77.8608 138.524 77.3366 138.524 77.009 138.72L74.1259 140.359C73.8638 140.555 73.7983 140.883 74.0604 141.014Z"
        stroke="black" stroke-width="0.7" stroke-miterlimit="10" stroke-linecap="round" />
    <path
        d="M154.459 178.166L171.561 188.061C171.823 188.192 172.348 188.192 172.675 187.995L175.558 186.357C175.886 186.16 175.886 185.898 175.624 185.702L158.522 175.808C158.26 175.677 157.736 175.677 157.408 175.873L154.525 177.511C154.263 177.708 154.197 177.97 154.459 178.166Z"
        stroke="black" stroke-width="0.7" stroke-miterlimit="10" stroke-linecap="round" />
    <path
        d="M68.0321 128.236L85.1341 138.131C85.3962 138.262 85.9204 138.262 86.248 138.065L89.1311 136.427C89.4587 136.231 89.4587 135.968 89.1966 135.772L72.0946 125.878C71.8325 125.747 71.3083 125.747 70.9807 125.943L68.0976 127.581C67.77 127.843 67.77 128.105 68.0321 128.236Z"
        stroke="black" stroke-width="0.7" stroke-miterlimit="10" stroke-linecap="round" />
    <path
        d="M146.465 173.514L149.48 175.283C149.742 175.414 150.266 175.414 150.593 175.218L153.477 173.58C153.804 173.383 153.804 173.121 153.542 172.924L150.528 171.155C150.266 171.024 149.742 171.024 149.414 171.221L146.531 172.859C146.203 173.056 146.138 173.383 146.465 173.514Z"
        stroke="black" stroke-width="0.7" stroke-miterlimit="10" stroke-linecap="round" />
    <path
        d="M138.406 168.862L141.42 170.631C141.682 170.762 142.206 170.762 142.534 170.566L145.417 168.927C145.745 168.731 145.745 168.469 145.482 168.272L142.468 166.503C142.206 166.372 141.682 166.372 141.354 166.569L138.471 168.207C138.144 168.403 138.144 168.731 138.406 168.862Z"
        stroke="black" stroke-width="0.7" stroke-miterlimit="10" stroke-linecap="round" />
    <path
        d="M130.346 164.21L133.36 165.979C133.622 166.11 134.147 166.11 134.474 165.913L137.357 164.275C137.685 164.079 137.685 163.817 137.423 163.62L134.409 161.851C134.147 161.72 133.622 161.72 133.295 161.916L130.412 163.554C130.15 163.817 130.084 164.079 130.346 164.21Z"
        stroke="black" stroke-width="0.7" stroke-miterlimit="10" stroke-linecap="round" />
    <path
        d="M122.352 159.557L125.366 161.327C125.628 161.458 126.153 161.458 126.48 161.261L129.363 159.623C129.691 159.426 129.691 159.164 129.429 158.968L126.415 157.199C126.153 157.067 125.628 157.067 125.301 157.264L122.418 158.902C122.09 159.164 122.025 159.426 122.352 159.557Z"
        stroke="black" stroke-width="0.7" stroke-miterlimit="10" stroke-linecap="round" />
    <path
        d="M114.293 154.971L117.307 156.74C117.569 156.871 118.093 156.871 118.421 156.674L121.304 155.036C121.631 154.84 121.631 154.578 121.369 154.381L118.355 152.612C118.093 152.481 117.569 152.481 117.241 152.677L114.358 154.315C114.031 154.512 114.031 154.774 114.293 154.971Z"
        stroke="black" stroke-width="0.7" stroke-miterlimit="10" stroke-linecap="round" />
    <path
        d="M106.233 150.318L109.247 152.088C109.509 152.219 110.034 152.219 110.361 152.022L113.244 150.384C113.572 150.187 113.572 149.925 113.31 149.729L110.296 147.959C110.034 147.828 109.509 147.828 109.182 148.025L106.299 149.663C105.971 149.86 105.971 150.122 106.233 150.318Z"
        stroke="black" stroke-width="0.7" stroke-miterlimit="10" stroke-linecap="round" />
    <path
        d="M98.1735 145.666L101.188 147.435C101.45 147.566 101.974 147.566 102.302 147.37L105.185 145.732C105.512 145.535 105.512 145.273 105.25 145.076L102.236 143.307C101.974 143.176 101.45 143.176 101.122 143.373L98.239 145.011C97.9769 145.207 97.9114 145.47 98.1735 145.666Z"
        stroke="black" stroke-width="0.7" stroke-miterlimit="10" stroke-linecap="round" />
    <path
        d="M90.1795 141.014L93.1936 142.783C93.4557 142.914 93.9799 142.914 94.3075 142.717L97.1906 141.079C97.5183 140.883 97.5183 140.621 97.2562 140.424L94.242 138.655C93.9799 138.524 93.4557 138.524 93.1281 138.72L90.245 140.359C89.9174 140.555 89.8519 140.883 90.1795 141.014Z"
        stroke="black" stroke-width="0.7" stroke-miterlimit="10" stroke-linecap="round" />
    <path
        d="M75.1616 166.568L104.648 183.604C105.565 184.128 107.138 184.063 108.186 183.473L117.491 178.1C118.539 177.51 118.67 176.593 117.753 176.069L88.2666 159.032C87.3492 158.508 85.7766 158.574 84.7282 159.163L75.4237 164.536C74.3753 165.126 74.2442 166.043 75.1616 166.568Z"
        fill="black" stroke="black" stroke-width="0.7" stroke-miterlimit="10" stroke-linecap="round" />
    <path
        d="M98.4928 24.1769V101.496L217.748 170.363V91.9952C217.748 86.7532 214.93 81.9044 210.409 79.2834L106.749 19.3936C106.094 19.0005 105.438 18.8039 104.783 18.7384C103.604 18.5418 102.424 18.8039 101.441 19.3281C101.31 19.3936 101.114 19.5247 100.983 19.5902C99.5412 20.5075 98.4928 22.1457 98.4928 24.1769Z"
        fill="#DCDCDC" stroke="black" stroke-width="0.7" stroke-miterlimit="10"
        stroke-linecap="round" stroke-linejoin="round" />
    <path
        d="M111.269 46.716L205.035 100.84C207.852 102.478 210.08 100.708 210.08 97.0391C210.08 93.3042 207.787 88.9795 205.035 87.3414L111.269 33.2178C108.451 31.5797 106.223 33.3489 106.223 37.0183C106.223 40.8187 108.451 45.1434 111.269 46.716Z"
        fill="white" stroke="black" stroke-width="0.7" stroke-miterlimit="10" stroke-linecap="round"
        stroke-linejoin="round" />
    <path
        d="M201.946 94.3226C201.023 92.7243 201.037 90.9886 201.977 90.4458C202.918 89.903 204.428 90.7586 205.351 92.3569C206.273 93.9552 206.259 95.6909 205.319 96.2337C204.379 96.7766 202.869 95.9209 201.946 94.3226Z"
        fill="black" />
    <path
        d="M193.702 89.5558C192.779 87.9575 192.793 86.2218 193.733 85.6789C194.673 85.1361 196.184 85.9917 197.106 87.59C198.029 89.1883 198.015 90.9241 197.075 91.4669C196.135 92.0097 194.625 91.1541 193.702 89.5558Z"
        fill="black" />
    <path
        d="M185.535 84.8091C184.612 83.2108 184.626 81.4751 185.566 80.9322C186.506 80.3894 188.017 81.245 188.939 82.8433C189.862 84.4416 189.848 86.1774 188.908 86.7202C187.968 87.263 186.458 86.4074 185.535 84.8091Z"
        fill="black" />
    <path d="M113.425 41.225L144.812 59.3754" stroke="black" stroke-width="0.7"
        stroke-miterlimit="10" stroke-linecap="round" stroke-linejoin="round" />
    <path
        d="M142.849 116.828L201.363 150.443C203.198 151.491 205.491 150.181 205.491 148.084V124.036C205.491 121.088 203.919 118.336 201.363 116.894L142.849 83.2798C141.015 82.2314 138.721 83.5419 138.721 85.6386V109.686C138.656 112.569 140.294 115.321 142.849 116.828Z"
        fill="white" stroke="black" stroke-width="0.7" stroke-miterlimit="10" stroke-linecap="round" />
    <path
        d="M143 102.93C146.348 105.436 148.739 95.4124 151.13 100.424C153.944 106.32 153.908 113.424 158.304 111.45C161.652 109.946 170.261 96.916 173.13 108.443C174.276 113.043 168.826 129.492 187 133"
        stroke="black" stroke-linecap="round" />
    <path
        d="M26.8693 145.989V153.328C26.8693 154.769 27.459 156.211 28.5729 157.325C28.9006 157.652 29.2282 157.914 29.6868 158.111L133.347 218.001C137.868 220.622 143.504 220.622 148.025 218.001L220.495 176.13C222.461 174.951 223.706 172.854 223.706 170.561V88.5236C223.706 83.2816 220.888 78.4327 216.367 75.8117L112.707 15.922C110.938 14.8736 108.972 15.0046 107.399 15.7909L106.941 16.053L106.875 16.1186L101.502 19.2638C102.485 18.7396 103.664 18.543 104.844 18.7396C105.499 18.8051 106.154 19.0672 106.81 19.3948L210.405 79.2846C214.926 81.9056 217.743 86.7544 217.743 91.9964V170.364L211.387 174.034L147.959 210.662C143.438 213.283 137.803 213.283 133.282 210.662L29.6213 150.772C29.2282 150.51 28.835 150.248 28.5074 149.986C28.4419 149.92 28.3108 149.789 28.2453 149.724C27.328 148.61 26.8693 147.299 26.8693 145.989Z"
        fill="#DCDCDC" />
    <path
        d="M216.367 75.8117C220.888 78.4327 223.706 83.2816 223.706 88.5236L217.743 91.9964C217.743 86.7544 214.926 81.9056 210.404 79.2846L106.81 19.3948C106.154 19.0672 105.499 18.8051 104.844 18.7396C103.664 18.543 102.485 18.7396 101.502 19.2638L106.875 16.1186L106.941 16.053L107.399 15.7909C108.972 15.0046 110.938 14.8736 112.707 15.922L216.367 75.8117Z"
        fill="white" />
    <path
        d="M26.8693 145.989V153.328C26.8693 154.769 27.459 156.211 28.5729 157.325C28.9005 157.652 29.2282 157.914 29.6868 158.111L133.347 218.001C137.868 220.622 143.504 220.622 148.025 218.001L220.495 176.13C222.461 174.951 223.706 172.854 223.706 170.561V88.5236C223.706 83.2816 220.888 78.4327 216.367 75.8117L112.707 15.922C110.938 14.8736 108.972 15.0046 107.399 15.7909L106.941 16.053L106.875 16.1186L101.502 19.2638C102.485 18.7396 103.664 18.543 104.844 18.7396C105.499 18.8051 106.154 19.0672 106.81 19.3948L210.405 79.2846C214.926 81.9056 217.743 86.7544 217.743 91.9964V170.364L211.387 174.034L147.959 210.662C143.438 213.283 137.803 213.283 133.282 210.662L29.6213 150.772C29.2282 150.51 28.835 150.248 28.5074 149.986C28.4419 149.92 28.3108 149.789 28.2453 149.724C27.328 148.61 26.8693 147.299 26.8693 145.989Z"
        stroke="black" stroke-width="0.7" stroke-miterlimit="10" stroke-linecap="round" />
    <path
        d="M71.1001 55.8295C69.7241 55.1087 68.5447 54.9777 67.5618 55.5019L79.1597 48.8184L79.815 48.4252H79.8805C80.7978 48.0321 81.9773 48.1631 83.1567 48.8839L118.933 69.4587C122.013 71.2279 124.503 75.9457 124.503 80.0737L112.315 90.3258C112.315 86.2632 109.825 78.1735 106.746 76.4043L77.5871 59.5644L71.1001 55.8295Z"
        fill="#00EFE4" />
    <path
        d="M71.1 55.8362C69.724 55.1155 68.5446 54.9844 67.5617 55.5086L79.1596 48.8251L79.8149 48.4319H79.8804C80.7977 48.0388 81.9772 48.1698 83.1566 48.8906L101.045 59.178L89.8676 66.6152L71.1 55.8362Z"
        fill="white" />
    <path
        d="M112.315 116.247V87.0232L124.503 80.0775V109.302C124.503 111.333 123.848 112.774 122.865 113.561H122.799L122.21 113.888L110.677 120.572C111.66 119.851 112.315 118.344 112.315 116.247Z"
        fill="black" />
    <path
        d="M65.5287 60.1019V89.326C65.5287 93.454 68.0186 98.1718 71.0983 99.941L106.744 120.516C107.989 121.237 109.168 121.368 110.151 120.909C110.217 120.909 110.217 120.843 110.282 120.843L110.479 120.712L110.61 120.647C110.61 120.647 110.61 120.647 110.675 120.581C111.724 119.861 112.313 118.354 112.313 116.257V87.0326C112.313 82.9045 109.824 78.1867 106.744 76.4176L77.5853 59.5777L71.0983 55.8428C69.7878 55.0565 68.5429 54.9909 67.56 55.5151L67.4289 55.5807C66.2495 56.3014 65.5287 57.874 65.5287 60.1019Z"
        fill="white" stroke="black" stroke-width="0.7" stroke-miterlimit="10" stroke-linecap="round"
        stroke-linejoin="round" />
    <path
        d="M70.6752 83.9116C69.7925 83.3885 69.0732 82.048 69.0732 80.871V67.9896C69.0732 66.8126 69.7925 66.2568 70.6752 66.7799C71.558 67.303 72.2773 68.6435 72.2773 69.8205V82.7019C72.2773 83.8789 71.558 84.4347 70.6752 83.9116Z"
        fill="#00EFE4" stroke="black" stroke-width="0.7" stroke-miterlimit="10"
        stroke-linecap="round" stroke-linejoin="round" />
    <path
        d="M76.7309 85.4166C75.8482 84.8935 75.1289 83.553 75.1289 82.376V75.8046C75.1289 74.6276 75.8482 74.0718 76.7309 74.5949C77.6136 75.118 78.3329 76.4584 78.3329 77.6354V84.2069C78.3329 85.3839 77.6136 85.9397 76.7309 85.4166Z"
        fill="#00EFE4" stroke="black" stroke-width="0.7" stroke-miterlimit="10"
        stroke-linecap="round" stroke-linejoin="round" />
    <path
        d="M82.811 99.178C81.9282 98.6549 81.209 97.3145 81.209 96.1375V83.2234C81.209 82.0464 81.9282 81.4906 82.811 82.0137C83.6937 82.5368 84.413 83.8773 84.413 85.0542V97.9357C84.413 99.1453 83.6937 99.6684 82.811 99.178Z"
        fill="#00EFE4" stroke="black" stroke-width="0.7" stroke-miterlimit="10"
        stroke-linecap="round" stroke-linejoin="round" />
    <path
        d="M88.893 93.2642C88.0103 92.7411 87.291 91.4007 87.291 90.2237V81.3636C87.291 80.1867 88.0103 79.6309 88.893 80.154C89.7758 80.6771 90.495 82.0175 90.495 83.1945V92.0546C90.4623 93.2316 89.7758 93.7873 88.893 93.2642Z"
        fill="#00EFE4" stroke="black" stroke-width="0.7" stroke-miterlimit="10"
        stroke-linecap="round" stroke-linejoin="round" />
    <path
        d="M94.9321 101.209C94.0493 100.686 93.3301 99.3453 93.3301 98.1683V88.1312C93.3301 86.9542 94.0493 86.3984 94.9321 86.9215C95.8148 87.4446 96.5341 88.7851 96.5341 89.9621V99.9991C96.5341 101.176 95.8148 101.732 94.9321 101.209Z"
        fill="#00EFE4" stroke="black" stroke-width="0.7" stroke-miterlimit="10"
        stroke-linecap="round" stroke-linejoin="round" />
    <path
        d="M107.094 102.681C106.211 102.158 105.492 100.818 105.492 99.641V88.6885C105.492 87.5115 106.211 86.9557 107.094 87.4788C107.977 88.0019 108.696 89.3424 108.696 90.5193V101.472C108.663 102.649 107.977 103.205 107.094 102.681Z"
        fill="#00EFE4" stroke="black" stroke-width="0.7" stroke-miterlimit="10"
        stroke-linecap="round" stroke-linejoin="round" />
    <path
        d="M101.015 107.682C100.132 107.159 99.4131 105.819 99.4131 104.642V88.3931C99.4131 87.2161 100.132 86.6603 101.015 87.1834C101.898 87.7065 102.617 89.0469 102.617 90.2239V106.473C102.617 107.65 101.898 108.173 101.015 107.682Z"
        fill="#00EFE4" stroke="black" stroke-width="0.7" stroke-miterlimit="10"
        stroke-linecap="round" stroke-linejoin="round" />
    <path
        d="M67.5618 55.5019C68.5447 54.9777 69.7241 55.1087 71.1001 55.8295L77.5871 59.5644L106.746 76.4043C109.825 78.1735 112.315 82.9568 112.315 87.0194V116.243C112.315 118.34 111.66 119.847 110.677 120.568L122.21 113.885L122.799 113.557H122.865C123.848 112.771 124.503 111.329 124.503 109.298V80.0737C124.503 75.9457 122.013 71.2279 118.933 69.4587L83.1567 48.8839C81.9773 48.1631 80.7978 48.0321 79.8805 48.4252H79.815L79.1597 48.8184L67.5618 55.5019Z"
        stroke="black" stroke-width="0.7" stroke-miterlimit="10" stroke-linecap="round" />
    <g clip-path="url(#clip0_1420_17817)">
        <path
            d="M227.705 154.648C227.705 159.956 226.329 164.084 224.035 166.836C223.249 167.753 222.332 168.539 221.349 169.195L220.759 169.522C216.697 171.75 211.062 171.357 204.968 167.753C192.321 160.48 182.165 142.854 182.165 128.373C182.165 121.165 184.655 116.12 188.718 113.695C189.831 113.04 191.142 112.581 192.452 112.319C196.056 111.664 200.315 112.581 204.902 115.268C217.483 122.475 227.705 140.102 227.705 154.648Z"
            fill="#A5D9FF" stroke="black" stroke-width="0.7" stroke-miterlimit="10"
            stroke-linecap="round" stroke-linejoin="round" />
        <path
            d="M216.923 162.317C223.567 158.481 223.57 146.047 216.929 134.546C210.289 123.044 199.519 116.83 192.876 120.666C186.232 124.502 186.229 136.935 192.87 148.437C199.51 159.938 210.279 166.153 216.923 162.317Z"
            fill="white" stroke="black" stroke-width="0.7" stroke-miterlimit="10"
            stroke-linecap="round" stroke-linejoin="round" />
        <path d="M197.234 137.875L204.77 144.559V127.981L197.234 137.875Z" fill="white"
            stroke="black" stroke-width="0.7" stroke-miterlimit="10" stroke-linecap="round"
            stroke-linejoin="round" />
        <path d="M204.767 127.981V144.559L212.236 146.459L204.767 127.981Z" fill="#9EBBD1"
            stroke="black" stroke-width="0.7" stroke-miterlimit="10" stroke-linecap="round"
            stroke-linejoin="round" />
        <path d="M204.767 148.425V155.436L212.236 150.325L204.767 148.425Z" fill="#9EBBD1"
            stroke="black" stroke-width="0.7" stroke-miterlimit="10" stroke-linecap="round"
            stroke-linejoin="round" />
        <path d="M197.234 141.677L204.77 155.437V148.426L197.234 141.677Z" fill="white"
            stroke="black" stroke-width="0.7" stroke-miterlimit="10" stroke-linecap="round"
            stroke-linejoin="round" />
        <path
            d="M234.325 150.781C234.325 157.858 231.901 162.903 227.969 165.328L227.445 165.655L221.351 169.194C222.334 168.604 223.251 167.817 224.038 166.835C226.396 164.083 227.707 159.889 227.707 154.647C227.707 140.166 217.485 122.474 204.97 115.267C200.383 112.646 196.124 111.728 192.52 112.318C191.144 112.58 189.899 113.039 188.785 113.694L195.338 109.893L195.534 109.762C199.662 107.404 205.363 107.731 211.588 111.335C224.103 118.608 234.325 136.234 234.325 150.781Z"
            fill="black" />
        <path
            d="M204.97 115.267C200.383 112.646 196.124 111.728 192.52 112.318C191.19 112.571 189.983 113.008 188.898 113.628L188.785 113.694C188.823 113.672 188.86 113.65 188.898 113.628L195.338 109.893L195.534 109.762C199.662 107.404 205.363 107.731 211.588 111.335L204.97 115.267Z"
            fill="white" />
        <path
            d="M204.969 115.275C217.484 122.483 227.706 140.175 227.706 154.656L234.324 150.79C234.324 136.243 224.102 118.617 211.587 111.344L204.969 115.275Z"
            fill="#9EBBD1" />
        <path
            d="M234.325 150.781C234.325 157.858 231.901 162.903 227.969 165.328L227.445 165.655L221.351 169.194C222.334 168.604 223.251 167.817 224.038 166.835C226.396 164.083 227.707 159.889 227.707 154.647C227.707 140.166 217.485 122.474 204.97 115.267C200.383 112.646 196.124 111.728 192.52 112.318C191.144 112.58 189.899 113.039 188.785 113.694L195.338 109.893L195.534 109.762C199.662 107.404 205.363 107.731 211.588 111.335C224.103 118.608 234.325 136.234 234.325 150.781Z"
            stroke="black" stroke-width="0.7" stroke-miterlimit="10" stroke-linecap="round"
            stroke-linejoin="round" />
        <path
            d="M202.936 108.329L196.318 112.195M208.834 109.968L202.216 113.834M213.289 112.458L206.606 116.258M217.024 115.275L210.406 119.141M220.3 118.42L213.682 122.286M223.184 121.762L216.566 125.628M225.805 125.3L219.121 129.166M228.032 129.035L221.414 132.901M229.998 132.901L223.38 136.767M231.898 137.554L225.215 141.354M233.34 142.402L226.656 146.268M234.192 147.644L227.508 151.445M234.192 153.28L227.574 157.146M233.471 157.539L226.787 161.339"
            stroke="black" stroke-width="0.7" stroke-miterlimit="10" stroke-linecap="round"
            stroke-linejoin="round" />
    </g>
    <path d="M165.778 87.6709L180.587 96.1891" stroke="black" stroke-width="0.7"
        stroke-miterlimit="10" stroke-linecap="round" stroke-linejoin="round" />
    <path d="M155.297 81.5747L160.408 84.5233" stroke="black" stroke-width="0.7"
        stroke-miterlimit="10" stroke-linecap="round" stroke-linejoin="round" />
    <defs>
        <clipPath id="clip0_1420_17817">
            <rect width="52.9441" height="63.3626" fill="white"
                transform="translate(181.771 107.853)" />
        </clipPath>
    </defs>
</svg>