<svg width="241" height="240" viewBox="0 0 241 240" fill="none" xmlns="http://www.w3.org/2000/svg">
<path d="M74.3362 74.5967C74.3362 75.3653 74.7501 76.193 75.5187 76.6659L137.892 112.553C139.37 113.381 141.144 113.381 142.622 112.553L178.627 91.742C179.395 91.269 179.809 90.5004 179.809 89.6727C179.809 88.9041 179.395 88.0764 178.627 87.6034L116.254 51.7166C114.775 50.8889 113.002 50.8889 111.524 51.7166L75.5187 72.5865C74.7501 73.0004 74.3362 73.8281 74.3362 74.5967Z" fill="#DCDCDC" stroke="black" stroke-width="0.662162" stroke-miterlimit="10" stroke-linecap="round" stroke-linejoin="round"/>
<path d="M74.3362 163.29C74.3362 164.058 74.7501 164.886 75.5187 165.359L137.892 201.246C139.37 202.074 141.144 202.074 142.622 201.246L178.627 180.435C179.395 179.962 179.809 179.194 179.809 178.366C179.809 177.597 179.395 176.77 178.627 176.297L116.254 140.41C114.775 139.582 113.002 139.582 111.524 140.41L75.5187 161.221C74.7501 161.694 74.3362 162.521 74.3362 163.29Z" fill="black"/>
<path d="M74.3362 74.6809V149.411C74.3362 150.238 74.7501 151.007 75.5187 151.48L137.892 187.426C139.37 188.254 141.144 188.254 142.622 187.426L178.627 166.615C179.395 166.142 179.809 165.374 179.809 164.546V89.8161C179.809 90.6438 179.395 91.4123 178.627 91.8853L142.622 112.696C141.144 113.524 139.37 113.524 137.892 112.696L75.5187 76.7502C74.7501 76.2772 74.3362 75.5086 74.3362 74.6809Z" fill="white" stroke="black" stroke-width="0.662162" stroke-miterlimit="10" stroke-linecap="round" stroke-linejoin="round"/>
<path d="M140.26 113.101V187.89" stroke="black" stroke-width="0.662162"/>
<path d="M166.897 168.489C167.784 167.957 168.493 166.774 168.493 165.769V159.857C168.493 158.852 167.784 158.438 166.897 158.97C166.01 159.502 165.301 160.685 165.301 161.69V167.602C165.301 168.607 166.01 168.962 166.897 168.489Z" fill="black" stroke="black" stroke-width="0.662162" stroke-miterlimit="10" stroke-linecap="round" stroke-linejoin="round"/>
<path d="M159.882 172.505C160.769 171.973 161.478 170.791 161.478 169.786V163.873C161.478 162.868 160.769 162.454 159.882 162.987C158.995 163.519 158.286 164.701 158.286 165.706V171.618C158.286 172.623 158.995 173.037 159.882 172.505Z" fill="black" stroke="black" stroke-width="0.662162" stroke-miterlimit="10" stroke-linecap="round" stroke-linejoin="round"/>
<path d="M152.867 176.738C153.754 176.206 154.463 175.023 154.463 174.018V168.106C154.463 167.101 153.754 166.687 152.867 167.219C151.98 167.751 151.271 168.934 151.271 169.939V175.851C151.271 176.797 151.98 177.211 152.867 176.738Z" fill="black" stroke="black" stroke-width="0.662162" stroke-miterlimit="10" stroke-linecap="round" stroke-linejoin="round"/>
<rect x="0.409607" y="0.709459" width="53.5219" height="23.6376" rx="3.31081" transform="matrix(0.866025 0.5 -2.20305e-08 1 84.2246 92.6341)" fill="#DCDCDC" stroke="black" stroke-width="0.945946"/>
<mask id="mask0_2521_39977" style="mask-type:alpha" maskUnits="userSpaceOnUse" x="84" y="94" width="48" height="50">
<rect x="0.409607" y="0.709459" width="53.5219" height="23.6376" rx="3.31081" transform="matrix(0.866025 0.5 -2.20305e-08 1 84.2246 92.6341)" fill="#DCDCDC" stroke="black" stroke-width="0.945946"/>
</mask>
<g mask="url(#mask0_2521_39977)">
<path d="M103.099 105.028L84.1697 118.062L131.324 144.667V118.062L103.099 105.028Z" fill="black" stroke="black" stroke-width="0.945946" stroke-linejoin="round"/>
</g>
<path d="M79.9649 135.957C79.5313 114.059 93.1542 107.501 100.02 106.959L129.262 124.336C119.722 127.371 114.384 137.242 114.384 147.802V197.206L108.15 201.271L79.9649 184.74V135.957Z" fill="white" stroke="black" stroke-width="0.945946"/>
<path d="M94.1289 115.558L111.227 125.984" stroke="black" stroke-width="0.945946" stroke-linecap="round" stroke-linejoin="round"/>
<path d="M89.9431 121.624L101.454 128.561" stroke="black" stroke-width="0.945946" stroke-linecap="round" stroke-linejoin="round"/>
<path d="M88.2976 139.295L99.8083 146.232" stroke="black" stroke-width="0.945946" stroke-linecap="round" stroke-linejoin="round"/>
<path d="M88.2976 150.647L99.8083 157.584" stroke="black" stroke-width="0.945946" stroke-linecap="round" stroke-linejoin="round"/>
<path d="M88.2976 145.137L105.819 155.465" stroke="black" stroke-width="0.945946" stroke-linecap="round" stroke-linejoin="round"/>
<path d="M85.6707 188.287L105.424 199.061V175.536C94.3622 166.342 87.646 180.205 85.6707 188.287Z" fill="black" stroke="black" stroke-width="0.945946"/>
<path d="M105.152 174.798C105.254 174.853 105.352 174.909 105.445 174.965L105.152 174.798C101.321 172.736 90.9058 171.332 86.0493 188.647C82.4227 201.577 97.0438 211.303 75.3627 223.227L70.7937 222.448L71.3348 220.338L65.0587 220.663L65.4915 218.715H60.5139L61.0008 215.739H58.685V213.486H52.7563V211.114H48.6062L49.2978 208.743H42.2822C46.5966 206.398 55.1701 200.013 54.9487 193.227C54.6719 184.744 50.3514 155.442 71.3348 155.58L105.152 174.798Z" fill="white"/>
<path d="M105.445 199.063V174.965M105.445 174.965C101.883 172.825 91.0359 170.869 86.0493 188.647C82.4227 201.577 97.0438 211.303 75.3627 223.227L70.7937 222.448L71.3348 220.338L65.0587 220.663L65.4915 218.715H60.5139L61.0008 215.739H58.685V213.486H52.7563V211.114H48.6062L49.2978 208.743H42.2822C46.5966 206.398 55.1701 200.013 54.9487 193.227C54.6719 184.744 50.3514 155.442 71.3348 155.58L105.445 174.965Z" stroke="black" stroke-width="0.945946"/>
<path fill-rule="evenodd" clip-rule="evenodd" d="M69.8511 188.077L69.8511 181.46L68.2127 180.514L68.2127 187.131L62.4897 183.827L62.4897 185.719L68.2127 189.023L68.2127 195.649L69.8511 196.595L69.8511 189.969L75.5972 193.287L75.5972 191.395L69.8511 188.077Z" fill="#0C0F0F"/>
<mask id="path-21-inside-1_2521_39977" fill="white">
<path fill-rule="evenodd" clip-rule="evenodd" d="M149.956 39.6115C149.955 39.6111 149.955 39.6106 149.954 39.6101C147.619 38.2619 145.504 38.1344 143.974 39.0182C143.947 39.0338 143.92 39.0498 143.894 39.066L139.734 41.4678C138.204 42.3514 137.258 44.2457 137.258 46.9415L141.498 44.4932V44.4936L137.258 46.9419C137.258 50.9308 139.329 55.557 142.298 58.7862C141.836 58.7913 141.387 58.8272 140.95 58.8932C139.879 59.0542 138.889 59.3972 137.997 59.9116C137.925 59.9531 137.854 59.9956 137.784 60.0393L137.769 60.0478C137.843 60.0015 137.918 59.9565 137.994 59.9128L133.754 62.3611C130.693 64.1276 128.799 67.9166 128.799 73.3092V73.3097L128.8 73.3095L162.621 92.8362L162.627 92.8328V92.8387L166.87 90.3891C166.87 80.2736 160.209 68.1088 151.675 62.1888L151.695 62.1771L151.758 62.1411C151.736 62.1543 151.714 62.1674 151.692 62.1802L155.934 59.7306C157.464 58.8471 158.41 56.9529 158.41 54.2574L158.414 54.2553C158.414 48.863 154.629 42.3062 149.959 39.61L149.956 39.6115ZM136.062 61.4647C134.159 63.525 133.043 66.7199 133.043 70.8601L133.042 70.8596C133.042 66.7199 134.158 63.5252 136.061 61.465L136.062 61.4647Z"/>
</mask>
<path fill-rule="evenodd" clip-rule="evenodd" d="M149.956 39.6115C149.955 39.6111 149.955 39.6106 149.954 39.6101C147.619 38.2619 145.504 38.1344 143.974 39.0182C143.947 39.0338 143.92 39.0498 143.894 39.066L139.734 41.4678C138.204 42.3514 137.258 44.2457 137.258 46.9415L141.498 44.4932V44.4936L137.258 46.9419C137.258 50.9308 139.329 55.557 142.298 58.7862C141.836 58.7913 141.387 58.8272 140.95 58.8932C139.879 59.0542 138.889 59.3972 137.997 59.9116C137.925 59.9531 137.854 59.9956 137.784 60.0393L137.769 60.0478C137.843 60.0015 137.918 59.9565 137.994 59.9128L133.754 62.3611C130.693 64.1276 128.799 67.9166 128.799 73.3092V73.3097L128.8 73.3095L162.621 92.8362L162.627 92.8328V92.8387L166.87 90.3891C166.87 80.2736 160.209 68.1088 151.675 62.1888L151.695 62.1771L151.758 62.1411C151.736 62.1543 151.714 62.1674 151.692 62.1802L155.934 59.7306C157.464 58.8471 158.41 56.9529 158.41 54.2574L158.414 54.2553C158.414 48.863 154.629 42.3062 149.959 39.61L149.956 39.6115ZM136.062 61.4647C134.159 63.525 133.043 66.7199 133.043 70.8601L133.042 70.8596C133.042 66.7199 134.158 63.5252 136.061 61.465L136.062 61.4647Z" fill="black"/>
<path d="M138.117 60.1249L138.119 60.1236L137.874 59.6993L137.872 59.7006L138.117 60.1249ZM149.956 39.6115L149.711 40.0359C149.863 40.1234 150.05 40.1233 150.201 40.0358L149.956 39.6115ZM149.954 39.6101L149.709 40.0344L149.709 40.0345L149.954 39.6101ZM143.974 39.0182L143.729 38.594V38.594L143.974 39.0182ZM143.894 39.066L144.139 39.4904L144.149 39.4844L143.894 39.066ZM139.734 41.4678L139.489 41.0436L139.489 41.0436L139.734 41.4678ZM137.258 46.9415H136.768C136.768 47.1165 136.861 47.2783 137.013 47.3658C137.164 47.4533 137.351 47.4533 137.503 47.3658L137.258 46.9415ZM141.498 44.4932H141.988C141.988 44.3181 141.895 44.1564 141.743 44.0689C141.592 43.9814 141.405 43.9814 141.253 44.0689L141.498 44.4932ZM141.498 44.4936L141.743 44.9179C141.895 44.8303 141.988 44.6686 141.988 44.4936H141.498ZM137.258 46.9419L137.013 46.5177C136.861 46.6052 136.768 46.7669 136.768 46.9419H137.258ZM142.298 58.7862L142.303 59.2761C142.497 59.274 142.671 59.1583 142.748 58.9807C142.824 58.8032 142.789 58.5971 142.659 58.4546L142.298 58.7862ZM140.95 58.8932L141.023 59.3777L141.024 59.3776L140.95 58.8932ZM137.997 59.9116L137.752 59.4873L137.752 59.4873L137.997 59.9116ZM137.784 60.0393L138.029 60.4635C138.033 60.461 138.037 60.4584 138.042 60.4558L137.784 60.0393ZM137.769 60.0478L137.51 59.6318C137.283 59.773 137.211 60.0703 137.349 60.2997C137.486 60.5291 137.782 60.6058 138.014 60.472L137.769 60.0478ZM137.994 59.9128L138.239 60.337C138.473 60.2017 138.554 59.9021 138.418 59.6678C138.283 59.4335 137.983 59.3532 137.749 59.4885L137.994 59.9128ZM133.754 62.3611L133.998 62.7854L133.998 62.7853L133.754 62.3611ZM128.799 73.3092L128.309 73.3092V73.3092H128.799ZM128.799 73.3097H128.309C128.309 73.4847 128.403 73.6465 128.554 73.734C128.706 73.8215 128.893 73.8215 129.044 73.734L128.799 73.3097ZM128.8 73.3095L129.045 72.8852C128.893 72.7977 128.706 72.7977 128.555 72.8852L128.8 73.3095ZM162.621 92.8362L162.376 93.2605C162.528 93.348 162.714 93.348 162.866 93.2605L162.621 92.8362ZM162.627 92.8328H163.117C163.117 92.6578 163.023 92.4961 162.872 92.4086C162.72 92.321 162.533 92.321 162.382 92.4085L162.627 92.8328ZM162.627 92.8387H162.137C162.137 93.0137 162.23 93.1754 162.382 93.2629C162.533 93.3505 162.72 93.3505 162.872 93.2629L162.627 92.8387ZM166.87 90.3891L167.115 90.8133C167.266 90.7258 167.36 90.5641 167.36 90.3891H166.87ZM151.675 62.1888L151.431 61.7638C151.286 61.8474 151.193 61.9999 151.186 62.1678C151.178 62.3357 151.258 62.4956 151.396 62.5914L151.675 62.1888ZM151.695 62.1771L151.939 62.6021L151.94 62.6014L151.695 62.1771ZM151.758 62.1411L152.011 62.5605C152.241 62.4217 152.316 62.1234 152.18 61.892C152.043 61.6606 151.746 61.5824 151.513 61.7168L151.758 62.1411ZM151.692 62.1802L151.447 61.756C151.212 61.8913 151.132 62.1909 151.267 62.4252C151.403 62.6595 151.702 62.7398 151.937 62.6045L151.692 62.1802ZM155.934 59.7306L156.179 60.1549L156.179 60.1548L155.934 59.7306ZM158.41 54.2574L158.165 53.8331C158.014 53.9206 157.921 54.0824 157.921 54.2574L158.41 54.2574ZM158.414 54.2553L158.659 54.6796C158.811 54.592 158.904 54.4303 158.904 54.2553H158.414ZM149.959 39.61L150.204 39.1858C150.052 39.0982 149.865 39.0982 149.714 39.1858L149.959 39.61ZM133.043 70.8601L132.798 71.2843C132.949 71.3718 133.136 71.3719 133.288 71.2844C133.439 71.1969 133.533 71.0351 133.533 70.8601L133.043 70.8601ZM136.062 61.4647L136.422 61.7972C136.568 61.6395 136.594 61.4053 136.486 61.2195C136.379 61.0336 136.163 60.9394 135.954 60.987L136.062 61.4647ZM133.042 70.8596L132.552 70.8596C132.552 71.0346 132.646 71.1963 132.797 71.2838L133.042 70.8596ZM136.061 61.465L135.952 60.9873C135.856 61.0093 135.768 61.0599 135.701 61.1326L136.061 61.465ZM150.201 39.1872C150.201 39.187 150.2 39.1869 150.2 39.1866C150.2 39.1864 150.199 39.1861 150.199 39.1857L149.709 40.0345C149.71 40.0352 149.71 40.0349 149.711 40.0359L150.201 39.1872ZM150.199 39.1859C147.774 37.7861 145.464 37.5918 143.729 38.594L144.219 39.4425C145.544 38.6771 147.463 38.7377 149.709 40.0344L150.199 39.1859ZM143.729 38.594C143.699 38.6115 143.669 38.6294 143.639 38.6476L144.149 39.4844C144.172 39.4701 144.196 39.4562 144.219 39.4425L143.729 38.594ZM143.649 38.6417L139.489 41.0436L139.979 41.8921L144.139 39.4903L143.649 38.6417ZM139.489 41.0436C137.754 42.0455 136.768 44.1427 136.768 46.9415H137.748C137.748 44.3488 138.654 42.6573 139.979 41.8921L139.489 41.0436ZM137.503 47.3658L141.743 44.9174L141.253 44.0689L137.013 46.5172L137.503 47.3658ZM141.008 44.4932V44.4936H141.988V44.4932H141.008ZM141.253 44.0693L137.013 46.5177L137.503 47.3662L141.743 44.9179L141.253 44.0693ZM136.768 46.9419C136.768 51.0776 138.903 55.8176 141.937 59.1178L142.659 58.4546C139.755 55.2965 137.748 50.784 137.748 46.9419H136.768ZM142.292 58.2963C141.809 58.3016 141.337 58.3392 140.877 58.4088L141.024 59.3776C141.437 59.3151 141.863 59.2809 142.303 59.2761L142.292 58.2963ZM140.878 58.4087C139.748 58.5785 138.699 58.9409 137.752 59.4873L138.242 60.3359C139.078 59.8534 140.01 59.53 141.023 59.3777L140.878 58.4087ZM137.752 59.4873C137.676 59.5313 137.601 59.5764 137.526 59.6227L138.042 60.4558C138.108 60.4148 138.175 60.3749 138.242 60.3359L137.752 59.4873ZM137.539 59.615L137.524 59.6235L138.014 60.472L138.029 60.4635L137.539 59.615ZM138.028 60.4638C138.097 60.4204 138.168 60.3781 138.239 60.337L137.749 59.4885C137.669 59.535 137.589 59.5827 137.51 59.6318L138.028 60.4638ZM137.749 59.4885L133.509 61.9368L133.998 62.7853L138.239 60.337L137.749 59.4885ZM133.509 61.9367C130.243 63.8216 128.31 67.8135 128.309 73.3092L129.289 73.3092C129.289 68.0197 131.143 64.4335 133.998 62.7854L133.509 61.9367ZM128.309 73.3092V73.3097H129.289V73.3092H128.309ZM129.044 73.734L129.045 73.7337L128.555 72.8852L128.554 72.8854L129.044 73.734ZM128.555 73.7337L162.376 93.2605L162.866 92.4119L129.045 72.8852L128.555 73.7337ZM162.866 93.2605L162.872 93.2571L162.382 92.4085L162.376 92.4118L162.866 93.2605ZM162.137 92.8328V92.8387H163.117V92.8328H162.137ZM162.872 93.2629L167.115 90.8133L166.625 89.9648L162.382 92.4144L162.872 93.2629ZM167.36 90.3891C167.36 85.2309 165.664 79.5809 162.903 74.4824C160.142 69.383 156.296 64.7982 151.954 61.7863L151.396 62.5914C155.588 65.4995 159.339 69.9571 162.042 74.9489C164.745 79.9416 166.38 85.4317 166.38 90.3891H167.36ZM151.919 62.6138L151.939 62.6021L151.452 61.7522L151.431 61.7638L151.919 62.6138ZM151.94 62.6014L152.003 62.5653L151.513 61.7168L151.45 61.7529L151.94 62.6014ZM151.505 61.7216C151.486 61.7332 151.466 61.7447 151.447 61.756L151.937 62.6044C151.962 62.59 151.986 62.5754 152.011 62.5605L151.505 61.7216ZM151.937 62.6045L156.179 60.1549L155.689 59.3063L151.447 61.7559L151.937 62.6045ZM156.179 60.1548C157.914 59.153 158.9 57.056 158.9 54.2575L157.921 54.2574C157.92 56.8499 157.014 58.5412 155.689 59.3064L156.179 60.1548ZM158.169 53.831L158.165 53.8331L158.655 54.6817L158.659 54.6796L158.169 53.831ZM149.714 40.0343C151.957 41.3293 154.015 43.571 155.513 46.1666C157.012 48.7621 157.924 51.6654 157.924 54.2553H158.904C158.904 51.4529 157.924 48.3816 156.362 45.6766C154.8 42.9716 152.631 40.5869 150.204 39.1858L149.714 40.0343ZM150.201 40.0358L150.204 40.0343L149.714 39.1858L149.711 39.1873L150.201 40.0358ZM133.533 70.8601C133.533 66.8014 134.627 63.7403 136.422 61.7972L135.702 61.1323C133.691 63.3096 132.553 66.6384 132.553 70.8601L133.533 70.8601ZM132.797 71.2838L132.798 71.2843L133.288 70.4359L133.287 70.4354L132.797 71.2838ZM135.701 61.1326C133.69 63.3099 132.552 66.6384 132.552 70.8596L133.532 70.8596C133.532 66.8014 134.626 63.7405 136.421 61.7974L135.701 61.1326ZM135.954 60.987L135.952 60.9873L136.17 61.9427L136.171 61.9424L135.954 60.987Z" fill="black" mask="url(#path-21-inside-1_2521_39977)"/>
<mask id="path-23-inside-2_2521_39977" fill="white">
<path fill-rule="evenodd" clip-rule="evenodd" d="M145.742 61.5865C150.412 64.2826 154.198 62.097 154.198 56.7048C154.198 51.3126 150.412 44.7557 145.742 42.0596C141.072 39.3635 137.287 41.5491 137.287 46.9413C137.287 52.3335 141.072 58.8904 145.742 61.5865ZM128.828 73.3111C128.828 62.5267 136.4 58.1554 145.739 63.5476C155.079 68.9398 162.65 82.0536 162.65 92.838L128.828 73.3111Z"/>
</mask>
<path fill-rule="evenodd" clip-rule="evenodd" d="M145.742 61.5865C150.412 64.2826 154.198 62.097 154.198 56.7048C154.198 51.3126 150.412 44.7557 145.742 42.0596C141.072 39.3635 137.287 41.5491 137.287 46.9413C137.287 52.3335 141.072 58.8904 145.742 61.5865ZM128.828 73.3111C128.828 62.5267 136.4 58.1554 145.739 63.5476C155.079 68.9398 162.65 82.0536 162.65 92.838L128.828 73.3111Z" fill="white"/>
<path d="M145.742 61.5865L145.742 61.0966L145.742 61.0966L145.742 61.5865ZM145.739 63.5476L145.739 63.0577L145.739 63.5476ZM128.828 73.3111L128.404 73.0661L128.404 73.556L128.828 73.801L128.828 73.3111ZM162.65 92.838L162.65 93.3279L163.074 93.5729L163.074 93.083L162.65 92.838ZM153.773 56.4598C153.773 61.5815 150.178 63.6574 145.742 61.0966L145.742 62.0764C150.646 64.9078 154.622 62.6125 154.622 56.9498L153.773 56.4598ZM145.742 42.5495C150.178 45.1103 153.773 51.3382 153.773 56.4598L154.622 56.9498C154.622 51.287 150.646 44.4011 145.742 41.5697L145.742 42.5495ZM137.711 47.1863C137.711 42.0646 141.307 39.9887 145.742 42.5495L145.742 41.5697C140.838 38.7383 136.862 41.0336 136.862 46.6964L137.711 47.1863ZM145.742 61.0966C141.307 58.5358 137.711 52.3079 137.711 47.1863L136.862 46.6964C136.862 52.3591 140.838 59.2451 145.742 62.0764L145.742 61.0966ZM145.739 63.0577C136.165 57.5302 128.404 62.0111 128.404 73.0661L129.253 73.556C129.253 63.0422 136.634 58.7806 145.739 64.0375L145.739 63.0577ZM163.074 93.083C163.074 82.028 155.313 68.5852 145.739 63.0577L145.739 64.0375C154.844 69.2945 162.226 82.0792 162.226 92.5931L163.074 93.083ZM128.828 73.801L162.65 93.3279L162.65 92.3481L128.828 72.8212L128.828 73.801Z" fill="black" mask="url(#path-23-inside-2_2521_39977)"/>
<mask id="path-25-inside-3_2521_39977" fill="white">
<path fill-rule="evenodd" clip-rule="evenodd" d="M119.15 53.9066C117.751 53.8272 116.198 53.3362 114.563 52.3924L114.56 52.394C116.196 53.3379 117.75 53.8283 119.15 53.9067C119.15 53.9066 119.15 53.9066 119.15 53.9066ZM125.736 45.9422C125.736 45.9417 125.736 45.9412 125.736 45.9406C125.736 38.8169 120.737 30.155 114.568 26.5899L114.574 26.5865C112.78 25.5509 111.085 25.0603 109.583 25.0604C108.496 25.0586 107.51 25.3134 106.66 25.8042C106.589 25.8456 106.518 25.8887 106.448 25.9335L101.066 29.0406C102.014 28.4934 103.132 28.2399 104.37 28.3086C103.739 29.5603 103.388 31.1505 103.388 33.0379V33.0387L97.7841 36.2742C97.7841 41.547 100.523 47.6626 104.448 51.9302C102.337 51.9507 100.42 52.4585 98.7612 53.4156C98.7108 53.4447 98.6606 53.4742 98.6107 53.5041L93.155 56.654C93.2421 56.6037 93.3298 56.5547 93.4183 56.507L93.1661 56.6526C89.121 58.9871 86.619 63.9945 86.6189 71.121V71.1216L86.6194 71.1213L131.297 96.9162L131.297 96.9283L131.308 96.9223L131.315 96.9266L136.922 93.6893L136.911 93.6825C136.907 80.3163 128.106 64.245 116.831 56.4229C116.838 56.419 116.844 56.4151 116.851 56.4112L117.048 56.2975C116.986 56.337 116.923 56.3752 116.859 56.412L122.466 53.1748C124.488 52.0071 125.738 49.5037 125.738 45.9412L125.736 45.9422Z"/>
</mask>
<path fill-rule="evenodd" clip-rule="evenodd" d="M119.15 53.9066C117.751 53.8272 116.198 53.3362 114.563 52.3924L114.56 52.394C116.196 53.3379 117.75 53.8283 119.15 53.9067C119.15 53.9066 119.15 53.9066 119.15 53.9066ZM125.736 45.9422C125.736 45.9417 125.736 45.9412 125.736 45.9406C125.736 38.8169 120.737 30.155 114.568 26.5899L114.574 26.5865C112.78 25.5509 111.085 25.0603 109.583 25.0604C108.496 25.0586 107.51 25.3134 106.66 25.8042C106.589 25.8456 106.518 25.8887 106.448 25.9335L101.066 29.0406C102.014 28.4934 103.132 28.2399 104.37 28.3086C103.739 29.5603 103.388 31.1505 103.388 33.0379V33.0387L97.7841 36.2742C97.7841 41.547 100.523 47.6626 104.448 51.9302C102.337 51.9507 100.42 52.4585 98.7612 53.4156C98.7108 53.4447 98.6606 53.4742 98.6107 53.5041L93.155 56.654C93.2421 56.6037 93.3298 56.5547 93.4183 56.507L93.1661 56.6526C89.121 58.9871 86.619 63.9945 86.6189 71.121V71.1216L86.6194 71.1213L131.297 96.9162L131.297 96.9283L131.308 96.9223L131.315 96.9266L136.922 93.6893L136.911 93.6825C136.907 80.3163 128.106 64.245 116.831 56.4229C116.838 56.419 116.844 56.4151 116.851 56.4112L117.048 56.2975C116.986 56.337 116.923 56.3752 116.859 56.412L122.466 53.1748C124.488 52.0071 125.738 49.5037 125.738 45.9412L125.736 45.9422Z" fill="black"/>
<path d="M101.227 29.3218L101.228 29.3209L100.905 28.7603L100.903 28.7611L101.227 29.3218ZM114.563 52.3924L114.887 51.8317C114.686 51.716 114.439 51.7161 114.239 51.8318L114.563 52.3924ZM119.15 53.9066H119.798C119.798 53.5633 119.53 53.2797 119.187 53.2602L119.15 53.9066ZM114.56 52.394L114.236 51.8334C114.036 51.9491 113.913 52.1629 113.913 52.3942C113.913 52.6255 114.036 52.8392 114.237 52.9548L114.56 52.394ZM119.15 53.9067L119.114 54.5531C119.292 54.563 119.466 54.4994 119.595 54.3771C119.724 54.2548 119.797 54.0846 119.797 53.9067H119.15ZM125.736 45.9422H125.089C125.089 46.1735 125.212 46.3872 125.413 46.5029C125.613 46.6185 125.86 46.6186 126.06 46.503L125.736 45.9422ZM114.568 26.5899L114.244 26.0292C114.044 26.1448 113.921 26.3585 113.921 26.5898C113.921 26.821 114.044 27.0347 114.244 27.1504L114.568 26.5899ZM114.574 26.5865L114.898 27.1472C115.098 27.0315 115.221 26.8177 115.221 26.5864C115.221 26.3552 115.098 26.1414 114.898 26.0258L114.574 26.5865ZM109.583 25.0604L109.582 25.7078L109.583 25.7078L109.583 25.0604ZM106.66 25.8042L106.336 25.2436L106.336 25.2436L106.66 25.8042ZM106.448 25.9335L106.772 26.4942C106.781 26.4891 106.789 26.4838 106.798 26.4783L106.448 25.9335ZM101.066 29.0406L100.743 28.4799C100.433 28.6587 100.327 29.0546 100.506 29.3643C100.684 29.6739 101.08 29.7801 101.39 29.6014L101.066 29.0406ZM104.37 28.3086L104.948 28.5999C105.046 28.4049 105.04 28.1735 104.93 27.9845C104.821 27.7954 104.624 27.6743 104.406 27.6622L104.37 28.3086ZM103.388 33.0387L103.712 33.5994C103.912 33.4837 104.036 33.27 104.036 33.0387H103.388ZM97.7841 36.2742L97.4604 35.7135C97.2601 35.8291 97.1367 36.0429 97.1367 36.2742H97.7841ZM104.448 51.9302L104.454 52.5777C104.71 52.5752 104.941 52.4223 105.042 52.1876C105.144 51.9528 105.098 51.6803 104.925 51.492L104.448 51.9302ZM98.7612 53.4156L98.4376 52.8549L98.4376 52.8549L98.7612 53.4156ZM98.6107 53.5041L98.9345 54.0649L98.9435 54.0595L98.6107 53.5041ZM93.155 56.654L92.8313 56.0933C92.5216 56.2721 92.4155 56.668 92.5943 56.9777C92.773 57.2873 93.1689 57.3935 93.4786 57.2148L93.155 56.654ZM93.4183 56.507L93.742 57.0677C94.0486 56.8907 94.1562 56.5003 93.9836 56.1913C93.811 55.8823 93.4222 55.7691 93.1108 55.9372L93.4183 56.507ZM93.1661 56.6526L93.4897 57.2134L93.4898 57.2133L93.1661 56.6526ZM86.6189 71.121L85.9714 71.121V71.121H86.6189ZM86.6189 71.1216H85.9714C85.9714 71.3526 86.0945 71.5661 86.2944 71.6819C86.4943 71.7977 86.7407 71.7982 86.941 71.6832L86.6189 71.1216ZM86.6194 71.1213L86.9431 70.5606C86.7434 70.4453 86.4973 70.445 86.2973 70.5597L86.6194 71.1213ZM131.297 96.9162L131.945 96.916C131.945 96.6847 131.821 96.4711 131.621 96.3555L131.297 96.9162ZM131.297 96.9283L130.65 96.9285C130.65 97.1598 130.773 97.3734 130.974 97.489C131.174 97.6047 131.421 97.6047 131.621 97.4891L131.297 96.9283ZM131.308 96.9223L131.631 96.3614C131.431 96.2459 131.185 96.2459 130.984 96.3615L131.308 96.9223ZM131.315 96.9266L130.992 97.4874C131.192 97.6029 131.439 97.6029 131.639 97.4873L131.315 96.9266ZM136.922 93.6893L137.246 94.2501C137.447 94.1344 137.57 93.9206 137.57 93.6893C137.57 93.458 137.446 93.2443 137.246 93.1286L136.922 93.6893ZM136.911 93.6825L136.263 93.6826C136.263 93.9139 136.387 94.1276 136.587 94.2432L136.911 93.6825ZM116.831 56.4229L116.51 55.8608C116.317 55.9711 116.194 56.1726 116.184 56.3947C116.174 56.6167 116.279 56.8282 116.462 56.9549L116.831 56.4229ZM116.851 56.4112L116.528 55.8505L116.527 55.8505L116.851 56.4112ZM117.048 56.2975L117.395 56.8442C117.693 56.6554 117.785 56.2634 117.602 55.9621C117.42 55.6608 117.03 55.5606 116.724 55.7368L117.048 56.2975ZM116.859 56.412L116.535 55.8514C116.226 56.0302 116.12 56.4262 116.298 56.7358C116.477 57.0454 116.873 57.1515 117.183 56.9727L116.859 56.412ZM122.466 53.1748L122.79 53.7355L122.79 53.7355L122.466 53.1748ZM125.738 45.9412H126.386C126.386 45.7099 126.262 45.4962 126.062 45.3805C125.862 45.2648 125.615 45.2648 125.415 45.3804L125.738 45.9412ZM114.239 52.9532C115.941 53.9356 117.591 54.4666 119.113 54.553L119.187 53.2602C117.91 53.1877 116.455 52.7368 114.887 51.8317L114.239 52.9532ZM114.884 52.9547L114.887 52.9531L114.239 51.8318L114.236 51.8334L114.884 52.9547ZM119.186 53.2602C117.909 53.1888 116.453 52.7384 114.884 51.8332L114.237 52.9548C115.94 53.9374 117.591 54.4679 119.114 54.5531L119.186 53.2602ZM118.503 53.9066C118.503 53.8632 118.507 53.8223 118.514 53.7845C118.521 53.747 118.531 53.7134 118.542 53.6841C118.553 53.6549 118.564 53.6296 118.575 53.6083C118.586 53.5871 118.597 53.569 118.607 53.5543C118.616 53.5396 118.625 53.5272 118.633 53.5175C118.64 53.5077 118.646 53.4997 118.651 53.4938C118.656 53.488 118.66 53.4834 118.662 53.4807C118.665 53.4782 118.666 53.4761 118.666 53.4765C118.666 53.4765 118.666 53.4765 118.666 53.4765C118.666 53.4765 118.666 53.4765 118.666 53.4765C118.666 53.4765 118.666 53.4765 118.666 53.4766C118.666 53.4766 118.666 53.4767 118.666 53.4768C118.666 53.4769 118.666 53.4772 118.665 53.4775C118.665 53.4782 118.664 53.4793 118.662 53.4807C118.66 53.4834 118.656 53.488 118.651 53.4938C118.646 53.4997 118.64 53.5077 118.633 53.5175C118.625 53.5272 118.616 53.5396 118.607 53.5543C118.597 53.569 118.586 53.5871 118.575 53.6083C118.564 53.6296 118.553 53.6549 118.542 53.6841C118.531 53.7134 118.521 53.747 118.514 53.7846C118.507 53.8223 118.503 53.8632 118.503 53.9067H119.797C119.797 53.9501 119.793 53.991 119.786 54.0287C119.779 54.0663 119.769 54.0999 119.758 54.1292C119.747 54.1584 119.736 54.1837 119.725 54.205C119.714 54.2262 119.703 54.2443 119.693 54.259C119.684 54.2737 119.675 54.2861 119.667 54.2958C119.66 54.3056 119.654 54.3136 119.649 54.3194C119.644 54.3253 119.64 54.3299 119.638 54.3326C119.636 54.335 119.634 54.3371 119.634 54.3368C119.634 54.3368 119.634 54.3368 119.634 54.3368C119.634 54.3368 119.634 54.3368 119.634 54.3368C119.634 54.3368 119.634 54.3367 119.634 54.3367C119.634 54.3367 119.634 54.3366 119.634 54.3365C119.634 54.3363 119.635 54.3361 119.635 54.3357C119.635 54.3351 119.636 54.334 119.638 54.3326C119.64 54.3299 119.644 54.3253 119.649 54.3194C119.654 54.3136 119.66 54.3055 119.667 54.2958C119.675 54.2861 119.684 54.2737 119.693 54.259C119.703 54.2442 119.714 54.2262 119.725 54.2049C119.736 54.1837 119.747 54.1584 119.758 54.1292C119.769 54.0999 119.779 54.0663 119.786 54.0287C119.793 53.991 119.798 53.9501 119.798 53.9066H118.503ZM126.384 45.9422C126.384 45.9422 126.384 45.9422 126.384 45.9422V45.9422C126.384 45.9422 126.384 45.9422 126.384 45.9422V45.9422C126.384 45.9422 126.384 45.9422 126.384 45.9422V45.9422C126.384 45.9422 126.384 45.9422 126.384 45.9422C126.384 45.9422 126.384 45.9422 126.384 45.9422V45.9422C126.384 45.9422 126.384 45.9422 126.384 45.9422V45.9422C126.384 45.9422 126.384 45.9422 126.384 45.9422C126.384 45.9422 126.384 45.9422 126.384 45.9422V45.9421C126.384 45.9421 126.384 45.9421 126.384 45.9421V45.9421C126.384 45.9421 126.384 45.9421 126.384 45.9421V45.9421C126.384 45.9421 126.384 45.9421 126.384 45.9421C126.384 45.9421 126.384 45.9421 126.384 45.9421V45.9421C126.384 45.9421 126.384 45.9421 126.384 45.9421V45.9421C126.384 45.9421 126.384 45.9421 126.384 45.9421C126.384 45.9421 126.384 45.9421 126.384 45.9421V45.9421C126.384 45.9421 126.384 45.9421 126.384 45.9421V45.9421C126.384 45.9421 126.384 45.9421 126.384 45.9421V45.9421C126.384 45.9421 126.384 45.9421 126.384 45.9421C126.384 45.9421 126.384 45.9421 126.384 45.9421V45.9421C126.384 45.9421 126.384 45.9421 126.384 45.9421V45.9421C126.384 45.9421 126.384 45.9421 126.384 45.9421C126.384 45.9421 126.384 45.9421 126.384 45.9421V45.9421C126.384 45.9421 126.384 45.9421 126.384 45.9421V45.9421C126.384 45.9421 126.384 45.9421 126.384 45.9421V45.9421C126.384 45.9421 126.384 45.9421 126.384 45.9421C126.384 45.9421 126.384 45.9421 126.384 45.9421V45.9421C126.384 45.9421 126.384 45.9421 126.384 45.9421V45.942C126.384 45.942 126.384 45.942 126.384 45.942V45.942C126.384 45.942 126.384 45.942 126.384 45.942C126.384 45.942 126.384 45.942 126.384 45.942V45.942C126.384 45.942 126.384 45.942 126.384 45.942V45.942C126.384 45.942 126.384 45.942 126.384 45.942C126.384 45.942 126.384 45.942 126.384 45.942V45.942C126.384 45.942 126.384 45.942 126.384 45.942V45.942C126.384 45.942 126.384 45.942 126.384 45.942V45.942C126.384 45.942 126.384 45.942 126.384 45.942C126.384 45.942 126.384 45.942 126.384 45.942V45.942C126.384 45.942 126.384 45.942 126.384 45.942V45.942C126.384 45.942 126.384 45.942 126.384 45.942C126.384 45.942 126.384 45.942 126.384 45.942V45.942C126.384 45.942 126.384 45.942 126.384 45.942V45.942C126.384 45.942 126.384 45.942 126.384 45.942V45.942C126.384 45.942 126.384 45.942 126.384 45.942C126.384 45.942 126.384 45.942 126.384 45.942V45.942C126.384 45.942 126.384 45.942 126.384 45.942V45.942C126.384 45.942 126.384 45.942 126.384 45.942V45.9419C126.384 45.9419 126.384 45.9419 126.384 45.9419C126.384 45.9419 126.384 45.9419 126.384 45.9419V45.9419C126.384 45.9419 126.384 45.9419 126.384 45.9419V45.9419C126.384 45.9419 126.384 45.9419 126.384 45.9419C126.384 45.9419 126.384 45.9419 126.384 45.9419V45.9419C126.384 45.9419 126.384 45.9419 126.384 45.9419V45.9419C126.384 45.9419 126.384 45.9419 126.384 45.9419V45.9419C126.384 45.9419 126.384 45.9419 126.384 45.9419C126.384 45.9419 126.384 45.9419 126.384 45.9419V45.9419C126.384 45.9419 126.384 45.9419 126.384 45.9419V45.9419C126.384 45.9419 126.384 45.9419 126.384 45.9419C126.384 45.9419 126.384 45.9419 126.384 45.9419V45.9419C126.384 45.9419 126.384 45.9419 126.384 45.9419V45.9419C126.384 45.9419 126.384 45.9419 126.384 45.9419V45.9419C126.384 45.9419 126.384 45.9419 126.384 45.9419C126.384 45.9419 126.384 45.9419 126.384 45.9419V45.9419C126.384 45.9419 126.384 45.9419 126.384 45.9419V45.9419C126.384 45.9419 126.384 45.9419 126.384 45.9419V45.9419C126.384 45.9419 126.384 45.9419 126.384 45.9419C126.384 45.9419 126.384 45.9419 126.384 45.9418V45.9418C126.384 45.9418 126.384 45.9418 126.384 45.9418V45.9418C126.384 45.9418 126.384 45.9418 126.384 45.9418C126.384 45.9418 126.384 45.9418 126.384 45.9418V45.9418C126.384 45.9418 126.384 45.9418 126.384 45.9418V45.9418C126.384 45.9418 126.384 45.9418 126.384 45.9418V45.9418C126.384 45.9418 126.384 45.9418 126.384 45.9418C126.384 45.9418 126.384 45.9418 126.384 45.9418V45.9418C126.384 45.9418 126.384 45.9418 126.384 45.9418V45.9418C126.384 45.9418 126.384 45.9418 126.384 45.9418C126.384 45.9418 126.384 45.9418 126.384 45.9418V45.9418C126.384 45.9418 126.384 45.9418 126.384 45.9418V45.9418C126.384 45.9418 126.384 45.9418 126.384 45.9418V45.9418C126.384 45.9418 126.384 45.9418 126.384 45.9418C126.384 45.9418 126.384 45.9418 126.384 45.9418V45.9418C126.384 45.9418 126.384 45.9418 126.384 45.9418V45.9418C126.384 45.9418 126.384 45.9418 126.384 45.9418V45.9418C126.384 45.9418 126.384 45.9418 126.384 45.9418C126.384 45.9418 126.384 45.9418 126.384 45.9418V45.9418C126.384 45.9418 126.384 45.9418 126.384 45.9417V45.9417C126.384 45.9417 126.384 45.9417 126.384 45.9417C126.384 45.9417 126.384 45.9417 126.384 45.9417V45.9417C126.384 45.9417 126.384 45.9417 126.384 45.9417V45.9417C126.384 45.9417 126.384 45.9417 126.384 45.9417V45.9417C126.384 45.9417 126.384 45.9417 126.384 45.9417C126.384 45.9417 126.384 45.9417 126.384 45.9417V45.9417C126.384 45.9417 126.384 45.9417 126.384 45.9417V45.9417C126.384 45.9417 126.384 45.9417 126.384 45.9417V45.9417C126.384 45.9417 126.384 45.9417 126.384 45.9417C126.384 45.9417 126.384 45.9417 126.384 45.9417V45.9417C126.384 45.9417 126.384 45.9417 126.384 45.9417V45.9417C126.384 45.9417 126.384 45.9417 126.384 45.9417C126.384 45.9417 126.384 45.9417 126.384 45.9417V45.9417C126.384 45.9417 126.384 45.9417 126.384 45.9417V45.9417C126.384 45.9417 126.384 45.9417 126.384 45.9417V45.9417C126.384 45.9417 126.384 45.9417 126.384 45.9417C126.384 45.9417 126.384 45.9417 126.384 45.9417V45.9417C126.384 45.9417 126.384 45.9417 126.384 45.9417V45.9417C126.384 45.9417 126.384 45.9417 126.384 45.9417V45.9416C126.384 45.9416 126.384 45.9416 126.384 45.9416C126.384 45.9416 126.384 45.9416 126.384 45.9416V45.9416C126.384 45.9416 126.384 45.9416 126.384 45.9416V45.9416C126.384 45.9416 126.384 45.9416 126.384 45.9416C126.384 45.9416 126.384 45.9416 126.384 45.9416V45.9416C126.384 45.9416 126.384 45.9416 126.384 45.9416V45.9416C126.384 45.9416 126.384 45.9416 126.384 45.9416V45.9416C126.384 45.9416 126.384 45.9416 126.384 45.9416C126.384 45.9416 126.384 45.9416 126.384 45.9416V45.9416C126.384 45.9416 126.384 45.9416 126.384 45.9416V45.9416C126.384 45.9416 126.384 45.9416 126.384 45.9416V45.9416C126.384 45.9416 126.384 45.9416 126.384 45.9416C126.384 45.9416 126.384 45.9416 126.384 45.9416V45.9416C126.384 45.9416 126.384 45.9416 126.384 45.9416V45.9416C126.384 45.9416 126.384 45.9416 126.384 45.9416C126.384 45.9416 126.384 45.9416 126.384 45.9416V45.9416C126.384 45.9416 126.384 45.9416 126.384 45.9416V45.9416C126.384 45.9416 126.384 45.9416 126.384 45.9416V45.9416C126.384 45.9416 126.384 45.9416 126.384 45.9416C126.384 45.9415 126.384 45.9415 126.384 45.9415V45.9415C126.384 45.9415 126.384 45.9415 126.384 45.9415V45.9415C126.384 45.9415 126.384 45.9415 126.384 45.9415V45.9415C126.384 45.9415 126.384 45.9415 126.384 45.9415C126.384 45.9415 126.384 45.9415 126.384 45.9415V45.9415C126.384 45.9415 126.384 45.9415 126.384 45.9415V45.9415C126.384 45.9415 126.384 45.9415 126.384 45.9415C126.384 45.9415 126.384 45.9415 126.384 45.9415V45.9415C126.384 45.9415 126.384 45.9415 126.384 45.9415V45.9415C126.384 45.9415 126.384 45.9415 126.384 45.9415V45.9415C126.384 45.9415 126.384 45.9415 126.384 45.9415C126.384 45.9415 126.384 45.9415 126.384 45.9415V45.9415C126.384 45.9415 126.384 45.9415 126.384 45.9415V45.9415C126.384 45.9415 126.384 45.9415 126.384 45.9415V45.9415C126.384 45.9415 126.384 45.9415 126.384 45.9415C126.384 45.9415 126.384 45.9415 126.384 45.9415V45.9415C126.384 45.9415 126.384 45.9415 126.384 45.9415V45.9415C126.384 45.9415 126.384 45.9415 126.384 45.9415C126.384 45.9415 126.384 45.9415 126.384 45.9415V45.9415C126.384 45.9415 126.384 45.9415 126.384 45.9414V45.9414C126.384 45.9414 126.384 45.9414 126.384 45.9414V45.9414C126.384 45.9414 126.384 45.9414 126.384 45.9414C126.384 45.9414 126.384 45.9414 126.384 45.9414V45.9414C126.384 45.9414 126.384 45.9414 126.384 45.9414V45.9414C126.384 45.9414 126.384 45.9414 126.384 45.9414C126.384 45.9414 126.384 45.9414 126.384 45.9414V45.9414C126.384 45.9414 126.384 45.9414 126.384 45.9414V45.9414C126.384 45.9414 126.384 45.9414 126.384 45.9414V45.9414C126.384 45.9414 126.384 45.9414 126.384 45.9414C126.384 45.9414 126.384 45.9414 126.384 45.9414V45.9414C126.384 45.9414 126.384 45.9414 126.384 45.9414V45.9414C126.384 45.9414 126.384 45.9414 126.384 45.9414V45.9414C126.384 45.9414 126.384 45.9414 126.384 45.9414C126.384 45.9414 126.384 45.9414 126.384 45.9414V45.9414C126.384 45.9414 126.384 45.9414 126.384 45.9414V45.9414C126.384 45.9414 126.384 45.9414 126.384 45.9414C126.384 45.9414 126.384 45.9414 126.384 45.9414V45.9414C126.384 45.9414 126.384 45.9414 126.384 45.9414V45.9414C126.384 45.9414 126.384 45.9414 126.384 45.9413V45.9413C126.384 45.9413 126.384 45.9413 126.384 45.9413C126.384 45.9413 126.384 45.9413 126.384 45.9413V45.9413C126.384 45.9413 126.384 45.9413 126.384 45.9413V45.9413C126.384 45.9413 126.384 45.9413 126.384 45.9413V45.9413C126.384 45.9413 126.384 45.9413 126.384 45.9413C126.384 45.9413 126.384 45.9413 126.384 45.9413V45.9413C126.384 45.9413 126.384 45.9413 126.384 45.9413V45.9413C126.384 45.9413 126.384 45.9413 126.384 45.9413C126.384 45.9413 126.384 45.9413 126.384 45.9413V45.9413C126.384 45.9413 126.384 45.9413 126.384 45.9413V45.9413C126.384 45.9413 126.384 45.9413 126.384 45.9413V45.9413C126.384 45.9413 126.384 45.9413 126.384 45.9413C126.384 45.9413 126.384 45.9413 126.384 45.9413V45.9413C126.384 45.9413 126.384 45.9413 126.384 45.9413V45.9413C126.384 45.9413 126.384 45.9413 126.384 45.9413V45.9413C126.384 45.9413 126.384 45.9413 126.384 45.9413C126.384 45.9413 126.384 45.9413 126.384 45.9413V45.9413C126.384 45.9413 126.384 45.9413 126.384 45.9413V45.9413C126.384 45.9413 126.384 45.9413 126.384 45.9412C126.384 45.9412 126.384 45.9412 126.384 45.9412V45.9412C126.384 45.9412 126.384 45.9412 126.384 45.9412V45.9412C126.384 45.9412 126.384 45.9412 126.384 45.9412V45.9412C126.384 45.9412 126.384 45.9412 126.384 45.9412C126.384 45.9412 126.384 45.9412 126.384 45.9412V45.9412C126.384 45.9412 126.384 45.9412 126.384 45.9412V45.9412C126.384 45.9412 126.384 45.9412 126.384 45.9412V45.9412C126.384 45.9412 126.384 45.9412 126.384 45.9412C126.384 45.9412 126.384 45.9412 126.384 45.9412V45.9412C126.384 45.9412 126.384 45.9412 126.384 45.9412V45.9412C126.384 45.9412 126.384 45.9412 126.384 45.9412C126.384 45.9412 126.384 45.9412 126.384 45.9412V45.9412C126.384 45.9412 126.384 45.9412 126.384 45.9412V45.9412C126.384 45.9412 126.384 45.9412 126.384 45.9412V45.9412C126.384 45.9412 126.384 45.9412 126.384 45.9412C126.384 45.9412 126.384 45.9412 126.384 45.9412V45.9412C126.384 45.9412 126.384 45.9412 126.384 45.9412V45.9412C126.384 45.9412 126.384 45.9412 126.384 45.9412V45.9412C126.384 45.9412 126.384 45.9412 126.384 45.9412C126.384 45.9411 126.384 45.9411 126.384 45.9411V45.9411C126.384 45.9411 126.384 45.9411 126.384 45.9411V45.9411C126.384 45.9411 126.384 45.9411 126.384 45.9411C126.384 45.9411 126.384 45.9411 126.384 45.9411V45.9411C126.384 45.9411 126.384 45.9411 126.384 45.9411V45.9411C126.384 45.9411 126.384 45.9411 126.384 45.9411V45.9411C126.384 45.9411 126.384 45.9411 126.384 45.9411C126.384 45.9411 126.384 45.9411 126.384 45.9411V45.9411C126.384 45.9411 126.384 45.9411 126.384 45.9411V45.9411C126.384 45.9411 126.384 45.9411 126.384 45.9411V45.9411C126.384 45.9411 126.384 45.9411 126.384 45.9411C126.384 45.9411 126.384 45.9411 126.384 45.9411V45.9411C126.384 45.9411 126.384 45.9411 126.384 45.9411V45.9411C126.384 45.9411 126.384 45.9411 126.384 45.9411C126.384 45.9411 126.384 45.9411 126.384 45.9411V45.9411C126.384 45.9411 126.384 45.9411 126.384 45.9411V45.9411C126.384 45.9411 126.384 45.9411 126.384 45.9411V45.9411C126.384 45.9411 126.384 45.9411 126.384 45.9411C126.384 45.9411 126.384 45.9411 126.384 45.9411V45.9411C126.384 45.941 126.384 45.941 126.384 45.941V45.941C126.384 45.941 126.384 45.941 126.384 45.941V45.941C126.384 45.941 126.384 45.941 126.384 45.941C126.384 45.941 126.384 45.941 126.384 45.941V45.941C126.384 45.941 126.384 45.941 126.384 45.941V45.941C126.384 45.941 126.384 45.941 126.384 45.941C126.384 45.941 126.384 45.941 126.384 45.941V45.941C126.384 45.941 126.384 45.941 126.384 45.941V45.941C126.384 45.941 126.384 45.941 126.384 45.941V45.941C126.384 45.941 126.384 45.941 126.384 45.941C126.384 45.941 126.384 45.941 126.384 45.941V45.941C126.384 45.941 126.384 45.941 126.384 45.941V45.941C126.384 45.941 126.384 45.941 126.384 45.941C126.384 45.941 126.384 45.941 126.384 45.941V45.941C126.384 45.941 126.384 45.941 126.384 45.941V45.941C126.384 45.941 126.384 45.941 126.384 45.941V45.941C126.384 45.941 126.384 45.941 126.384 45.941C126.384 45.941 126.384 45.941 126.384 45.941V45.941C126.384 45.941 126.384 45.941 126.384 45.941V45.941C126.384 45.941 126.384 45.941 126.384 45.9409V45.9409C126.384 45.9409 126.384 45.9409 126.384 45.9409C126.384 45.9409 126.384 45.9409 126.384 45.9409V45.9409C126.384 45.9409 126.384 45.9409 126.384 45.9409V45.9409C126.384 45.9409 126.384 45.9409 126.384 45.9409C126.384 45.9409 126.384 45.9409 126.384 45.9409V45.9409C126.384 45.9409 126.384 45.9409 126.384 45.9409V45.9409C126.384 45.9409 126.384 45.9409 126.384 45.9409V45.9409C126.384 45.9409 126.384 45.9409 126.384 45.9409C126.384 45.9409 126.384 45.9409 126.384 45.9409V45.9409C126.384 45.9409 126.384 45.9409 126.384 45.9409V45.9409C126.384 45.9409 126.384 45.9409 126.384 45.9409C126.384 45.9409 126.384 45.9409 126.384 45.9409V45.9409C126.384 45.9409 126.384 45.9409 126.384 45.9409V45.9409C126.384 45.9409 126.384 45.9409 126.384 45.9409V45.9409C126.384 45.9409 126.384 45.9409 126.384 45.9409C126.384 45.9409 126.384 45.9409 126.384 45.9409V45.9409C126.384 45.9409 126.384 45.9409 126.384 45.9409V45.9409C126.384 45.9409 126.384 45.9409 126.384 45.9409V45.9409C126.384 45.9409 126.384 45.9408 126.384 45.9408C126.384 45.9408 126.384 45.9408 126.384 45.9408V45.9408C126.384 45.9408 126.384 45.9408 126.384 45.9408V45.9408C126.384 45.9408 126.384 45.9408 126.384 45.9408C126.384 45.9408 126.384 45.9408 126.384 45.9408V45.9408C126.384 45.9408 126.384 45.9408 126.384 45.9408V45.9408C126.384 45.9408 126.384 45.9408 126.384 45.9408V45.9408C126.384 45.9408 126.384 45.9408 126.384 45.9408C126.384 45.9408 126.384 45.9408 126.384 45.9408V45.9408C126.384 45.9408 126.384 45.9408 126.384 45.9408V45.9408C126.384 45.9408 126.384 45.9408 126.384 45.9408C126.384 45.9408 126.384 45.9408 126.384 45.9408V45.9408C126.384 45.9408 126.384 45.9408 126.384 45.9408V45.9408C126.384 45.9408 126.384 45.9408 126.384 45.9408V45.9408C126.384 45.9408 126.384 45.9408 126.384 45.9408C126.384 45.9408 126.384 45.9408 126.384 45.9408V45.9408C126.384 45.9408 126.384 45.9408 126.384 45.9408V45.9408C126.384 45.9408 126.384 45.9408 126.384 45.9408V45.9408C126.384 45.9408 126.384 45.9408 126.384 45.9408C126.384 45.9408 126.384 45.9408 126.384 45.9408V45.9408C126.384 45.9407 126.384 45.9407 126.384 45.9407V45.9407C126.384 45.9407 126.384 45.9407 126.384 45.9407C126.384 45.9407 126.384 45.9407 126.384 45.9407V45.9407C126.384 45.9407 126.384 45.9407 126.384 45.9407V45.9407C126.384 45.9407 126.384 45.9407 126.384 45.9407V45.9407C126.384 45.9407 126.384 45.9407 126.384 45.9407C126.384 45.9407 126.384 45.9407 126.384 45.9407V45.9407C126.384 45.9407 126.384 45.9407 126.384 45.9407V45.9407C126.384 45.9407 126.384 45.9407 126.384 45.9407C126.384 45.9407 126.384 45.9407 126.384 45.9407V45.9407C126.384 45.9407 126.384 45.9407 126.384 45.9407V45.9407C126.384 45.9407 126.384 45.9407 126.384 45.9407V45.9407C126.384 45.9407 126.384 45.9407 126.384 45.9407C126.384 45.9407 126.384 45.9407 126.384 45.9407V45.9407C126.384 45.9407 126.384 45.9407 126.384 45.9407V45.9407C126.384 45.9407 126.384 45.9407 126.384 45.9407C126.384 45.9407 126.384 45.9407 126.384 45.9407V45.9407C126.384 45.9407 126.384 45.9407 126.384 45.9407V45.9407C126.384 45.9407 126.384 45.9407 126.384 45.9407V45.9407C126.384 45.9406 126.384 45.9406 126.384 45.9406H125.089C125.089 45.9406 125.089 45.9406 125.089 45.9407V45.9407C125.089 45.9407 125.089 45.9407 125.089 45.9407V45.9407C125.089 45.9407 125.089 45.9407 125.089 45.9407V45.9407C125.089 45.9407 125.089 45.9407 125.089 45.9407C125.089 45.9407 125.089 45.9407 125.089 45.9407V45.9407C125.089 45.9407 125.089 45.9407 125.089 45.9407V45.9407C125.089 45.9407 125.089 45.9407 125.089 45.9407C125.089 45.9407 125.089 45.9407 125.089 45.9407V45.9407C125.089 45.9407 125.089 45.9407 125.089 45.9407V45.9407C125.089 45.9407 125.089 45.9407 125.089 45.9407V45.9407C125.089 45.9407 125.089 45.9407 125.089 45.9407C125.089 45.9407 125.089 45.9407 125.089 45.9407V45.9407C125.089 45.9407 125.089 45.9407 125.089 45.9407V45.9407C125.089 45.9407 125.089 45.9407 125.089 45.9407C125.089 45.9407 125.089 45.9407 125.089 45.9407V45.9407C125.089 45.9407 125.089 45.9407 125.089 45.9407V45.9407C125.089 45.9407 125.089 45.9407 125.089 45.9407V45.9407C125.089 45.9407 125.089 45.9407 125.089 45.9407C125.089 45.9407 125.089 45.9407 125.089 45.9407V45.9407C125.089 45.9407 125.089 45.9407 125.089 45.9408V45.9408C125.089 45.9408 125.089 45.9408 125.089 45.9408C125.089 45.9408 125.089 45.9408 125.089 45.9408V45.9408C125.089 45.9408 125.089 45.9408 125.089 45.9408V45.9408C125.089 45.9408 125.089 45.9408 125.089 45.9408V45.9408C125.089 45.9408 125.089 45.9408 125.089 45.9408C125.089 45.9408 125.089 45.9408 125.089 45.9408V45.9408C125.089 45.9408 125.089 45.9408 125.089 45.9408V45.9408C125.089 45.9408 125.089 45.9408 125.089 45.9408V45.9408C125.089 45.9408 125.089 45.9408 125.089 45.9408C125.089 45.9408 125.089 45.9408 125.089 45.9408V45.9408C125.089 45.9408 125.089 45.9408 125.089 45.9408V45.9408C125.089 45.9408 125.089 45.9408 125.089 45.9408C125.089 45.9408 125.089 45.9408 125.089 45.9408V45.9408C125.089 45.9408 125.089 45.9408 125.089 45.9408V45.9408C125.089 45.9408 125.089 45.9408 125.089 45.9408V45.9408C125.089 45.9408 125.089 45.9408 125.089 45.9408C125.089 45.9408 125.089 45.9408 125.089 45.9408V45.9408C125.089 45.9408 125.089 45.9408 125.089 45.9408V45.9408C125.089 45.9408 125.089 45.9408 125.089 45.9408C125.089 45.9408 125.089 45.9409 125.089 45.9409V45.9409C125.089 45.9409 125.089 45.9409 125.089 45.9409V45.9409C125.089 45.9409 125.089 45.9409 125.089 45.9409V45.9409C125.089 45.9409 125.089 45.9409 125.089 45.9409C125.089 45.9409 125.089 45.9409 125.089 45.9409V45.9409C125.089 45.9409 125.089 45.9409 125.089 45.9409V45.9409C125.089 45.9409 125.089 45.9409 125.089 45.9409V45.9409C125.089 45.9409 125.089 45.9409 125.089 45.9409C125.089 45.9409 125.089 45.9409 125.089 45.9409V45.9409C125.089 45.9409 125.089 45.9409 125.089 45.9409V45.9409C125.089 45.9409 125.089 45.9409 125.089 45.9409C125.089 45.9409 125.089 45.9409 125.089 45.9409V45.9409C125.089 45.9409 125.089 45.9409 125.089 45.9409V45.9409C125.089 45.9409 125.089 45.9409 125.089 45.9409V45.9409C125.089 45.9409 125.089 45.9409 125.089 45.9409C125.089 45.9409 125.089 45.9409 125.089 45.9409V45.9409C125.089 45.9409 125.089 45.9409 125.089 45.9409V45.9409C125.089 45.9409 125.089 45.9409 125.089 45.9409C125.089 45.9409 125.089 45.9409 125.089 45.9409V45.9409C125.089 45.941 125.089 45.941 125.089 45.941V45.941C125.089 45.941 125.089 45.941 125.089 45.941V45.941C125.089 45.941 125.089 45.941 125.089 45.941C125.089 45.941 125.089 45.941 125.089 45.941V45.941C125.089 45.941 125.089 45.941 125.089 45.941V45.941C125.089 45.941 125.089 45.941 125.089 45.941V45.941C125.089 45.941 125.089 45.941 125.089 45.941C125.089 45.941 125.089 45.941 125.089 45.941V45.941C125.089 45.941 125.089 45.941 125.089 45.941V45.941C125.089 45.941 125.089 45.941 125.089 45.941C125.089 45.941 125.089 45.941 125.089 45.941V45.941C125.089 45.941 125.089 45.941 125.089 45.941V45.941C125.089 45.941 125.089 45.941 125.089 45.941V45.941C125.089 45.941 125.089 45.941 125.089 45.941C125.089 45.941 125.089 45.941 125.089 45.941V45.941C125.089 45.941 125.089 45.941 125.089 45.941V45.941C125.089 45.941 125.089 45.941 125.089 45.941C125.089 45.941 125.089 45.941 125.089 45.941V45.941C125.089 45.941 125.089 45.941 125.089 45.941V45.941C125.089 45.941 125.089 45.941 125.089 45.9411V45.9411C125.089 45.9411 125.089 45.9411 125.089 45.9411C125.089 45.9411 125.089 45.9411 125.089 45.9411V45.9411C125.089 45.9411 125.089 45.9411 125.089 45.9411V45.9411C125.089 45.9411 125.089 45.9411 125.089 45.9411V45.9411C125.089 45.9411 125.089 45.9411 125.089 45.9411C125.089 45.9411 125.089 45.9411 125.089 45.9411V45.9411C125.089 45.9411 125.089 45.9411 125.089 45.9411V45.9411C125.089 45.9411 125.089 45.9411 125.089 45.9411C125.089 45.9411 125.089 45.9411 125.089 45.9411V45.9411C125.089 45.9411 125.089 45.9411 125.089 45.9411V45.9411C125.089 45.9411 125.089 45.9411 125.089 45.9411V45.9411C125.089 45.9411 125.089 45.9411 125.089 45.9411C125.089 45.9411 125.089 45.9411 125.089 45.9411V45.9411C125.089 45.9411 125.089 45.9411 125.089 45.9411V45.9411C125.089 45.9411 125.089 45.9411 125.089 45.9411V45.9411C125.089 45.9411 125.089 45.9411 125.089 45.9411C125.089 45.9411 125.089 45.9411 125.089 45.9411V45.9411C125.089 45.9411 125.089 45.9411 125.089 45.9411V45.9411C125.089 45.9411 125.089 45.9411 125.089 45.9412C125.089 45.9412 125.089 45.9412 125.089 45.9412V45.9412C125.089 45.9412 125.089 45.9412 125.089 45.9412V45.9412C125.089 45.9412 125.089 45.9412 125.089 45.9412V45.9412C125.089 45.9412 125.089 45.9412 125.089 45.9412C125.089 45.9412 125.089 45.9412 125.089 45.9412V45.9412C125.089 45.9412 125.089 45.9412 125.089 45.9412V45.9412C125.089 45.9412 125.089 45.9412 125.089 45.9412V45.9412C125.089 45.9412 125.089 45.9412 125.089 45.9412C125.089 45.9412 125.089 45.9412 125.089 45.9412V45.9412C125.089 45.9412 125.089 45.9412 125.089 45.9412V45.9412C125.089 45.9412 125.089 45.9412 125.089 45.9412C125.089 45.9412 125.089 45.9412 125.089 45.9412V45.9412C125.089 45.9412 125.089 45.9412 125.089 45.9412V45.9412C125.089 45.9412 125.089 45.9412 125.089 45.9412V45.9412C125.089 45.9412 125.089 45.9412 125.089 45.9412C125.089 45.9412 125.089 45.9412 125.089 45.9412V45.9412C125.089 45.9412 125.089 45.9412 125.089 45.9412V45.9412C125.089 45.9412 125.089 45.9412 125.089 45.9412V45.9412C125.089 45.9412 125.089 45.9412 125.089 45.9412C125.089 45.9413 125.089 45.9413 125.089 45.9413V45.9413C125.089 45.9413 125.089 45.9413 125.089 45.9413V45.9413C125.089 45.9413 125.089 45.9413 125.089 45.9413C125.089 45.9413 125.089 45.9413 125.089 45.9413V45.9413C125.089 45.9413 125.089 45.9413 125.089 45.9413V45.9413C125.089 45.9413 125.089 45.9413 125.089 45.9413V45.9413C125.089 45.9413 125.089 45.9413 125.089 45.9413C125.089 45.9413 125.089 45.9413 125.089 45.9413V45.9413C125.089 45.9413 125.089 45.9413 125.089 45.9413V45.9413C125.089 45.9413 125.089 45.9413 125.089 45.9413V45.9413C125.089 45.9413 125.089 45.9413 125.089 45.9413C125.089 45.9413 125.089 45.9413 125.089 45.9413V45.9413C125.089 45.9413 125.089 45.9413 125.089 45.9413V45.9413C125.089 45.9413 125.089 45.9413 125.089 45.9413C125.089 45.9413 125.089 45.9413 125.089 45.9413V45.9413C125.089 45.9413 125.089 45.9413 125.089 45.9413V45.9413C125.089 45.9413 125.089 45.9413 125.089 45.9413V45.9413C125.089 45.9413 125.089 45.9413 125.089 45.9413C125.089 45.9413 125.089 45.9413 125.089 45.9413V45.9413C125.089 45.9414 125.089 45.9414 125.089 45.9414V45.9414C125.089 45.9414 125.089 45.9414 125.089 45.9414V45.9414C125.089 45.9414 125.089 45.9414 125.089 45.9414C125.089 45.9414 125.089 45.9414 125.089 45.9414V45.9414C125.089 45.9414 125.089 45.9414 125.089 45.9414V45.9414C125.089 45.9414 125.089 45.9414 125.089 45.9414C125.089 45.9414 125.089 45.9414 125.089 45.9414V45.9414C125.089 45.9414 125.089 45.9414 125.089 45.9414V45.9414C125.089 45.9414 125.089 45.9414 125.089 45.9414V45.9414C125.089 45.9414 125.089 45.9414 125.089 45.9414C125.089 45.9414 125.089 45.9414 125.089 45.9414V45.9414C125.089 45.9414 125.089 45.9414 125.089 45.9414V45.9414C125.089 45.9414 125.089 45.9414 125.089 45.9414V45.9414C125.089 45.9414 125.089 45.9414 125.089 45.9414C125.089 45.9414 125.089 45.9414 125.089 45.9414V45.9414C125.089 45.9414 125.089 45.9414 125.089 45.9414V45.9414C125.089 45.9414 125.089 45.9414 125.089 45.9414C125.089 45.9414 125.089 45.9414 125.089 45.9414V45.9414C125.089 45.9414 125.089 45.9414 125.089 45.9414V45.9414C125.089 45.9415 125.089 45.9415 125.089 45.9415V45.9415C125.089 45.9415 125.089 45.9415 125.089 45.9415C125.089 45.9415 125.089 45.9415 125.089 45.9415V45.9415C125.089 45.9415 125.089 45.9415 125.089 45.9415V45.9415C125.089 45.9415 125.089 45.9415 125.089 45.9415C125.089 45.9415 125.089 45.9415 125.089 45.9415V45.9415C125.089 45.9415 125.089 45.9415 125.089 45.9415V45.9415C125.089 45.9415 125.089 45.9415 125.089 45.9415V45.9415C125.089 45.9415 125.089 45.9415 125.089 45.9415C125.089 45.9415 125.089 45.9415 125.089 45.9415V45.9415C125.089 45.9415 125.089 45.9415 125.089 45.9415V45.9415C125.089 45.9415 125.089 45.9415 125.089 45.9415V45.9415C125.089 45.9415 125.089 45.9415 125.089 45.9415C125.089 45.9415 125.089 45.9415 125.089 45.9415V45.9415C125.089 45.9415 125.089 45.9415 125.089 45.9415V45.9415C125.089 45.9415 125.089 45.9415 125.089 45.9415C125.089 45.9415 125.089 45.9415 125.089 45.9415V45.9415C125.089 45.9415 125.089 45.9415 125.089 45.9415V45.9415C125.089 45.9415 125.089 45.9415 125.089 45.9415V45.9415C125.089 45.9415 125.089 45.9415 125.089 45.9416C125.089 45.9416 125.089 45.9416 125.089 45.9416V45.9416C125.089 45.9416 125.089 45.9416 125.089 45.9416V45.9416C125.089 45.9416 125.089 45.9416 125.089 45.9416V45.9416C125.089 45.9416 125.089 45.9416 125.089 45.9416C125.089 45.9416 125.089 45.9416 125.089 45.9416V45.9416C125.089 45.9416 125.089 45.9416 125.089 45.9416V45.9416C125.089 45.9416 125.089 45.9416 125.089 45.9416C125.089 45.9416 125.089 45.9416 125.089 45.9416V45.9416C125.089 45.9416 125.089 45.9416 125.089 45.9416V45.9416C125.089 45.9416 125.089 45.9416 125.089 45.9416V45.9416C125.089 45.9416 125.089 45.9416 125.089 45.9416C125.089 45.9416 125.089 45.9416 125.089 45.9416V45.9416C125.089 45.9416 125.089 45.9416 125.089 45.9416V45.9416C125.089 45.9416 125.089 45.9416 125.089 45.9416V45.9416C125.089 45.9416 125.089 45.9416 125.089 45.9416C125.089 45.9416 125.089 45.9416 125.089 45.9416V45.9416C125.089 45.9416 125.089 45.9416 125.089 45.9416V45.9416C125.089 45.9416 125.089 45.9416 125.089 45.9416C125.089 45.9416 125.089 45.9416 125.089 45.9416V45.9417C125.089 45.9417 125.089 45.9417 125.089 45.9417V45.9417C125.089 45.9417 125.089 45.9417 125.089 45.9417V45.9417C125.089 45.9417 125.089 45.9417 125.089 45.9417C125.089 45.9417 125.089 45.9417 125.089 45.9417V45.9417C125.089 45.9417 125.089 45.9417 125.089 45.9417V45.9417C125.089 45.9417 125.089 45.9417 125.089 45.9417V45.9417C125.089 45.9417 125.089 45.9417 125.089 45.9417C125.089 45.9417 125.089 45.9417 125.089 45.9417V45.9417C125.089 45.9417 125.089 45.9417 125.089 45.9417V45.9417C125.089 45.9417 125.089 45.9417 125.089 45.9417C125.089 45.9417 125.089 45.9417 125.089 45.9417V45.9417C125.089 45.9417 125.089 45.9417 125.089 45.9417V45.9417C125.089 45.9417 125.089 45.9417 125.089 45.9417V45.9417C125.089 45.9417 125.089 45.9417 125.089 45.9417C125.089 45.9417 125.089 45.9417 125.089 45.9417V45.9417C125.089 45.9417 125.089 45.9417 125.089 45.9417V45.9417C125.089 45.9417 125.089 45.9417 125.089 45.9417V45.9417C125.089 45.9417 125.089 45.9417 125.089 45.9417C125.089 45.9417 125.089 45.9417 125.089 45.9417V45.9417C125.089 45.9418 125.089 45.9418 125.089 45.9418V45.9418C125.089 45.9418 125.089 45.9418 125.089 45.9418C125.089 45.9418 125.089 45.9418 125.089 45.9418V45.9418C125.089 45.9418 125.089 45.9418 125.089 45.9418V45.9418C125.089 45.9418 125.089 45.9418 125.089 45.9418V45.9418C125.089 45.9418 125.089 45.9418 125.089 45.9418C125.089 45.9418 125.089 45.9418 125.089 45.9418V45.9418C125.089 45.9418 125.089 45.9418 125.089 45.9418V45.9418C125.089 45.9418 125.089 45.9418 125.089 45.9418V45.9418C125.089 45.9418 125.089 45.9418 125.089 45.9418C125.089 45.9418 125.089 45.9418 125.089 45.9418V45.9418C125.089 45.9418 125.089 45.9418 125.089 45.9418V45.9418C125.089 45.9418 125.089 45.9418 125.089 45.9418C125.089 45.9418 125.089 45.9418 125.089 45.9418V45.9418C125.089 45.9418 125.089 45.9418 125.089 45.9418V45.9418C125.089 45.9418 125.089 45.9418 125.089 45.9418V45.9418C125.089 45.9418 125.089 45.9418 125.089 45.9418C125.089 45.9418 125.089 45.9418 125.089 45.9418V45.9418C125.089 45.9418 125.089 45.9418 125.089 45.9418V45.9418C125.089 45.9419 125.089 45.9419 125.089 45.9419C125.089 45.9419 125.089 45.9419 125.089 45.9419V45.9419C125.089 45.9419 125.089 45.9419 125.089 45.9419V45.9419C125.089 45.9419 125.089 45.9419 125.089 45.9419V45.9419C125.089 45.9419 125.089 45.9419 125.089 45.9419C125.089 45.9419 125.089 45.9419 125.089 45.9419V45.9419C125.089 45.9419 125.089 45.9419 125.089 45.9419V45.9419C125.089 45.9419 125.089 45.9419 125.089 45.9419V45.9419C125.089 45.9419 125.089 45.9419 125.089 45.9419C125.089 45.9419 125.089 45.9419 125.089 45.9419V45.9419C125.089 45.9419 125.089 45.9419 125.089 45.9419V45.9419C125.089 45.9419 125.089 45.9419 125.089 45.9419C125.089 45.9419 125.089 45.9419 125.089 45.9419V45.9419C125.089 45.9419 125.089 45.9419 125.089 45.9419V45.9419C125.089 45.9419 125.089 45.9419 125.089 45.9419V45.9419C125.089 45.9419 125.089 45.9419 125.089 45.9419C125.089 45.9419 125.089 45.9419 125.089 45.9419V45.9419C125.089 45.9419 125.089 45.9419 125.089 45.9419V45.9419C125.089 45.9419 125.089 45.9419 125.089 45.9419C125.089 45.9419 125.089 45.9419 125.089 45.9419V45.942C125.089 45.942 125.089 45.942 125.089 45.942V45.942C125.089 45.942 125.089 45.942 125.089 45.942V45.942C125.089 45.942 125.089 45.942 125.089 45.942C125.089 45.942 125.089 45.942 125.089 45.942V45.942C125.089 45.942 125.089 45.942 125.089 45.942V45.942C125.089 45.942 125.089 45.942 125.089 45.942V45.942C125.089 45.942 125.089 45.942 125.089 45.942C125.089 45.942 125.089 45.942 125.089 45.942V45.942C125.089 45.942 125.089 45.942 125.089 45.942V45.942C125.089 45.942 125.089 45.942 125.089 45.942C125.089 45.942 125.089 45.942 125.089 45.942V45.942C125.089 45.942 125.089 45.942 125.089 45.942V45.942C125.089 45.942 125.089 45.942 125.089 45.942V45.942C125.089 45.942 125.089 45.942 125.089 45.942C125.089 45.942 125.089 45.942 125.089 45.942V45.942C125.089 45.942 125.089 45.942 125.089 45.942V45.942C125.089 45.942 125.089 45.942 125.089 45.942C125.089 45.942 125.089 45.942 125.089 45.942V45.942C125.089 45.942 125.089 45.942 125.089 45.942V45.9421C125.089 45.9421 125.089 45.9421 125.089 45.9421V45.9421C125.089 45.9421 125.089 45.9421 125.089 45.9421C125.089 45.9421 125.089 45.9421 125.089 45.9421V45.9421C125.089 45.9421 125.089 45.9421 125.089 45.9421V45.9421C125.089 45.9421 125.089 45.9421 125.089 45.9421V45.9421C125.089 45.9421 125.089 45.9421 125.089 45.9421C125.089 45.9421 125.089 45.9421 125.089 45.9421V45.9421C125.089 45.9421 125.089 45.9421 125.089 45.9421V45.9421C125.089 45.9421 125.089 45.9421 125.089 45.9421C125.089 45.9421 125.089 45.9421 125.089 45.9421V45.9421C125.089 45.9421 125.089 45.9421 125.089 45.9421V45.9421C125.089 45.9421 125.089 45.9421 125.089 45.9421V45.9421C125.089 45.9421 125.089 45.9421 125.089 45.9421C125.089 45.9421 125.089 45.9421 125.089 45.9421V45.9421C125.089 45.9421 125.089 45.9421 125.089 45.9421V45.9421C125.089 45.9421 125.089 45.9421 125.089 45.9421C125.089 45.9421 125.089 45.9421 125.089 45.9421V45.9421C125.089 45.9421 125.089 45.9421 125.089 45.9421V45.9421C125.089 45.9421 125.089 45.9421 125.089 45.9421V45.9422C125.089 45.9422 125.089 45.9422 125.089 45.9422C125.089 45.9422 125.089 45.9422 125.089 45.9422V45.9422C125.089 45.9422 125.089 45.9422 125.089 45.9422V45.9422C125.089 45.9422 125.089 45.9422 125.089 45.9422C125.089 45.9422 125.089 45.9422 125.089 45.9422V45.9422C125.089 45.9422 125.089 45.9422 125.089 45.9422V45.9422C125.089 45.9422 125.089 45.9422 125.089 45.9422V45.9422C125.089 45.9422 125.089 45.9422 125.089 45.9422H126.384ZM126.384 45.9406C126.384 42.2384 125.089 38.181 123.026 34.6071C120.964 31.0332 118.098 27.882 114.892 26.0293L114.244 27.1504C117.207 28.8628 119.926 31.8252 121.905 35.2544C123.884 38.6837 125.089 42.5191 125.089 45.9406H126.384ZM114.25 26.0258L114.244 26.0292L114.892 27.1505L114.898 27.1472L114.25 26.0258ZM109.583 25.7078C110.945 25.7078 112.529 26.1537 114.25 27.1472L114.898 26.0258C113.031 24.9481 111.225 24.4128 109.583 24.4129L109.583 25.7078ZM109.584 24.4129C108.393 24.4109 107.293 24.6909 106.336 25.2436L106.984 26.3649C107.727 25.9359 108.599 25.7062 109.582 25.7078L109.584 24.4129ZM106.336 25.2436C106.256 25.29 106.177 25.3384 106.098 25.3886L106.798 26.4783C106.859 26.4391 106.921 26.4012 106.984 26.3649L106.336 25.2436ZM101.39 29.6013L106.772 26.4942L106.124 25.3728L100.743 28.4799L101.39 29.6013ZM104.406 27.6622C103.056 27.5873 101.811 27.8634 100.743 28.4798L101.39 29.6014C102.218 29.1235 103.208 28.8926 104.334 28.9551L104.406 27.6622ZM103.792 28.0173C103.106 29.3785 102.741 31.0731 102.741 33.0379H104.036C104.036 31.2278 104.373 29.7422 104.948 28.5999L103.792 28.0173ZM102.741 33.0379V33.0387H104.036V33.0379H102.741ZM103.064 32.478L97.4604 35.7135L98.1078 36.8349L103.712 33.5994L103.064 32.478ZM97.1367 36.2742C97.1367 41.7411 99.9604 48.007 103.972 52.3685L104.925 51.492C101.086 47.3182 98.4316 41.3529 98.4316 36.2742H97.1367ZM104.442 51.2828C102.229 51.3043 100.2 51.8376 98.4376 52.8549L99.0849 53.9764C100.639 53.0795 102.446 52.5971 104.454 52.5777L104.442 51.2828ZM98.4376 52.8549C98.3841 52.8857 98.3309 52.917 98.2779 52.9488L98.9435 54.0595C98.9904 54.0314 99.0375 54.0037 99.0849 53.9764L98.4376 52.8549ZM98.287 52.9434L92.8313 56.0933L93.4787 57.2147L98.9344 54.0648L98.287 52.9434ZM93.4786 57.2148C93.5604 57.1676 93.6428 57.1216 93.7259 57.0767L93.1108 55.9372C93.0169 55.9879 92.9237 56.0399 92.8314 56.0932L93.4786 57.2148ZM93.0946 55.9463L92.8423 56.0919L93.4898 57.2133L93.742 57.0677L93.0946 55.9463ZM92.8424 56.0919C88.5264 58.5828 85.9716 63.8582 85.9714 71.121L87.2663 71.121C87.2665 64.1307 89.7157 59.3915 93.4897 57.2134L92.8424 56.0919ZM85.9714 71.121V71.1216H87.2663V71.121H85.9714ZM86.941 71.6832L86.9416 71.6829L86.2973 70.5597L86.2967 70.56L86.941 71.6832ZM86.2957 71.682L130.974 97.4769L131.621 96.3555L86.9431 70.5606L86.2957 71.682ZM130.65 96.9164L130.65 96.9285L131.945 96.9281L131.945 96.916L130.65 96.9164ZM131.621 97.4891L131.631 97.483L130.984 96.3615L130.974 96.3675L131.621 97.4891ZM130.984 97.4831L130.992 97.4874L131.639 96.3657L131.631 96.3614L130.984 97.4831ZM131.639 97.4873L137.246 94.2501L136.599 93.1286L130.992 96.3659L131.639 97.4873ZM137.246 93.1286L137.234 93.1218L136.587 94.2432L136.599 94.2501L137.246 93.1286ZM137.558 93.6823C137.556 86.8666 135.315 79.4016 131.667 72.6653C128.018 65.9279 122.936 59.8705 117.2 55.8909L116.462 56.9549C122.001 60.7974 126.957 66.6867 130.528 73.282C134.101 79.8784 136.261 87.1321 136.263 93.6826L137.558 93.6823ZM117.152 56.985C117.16 56.9807 117.167 56.9763 117.175 56.9719L116.527 55.8505C116.522 55.8539 116.516 55.8573 116.51 55.8608L117.152 56.985ZM117.175 56.9719L117.372 56.8582L116.724 55.7368L116.528 55.8505L117.175 56.9719ZM116.701 55.7508C116.647 55.7855 116.591 55.819 116.535 55.8514L117.183 56.9727C117.255 56.9313 117.325 56.8885 117.395 56.8442L116.701 55.7508ZM117.183 56.9727L122.79 53.7355L122.142 52.6141L116.535 55.8513L117.183 56.9727ZM122.79 53.7355C125.082 52.4114 126.386 49.6399 126.386 45.9412H125.091C125.091 49.3675 123.893 51.6029 122.142 52.6141L122.79 53.7355ZM125.415 45.3804L125.413 45.3814L126.06 46.503L126.062 46.5019L125.415 45.3804Z" fill="black" mask="url(#path-25-inside-3_2521_39977)"/>
<mask id="path-27-inside-4_2521_39977" fill="white">
<path fill-rule="evenodd" clip-rule="evenodd" d="M108.983 55.629C115.154 59.192 120.157 56.3036 120.157 49.1776C120.157 42.0516 115.154 33.3865 108.983 29.8235C102.812 26.2605 97.809 29.1489 97.809 36.2749C97.809 43.4009 102.812 52.066 108.983 55.629ZM86.644 71.1202C86.644 56.8682 96.6497 51.0915 108.992 58.2175C121.335 65.3435 131.341 82.6738 131.341 96.9258L86.644 71.1202Z"/>
</mask>
<path fill-rule="evenodd" clip-rule="evenodd" d="M108.983 55.629C115.154 59.192 120.157 56.3036 120.157 49.1776C120.157 42.0516 115.154 33.3865 108.983 29.8235C102.812 26.2605 97.809 29.1489 97.809 36.2749C97.809 43.4009 102.812 52.066 108.983 55.629ZM86.644 71.1202C86.644 56.8682 96.6497 51.0915 108.992 58.2175C121.335 65.3435 131.341 82.6738 131.341 96.9258L86.644 71.1202Z" fill="#99FFF2"/>
<path d="M108.983 55.629L108.983 54.9816L108.983 55.629ZM108.983 29.8235L108.983 30.4709L108.983 29.8235ZM108.992 58.2175L108.992 57.57L108.992 58.2175ZM86.644 71.1202L86.0833 70.7965L86.0833 71.444L86.644 71.7677L86.644 71.1202ZM131.341 96.9258L131.341 97.5732L131.901 97.8969L131.901 97.2495L131.341 96.9258ZM119.597 48.8539C119.597 55.6223 114.845 58.3658 108.983 54.9816L108.983 56.2765C115.464 60.0183 120.718 56.9849 120.718 49.5014L119.597 48.8539ZM108.983 30.4709C114.845 33.8551 119.597 42.0855 119.597 48.8539L120.718 49.5014C120.718 42.0178 115.464 32.9178 108.983 29.176L108.983 30.4709ZM98.3698 36.5986C98.3698 29.8302 103.122 27.0867 108.983 30.4709L108.983 29.176C102.502 25.4342 97.2483 28.4676 97.2483 35.9511L98.3698 36.5986ZM108.983 54.9816C103.122 51.5974 98.3698 43.367 98.3698 36.5986L97.2483 35.9511C97.2483 43.4347 102.502 52.5347 108.983 56.2765L108.983 54.9816ZM108.992 57.57C96.34 50.2652 86.0833 56.1869 86.0833 70.7965L87.2047 71.444C87.2047 57.5495 96.9594 51.9177 108.992 58.8649L108.992 57.57ZM131.901 97.2495C131.901 82.6399 121.645 64.8748 108.992 57.57L108.992 58.8649C121.025 65.8121 130.78 82.7076 130.78 96.6021L131.901 97.2495ZM86.644 71.7677L131.341 97.5732L131.341 96.2783L86.644 70.4728L86.644 71.7677Z" fill="black" mask="url(#path-27-inside-4_2521_39977)"/>
<path d="M191.135 193.638C191.135 194.201 190.976 194.765 190.698 195.328C189.984 196.751 188.357 198.086 185.778 199.183C178.716 202.237 167.17 202.237 160.068 199.183C157.529 198.086 155.903 196.751 155.149 195.328C154.911 194.765 154.752 194.201 154.752 193.638C154.752 191.621 156.537 189.634 160.068 188.092C167.17 185.008 178.716 185.008 185.818 188.092C189.349 189.605 191.135 191.621 191.135 193.638Z" fill="black"/>
<path d="M192.103 185.552C192.103 186.252 191.955 186.952 191.697 187.653C191.034 189.422 189.523 191.081 187.127 192.444C180.566 196.241 169.84 196.241 163.242 192.444C160.883 191.081 159.372 189.422 158.671 187.653C158.45 186.952 158.303 186.252 158.303 185.552C158.303 183.045 159.961 180.576 163.242 178.659C169.84 174.825 180.566 174.825 187.164 178.659C190.444 180.539 192.103 183.045 192.103 185.552Z" fill="url(#paint0_linear_2521_39977)" stroke="#080809" stroke-width="0.713385" stroke-miterlimit="10" stroke-linecap="round" stroke-linejoin="round"/>
<path d="M188.682 185.566C188.682 186.082 188.572 186.598 188.351 187.114C187.835 188.404 186.618 189.657 184.738 190.653C179.467 193.454 170.953 193.454 165.682 190.653C163.802 189.657 162.586 188.404 162.07 187.114C161.849 186.598 161.738 186.082 161.738 185.566C161.738 183.723 163.065 181.88 165.682 180.479C170.953 177.678 179.467 177.678 184.738 180.479C187.355 181.88 188.682 183.723 188.682 185.566Z" fill="#FFED6E" stroke="black" stroke-width="0.945946" stroke-miterlimit="10" stroke-linecap="round" stroke-linejoin="round"/>
<path d="M192.08 190.863V185.556C192.08 186.256 191.933 186.956 191.712 187.657C191.011 189.426 189.5 191.085 187.141 192.448C185.264 193.529 183.055 194.301 180.704 194.767V200.073C183.057 199.608 185.266 198.835 187.141 197.756C190.422 195.839 192.08 193.37 192.08 190.863Z" fill="black"/>
<path d="M158.303 190.863C158.303 193.333 159.961 195.839 163.242 197.756C169.229 201.201 178.616 201.52 185.233 198.712V193.405C178.622 196.212 169.266 195.893 163.279 192.448C160.883 191.085 159.372 189.426 158.708 187.657C158.45 186.956 158.303 186.256 158.303 185.556V190.863Z" fill="#F5BC41"/>
<path d="M158.303 190.863C158.303 193.333 159.961 195.839 163.242 197.756L163.279 192.448C160.883 191.085 159.372 189.426 158.708 187.657C158.45 186.956 158.303 186.256 158.303 185.556V190.863Z" fill="white"/>
<path d="M165.354 193.357V199.061M170.627 194.899V200.604M175.447 194.899V200.604M180.628 194.744V199.983M185.313 193.357V198.643M160.988 190.802L160.988 196.507M189.151 190.802V196.507" stroke="black" stroke-width="0.945946" stroke-miterlimit="10" stroke-linecap="round" stroke-linejoin="round"/>
<path d="M192.103 185.556V190.863C192.103 193.37 190.444 195.839 187.164 197.756C180.566 201.553 169.84 201.553 163.242 197.756C159.961 195.839 158.303 193.333 158.303 190.863V185.556C158.303 186.256 158.45 186.956 158.708 187.657C159.372 189.426 160.883 191.085 163.279 192.448C169.877 196.245 180.566 196.245 187.164 192.448C189.523 191.085 191.034 189.426 191.734 187.657C191.955 186.956 192.103 186.256 192.103 185.556Z" stroke="black" stroke-width="0.945946" stroke-miterlimit="10" stroke-linecap="round" stroke-linejoin="round"/>
<path d="M179.564 184.757L178.008 184.433C178.153 184.205 178.22 183.984 178.21 183.77C178.203 183.552 178.12 183.354 177.961 183.177C177.809 182.998 177.587 182.85 177.296 182.734C177.017 182.623 176.728 182.557 176.427 182.539C176.131 182.522 175.853 182.549 175.593 182.62C175.341 182.689 175.139 182.799 174.988 182.95C174.821 183.117 174.772 183.296 174.84 183.488C174.911 183.677 175.111 183.891 175.438 184.13L179.564 184.757ZM179.564 184.757C179.559 184.767 179.554 184.776 179.548 184.786L180.061 184.861L180.314 184.503L180.251 184.49C180.401 184.145 180.466 183.817 180.448 183.508C180.43 183.089 180.26 182.712 179.938 182.378L179.564 184.757ZM169.245 189.078L168.911 189.413L169.354 189.576L171.115 190.226L171.559 190.39L171.894 190.055L172.493 189.455C172.796 189.5 173.103 189.525 173.414 189.53C174.222 189.542 175 189.425 175.734 189.167C176.478 188.906 177.099 188.519 177.596 188.022C178.157 187.461 178.434 186.897 178.353 186.353C178.278 185.823 177.856 185.308 177.179 184.807L177.178 184.806L175.88 183.852L175.879 183.852C175.571 183.627 175.427 183.455 175.381 183.337C175.345 183.233 175.377 183.169 175.432 183.114C175.5 183.045 175.586 182.996 175.714 182.961C175.871 182.918 176.055 182.897 176.276 182.91C176.495 182.924 176.72 182.972 176.948 183.063L176.949 183.064C177.184 183.158 177.352 183.272 177.464 183.405L177.464 183.405L177.47 183.411C177.589 183.544 177.649 183.688 177.654 183.848L177.654 183.848L177.655 183.851C177.662 184.006 177.614 184.17 177.502 184.345L177.282 184.692L177.755 184.79L179.809 185.219L180.344 185.33L180.574 184.936C180.883 184.408 181.031 183.903 181.003 183.425C180.982 182.947 180.787 182.516 180.423 182.138C180.327 182.036 180.219 181.94 180.101 181.847L180.738 181.211L181.072 180.877L180.629 180.713L178.867 180.063L178.424 179.899L178.089 180.234L177.499 180.824C177.223 180.782 176.943 180.758 176.661 180.752C175.909 180.735 175.181 180.848 174.489 181.098L174.489 181.098L174.486 181.099C173.792 181.354 173.208 181.73 172.729 182.209C172.213 182.725 171.95 183.251 171.988 183.772C172.025 184.287 172.353 184.759 172.908 185.19L174.682 186.568C174.88 186.725 174.948 186.843 174.96 186.92L174.96 186.92L174.962 186.93C174.974 186.989 174.957 187.053 174.864 187.146C174.745 187.265 174.564 187.357 174.213 187.393L174.213 187.393L174.209 187.393C173.86 187.431 173.479 187.39 173.061 187.235C172.635 187.078 172.378 186.859 172.261 186.579C172.148 186.3 172.188 185.995 172.404 185.648L172.613 185.311L172.159 185.208L170.209 184.765L169.722 184.655L169.458 185.008C169.048 185.555 168.83 186.096 168.821 186.624L168.821 186.626C168.816 187.149 169.008 187.625 169.39 188.051L169.392 188.053C169.526 188.2 169.682 188.338 169.858 188.466L169.245 189.078Z" fill="#FFF1C1" stroke="black" stroke-width="0.945946"/>
<path d="M192.103 180.128C192.103 180.828 191.955 181.529 191.697 182.229C191.034 183.998 189.523 185.657 187.127 187.021C180.566 190.817 169.84 190.817 163.242 187.021C160.883 185.657 159.372 183.998 158.671 182.229C158.45 181.529 158.303 180.828 158.303 180.128C158.303 177.622 159.961 175.152 163.242 173.235C169.84 169.402 180.566 169.402 187.164 173.235C190.444 175.115 192.103 177.622 192.103 180.128Z" fill="#FFF1C1" stroke="#080809" stroke-width="0.713385" stroke-miterlimit="10" stroke-linecap="round" stroke-linejoin="round"/>
<path d="M188.682 180.139C188.682 180.655 188.572 181.171 188.351 181.687C187.835 182.977 186.618 184.23 184.738 185.225C179.467 188.027 170.953 188.027 165.682 185.225C163.802 184.23 162.586 182.977 162.07 181.687C161.849 181.171 161.738 180.655 161.738 180.139C161.738 178.296 163.065 176.453 165.682 175.052C170.953 172.251 179.467 172.251 184.738 175.052C187.355 176.453 188.682 178.296 188.682 180.139Z" fill="white" stroke="black" stroke-width="0.945946" stroke-miterlimit="10" stroke-linecap="round" stroke-linejoin="round"/>
<path d="M192.08 185.436V180.128C192.08 180.829 191.933 181.529 191.712 182.229C191.011 183.999 189.5 185.657 187.141 187.021C185.264 188.101 183.055 188.874 180.704 189.34V194.646C183.057 194.18 185.266 193.408 187.141 192.329C190.422 190.412 192.08 187.943 192.08 185.436Z" fill="black"/>
<path d="M158.303 185.436C158.303 187.906 159.961 190.412 163.242 192.329C169.229 195.774 178.616 196.093 185.233 193.285V187.978C178.622 190.785 169.266 190.466 163.279 187.021C160.883 185.657 159.372 183.999 158.708 182.229C158.45 181.529 158.303 180.829 158.303 180.128V185.436Z" fill="#F5BC41"/>
<path d="M158.303 185.436C158.303 187.906 159.961 190.412 163.242 192.329L163.279 187.021C160.883 185.657 159.372 183.999 158.708 182.229C158.45 181.529 158.303 180.829 158.303 180.128V185.436Z" fill="white"/>
<path d="M165.354 188.241V193.634M170.627 189.685V195.177M175.447 189.91V195.177M180.628 189.685V194.556M185.313 187.929V193.215M160.988 185.574V191.08M189.151 185.375V191.08" stroke="black" stroke-width="0.945946" stroke-miterlimit="10" stroke-linecap="round" stroke-linejoin="round"/>
<path d="M192.103 180.128V185.436C192.103 187.943 190.444 190.412 187.164 192.329C180.566 196.125 169.84 196.125 163.242 192.329C159.961 190.412 158.303 187.906 158.303 185.436V180.128C158.303 180.829 158.45 181.529 158.708 182.229C159.372 183.999 160.883 185.657 163.279 187.021C169.877 190.818 180.566 190.818 187.164 187.021C189.523 185.657 191.034 183.999 191.734 182.229C191.955 181.529 192.103 180.829 192.103 180.128Z" stroke="black" stroke-width="0.945946" stroke-miterlimit="10" stroke-linecap="round" stroke-linejoin="round"/>
<path d="M199.695 172.532C199.695 173.232 199.548 173.933 199.29 174.633C198.626 176.402 197.115 178.061 194.719 179.425C188.158 183.221 177.432 183.221 170.834 179.425C168.475 178.061 166.964 176.402 166.264 174.633C166.042 173.933 165.895 173.232 165.895 172.532C165.895 170.026 167.554 167.556 170.834 165.639C177.432 161.806 188.158 161.806 194.756 165.639C198.036 167.519 199.695 170.026 199.695 172.532Z" fill="#FFF1C1" stroke="#080809" stroke-width="0.713385" stroke-miterlimit="10" stroke-linecap="round" stroke-linejoin="round"/>
<path d="M196.275 172.543C196.275 173.059 196.164 173.575 195.943 174.091C195.427 175.381 194.21 176.634 192.331 177.629C187.06 180.431 178.545 180.431 173.274 177.629C171.394 176.634 170.178 175.381 169.662 174.091C169.441 173.575 169.33 173.059 169.33 172.543C169.33 170.7 170.657 168.857 173.274 167.456C178.545 164.655 187.06 164.655 192.331 167.456C194.948 168.857 196.275 170.7 196.275 172.543Z" fill="white" stroke="black" stroke-width="0.945946" stroke-miterlimit="10" stroke-linecap="round" stroke-linejoin="round"/>
<path d="M199.701 177.84V172.533C199.701 173.233 199.554 173.933 199.333 174.634C198.632 176.403 197.121 178.061 194.762 179.425C192.885 180.505 190.677 181.278 188.325 181.744V187.05C190.678 186.584 192.887 185.812 194.762 184.733C198.043 182.816 199.701 180.347 199.701 177.84Z" fill="black"/>
<path d="M165.895 177.84C165.895 180.31 167.554 182.816 170.834 184.733C176.822 188.178 186.209 188.497 192.825 185.689V180.382C186.214 183.189 176.858 182.87 170.871 179.425C168.475 178.061 166.964 176.403 166.3 174.634C166.042 173.933 165.895 173.233 165.895 172.533V177.84Z" fill="#F5BC41"/>
<path d="M165.895 177.84C165.895 180.31 167.554 182.816 170.834 184.733L170.871 179.425C168.475 178.061 166.964 176.403 166.3 174.634C166.042 173.933 165.895 173.233 165.895 172.533V177.84Z" fill="white"/>
<path d="M172.947 180.644V185.567M178.22 182.089V186.965M183.04 182.313V187.436M188.22 182.089V186.96M192.905 180.333V185.619M168.58 177.978V183.04M196.744 178.265V183.484" stroke="black" stroke-width="0.945946" stroke-miterlimit="10" stroke-linecap="round" stroke-linejoin="round"/>
<path d="M199.695 172.533V177.84C199.695 180.347 198.036 182.816 194.756 184.733C188.158 188.53 177.432 188.53 170.834 184.733C167.554 182.816 165.895 180.31 165.895 177.84V172.533C165.895 173.233 166.042 173.933 166.3 174.634C166.964 176.403 168.475 178.061 170.871 179.425C177.469 183.222 188.158 183.222 194.756 179.425C197.115 178.061 198.626 176.403 199.327 174.634C199.548 173.933 199.695 173.233 199.695 172.533Z" stroke="black" stroke-width="0.945946" stroke-miterlimit="10" stroke-linecap="round" stroke-linejoin="round"/>
<path d="M186.81 172.16L185.254 171.835C185.398 171.608 185.466 171.387 185.456 171.172C185.449 170.955 185.366 170.757 185.206 170.58C185.055 170.401 184.833 170.253 184.541 170.137C184.263 170.025 183.974 169.96 183.673 169.942C183.377 169.925 183.099 169.952 182.839 170.022C182.586 170.092 182.385 170.202 182.234 170.353C182.067 170.519 182.018 170.699 182.086 170.891C182.157 171.08 182.356 171.294 182.684 171.533L186.81 172.16ZM186.81 172.16C186.805 172.17 186.799 172.179 186.794 172.188L187.307 172.264L187.559 171.906L187.497 171.893C187.647 171.547 187.712 171.22 187.694 170.911C187.676 170.492 187.506 170.115 187.184 169.781L186.81 172.16ZM176.491 176.481L176.156 176.815L176.6 176.979L178.361 177.629L178.805 177.792L179.139 177.458L179.739 176.858C180.042 176.903 180.349 176.928 180.66 176.933C181.468 176.945 182.246 176.828 182.98 176.57C183.724 176.309 184.345 175.922 184.842 175.425C185.403 174.863 185.68 174.3 185.599 173.756C185.524 173.225 185.102 172.711 184.425 172.209L184.424 172.208L183.126 171.255L183.125 171.255C182.817 171.029 182.673 170.858 182.627 170.74C182.591 170.635 182.622 170.572 182.678 170.516C182.746 170.448 182.832 170.399 182.96 170.364C183.117 170.321 183.301 170.3 183.521 170.313C183.741 170.326 183.965 170.375 184.194 170.466L184.194 170.466C184.43 170.56 184.598 170.675 184.71 170.807L184.71 170.807L184.716 170.813C184.835 170.947 184.895 171.091 184.9 171.25L184.9 171.25L184.9 171.254C184.908 171.409 184.86 171.572 184.748 171.748L184.527 172.094L185.001 172.193L187.055 172.621L187.589 172.733L187.82 172.339C188.129 171.811 188.277 171.305 188.249 170.828C188.228 170.35 188.033 169.919 187.669 169.541C187.573 169.439 187.465 169.342 187.347 169.25L187.984 168.614L188.318 168.279L187.874 168.116L186.113 167.466L185.67 167.302L185.335 167.637L184.745 168.227C184.468 168.185 184.189 168.16 183.907 168.155C183.155 168.138 182.426 168.251 181.735 168.501L181.735 168.501L181.731 168.502C181.038 168.756 180.453 169.133 179.975 169.611C179.458 170.128 179.196 170.654 179.234 171.175C179.271 171.69 179.599 172.161 180.154 172.592L181.928 173.971C182.126 174.128 182.194 174.246 182.206 174.323L182.206 174.323L182.208 174.333C182.22 174.391 182.203 174.456 182.11 174.549C181.991 174.668 181.81 174.76 181.458 174.796L181.458 174.796L181.455 174.796C181.106 174.833 180.725 174.792 180.306 174.638C179.88 174.481 179.624 174.262 179.507 173.982C179.394 173.702 179.434 173.397 179.649 173.05L179.858 172.714L179.405 172.611L177.455 172.168L176.968 172.058L176.704 172.411C176.293 172.958 176.076 173.499 176.067 174.027L176.067 174.029C176.062 174.551 176.254 175.028 176.636 175.454L176.638 175.456C176.772 175.603 176.927 175.74 177.103 175.868L176.491 176.481Z" fill="#FFF1C1" stroke="black" stroke-width="0.945946"/>
<defs>
<linearGradient id="paint0_linear_2521_39977" x1="160.443" y1="191.478" x2="187.195" y2="178.281" gradientUnits="userSpaceOnUse">
<stop stop-color="#FFED6E"/>
<stop offset="1" stop-color="#FFED6E"/>
</linearGradient>
</defs>
</svg>
